<?xml version="1.0" encoding="UTF-8" standalone="no"?>
<svg
   xmlns:dc="http://purl.org/dc/elements/1.1/"
   xmlns:cc="http://creativecommons.org/ns#"
   xmlns:rdf="http://www.w3.org/1999/02/22-rdf-syntax-ns#"
   xmlns:svg="http://www.w3.org/2000/svg"
   xmlns="http://www.w3.org/2000/svg"
   xmlns:xlink="http://www.w3.org/1999/xlink"
   xmlns:sodipodi="http://sodipodi.sourceforge.net/DTD/sodipodi-0.dtd"
   xmlns:inkscape="http://www.inkscape.org/namespaces/inkscape"
   viewBox="0 0 354.33069 177.16537"
   height="50mm"
   width="100mm"
   xml:space="preserve"
   version="1.1"
   id="svg2"
   inkscape:version="0.92.1 r15371"
   sodipodi:docname="m25t_twist_slat_open_position.svg"><sodipodi:namedview
     pagecolor="#ffffff"
     bordercolor="#666666"
     borderopacity="1"
     objecttolerance="10"
     gridtolerance="10"
     guidetolerance="10"
     inkscape:pageopacity="0"
     inkscape:pageshadow="2"
     inkscape:window-width="1920"
     inkscape:window-height="1017"
     id="namedview3215"
     showgrid="false"
     inkscape:zoom="3.7253333"
     inkscape:cx="188.97638"
     inkscape:cy="94.488189"
     inkscape:window-x="-8"
     inkscape:window-y="-8"
     inkscape:window-maximized="1"
     inkscape:current-layer="svg2"
     inkscape:showpageshadow="false"
     showborder="true"
     borderlayer="true" /><metadata
     id="metadata8"><rdf:RDF><cc:Work
         rdf:about=""><dc:format>image/svg+xml</dc:format><dc:type
           rdf:resource="http://purl.org/dc/dcmitype/StillImage" /><dc:title /></cc:Work></rdf:RDF></metadata><defs
     id="defs6"><clipPath
       id="clipPath16"
       clipPathUnits="userSpaceOnUse"><path
         id="path18"
         d="m 0,400 399.686,0 0,-400 L 0,0 0,400 Z"
         inkscape:connector-curvature="0" /></clipPath><clipPath
       id="clipPath24"
       clipPathUnits="userSpaceOnUse"><path
         id="path26"
         d="m -7.74023,403.219 626.91323,0 0,-416.3655 -626.91323,0 0,416.3655 z"
         inkscape:connector-curvature="0" /></clipPath><clipPath
       id="clipPath2612"
       clipPathUnits="userSpaceOnUse"><path
         id="path2614"
         d="m 152.713,174 246.973,0 0,226 -246.973,0 0,-226 z"
         inkscape:connector-curvature="0" /></clipPath><clipPath
       id="clipPath6476"
       clipPathUnits="userSpaceOnUse"><path
         id="path6478"
         d="m 0,400 399.686,0 0,-400 L 0,0 0,400 Z"
         inkscape:connector-curvature="0" /></clipPath><clipPath
       id="clipPath6488"
       clipPathUnits="userSpaceOnUse"><path
         id="path6490"
         d="m 100.553,254.707 c -6.105,0 -11.054,-4.95 -11.054,-11.055 l 0,0 0,-51.591 c 0,-6.106 4.949,-11.056 11.054,-11.056 l 0,0 51.59,0 c 6.106,0 11.055,4.95 11.055,11.056 l 0,0 0,51.591 c 0,6.105 -4.949,11.055 -11.055,11.055 l 0,0 -51.59,0 z"
         inkscape:connector-curvature="0" /></clipPath><clipPath
       id="clipPath10284"
       clipPathUnits="userSpaceOnUse"><path
         id="path10286"
         d="m 0,400 399.686,0 0,-400 L 0,0 0,400 Z"
         inkscape:connector-curvature="0" /></clipPath><clipPath
       id="clipPath10364"
       clipPathUnits="userSpaceOnUse"><path
         id="path10366"
         d="m 108.37,191.577 26.796,0 0,-22.827 -26.796,0 0,22.827 z"
         inkscape:connector-curvature="0" /></clipPath><clipPath
       id="clipPath4764"
       clipPathUnits="userSpaceOnUse"><path
         id="path4766-6"
         d="m 133.042,338.09 224.153,0 0,133.229 -224.153,0 0,-133.229 z"
         inkscape:connector-curvature="0" /></clipPath><clipPath
       id="clipPath4764-5"
       clipPathUnits="userSpaceOnUse"><path
         id="path4766-6-8"
         d="m 133.042,338.09 224.153,0 0,133.229 -224.153,0 0,-133.229 z"
         inkscape:connector-curvature="0" /></clipPath><linearGradient
       inkscape:collect="always"
       id="linearGradient4347"><stop
         style="stop-color:#ff0000;stop-opacity:1;"
         offset="0"
         id="stop4349" /><stop
         style="stop-color:#ff0000;stop-opacity:0;"
         offset="1"
         id="stop4351" /></linearGradient><pattern
       y="0"
       x="0"
       height="6"
       width="6"
       patternUnits="userSpaceOnUse"
       id="EMFhbasepattern" /><pattern
       y="0"
       x="0"
       height="6"
       width="6"
       patternUnits="userSpaceOnUse"
       id="EMFhbasepattern-2" /><pattern
       y="0"
       x="0"
       height="6"
       width="6"
       patternUnits="userSpaceOnUse"
       id="EMFhbasepattern-0" /><pattern
       y="0"
       x="0"
       height="6"
       width="6"
       patternUnits="userSpaceOnUse"
       id="EMFhbasepattern-6" /><linearGradient
       inkscape:collect="always"
       xlink:href="#linearGradient4347"
       id="linearGradient4542"
       x1="0"
       y1="0"
       x2="5.6843419e-014"
       y2="-21.838778"
       gradientUnits="userSpaceOnUse" /></defs><g
     id="bottom_bar-2"
     transform="matrix(1.25,0,0,-1.25,-664.946,27.542325)"
     style="fill:#464646;fill-opacity:0;stroke:#464646;stroke-opacity:0.50196078"><path
       inkscape:connector-curvature="0"
       id="path6509-0-1"
       d="m 607.72445,-119.49908 -0.01,0.11133 c -2.64472,-0.13175 -5.27384,0.98577 -7.49414,3.125 -2.61933,2.52369 -4.6871,6.35805 -5.60352,10.91016 -0.91642,4.55211 -0.50943,8.96763 0.90039,12.43945 1.40983,3.47182 3.8334,6.00897 6.94532,6.74414 0.24306,0.0574 0.48678,0.0266 0.73046,0.0605 l -0.006,0.0723 3.20312,0.30469 0.0117,-0.125 c 2.57415,0.0604 5.12317,-1.05954 7.28516,-3.14258 2.61933,-2.52368 4.68709,-6.35609 5.60351,-10.9082 0.91642,-4.55211 0.50943,-8.96764 -0.90039,-12.43945 -1.40982,-3.47182 -3.8334,-6.01092 -6.94531,-6.7461 -0.20536,-0.0485 -0.41136,-0.0191 -0.61719,-0.0508 l 0.008,-0.10351 -3.11133,-0.25196 z"
       style="color:#000000;font-style:normal;font-variant:normal;font-weight:normal;font-stretch:normal;font-size:medium;line-height:normal;font-family:sans-serif;text-indent:0;text-align:start;text-decoration:none;text-decoration-line:none;text-decoration-style:solid;text-decoration-color:#000000;letter-spacing:normal;word-spacing:normal;text-transform:none;direction:ltr;block-progression:tb;writing-mode:lr-tb;baseline-shift:baseline;text-anchor:start;white-space:normal;clip-rule:nonzero;display:inline;overflow:visible;visibility:visible;opacity:1;isolation:auto;mix-blend-mode:normal;color-interpolation:sRGB;color-interpolation-filters:linearRGB;solid-color:#000000;solid-opacity:1;fill:#464646;fill-opacity:0;fill-rule:evenodd;stroke:#464646;stroke-width:0.40000001;stroke-linecap:butt;stroke-linejoin:miter;stroke-miterlimit:4;stroke-dasharray:none;stroke-dashoffset:0;stroke-opacity:0.50196078;color-rendering:auto;image-rendering:auto;shape-rendering:auto;text-rendering:auto;enable-background:accumulate" /><ellipse
       ry="16.682997"
       rx="11.290424"
       transform="matrix(0.97321055,0.2299157,0.19735825,-0.98033143,0,0)"
       cy="239.75388"
       cx="576.45837"
       id="path6379-9-74-5"
       style="fill:#464646;fill-opacity:0;stroke:#464646;stroke-width:0.40011114;stroke-linecap:round;stroke-miterlimit:4;stroke-dasharray:none;stroke-opacity:0.50196078" /><ellipse
       ry="11.491901"
       rx="7.6040134"
       transform="matrix(0.9583811,0.28549199,0.24153169,-0.97039293,0,0)"
       cy="272.54324"
       cx="569.08081"
       id="path6379-9-7-7-9"
       style="fill:#464646;fill-opacity:0;stroke:#464646;stroke-width:0.40020788;stroke-linecap:round;stroke-miterlimit:4;stroke-dasharray:none;stroke-opacity:0.50196078" /><ellipse
       ry="10.029888"
       rx="6.6299677"
       transform="matrix(0.9582899,0.28579794,0.24126655,-0.97045889,0,0)"
       cy="272.58511"
       cx="568.50275"
       id="path6379-9-7-6-7-5"
       style="fill:#464646;fill-opacity:0;stroke:#464646;stroke-width:0.40021336;stroke-linecap:round;stroke-miterlimit:4;stroke-dasharray:none;stroke-opacity:0.50196078" /><path
       sodipodi:nodetypes="caaaaaaaccccccsssacc"
       inkscape:connector-curvature="0"
       id="rect4555-9-7-6"
       d="m 603.86402,-97.563895 c 0.24177,0.37103 0.21492,0.75169 0.35199,1.11734 0.11868,0.31658 0.25978,0.62466 0.4063,0.92936 0.11114,0.23114 0.22382,0.46249 0.35824,0.68091 0.1158,0.18817 0.24982,0.36479 0.38459,0.53987 0.12916,0.16775 0.26104,0.33412 0.40584,0.48859 0.16013,0.17088 0.32933,0.33422 0.5103,0.48286 0.18145,0.14899 0.37414,0.28508 0.57429,0.40781 0.2967,0.18185 0.57931,0.29726 0.92481,0.48439 l 590.02322,319.557585 9.3124,-17.23441 -588.85481,-318.92481 -4.67346,-2.53116 c -4.44987,-1.26852 -5.77254,1.07108 -8.16561,3.93176 -0.10612,0.36656 -0.27382,0.6092 -0.42037,0.90124 -0.14647,0.2921 -0.27222,0.63337 -0.39375,0.89763 -0.24341,0.52829 -0.37167,1.0475 -0.52365,1.64407 -0.20289,0.79645 -0.22986,1.62798 -0.31556,2.4454 -0.0669,0.63814 -0.17054,1.27724 -0.15491,1.918715 0.0343,0.76107 0.12249,1.51321 0.25011,2.26292 z"
       style="fill:#464646;fill-opacity:0;stroke:#464646;stroke-width:0.4000001;stroke-linecap:round;stroke-miterlimit:4;stroke-dasharray:none;stroke-opacity:0.50196078" /></g><path
     style="fill:#464646;fill-opacity:0;fill-rule:evenodd;stroke:#464646;stroke-width:0.5;stroke-linecap:butt;stroke-linejoin:miter;stroke-miterlimit:4;stroke-dasharray:none;stroke-opacity:0.50196078"
     d="m 95.157875,166.89333 c 0,0 -3.641375,-2.51125 -3.641375,-6.8455 l 0,-8.73263 703.55538,-386.65275 0.16712,27.47688 C 556.68137,-78.7338 310.92587,54.288325 102.51212,167.09895 c -3.665245,1.98387 -7.354245,-0.20563 -7.354245,-0.20563 z"
     id="fabric_front-3"
     inkscape:connector-curvature="0"
     sodipodi:nodetypes="ccccccc" /><path
     style="fill:#464646;fill-opacity:0.03921569;fill-rule:evenodd;stroke:#000000;stroke-width:0.5;stroke-linecap:butt;stroke-linejoin:miter;stroke-miterlimit:4;stroke-dasharray:none;stroke-opacity:1"
     d="m 91.516375,151.31995 0,-10.35438 703.555125,-386.65287 0.16713,13.596 z"
     id="path17953-9-91"
     inkscape:connector-curvature="0"
     sodipodi:nodetypes="ccccc" /><path
     sodipodi:nodetypes="ccccccc"
     inkscape:connector-curvature="0"
     id="fabric_back-9-4"
     d="m 109.3894,137.08193 c 0,0 -3.64138,-2.51122 -3.64138,-6.84549 V -272.1132 l 703.55538,-386.65284 0.16712,421.09298 C 570.9129,-108.54619 325.1574,24.476881 116.74365,137.28749 c -3.66525,1.98392 -7.35425,-0.20556 -7.35425,-0.20556 z"
     style="fill:#464646;fill-opacity:0.19607843;fill-rule:evenodd;stroke:#000000;stroke-width:0.5;stroke-linecap:butt;stroke-linejoin:miter;stroke-miterlimit:4;stroke-dasharray:none;stroke-opacity:1" /><path
     sodipodi:nodetypes="ccccc"
     inkscape:connector-curvature="0"
     id="path17953-9-5-6-9"
     d="M 105.74802,85.644326 V 41.957024 l 703.55513,-386.652864 0.16712,46.92883 z"
     style="fill:#d1a7a3;fill-opacity:0.58823532;fill-rule:evenodd;stroke:#000000;stroke-width:0.5;stroke-linecap:butt;stroke-linejoin:miter;stroke-miterlimit:4;stroke-dasharray:none;stroke-opacity:1" /><g
     transform="matrix(1.25,0,0,-1.25,-664.94598,5.6166937)"
     id="bottom_bar-4-8"><path
       style="color:#000000;font-style:normal;font-variant:normal;font-weight:normal;font-stretch:normal;font-size:medium;line-height:normal;font-family:sans-serif;text-indent:0;text-align:start;text-decoration:none;text-decoration-line:none;text-decoration-style:solid;text-decoration-color:#000000;letter-spacing:normal;word-spacing:normal;text-transform:none;writing-mode:lr-tb;direction:ltr;baseline-shift:baseline;text-anchor:start;white-space:normal;clip-rule:nonzero;display:inline;overflow:visible;visibility:visible;opacity:1;isolation:auto;mix-blend-mode:normal;color-interpolation:sRGB;color-interpolation-filters:linearRGB;solid-color:#000000;solid-opacity:1;fill:#c8c8c8;fill-opacity:1;fill-rule:evenodd;stroke:#000000;stroke-width:0.40000001;stroke-linecap:butt;stroke-linejoin:miter;stroke-miterlimit:4;stroke-dasharray:none;stroke-dashoffset:0;stroke-opacity:1;color-rendering:auto;image-rendering:auto;shape-rendering:auto;text-rendering:auto;enable-background:accumulate"
       d="m 607.72445,-119.49908 -0.01,0.11133 c -2.64472,-0.13175 -5.27384,0.98577 -7.49414,3.125 -2.61933,2.52369 -4.6871,6.35805 -5.60352,10.91016 -0.91642,4.55211 -0.50943,8.96763 0.90039,12.43945 1.40983,3.47182 3.8334,6.00897 6.94532,6.74414 0.24306,0.0574 0.48678,0.0266 0.73046,0.0605 l -0.006,0.0723 3.20312,0.30469 0.0117,-0.125 c 2.57415,0.0604 5.12317,-1.05954 7.28516,-3.14258 2.61933,-2.52368 4.68709,-6.35609 5.60351,-10.9082 0.91642,-4.55211 0.50943,-8.96764 -0.90039,-12.43945 -1.40982,-3.47182 -3.8334,-6.01092 -6.94531,-6.7461 -0.20536,-0.0485 -0.41136,-0.0191 -0.61719,-0.0508 l 0.008,-0.10351 -3.11133,-0.25196 z"
       id="path6509-0-7-2"
       inkscape:connector-curvature="0" /><ellipse
       style="fill:#a0a0a0;fill-opacity:1;stroke:#000000;stroke-width:0.40011114;stroke-linecap:round;stroke-miterlimit:4;stroke-dasharray:none;stroke-opacity:1"
       id="path6379-9-74-6-4"
       cx="576.45837"
       cy="239.75388"
       transform="matrix(0.97321055,0.2299157,0.19735825,-0.98033143,0,0)"
       rx="11.290424"
       ry="16.682997" /><ellipse
       style="fill:none;fill-opacity:1;stroke:#000000;stroke-width:0.40020788;stroke-linecap:round;stroke-miterlimit:4;stroke-dasharray:none;stroke-opacity:1"
       id="path6379-9-7-7-6-9"
       cx="569.08081"
       cy="272.54324"
       transform="matrix(0.9583811,0.28549199,0.24153169,-0.97039293,0,0)"
       rx="7.6040134"
       ry="11.491901" /><ellipse
       style="fill:#c8c8c8;fill-opacity:1;stroke:#000000;stroke-width:0.40021336;stroke-linecap:round;stroke-miterlimit:4;stroke-dasharray:none;stroke-opacity:1"
       id="path6379-9-7-6-7-3-4"
       cx="568.50275"
       cy="272.58511"
       transform="matrix(0.9582899,0.28579794,0.24126655,-0.97045889,0,0)"
       rx="6.6299677"
       ry="10.029888" /><path
       style="fill:#c8c8c8;fill-opacity:1;stroke:#000000;stroke-width:0.4000001;stroke-linecap:round;stroke-miterlimit:4;stroke-dasharray:none;stroke-opacity:1"
       d="m 603.86402,-97.563895 c 0.24177,0.37103 0.21492,0.75169 0.35199,1.11734 0.11868,0.31658 0.25978,0.62466 0.4063,0.92936 0.11114,0.23114 0.22382,0.46249 0.35824,0.68091 0.1158,0.18817 0.24982,0.36479 0.38459,0.53987 0.12916,0.16775 0.26104,0.33412 0.40584,0.48859 0.16013,0.17088 0.32933,0.33422 0.5103,0.48286 0.18145,0.14899 0.37414,0.28508 0.57429,0.40781 0.2967,0.18185 0.57931,0.29726 0.92481,0.48439 l 590.02322,319.557585 9.3124,-17.23441 -588.85481,-318.92481 -4.67346,-2.53116 c -4.44987,-1.26852 -5.77254,1.07108 -8.16561,3.93176 -0.10612,0.36656 -0.27382,0.6092 -0.42037,0.90124 -0.14647,0.2921 -0.27222,0.63337 -0.39375,0.89763 -0.24341,0.52829 -0.37167,1.0475 -0.52365,1.64407 -0.20289,0.79645 -0.22986,1.62798 -0.31556,2.4454 -0.0669,0.63814 -0.17054,1.27724 -0.15491,1.918715 0.0343,0.76107 0.12249,1.51321 0.25011,2.26292 z"
       id="rect4555-9-7-0-2"
       inkscape:connector-curvature="0"
       sodipodi:nodetypes="caaaaaaaccccccsssacc" /></g><path
     sodipodi:nodetypes="ccccccc"
     inkscape:connector-curvature="0"
     id="fabric_front-0-4"
     d="m 95.157775,144.93256 c 0,0 -3.641375,-2.51122 -3.641375,-6.84548 v -402.3749 l 703.55537,-386.65284 0.16713,421.11917 c -238.55763,129.12688 -484.313,262.148998 -692.72688,374.95962 -3.66512,1.98391 -7.354245,-0.20557 -7.354245,-0.20557 z"
     style="fill:#464646;fill-opacity:0.19607843;fill-rule:evenodd;stroke:#000000;stroke-width:0.5;stroke-linecap:butt;stroke-linejoin:miter;stroke-miterlimit:4;stroke-dasharray:none;stroke-opacity:1" /><path
     sodipodi:nodetypes="ccccc"
     inkscape:connector-curvature="0"
     id="path17953-9-1-7"
     d="M 91.5164,85.648579 V 41.961276 l 703.55512,-386.652866 0.16713,46.92884 z"
     style="fill:#d1a7a3;fill-opacity:0.58823532;fill-rule:evenodd;stroke:#000000;stroke-width:0.5;stroke-linecap:butt;stroke-linejoin:miter;stroke-miterlimit:4;stroke-dasharray:none;stroke-opacity:1" /><path
     sodipodi:nodetypes="cccccssssc"
     inkscape:connector-curvature="0"
     id="path4500-4"
     d="m 99.3149,145.56289 c 3.83312,-0.3608 3.09825,-0.88573 7.92112,-3.27976 L 794.6679,-229.8689 794.5754,-253.70945 91.5164,129.39113 c 0,0 -0.07125,6.41279 0.05625,9.78015 0.0125,0.21883 0.055,0.60149 0.67625,1.4508 1.08775,1.48784 2.13325,2.87833 3.73975,3.98942 0.638375,0.44149 0.270375,0.22199 1.51475,0.68623 0.6735,0.25129 1.81175,0.26516 1.81175,0.26516 z"
     style="color:#000000;font-style:normal;font-variant:normal;font-weight:normal;font-stretch:normal;font-size:medium;line-height:normal;font-family:sans-serif;text-indent:0;text-align:start;text-decoration:none;text-decoration-line:none;text-decoration-style:solid;text-decoration-color:#000000;letter-spacing:normal;word-spacing:normal;text-transform:none;writing-mode:lr-tb;direction:ltr;baseline-shift:baseline;text-anchor:start;white-space:normal;clip-rule:nonzero;display:inline;overflow:visible;visibility:visible;opacity:1;isolation:auto;mix-blend-mode:normal;color-interpolation:sRGB;color-interpolation-filters:linearRGB;solid-color:#000000;solid-opacity:1;fill:#d1a7a3;fill-opacity:0.58823532;fill-rule:evenodd;stroke:#000000;stroke-width:0.5;stroke-linecap:butt;stroke-linejoin:miter;stroke-miterlimit:4;stroke-dasharray:none;stroke-dashoffset:0;stroke-opacity:1;color-rendering:auto;image-rendering:auto;shape-rendering:auto;text-rendering:auto;enable-background:accumulate" /><g
     id="g4364"
     transform="matrix(1.25,0,0,-1.25,-673.62696,73.400602)"><g
       style="fill:url(#linearGradient4542);fill-opacity:1;stroke:#464646;stroke-width:0.20766208;stroke-miterlimit:4;stroke-dasharray:none;stroke-opacity:1"
       transform="matrix(0,-1.9262065,-1.9262063,0,659.14027,-48.939642)"
       id="g10376"><path
         id="path10378"
         style="fill:url(#linearGradient4542);fill-opacity:1;fill-rule:nonzero;stroke:#464646;stroke-width:0.20766208;stroke-miterlimit:4;stroke-dasharray:none;stroke-opacity:1"
         d="M 0,0 7.468,-2.6 3.104,-5.027 2.979,-20.211 -3.451,-23.786 -3.323,-8.601 -7.687,-11.027 0,0 Z"
         inkscape:connector-curvature="0" /></g><text
       transform="scale(0.99696782,-1.0030414)"
       xml:space="preserve"
       style="font-style:normal;font-variant:normal;font-weight:normal;font-stretch:normal;font-size:19.57469749px;line-height:0%;font-family:sans-serif;-inkscape-font-specification:'sans-serif, Normal';text-align:start;letter-spacing:0px;word-spacing:0px;writing-mode:lr-tb;text-anchor:start;fill:#666666;fill-opacity:1;stroke:none;stroke-width:1px;stroke-linecap:butt;stroke-linejoin:miter;stroke-opacity:1"
       x="711.7829"
       y="55.700264"
       id="text4932"><tspan
         id="tspan4934"
         x="711.7829"
         y="55.700264"
         style="font-style:normal;font-variant:normal;font-weight:normal;font-stretch:normal;font-family:Roboto;-inkscape-font-specification:Roboto">SLAT OPEN</tspan></text>
</g></svg>