<?xml version="1.0" encoding="UTF-8" standalone="no"?>
<svg
   xmlns:dc="http://purl.org/dc/elements/1.1/"
   xmlns:cc="http://creativecommons.org/ns#"
   xmlns:rdf="http://www.w3.org/1999/02/22-rdf-syntax-ns#"
   xmlns:svg="http://www.w3.org/2000/svg"
   xmlns="http://www.w3.org/2000/svg"
   xmlns:xlink="http://www.w3.org/1999/xlink"
   xmlns:sodipodi="http://sodipodi.sourceforge.net/DTD/sodipodi-0.dtd"
   xmlns:inkscape="http://www.inkscape.org/namespaces/inkscape"
   viewBox="0 0 354.33069 177.16537"
   height="50mm"
   width="100mm"
   xml:space="preserve"
   version="1.1"
   id="svg2"
   inkscape:version="0.92.1 r15371"
   sodipodi:docname="m25t_twist_bottom_limit.svg"><sodipodi:namedview
     pagecolor="#ffffff"
     bordercolor="#666666"
     borderopacity="1"
     objecttolerance="10"
     gridtolerance="10"
     guidetolerance="10"
     inkscape:pageopacity="0"
     inkscape:pageshadow="2"
     inkscape:window-width="1920"
     inkscape:window-height="1017"
     id="namedview3215"
     showgrid="false"
     inkscape:zoom="3.7253333"
     inkscape:cx="188.97638"
     inkscape:cy="94.488189"
     inkscape:window-x="-8"
     inkscape:window-y="-8"
     inkscape:window-maximized="1"
     inkscape:current-layer="svg2"
     inkscape:showpageshadow="false"
     showborder="true"
     borderlayer="true" /><metadata
     id="metadata8"><rdf:RDF><cc:Work
         rdf:about=""><dc:format>image/svg+xml</dc:format><dc:type
           rdf:resource="http://purl.org/dc/dcmitype/StillImage" /><dc:title /></cc:Work></rdf:RDF></metadata><defs
     id="defs6"><clipPath
       id="clipPath16"
       clipPathUnits="userSpaceOnUse"><path
         id="path18"
         d="m 0,400 399.686,0 0,-400 L 0,0 0,400 Z"
         inkscape:connector-curvature="0" /></clipPath><clipPath
       id="clipPath24"
       clipPathUnits="userSpaceOnUse"><path
         id="path26"
         d="m -7.74023,403.219 626.91323,0 0,-416.3655 -626.91323,0 0,416.3655 z"
         inkscape:connector-curvature="0" /></clipPath><clipPath
       id="clipPath2612"
       clipPathUnits="userSpaceOnUse"><path
         id="path2614"
         d="m 152.713,174 246.973,0 0,226 -246.973,0 0,-226 z"
         inkscape:connector-curvature="0" /></clipPath><clipPath
       id="clipPath6476"
       clipPathUnits="userSpaceOnUse"><path
         id="path6478"
         d="m 0,400 399.686,0 0,-400 L 0,0 0,400 Z"
         inkscape:connector-curvature="0" /></clipPath><clipPath
       id="clipPath6488"
       clipPathUnits="userSpaceOnUse"><path
         id="path6490"
         d="m 100.553,254.707 c -6.105,0 -11.054,-4.95 -11.054,-11.055 l 0,0 0,-51.591 c 0,-6.106 4.949,-11.056 11.054,-11.056 l 0,0 51.59,0 c 6.106,0 11.055,4.95 11.055,11.056 l 0,0 0,51.591 c 0,6.105 -4.949,11.055 -11.055,11.055 l 0,0 -51.59,0 z"
         inkscape:connector-curvature="0" /></clipPath><clipPath
       id="clipPath10284"
       clipPathUnits="userSpaceOnUse"><path
         id="path10286"
         d="m 0,400 399.686,0 0,-400 L 0,0 0,400 Z"
         inkscape:connector-curvature="0" /></clipPath><clipPath
       id="clipPath10364"
       clipPathUnits="userSpaceOnUse"><path
         id="path10366"
         d="m 108.37,191.577 26.796,0 0,-22.827 -26.796,0 0,22.827 z"
         inkscape:connector-curvature="0" /></clipPath><clipPath
       id="clipPath4764"
       clipPathUnits="userSpaceOnUse"><path
         id="path4766-6"
         d="m 133.042,338.09 224.153,0 0,133.229 -224.153,0 0,-133.229 z"
         inkscape:connector-curvature="0" /></clipPath><clipPath
       id="clipPath4764-5"
       clipPathUnits="userSpaceOnUse"><path
         id="path4766-6-8"
         d="m 133.042,338.09 224.153,0 0,133.229 -224.153,0 0,-133.229 z"
         inkscape:connector-curvature="0" /></clipPath><linearGradient
       inkscape:collect="always"
       id="linearGradient4443"><stop
         style="stop-color:#ff0000;stop-opacity:1;"
         offset="0"
         id="stop4445" /><stop
         style="stop-color:#ff0000;stop-opacity:0;"
         offset="1"
         id="stop4447" /></linearGradient><linearGradient
       inkscape:collect="always"
       xlink:href="#linearGradient4443"
       id="linearGradient8703"
       x1="0.0053264974"
       y1="2.935317"
       x2="0.17678344"
       y2="-25.219246"
       gradientUnits="userSpaceOnUse" /><linearGradient
       inkscape:collect="always"
       xlink:href="#linearGradient4443"
       id="linearGradient4532"
       x1="0"
       y1="0"
       x2="-4.3520743e-014"
       y2="-21.791088"
       gradientUnits="userSpaceOnUse" /></defs><path
     style="fill:#464646;fill-opacity:0.19607843;fill-rule:evenodd;stroke:#000000;stroke-width:0.50000006;stroke-linecap:butt;stroke-linejoin:miter;stroke-miterlimit:4;stroke-dasharray:none;stroke-opacity:1"
     d="m 109.40743,159.02357 c 0,0 -3.64143,-2.51122 -3.64143,-6.84549 l 0,-424.22438 703.55547,-386.65287 0.16712,442.96772 C 570.93095,-86.604561 325.17548,46.418512 116.76166,159.22913 c -3.66522,1.98392 -7.35423,-0.20556 -7.35423,-0.20556 z"
     id="fabric_back"
     inkscape:connector-curvature="0"
     sodipodi:nodetypes="ccccccc" /><path
     style="fill:#d1a7a3;fill-opacity:0.58823529;fill-rule:evenodd;stroke:#000000;stroke-width:0.50000006;stroke-linecap:butt;stroke-linejoin:miter;stroke-miterlimit:4;stroke-dasharray:none;stroke-opacity:1"
     d="m 105.766,20.15806 v -43.687303 l 703.55531,-386.652897 0.16713,46.92883 z"
     id="path17953-9-9-6"
     inkscape:connector-curvature="0"
     sodipodi:nodetypes="ccccc" /><path
     style="fill:#d1a7a3;fill-opacity:0.58823529;fill-rule:evenodd;stroke:#000000;stroke-width:0.50000006;stroke-linecap:butt;stroke-linejoin:miter;stroke-miterlimit:4;stroke-dasharray:none;stroke-opacity:1"
     d="M 105.766,107.58596 V 63.898657 l 703.55519,-386.652887 0.16712,46.92883 z"
     id="path17953-9-5"
     inkscape:connector-curvature="0"
     sodipodi:nodetypes="ccccc" /><g
     id="bottom_bar"
     transform="matrix(1.2500001,0,0,-1.2500001,-664.92802,27.558323)"><path
       inkscape:connector-curvature="0"
       id="path6509-0"
       d="m 607.72445,-119.49908 -0.01,0.11133 c -2.64472,-0.13175 -5.27384,0.98577 -7.49414,3.125 -2.61933,2.52369 -4.6871,6.35805 -5.60352,10.91016 -0.91642,4.55211 -0.50943,8.96763 0.90039,12.43945 1.40983,3.47182 3.8334,6.00897 6.94532,6.74414 0.24306,0.0574 0.48678,0.0266 0.73046,0.0605 l -0.006,0.0723 3.20312,0.30469 0.0117,-0.125 c 2.57415,0.0604 5.12317,-1.05954 7.28516,-3.14258 2.61933,-2.52368 4.68709,-6.35609 5.60351,-10.9082 0.91642,-4.55211 0.50943,-8.96764 -0.90039,-12.43945 -1.40982,-3.47182 -3.8334,-6.01092 -6.94531,-6.7461 -0.20536,-0.0485 -0.41136,-0.0191 -0.61719,-0.0508 l 0.008,-0.10351 -3.11133,-0.25196 z"
       style="color:#000000;font-style:normal;font-variant:normal;font-weight:normal;font-stretch:normal;font-size:medium;line-height:normal;font-family:sans-serif;text-indent:0;text-align:start;text-decoration:none;text-decoration-line:none;text-decoration-style:solid;text-decoration-color:#000000;letter-spacing:normal;word-spacing:normal;text-transform:none;direction:ltr;block-progression:tb;writing-mode:lr-tb;baseline-shift:baseline;text-anchor:start;white-space:normal;clip-rule:nonzero;display:inline;overflow:visible;visibility:visible;opacity:1;isolation:auto;mix-blend-mode:normal;color-interpolation:sRGB;color-interpolation-filters:linearRGB;solid-color:#000000;solid-opacity:1;fill:#c8c8c8;fill-opacity:1;fill-rule:evenodd;stroke:#000000;stroke-width:0.40000001;stroke-linecap:butt;stroke-linejoin:miter;stroke-miterlimit:4;stroke-dasharray:none;stroke-dashoffset:0;stroke-opacity:1;color-rendering:auto;image-rendering:auto;shape-rendering:auto;text-rendering:auto;enable-background:accumulate" /><ellipse
       ry="16.682997"
       rx="11.290424"
       transform="matrix(0.97321055,0.2299157,0.19735825,-0.98033143,0,0)"
       cy="239.75388"
       cx="576.45837"
       id="path6379-9-74"
       style="fill:#a0a0a0;fill-opacity:1;stroke:#000000;stroke-width:0.40011114;stroke-linecap:round;stroke-miterlimit:4;stroke-dasharray:none;stroke-opacity:1" /><ellipse
       ry="11.491901"
       rx="7.6040134"
       transform="matrix(0.9583811,0.28549199,0.24153169,-0.97039293,0,0)"
       cy="272.54324"
       cx="569.08081"
       id="path6379-9-7-7"
       style="fill:none;fill-opacity:1;stroke:#000000;stroke-width:0.40020788;stroke-linecap:round;stroke-miterlimit:4;stroke-dasharray:none;stroke-opacity:1" /><ellipse
       ry="10.029888"
       rx="6.6299677"
       transform="matrix(0.9582899,0.28579794,0.24126655,-0.97045889,0,0)"
       cy="272.58511"
       cx="568.50275"
       id="path6379-9-7-6-7"
       style="fill:#c8c8c8;fill-opacity:1;stroke:#000000;stroke-width:0.40021336;stroke-linecap:round;stroke-miterlimit:4;stroke-dasharray:none;stroke-opacity:1" /><path
       sodipodi:nodetypes="caaaaaaaccccccsssacc"
       inkscape:connector-curvature="0"
       id="rect4555-9-7"
       d="m 603.86402,-97.563895 c 0.24177,0.37103 0.21492,0.75169 0.35199,1.11734 0.11868,0.31658 0.25978,0.62466 0.4063,0.92936 0.11114,0.23114 0.22382,0.46249 0.35824,0.68091 0.1158,0.18817 0.24982,0.36479 0.38459,0.53987 0.12916,0.16775 0.26104,0.33412 0.40584,0.48859 0.16013,0.17088 0.32933,0.33422 0.5103,0.48286 0.18145,0.14899 0.37414,0.28508 0.57429,0.40781 0.2967,0.18185 0.57931,0.29726 0.92481,0.48439 l 590.02322,319.557585 9.3124,-17.23441 -588.85481,-318.92481 -4.67346,-2.53116 c -4.44987,-1.26852 -5.77254,1.07108 -8.16561,3.93176 -0.10612,0.36656 -0.27382,0.6092 -0.42037,0.90124 -0.14647,0.2921 -0.27222,0.63337 -0.39375,0.89763 -0.24341,0.52829 -0.37167,1.0475 -0.52365,1.64407 -0.20289,0.79645 -0.22986,1.62798 -0.31556,2.4454 -0.0669,0.63814 -0.17054,1.27724 -0.15491,1.918715 0.0343,0.76107 0.12249,1.51321 0.25011,2.26292 z"
       style="fill:#c8c8c8;fill-opacity:1;stroke:#000000;stroke-width:0.4000001;stroke-linecap:round;stroke-miterlimit:4;stroke-dasharray:none;stroke-opacity:1" /></g><path
     style="fill:#464646;fill-opacity:0.19607843;fill-rule:evenodd;stroke:#000000;stroke-width:0.50000006;stroke-linecap:butt;stroke-linejoin:miter;stroke-miterlimit:4;stroke-dasharray:none;stroke-opacity:1"
     d="m 95.175837,166.90931 c 0,0 -3.641426,-2.51121 -3.641426,-6.84548 l 0,-424.22344 703.555429,-386.65287 0.16713,442.96772 C 556.69935,-78.717873 310.94389,54.304252 102.53007,167.11488 c -3.665221,1.98392 -7.354233,-0.20557 -7.354233,-0.20557 z"
     id="fabric_front"
     inkscape:connector-curvature="0"
     sodipodi:nodetypes="ccccccc" /><path
     style="fill:#d1a7a3;fill-opacity:0.58823529;fill-rule:evenodd;stroke:#000000;stroke-width:0.50000006;stroke-linecap:butt;stroke-linejoin:miter;stroke-miterlimit:4;stroke-dasharray:none;stroke-opacity:1"
     d="M 91.534405,63.908015 V 20.220712 l 703.555305,-386.652892 0.16713,46.92883 z"
     id="path17953-9-9"
     inkscape:connector-curvature="0"
     sodipodi:nodetypes="ccccc" /><path
     style="fill:#d1a7a3;fill-opacity:0.58823529;fill-rule:evenodd;stroke:#000000;stroke-width:0.50000006;stroke-linecap:butt;stroke-linejoin:miter;stroke-miterlimit:4;stroke-dasharray:none;stroke-opacity:1"
     d="m 91.534405,151.33592 v -43.68731 l 703.555185,-386.65289 0.16712,46.92883 z"
     id="path17953-9"
     inkscape:connector-curvature="0"
     sodipodi:nodetypes="ccccc" /><g
     transform="matrix(1.2500001,0,0,-1.2500001,-673.62705,2.9057826)"
     id="g8685"><g
       id="g10376"
       transform="matrix(0,-1.9262062,-1.9262062,0,659.14029,-124.53549)"
       style="fill:url(#linearGradient4532);fill-opacity:1;stroke:#464646;stroke-width:0.20766208;stroke-miterlimit:4;stroke-dasharray:none;stroke-opacity:1"><path
         inkscape:connector-curvature="0"
         d="M 0,0 7.468,-2.6 3.104,-5.027 2.979,-20.211 -3.451,-23.786 -3.323,-8.601 -7.687,-11.027 0,0 Z"
         style="fill:url(#linearGradient4532);fill-opacity:1;fill-rule:nonzero;stroke:#464646;stroke-width:0.20766208;stroke-miterlimit:4;stroke-dasharray:none;stroke-opacity:1"
         id="path10378" /></g><text
       id="text4932"
       y="131.06689"
       x="711.78284"
       style="font-style:normal;font-variant:normal;font-weight:normal;font-stretch:normal;font-size:19.57469559px;line-height:0%;font-family:sans-serif;-inkscape-font-specification:'sans-serif, Normal';text-align:start;letter-spacing:0px;word-spacing:0px;writing-mode:lr-tb;text-anchor:start;fill:#666666;fill-opacity:1;stroke:none;stroke-width:1px;stroke-linecap:butt;stroke-linejoin:miter;stroke-opacity:1"
       xml:space="preserve"
       transform="scale(0.99696783,-1.0030414)"><tspan
         y="131.06689"
         x="711.78284"
         id="tspan4934"
         style="font-style:normal;font-variant:normal;font-weight:normal;font-stretch:normal;font-family:Roboto;-inkscape-font-specification:Roboto">BOTTOM</tspan></text>
</g></svg>