<?xml version="1.0" encoding="UTF-8" standalone="no"?>
<!-- Created with Inkscape (http://www.inkscape.org/) -->

<svg
   xmlns:dc="http://purl.org/dc/elements/1.1/"
   xmlns:cc="http://creativecommons.org/ns#"
   xmlns:rdf="http://www.w3.org/1999/02/22-rdf-syntax-ns#"
   xmlns:svg="http://www.w3.org/2000/svg"
   xmlns="http://www.w3.org/2000/svg"
   xmlns:xlink="http://www.w3.org/1999/xlink"
   xmlns:sodipodi="http://sodipodi.sourceforge.net/DTD/sodipodi-0.dtd"
   xmlns:inkscape="http://www.inkscape.org/namespaces/inkscape"
   id="svg2"
   version="1.1"
   inkscape:version="0.92.1 r15371"
   xml:space="preserve"
   width="100mm"
   height="85mm"
   viewBox="0 0 354.3307 301.18111"
   sodipodi:docname="Twist_blind_slat_open_position_set.svg"><metadata
     id="metadata8"><rdf:RDF><cc:Work
         rdf:about=""><dc:format>image/svg+xml</dc:format><dc:type
           rdf:resource="http://purl.org/dc/dcmitype/StillImage" /><dc:title /></cc:Work></rdf:RDF></metadata><defs
     id="defs6"><linearGradient
       inkscape:collect="always"
       id="linearGradient4347"><stop
         style="stop-color:#ff0000;stop-opacity:1;"
         offset="0"
         id="stop4349" /><stop
         style="stop-color:#ff0000;stop-opacity:0;"
         offset="1"
         id="stop4351" /></linearGradient><inkscape:perspective
       sodipodi:type="inkscape:persp3d"
       inkscape:vp_x="74.6822 : 246.82204 : 1"
       inkscape:vp_y="0 : 1000.0001 : 0"
       inkscape:vp_z="574.28968 : 246.82204 : 1"
       inkscape:persp3d-origin="324.48594 : 163.48871 : 1"
       id="perspective6541" /><clipPath
       clipPathUnits="userSpaceOnUse"
       id="clipPath16"><path
         d="m 0,400 399.686,0 0,-400 L 0,0 0,400 Z"
         id="path18"
         inkscape:connector-curvature="0" /></clipPath><clipPath
       clipPathUnits="userSpaceOnUse"
       id="clipPath24"><path
         d="m -7.74023,403.219 626.91323,0 0,-416.3655 -626.91323,0 0,416.3655 z"
         id="path26"
         inkscape:connector-curvature="0" /></clipPath><clipPath
       clipPathUnits="userSpaceOnUse"
       id="clipPath3564"><path
         d="m 60.104,120.75 339.582,0 0,279.249 -339.582,0 0,-279.249 z"
         id="path3566"
         inkscape:connector-curvature="0" /></clipPath><clipPath
       clipPathUnits="userSpaceOnUse"
       id="clipPath8368"><path
         d="m 0,400 399.686,0 0,-400 L 0,0 0,400 Z"
         id="path8370"
         inkscape:connector-curvature="0" /></clipPath><clipPath
       clipPathUnits="userSpaceOnUse"
       id="clipPath8376"><path
         d="m 115.783,198.219 33.523,0 0,-30.948 -33.523,0 0,30.948 z"
         id="path8378"
         inkscape:connector-curvature="0" /></clipPath><clipPath
       clipPathUnits="userSpaceOnUse"
       id="clipPath9508"><path
         d="m 0,400 399.686,0 0,-400 L 0,0 0,400 Z"
         id="path9510"
         inkscape:connector-curvature="0" /></clipPath><linearGradient
       inkscape:collect="always"
       xlink:href="#linearGradient4347"
       id="linearGradient4562"
       x1="0"
       y1="0"
       x2="0"
       y2="-21.794228"
       gradientUnits="userSpaceOnUse" /></defs><sodipodi:namedview
     pagecolor="#ffffff"
     bordercolor="#666666"
     borderopacity="1"
     objecttolerance="10"
     gridtolerance="10"
     guidetolerance="10"
     inkscape:pageopacity="0"
     inkscape:pageshadow="2"
     inkscape:window-width="1920"
     inkscape:window-height="1017"
     id="namedview4"
     showgrid="false"
     inkscape:zoom="2.6209314"
     inkscape:cx="188.97638"
     inkscape:cy="160.62992"
     inkscape:window-x="-8"
     inkscape:window-y="-8"
     inkscape:window-maximized="1"
     inkscape:current-layer="g10"
     fit-margin-top="0"
     fit-margin-left="0"
     fit-margin-right="0"
     fit-margin-bottom="0"
     units="mm"
     inkscape:showpageshadow="false"
     borderlayer="true" /><g
     id="g10"
     inkscape:groupmode="layer"
     inkscape:label="type 5-416 Twist M25T PV green"
     transform="matrix(1.25,0,0,-1.25,-673.62696,212.57754)"><path
       style="fill:#464646;fill-opacity:0.19607843;fill-rule:evenodd;stroke:#000000;stroke-width:0.40000001;stroke-linecap:butt;stroke-linejoin:miter;stroke-miterlimit:4;stroke-dasharray:none;stroke-opacity:1"
       d="m 626.42541,-56.356611 c 0,0 -2.91314,2.00898 -2.91314,5.47639 V 288.49926 l 562.84433,309.32227 0.1337,-354.37415 C 995.6442,140.14588 799.03984,33.727429 632.3088,-56.521061 c -2.93218,-1.58713 -5.88339,0.16445 -5.88339,0.16445 z"
       id="fabric_back"
       inkscape:connector-curvature="0"
       sodipodi:nodetypes="ccccccc" /><path
       style="fill:#d1a7a3;fill-opacity:0.58823532;fill-rule:evenodd;stroke:#000000;stroke-width:0.40000001;stroke-linecap:butt;stroke-linejoin:miter;stroke-miterlimit:4;stroke-dasharray:none;stroke-opacity:1"
       d="m 623.51227,124.71878 v 34.94984 l 562.84413,309.32229 0.1337,-37.54306 z"
       id="path17953-9-7-3"
       inkscape:connector-curvature="0"
       sodipodi:nodetypes="ccccc" /><path
       style="fill:#d1a7a3;fill-opacity:0.58823532;fill-rule:evenodd;stroke:#000000;stroke-width:0.40000001;stroke-linecap:butt;stroke-linejoin:miter;stroke-miterlimit:4;stroke-dasharray:none;stroke-opacity:1"
       d="m 623.51227,54.735789 v 34.94984 l 562.84423,309.322291 0.1337,-37.54306 z"
       id="path17953-9-9-6"
       inkscape:connector-curvature="0"
       sodipodi:nodetypes="ccccc" /><path
       style="fill:#d1a7a3;fill-opacity:0.58823532;fill-rule:evenodd;stroke:#000000;stroke-width:0.40000001;stroke-linecap:butt;stroke-linejoin:miter;stroke-miterlimit:4;stroke-dasharray:none;stroke-opacity:1"
       d="m 623.51227,-15.206527 v 34.949842 l 562.84413,309.322285 0.1337,-37.54306 z"
       id="path17953-9-5"
       inkscape:connector-curvature="0"
       sodipodi:nodetypes="ccccc" /><g
       id="bottom_bar"
       transform="translate(6.9571,48.815579)"><path
         inkscape:connector-curvature="0"
         id="path6509-0"
         d="m 607.72445,-119.49908 -0.01,0.11133 c -2.64472,-0.13175 -5.27384,0.98577 -7.49414,3.125 -2.61933,2.52369 -4.6871,6.35805 -5.60352,10.91016 -0.91642,4.55211 -0.50943,8.96763 0.90039,12.43945 1.40983,3.47182 3.8334,6.00897 6.94532,6.74414 0.24306,0.0574 0.48678,0.0266 0.73046,0.0605 l -0.006,0.0723 3.20312,0.30469 0.0117,-0.125 c 2.57415,0.0604 5.12317,-1.05954 7.28516,-3.14258 2.61933,-2.52368 4.68709,-6.35609 5.60351,-10.9082 0.91642,-4.55211 0.50943,-8.96764 -0.90039,-12.43945 -1.40982,-3.47182 -3.8334,-6.01092 -6.94531,-6.7461 -0.20536,-0.0485 -0.41136,-0.0191 -0.61719,-0.0508 l 0.008,-0.10351 -3.11133,-0.25196 z"
         style="color:#000000;font-style:normal;font-variant:normal;font-weight:normal;font-stretch:normal;font-size:medium;line-height:normal;font-family:sans-serif;text-indent:0;text-align:start;text-decoration:none;text-decoration-line:none;text-decoration-style:solid;text-decoration-color:#000000;letter-spacing:normal;word-spacing:normal;text-transform:none;writing-mode:lr-tb;direction:ltr;baseline-shift:baseline;text-anchor:start;white-space:normal;clip-rule:nonzero;display:inline;overflow:visible;visibility:visible;opacity:1;isolation:auto;mix-blend-mode:normal;color-interpolation:sRGB;color-interpolation-filters:linearRGB;solid-color:#000000;solid-opacity:1;fill:#c8c8c8;fill-opacity:1;fill-rule:evenodd;stroke:#000000;stroke-width:0.40000001;stroke-linecap:butt;stroke-linejoin:miter;stroke-miterlimit:4;stroke-dasharray:none;stroke-dashoffset:0;stroke-opacity:1;color-rendering:auto;image-rendering:auto;shape-rendering:auto;text-rendering:auto;enable-background:accumulate" /><ellipse
         ry="16.682997"
         rx="11.290424"
         transform="matrix(0.97321055,0.2299157,0.19735825,-0.98033143,0,0)"
         cy="239.75388"
         cx="576.45837"
         id="path6379-9-74"
         style="fill:#a0a0a0;fill-opacity:1;stroke:#000000;stroke-width:0.40011114;stroke-linecap:round;stroke-miterlimit:4;stroke-dasharray:none;stroke-opacity:1" /><ellipse
         ry="11.491901"
         rx="7.6040134"
         transform="matrix(0.9583811,0.28549199,0.24153169,-0.97039293,0,0)"
         cy="272.54324"
         cx="569.08081"
         id="path6379-9-7-7"
         style="fill:none;fill-opacity:1;stroke:#000000;stroke-width:0.40020788;stroke-linecap:round;stroke-miterlimit:4;stroke-dasharray:none;stroke-opacity:1" /><ellipse
         ry="10.029888"
         rx="6.6299677"
         transform="matrix(0.9582899,0.28579794,0.24126655,-0.97045889,0,0)"
         cy="272.58511"
         cx="568.50275"
         id="path6379-9-7-6-7"
         style="fill:#c8c8c8;fill-opacity:1;stroke:#000000;stroke-width:0.40021336;stroke-linecap:round;stroke-miterlimit:4;stroke-dasharray:none;stroke-opacity:1" /><path
         sodipodi:nodetypes="caaaaaaaccccccsssacc"
         inkscape:connector-curvature="0"
         id="rect4555-9-7"
         d="m 603.86402,-97.563895 c 0.24177,0.37103 0.21492,0.75169 0.35199,1.11734 0.11868,0.31658 0.25978,0.62466 0.4063,0.92936 0.11114,0.23114 0.22382,0.46249 0.35824,0.68091 0.1158,0.18817 0.24982,0.36479 0.38459,0.53987 0.12916,0.16775 0.26104,0.33412 0.40584,0.48859 0.16013,0.17088 0.32933,0.33422 0.5103,0.48286 0.18145,0.14899 0.37414,0.28508 0.57429,0.40781 0.2967,0.18185 0.57931,0.29726 0.92481,0.48439 l 590.02322,319.557585 9.3124,-17.23441 -588.85481,-318.92481 -4.67346,-2.53116 c -4.44987,-1.26852 -5.77254,1.07108 -8.16561,3.93176 -0.10612,0.36656 -0.27382,0.6092 -0.42037,0.90124 -0.14647,0.2921 -0.27222,0.63337 -0.39375,0.89763 -0.24341,0.52829 -0.37167,1.0475 -0.52365,1.64407 -0.20289,0.79645 -0.22986,1.62798 -0.31556,2.4454 -0.0669,0.63814 -0.17054,1.27724 -0.15491,1.918715 0.0343,0.76107 0.12249,1.51321 0.25011,2.26292 z"
         style="fill:#c8c8c8;fill-opacity:1;stroke:#000000;stroke-width:0.4000001;stroke-linecap:round;stroke-miterlimit:4;stroke-dasharray:none;stroke-opacity:1" /></g><path
       style="fill:#464646;fill-opacity:0.19607843;fill-rule:evenodd;stroke:#000000;stroke-width:0.40000001;stroke-linecap:butt;stroke-linejoin:miter;stroke-miterlimit:4;stroke-dasharray:none;stroke-opacity:1"
       d="m 615.04014,-62.665201 c 0,0 -2.91314,2.00897 -2.91314,5.47638 V 282.18991 l 562.8443,309.32227 0.1337,-354.37415 C 984.25892,133.83653 787.65457,27.418838 620.92353,-62.829661 c -2.93218,-1.58713 -5.88339,0.16446 -5.88339,0.16446 z"
       id="fabric_front"
       inkscape:connector-curvature="0"
       sodipodi:nodetypes="ccccccc" /><path
       style="fill:#d1a7a3;fill-opacity:0.58823532;fill-rule:evenodd;stroke:#000000;stroke-width:0.40000001;stroke-linecap:butt;stroke-linejoin:miter;stroke-miterlimit:4;stroke-dasharray:none;stroke-opacity:1"
       d="m 612.127,124.71538 v 34.94984 l 562.8441,309.32229 0.1337,-37.54306 z"
       id="path17953-9-7"
       inkscape:connector-curvature="0"
       sodipodi:nodetypes="ccccc" /><path
       style="fill:#d1a7a3;fill-opacity:0.58823532;fill-rule:evenodd;stroke:#000000;stroke-width:0.40000001;stroke-linecap:butt;stroke-linejoin:miter;stroke-miterlimit:4;stroke-dasharray:none;stroke-opacity:1"
       d="m 612.127,54.732387 v 34.94984 l 562.8442,309.322293 0.1337,-37.54306 z"
       id="path17953-9-9"
       inkscape:connector-curvature="0"
       sodipodi:nodetypes="ccccc" /><path
       style="fill:#d1a7a3;fill-opacity:0.58823532;fill-rule:evenodd;stroke:#000000;stroke-width:0.40000001;stroke-linecap:butt;stroke-linejoin:miter;stroke-miterlimit:4;stroke-dasharray:none;stroke-opacity:1"
       d="m 612.127,-15.209929 v 34.949842 l 562.8441,309.322287 0.1337,-37.54306 z"
       id="path17953-9"
       inkscape:connector-curvature="0"
       sodipodi:nodetypes="ccccc" /><path
       style="color:#000000;font-style:normal;font-variant:normal;font-weight:normal;font-stretch:normal;font-size:medium;line-height:normal;font-family:sans-serif;text-indent:0;text-align:start;text-decoration:none;text-decoration-line:none;text-decoration-style:solid;text-decoration-color:#000000;letter-spacing:normal;word-spacing:normal;text-transform:none;writing-mode:lr-tb;direction:ltr;baseline-shift:baseline;text-anchor:start;white-space:normal;clip-rule:nonzero;display:inline;overflow:visible;visibility:visible;opacity:1;isolation:auto;mix-blend-mode:normal;color-interpolation:sRGB;color-interpolation-filters:linearRGB;solid-color:#000000;solid-opacity:1;fill:#d1a7a3;fill-opacity:0.58823532;fill-rule:evenodd;stroke:#000000;stroke-width:0.40000001;stroke-linecap:butt;stroke-linejoin:miter;stroke-miterlimit:4;stroke-dasharray:none;stroke-dashoffset:0;stroke-opacity:1;color-rendering:auto;image-rendering:auto;shape-rendering:auto;text-rendering:auto;enable-background:accumulate"
       d="m 618.36576,-63.141382 c 3.06657,0.288645 2.4786,0.708588 6.33695,2.623809 L 1174.6482,237.20406 1174.5742,256.2765 612.127,-50.203972 c 0,0 -0.0569,-5.130233 0.0448,-7.824119 0.007,-0.175062 0.0442,-0.481189 0.541,-1.160638 0.87022,-1.19027 1.70663,-2.302665 2.99182,-3.19154 0.51067,-0.353193 0.21628,-0.177591 1.21175,-0.548981 0.53885,-0.201029 1.44939,-0.212132 1.44939,-0.212132 z"
       id="path4500"
       inkscape:connector-curvature="0"
       sodipodi:nodetypes="cccccssssc" /><g
       transform="translate(0,-7.0710695)"
       id="g4364"><g
         id="g10376"
         transform="matrix(0,-1.9262065,-1.9262063,0,659.14027,-48.939642)"
         style="fill:url(#linearGradient4562);fill-opacity:1;stroke:#464646;stroke-width:0.20766208;stroke-miterlimit:4;stroke-dasharray:none;stroke-opacity:1"><path
           inkscape:connector-curvature="0"
           d="M 0,0 7.468,-2.6 3.104,-5.027 2.979,-20.211 -3.451,-23.786 -3.323,-8.601 -7.687,-11.027 0,0 Z"
           style="fill:url(#linearGradient4562);fill-opacity:1;fill-rule:nonzero;stroke:#464646;stroke-width:0.20766208;stroke-miterlimit:4;stroke-dasharray:none;stroke-opacity:1"
           id="path10378" /></g><text
         id="text4932"
         y="55.700264"
         x="711.7829"
         style="font-style:normal;font-variant:normal;font-weight:normal;font-stretch:normal;font-size:19.57469749px;line-height:0%;font-family:sans-serif;-inkscape-font-specification:'sans-serif, Normal';text-align:start;letter-spacing:0px;word-spacing:0px;writing-mode:lr-tb;text-anchor:start;fill:#666666;fill-opacity:1;stroke:none;stroke-width:1px;stroke-linecap:butt;stroke-linejoin:miter;stroke-opacity:1"
         xml:space="preserve"
         transform="scale(0.99696782,-1.0030414)"><tspan
           y="55.700264"
           x="711.7829"
           id="tspan4934"
           style="font-style:normal;font-variant:normal;font-weight:normal;font-stretch:normal;font-family:Roboto;-inkscape-font-specification:Roboto">SLAT OPEN</tspan></text>
</g></g></svg>