<?xml version="1.0" encoding="UTF-8" standalone="no"?>
<svg
   xmlns:dc="http://purl.org/dc/elements/1.1/"
   xmlns:cc="http://creativecommons.org/ns#"
   xmlns:rdf="http://www.w3.org/1999/02/22-rdf-syntax-ns#"
   xmlns:svg="http://www.w3.org/2000/svg"
   xmlns="http://www.w3.org/2000/svg"
   width="100%"
   height="100%"
   viewBox=""
   id="svg8195"
   version="1.1">
  <defs
     id="defs8197" />
  <metadata
     id="metadata8200">
    <rdf:RDF>
      <cc:Work
         rdf:about="">
        <dc:format>image/svg+xml</dc:format>
        <dc:type
           rdf:resource="http://purl.org/dc/dcmitype/StillImage" />
        <dc:title></dc:title>
      </cc:Work>
    </rdf:RDF>
  </metadata>
  <g
     id="layer1">
    <rect
       y="122.46429"
       x="88.651169"
       height="293.36725"
       width="477.66806"
       id="full_zoom"
       style="opacity:1;fill:#ffffff;fill-opacity:1;stroke:#666666;stroke-width:0.80000001;stroke-linecap:butt;stroke-linejoin:round;stroke-miterlimit:4;stroke-dasharray:none;stroke-dashoffset:0;stroke-opacity:1" />
    <g
       transform="translate(63.487001,105.26276)"
       id="g8799">
      <circle
         style="opacity:1;fill:#ffffff;fill-opacity:1;stroke:none;stroke-width:0;stroke-linecap:butt;stroke-linejoin:miter;stroke-miterlimit:4;stroke-dasharray:none;stroke-dashoffset:0;stroke-opacity:1"
         id="stop"
         cx="122.83673"
         cy="181.70621"
         r="23.677031" />
      <path
         style="fill:#ffffff;fill-rule:evenodd;stroke:#4d4d4d;stroke-width:0.80000001;stroke-linecap:butt;stroke-linejoin:miter;stroke-miterlimit:4;stroke-dasharray:none;stroke-opacity:1"
         d="m 165.25285,156.54433 c -8.87477,-15.37155 -25.27602,-24.84082 -43.02556,-24.84082 -17.74955,0 -34.150796,9.46927 -43.02557,24.84082 l 23.27613,13.43848 c 4.07366,-7.05579 11.6021,-11.40234 19.74944,-11.40234 8.14733,0 15.67577,4.34655 19.74944,11.40234 l 23.27612,-13.43848"
         id="open" />
      <path
         id="group_2"
         d="M 85.576894,117.90482 C 74.433789,124.33829 65.180463,133.5916 58.746976,144.7347 l 20.454903,11.80938 c 4.360465,-7.55245 10.632115,-13.82407 18.184587,-18.18449 z"
         style="fill:#ffffff;fill-rule:evenodd;stroke:#4d4d4d;stroke-width:0.80000007;stroke-linecap:butt;stroke-linejoin:miter;stroke-miterlimit:4;stroke-dasharray:none;stroke-opacity:1" />
      <path
         style="fill:#ffffff;fill-rule:evenodd;stroke:#4d4d4d;stroke-width:0.80000007;stroke-linecap:butt;stroke-linejoin:miter;stroke-miterlimit:4;stroke-dasharray:none;stroke-opacity:1"
         d="m 122.22729,108.08437 c -12.86696,0 -25.507226,3.38695 -36.650343,9.82041 l 11.809784,20.45467 c 7.552499,-4.36038 16.119709,-6.65594 24.840559,-6.65594 z"
         id="group_3" />
      <path
         id="group_4"
         d="m 158.87768,117.90482 c -11.14311,-6.43348 -23.78338,-9.82044 -36.65033,-9.82045 l 2.4e-4,23.61915 c 8.72084,5e-5 17.28804,2.29565 24.84052,6.65607 z"
         style="fill:#ffffff;fill-rule:evenodd;stroke:#4d4d4d;stroke-width:0.80000007;stroke-linecap:butt;stroke-linejoin:miter;stroke-miterlimit:4;stroke-dasharray:none;stroke-opacity:1" />
      <path
         style="fill:#ffffff;fill-rule:evenodd;stroke:#4d4d4d;stroke-width:0.80000007;stroke-linecap:butt;stroke-linejoin:miter;stroke-miterlimit:4;stroke-dasharray:none;stroke-opacity:1"
         d="m 185.70762,144.73476 c -6.43347,-11.1431 -15.68678,-20.39643 -26.82988,-26.82992 l -11.80938,20.45491 c 7.55245,4.36046 13.82407,10.63211 18.18449,18.18458 z"
         id="group_5" />
      <path
         id="group_6"
         d="m 195.52807,181.38515 c 0,-12.86695 -3.38695,-25.50722 -9.8204,-36.65033 l -20.45468,11.80978 c 4.36038,7.55249 6.65593,16.11971 6.65594,24.84055 z"
         style="fill:#ffffff;fill-rule:evenodd;stroke:#4d4d4d;stroke-width:0.80000007;stroke-linecap:butt;stroke-linejoin:miter;stroke-miterlimit:4;stroke-dasharray:none;stroke-opacity:1" />
      <path
         id="all"
         d="m 48.926505,181.38515 c -10e-7,12.86695 3.386943,25.50723 9.820406,36.65034 l 20.454668,-11.80978 c -4.360382,-7.5525 -6.655933,-16.11972 -6.655933,-24.84056 z"
         style="fill:#ffffff;fill-rule:evenodd;stroke:#4d4d4d;stroke-width:0.80000007;stroke-linecap:butt;stroke-linejoin:miter;stroke-miterlimit:4;stroke-dasharray:none;stroke-opacity:1" />
      <path
         style="fill:#ffffff;fill-rule:evenodd;stroke:#4d4d4d;stroke-width:0.80000007;stroke-linecap:butt;stroke-linejoin:miter;stroke-miterlimit:4;stroke-dasharray:none;stroke-opacity:1"
         d="m 185.70762,218.03555 c 6.43348,-11.14311 9.82044,-23.78338 9.82045,-36.65033 l -23.61915,2.3e-4 c -5e-5,8.72085 -2.29565,17.28805 -6.65606,24.84052 z"
         id="heart" />
      <path
         style="fill:#ffffff;fill-opacity:1;stroke:#4d4d4d;stroke-width:0.80000007;stroke-miterlimit:4;stroke-dasharray:none;stroke-opacity:1"
         d="M 102.51941,169.98284 79.20172,156.54433 c -8.874768,15.37156 -8.874768,34.31009 -7.1e-5,49.68151 l 23.312611,-13.44738 c -4.059945,-7.04676 -4.059945,-15.73984 0.005,-22.79562 z"
         id="down" />
      <path
         id="up"
         d="m 141.93516,192.78747 23.31769,13.4385 c 8.87477,-15.37155 8.87477,-34.31008 7e-5,-49.6815 l -23.31261,13.44738 c 4.05995,7.04676 4.05995,15.73984 -0.005,22.79562 z"
         style="fill:#ffffff;fill-opacity:1;stroke:#4d4d4d;stroke-width:0.80000007;stroke-miterlimit:4;stroke-dasharray:none;stroke-opacity:1" />
      <path
         style="fill:#ffffff;fill-opacity:1;stroke:#4d4d4d;stroke-width:0.80000007;stroke-miterlimit:4;stroke-dasharray:none;stroke-opacity:1"
         d="m 185.70763,218.03555 c -13.09393,22.67935 -37.29249,36.65039 -63.48034,36.65039 -26.187855,0 -50.386424,-13.97105 -63.480349,-36.65039 L 79.20172,206.22597 c 8.874768,15.37156 25.27602,24.84083 43.02557,24.84083 17.74954,0 34.15079,-9.46926 43.02556,-24.84082 l 0,-1e-5 20.45477,11.80958 z"
         id="path4246" />
      <path
         id="close"
         d="m 79.20172,206.22597 c 8.874774,15.37156 25.27602,24.84082 43.02557,24.84082 17.74954,0 34.15079,-9.46926 43.02556,-24.84082 l -23.27612,-13.43848 c -4.07367,7.0558 -11.60211,11.40235 -19.74944,11.40235 -8.14734,0 -15.67578,-4.34655 -19.74944,-11.40235 l -23.27613,13.43848"
         style="fill:#ffffff;fill-rule:evenodd;stroke:#4d4d4d;stroke-width:0.80000007;stroke-linecap:butt;stroke-linejoin:miter;stroke-miterlimit:4;stroke-dasharray:none;stroke-opacity:1" />
      <path
         style="fill:#ffffff;fill-rule:evenodd;stroke:#4d4d4d;stroke-width:0.80000007;stroke-linecap:butt;stroke-linejoin:miter;stroke-miterlimit:4;stroke-dasharray:none;stroke-opacity:1"
         d="m 58.746947,144.73476 c -6.433476,11.14311 -9.820431,23.78338 -9.820447,36.65033 l 23.619152,-2.4e-4 c 4.7e-5,-8.72084 2.295651,-17.28804 6.656074,-24.84052 z"
         id="group_1" />
      <g
         transform="matrix(1,0,0,-1,-233.26224,807.07144)"
         style="fill:#333333"
         id="alltext">
        <path
           class="text"
           id="text_heart"
           d="m 417.95097,610.09918 c 0.13338,0.21045 0.54041,1.23865 0.0533,2.23378 -0.75569,1.44784 -2.90172,1.46201 -3.66724,-0.53992 -0.76551,2.00193 -2.91154,1.98776 -3.66723,0.53992 -0.48707,-0.99513 -0.08,-2.02333 0.0534,-2.23378 1.13269,-1.65255 2.66037,-1.42536 3.61388,-3.2289 0.95351,1.80354 2.48119,1.57635 3.61389,3.2289 z"
           style="fill-rule:evenodd;stroke:none;stroke-width:0.07999999;stroke-linecap:butt;stroke-linejoin:miter;stroke-miterlimit:4;stroke-dasharray:none;stroke-opacity:1" />
        <path
           class="text programming_mode"
           id="text_arrow_up"
           d="m 390.99535,620.3059 c 0,0 2.3827,4.15767 1.46071,10.28608 l 1.11176,0.34575 -3.76252,3.05413 -0.23049,-4.46595 1.32538,0.45781 c 0.89318,-5.5032 -1.55589,-8.95751 -1.55589,-8.95751 l 1.65105,-0.72031"
           style="fill-rule:evenodd;stroke:none;stroke-width:0.08;stroke-linecap:butt;stroke-linejoin:miter;stroke-miterlimit:4;stroke-dasharray:none;stroke-opacity:1" />
        <g
           id="text_all"
           style="font-style:normal;font-weight:normal;font-size:8.74512386px;line-height:125%;font-family:sans-serif;letter-spacing:0px;word-spacing:0px;fill-opacity:1;stroke:none;stroke-width:1px;stroke-linecap:butt;stroke-linejoin:miter;stroke-opacity:1"
           transform="scale(0.98085008,-1.0195238)">
          <path
             id="path4283"
             style="font-style:normal;font-variant:normal;font-weight:normal;font-stretch:normal;font-family:Shruti;-inkscape-font-specification:Shruti;fill:#333333"
             d="m 300.37126,-596.24121 0,-0.93088 -0.51668,0 q -1.61836,0 -1.61836,0.87964 0,0.32026 0.23913,0.49106 0.24339,0.1708 0.64051,0.1708 0.18361,0 0.36295,-0.0427 0.18362,-0.0427 0.34588,-0.11956 0.16653,-0.0811 0.30318,-0.19215 0.14091,-0.1153 0.24339,-0.25621 z m 0,0.67467 q -0.585,0.52522 -1.46891,0.52522 -0.30317,0 -0.56365,-0.0897 -0.2562,-0.0854 -0.44836,-0.24339 -0.19215,-0.158 -0.30317,-0.38004 -0.10675,-0.22204 -0.10675,-0.49533 0,-1.46891 2.52361,-1.46891 l 0.36723,0 q 0,-0.26901 -0.0171,-0.47825 -0.0171,-0.20923 -0.11102,-0.35014 -0.0939,-0.14519 -0.29891,-0.21778 -0.20496,-0.0769 -0.57646,-0.0769 -0.99066,0 -1.02482,0.71311 l -0.75153,0 q 0.0811,-1.29811 1.81905,-1.29811 0.39285,0 0.70884,0.0683 0.31598,0.0683 0.53376,0.24767 0.22204,0.17934 0.3416,0.48679 0.11957,0.30744 0.11957,0.78142 l 0,2.69869 -0.743,0 0,-0.42274 z" />
          <path
             id="path4285"
             style="font-style:normal;font-variant:normal;font-weight:normal;font-stretch:normal;font-family:Shruti;-inkscape-font-specification:Shruti;fill:#333333"
             d="m 302.95039,-595.1438 -0.73872,0 0,-5.77742 0.73872,0 0,5.77742 z" />
          <path
             id="path4287"
             style="font-style:normal;font-variant:normal;font-weight:normal;font-stretch:normal;font-family:Shruti;-inkscape-font-specification:Shruti;fill:#333333"
             d="m 304.79506,-595.1438 -0.73872,0 0,-5.77742 0.73872,0 0,5.77742 z" />
        </g>
        <path
           class="text programming_mode"
           id="text_down"
           d="m 359.92666,588.98662 -4.43714,-4.66763 -4.43713,4.66763 z"
           style="fill-rule:evenodd;stroke:none;stroke-width:0;stroke-linecap:butt;stroke-linejoin:miter;stroke-miterlimit:4;stroke-dasharray:none;stroke-opacity:1" />
        <path
           class="text text_ring2"
           style="fill-rule:evenodd;stroke:none;stroke-width:0;stroke-linecap:butt;stroke-linejoin:miter;stroke-miterlimit:4;stroke-dasharray:none;stroke-opacity:1"
           d="m 351.05239,661.99769 4.43714,4.66763 4.43713,-4.66763 z"
           id="text_up" />
        <rect
           class="text programming_mode"
           style="opacity:1;fill-opacity:1;stroke:none;stroke-width:0.08;stroke-linecap:butt;stroke-linejoin:miter;stroke-miterlimit:4;stroke-dasharray:none;stroke-dashoffset:0;stroke-opacity:1"
           id="text_stop"
           width="6.2235155"
           height="6.3963914"
           x="352.37778"
           y="-627.94122"
           transform="scale(1,-1)" />
        <path
           class="text"
           style="fill-rule:evenodd;stroke:none;stroke-width:0.08;stroke-linecap:butt;stroke-linejoin:miter;stroke-miterlimit:4;stroke-dasharray:none;stroke-opacity:1"
           d="m 320.90577,632.89493 c 0,0 -2.3827,-4.15767 -1.46071,-10.28608 l -1.11176,-0.34575 3.76252,-3.05413 0.23049,4.46595 -1.32538,-0.45781 c -0.89318,5.5032 1.55589,8.95751 1.55589,8.95751 l -1.65105,0.72031"
           id="text_arrow_down" />
        <g
           id="text_close"
           style="font-style:normal;font-weight:normal;font-size:9.48420429px;line-height:125%;font-family:sans-serif;letter-spacing:0px;word-spacing:0px;fill-opacity:1;stroke:none;stroke-width:1px;stroke-linecap:butt;stroke-linejoin:miter;stroke-opacity:1"
           transform="scale(0.96681064,-1.0343287)">
          <path
             id="path4272"
             style="font-style:normal;font-variant:normal;font-weight:normal;font-stretch:normal;font-family:Shruti;-inkscape-font-specification:Shruti"
             d="m 359.8667,-572.24957 q -0.47699,0 -0.87062,-0.15746 -0.389,-0.15745 -0.67149,-0.46309 -0.27786,-0.30565 -0.43531,-0.74559 -0.15282,-0.44457 -0.15282,-1.01418 0,-0.56034 0.15282,-1.00028 0.15282,-0.44458 0.43068,-0.75022 0.27786,-0.30564 0.67149,-0.4631 0.39363,-0.16208 0.87525,-0.16208 0.36585,0 0.67612,0.0973 0.31491,0.0926 0.55109,0.27786 0.24081,0.18524 0.39363,0.46309 0.15745,0.27323 0.20376,0.62981 l -0.82894,0 q -0.009,-0.20376 -0.088,-0.36121 -0.0787,-0.15745 -0.21302,-0.25933 -0.1343,-0.10652 -0.31491,-0.15746 -0.17598,-0.0556 -0.37974,-0.0556 -0.28712,0 -0.52793,0.11114 -0.23618,0.10652 -0.40752,0.3288 -0.17135,0.21766 -0.2686,0.54646 -0.0926,0.32416 -0.0926,0.75484 0,0.43068 0.0926,0.75948 0.0973,0.32417 0.2686,0.54645 0.17134,0.21766 0.40752,0.3288 0.24081,0.10651 0.52793,0.10651 0.1945,0 0.37048,-0.0509 0.17597,-0.0509 0.31027,-0.15282 0.13893,-0.10651 0.22229,-0.25933 0.0834,-0.15282 0.0926,-0.36122 l 0.82894,0 q -0.0463,0.36122 -0.20376,0.63444 -0.15282,0.27323 -0.39363,0.45847 -0.24081,0.18061 -0.55572,0.27323 -0.31027,0.0973 -0.67149,0.0973 z" />
          <path
             id="path4274"
             style="font-style:normal;font-variant:normal;font-weight:normal;font-stretch:normal;font-family:Shruti;-inkscape-font-specification:Shruti"
             d="m 363.21952,-572.36072 -0.80116,0 0,-6.26569 0.80116,0 0,6.26569 z" />
          <path
             id="path4276"
             style="font-style:normal;font-variant:normal;font-weight:normal;font-stretch:normal;font-family:Shruti;-inkscape-font-specification:Shruti"
             d="m 366.25742,-577.00557 q 0.49089,0 0.88452,0.16208 0.39363,0.16209 0.67149,0.46773 0.27785,0.30564 0.42604,0.74559 0.1482,0.43994 0.1482,1.00028 0,0.56498 -0.15283,1.00955 -0.15282,0.43994 -0.43068,0.74559 -0.27785,0.30564 -0.67148,0.46772 -0.39364,0.15746 -0.87526,0.15746 -0.47698,0 -0.87062,-0.15746 -0.389,-0.15745 -0.67149,-0.46309 -0.27785,-0.30565 -0.43531,-0.74559 -0.15282,-0.44457 -0.15282,-1.01418 0,-0.56034 0.15282,-1.00028 0.15283,-0.44458 0.43068,-0.75022 0.27786,-0.30564 0.67149,-0.4631 0.39363,-0.16208 0.87525,-0.16208 z m 0,4.11692 q 0.28712,0 0.5233,-0.10651 0.24081,-0.11114 0.40753,-0.3288 0.17134,-0.22228 0.26396,-0.54645 0.0973,-0.3288 0.0973,-0.75948 0,-0.43068 -0.0973,-0.75484 -0.0926,-0.3288 -0.26396,-0.54646 -0.16672,-0.22228 -0.40753,-0.3288 -0.23618,-0.11114 -0.5233,-0.11114 -0.28712,0 -0.52792,0.11114 -0.23618,0.10652 -0.40753,0.3288 -0.17134,0.21766 -0.26859,0.54646 -0.0926,0.32416 -0.0926,0.75484 0,0.43068 0.0926,0.75948 0.0972,0.32417 0.26859,0.54645 0.17135,0.21766 0.40753,0.3288 0.2408,0.10651 0.52792,0.10651 z" />
          <path
             id="path4278"
             style="font-style:normal;font-variant:normal;font-weight:normal;font-stretch:normal;font-family:Shruti;-inkscape-font-specification:Shruti"
             d="m 370.91154,-572.24957 q -1.85239,0 -1.95427,-1.46339 l 0.81505,0 q 0.005,0.82431 1.12996,0.82431 0.25007,0 0.43994,-0.0509 0.1945,-0.0556 0.31953,-0.15282 0.12967,-0.0973 0.1945,-0.22692 0.0695,-0.13429 0.0695,-0.29175 0,-0.16208 -0.0509,-0.25933 -0.0509,-0.10188 -0.1945,-0.17598 -0.14356,-0.0787 -0.4029,-0.14819 -0.2547,-0.0741 -0.66685,-0.18524 -0.4029,-0.10188 -0.69465,-0.19913 -0.29175,-0.0973 -0.48162,-0.24081 -0.18524,-0.14356 -0.27786,-0.35195 -0.088,-0.20839 -0.088,-0.52793 0,-0.27786 0.11577,-0.51404 0.12041,-0.24081 0.33806,-0.41678 0.22229,-0.17598 0.53256,-0.27323 0.31491,-0.10188 0.70391,-0.10188 1.78755,0 1.81533,1.26888 l -0.79652,0 q -0.0417,-0.63444 -0.95861,-0.63444 -0.20376,0 -0.37974,0.0417 -0.17135,0.037 -0.30101,0.11577 -0.12504,0.0741 -0.19913,0.18987 -0.0695,0.11115 -0.0695,0.25471 0,0.13429 0.0324,0.22228 0.037,0.0834 0.16208,0.15745 0.12504,0.0695 0.37048,0.14356 0.25007,0.0741 0.67612,0.17598 0.41215,0.0973 0.7178,0.20376 0.30564,0.10652 0.50477,0.25934 0.19913,0.15282 0.29638,0.3751 0.0973,0.21766 0.0973,0.54183 0,0.30564 -0.12966,0.5696 -0.12504,0.26397 -0.36122,0.45847 -0.23618,0.18987 -0.57424,0.30101 -0.33343,0.11115 -0.75021,0.11115 z" />
          <path
             id="path4280"
             style="font-style:normal;font-variant:normal;font-weight:normal;font-stretch:normal;font-family:Shruti;-inkscape-font-specification:Shruti"
             d="m 375.6027,-572.24957 q -0.49551,0 -0.90304,-0.15746 -0.40752,-0.16208 -0.69927,-0.46772 -0.29175,-0.30565 -0.45384,-0.74559 -0.15745,-0.44457 -0.15745,-1.00955 0,-0.55571 0.15282,-0.99565 0.15746,-0.43995 0.43994,-0.74559 0.28249,-0.30564 0.67149,-0.46773 0.39363,-0.16671 0.86599,-0.16671 0.49088,0 0.88452,0.16208 0.39363,0.16209 0.67148,0.46773 0.27786,0.30564 0.42605,0.74559 0.14819,0.43994 0.14819,1.00028 l 0,0.1945 -3.41764,0 q 0.0278,0.39363 0.13892,0.68538 0.11578,0.29175 0.29639,0.48162 0.1806,0.18987 0.41678,0.28712 0.24081,0.0926 0.51867,0.0926 0.19913,0 0.39826,-0.0509 0.19913,-0.0556 0.35659,-0.15745 0.16208,-0.10651 0.25933,-0.25933 0.10188,-0.15746 0.10651,-0.35659 l 0.84747,0 q -0.0509,0.35196 -0.22229,0.62518 -0.16671,0.27323 -0.42605,0.45847 -0.25933,0.18523 -0.59739,0.28249 -0.33806,0.0973 -0.72243,0.0973 z m 1.19479,-2.82026 q -0.0509,-0.32417 -0.16209,-0.56498 -0.11114,-0.24544 -0.27785,-0.40752 -0.16672,-0.16208 -0.37974,-0.24544 -0.21303,-0.0834 -0.45847,-0.0834 -0.24544,0 -0.45846,0.0787 -0.2084,0.0787 -0.37511,0.24081 -0.16671,0.16208 -0.28249,0.40752 -0.11577,0.24544 -0.16208,0.57424 l 2.55629,0 z" />
        </g>
        <g
           id="text_open"
           style="font-style:normal;font-weight:normal;font-size:9.48420429px;line-height:125%;font-family:sans-serif;letter-spacing:0px;word-spacing:0px;fill-opacity:1;stroke:none;stroke-width:1px;stroke-linecap:butt;stroke-linejoin:miter;stroke-opacity:1"
           transform="scale(0.96681064,-1.0343287)">
          <path
             id="path4291"
             style="font-style:normal;font-variant:normal;font-weight:normal;font-stretch:normal;font-family:Shruti;-inkscape-font-specification:Shruti"
             d="m 360.52197,-637.35835 q 0.49089,0 0.88452,0.16208 0.39363,0.16208 0.67149,0.46773 0.27785,0.30564 0.42605,0.74558 0.14819,0.43994 0.14819,1.00029 0,0.56498 -0.15283,1.00955 -0.15282,0.43994 -0.43068,0.74558 -0.27785,0.30565 -0.67148,0.46773 -0.39364,0.15745 -0.87526,0.15745 -0.47698,0 -0.87062,-0.15745 -0.389,-0.15745 -0.67148,-0.4631 -0.27786,-0.30564 -0.43531,-0.74558 -0.15283,-0.44457 -0.15283,-1.01418 0,-0.56035 0.15283,-1.00029 0.15282,-0.44457 0.43067,-0.75021 0.27786,-0.30565 0.67149,-0.4631 0.39363,-0.16208 0.87525,-0.16208 z m 0,4.11692 q 0.28712,0 0.5233,-0.10651 0.24081,-0.11115 0.40753,-0.3288 0.17134,-0.22229 0.26396,-0.54645 0.0972,-0.3288 0.0972,-0.75948 0,-0.43068 -0.0972,-0.75485 -0.0926,-0.3288 -0.26396,-0.54645 -0.16672,-0.22229 -0.40753,-0.3288 -0.23618,-0.11114 -0.5233,-0.11114 -0.28711,0 -0.52792,0.11114 -0.23618,0.10651 -0.40753,0.3288 -0.17134,0.21765 -0.26859,0.54645 -0.0926,0.32417 -0.0926,0.75485 0,0.43068 0.0926,0.75948 0.0973,0.32416 0.26859,0.54645 0.17135,0.21765 0.40753,0.3288 0.24081,0.10651 0.52792,0.10651 z" />
          <path
             id="path4293"
             style="font-style:normal;font-variant:normal;font-weight:normal;font-stretch:normal;font-family:Shruti;-inkscape-font-specification:Shruti"
             d="m 364.35641,-636.71002 q 0.27323,-0.3288 0.59739,-0.48625 0.32417,-0.16208 0.69928,-0.16208 0.4492,0 0.79652,0.16671 0.34732,0.16672 0.5835,0.47699 0.24081,0.30564 0.36585,0.73632 0.12503,0.43068 0.12503,0.95861 0,0.55109 -0.14819,1.00029 -0.14356,0.44457 -0.40289,0.75948 -0.2547,0.3149 -0.60666,0.48625 -0.35195,0.17134 -0.7641,0.17134 -0.37511,0 -0.68539,-0.11114 -0.30564,-0.11577 -0.56034,-0.35195 l 0,2.09319 -0.80116,0 0,-6.27495 0.80116,0 0,0.53719 z m 0,2.91751 q 0.52793,0.55108 1.19942,0.55108 0.2547,0 0.46309,-0.11114 0.21303,-0.11578 0.35659,-0.33806 0.14819,-0.22229 0.22691,-0.55572 0.0834,-0.33343 0.0834,-0.77337 0,-0.83357 -0.29175,-1.26888 -0.28712,-0.43531 -0.80579,-0.43531 -0.67612,0 -1.23183,0.778 l 0,2.1534 z" />
          <path
             id="path4295"
             style="font-style:normal;font-variant:normal;font-weight:normal;font-stretch:normal;font-family:Shruti;-inkscape-font-specification:Shruti"
             d="m 370.34887,-632.60236 q -0.49551,0 -0.90304,-0.15745 -0.40752,-0.16208 -0.69927,-0.46773 -0.29175,-0.30564 -0.45384,-0.74558 -0.15745,-0.44457 -0.15745,-1.00955 0,-0.55572 0.15282,-0.99566 0.15746,-0.43994 0.43994,-0.74558 0.28249,-0.30564 0.67149,-0.46773 0.39363,-0.16671 0.86599,-0.16671 0.49088,0 0.88452,0.16208 0.39363,0.16208 0.67148,0.46773 0.27786,0.30564 0.42605,0.74558 0.14819,0.43994 0.14819,1.00029 l 0,0.1945 -3.41764,0 q 0.0278,0.39363 0.13892,0.68538 0.11578,0.29175 0.29639,0.48162 0.1806,0.18987 0.41678,0.28712 0.24081,0.0926 0.51867,0.0926 0.19913,0 0.39826,-0.0509 0.19913,-0.0556 0.35659,-0.15745 0.16208,-0.10652 0.25933,-0.25934 0.10188,-0.15745 0.10651,-0.35658 l 0.84747,0 q -0.0509,0.35195 -0.22229,0.62518 -0.16671,0.27323 -0.42605,0.45846 -0.25933,0.18524 -0.59739,0.28249 -0.33806,0.0973 -0.72243,0.0973 z m 1.19479,-2.82025 q -0.0509,-0.32417 -0.16209,-0.56498 -0.11114,-0.24544 -0.27785,-0.40752 -0.16672,-0.16209 -0.37974,-0.24544 -0.21303,-0.0834 -0.45847,-0.0834 -0.24544,0 -0.45846,0.0787 -0.2084,0.0787 -0.37511,0.24081 -0.16671,0.16209 -0.28249,0.40753 -0.11577,0.24544 -0.16208,0.57424 l 2.55629,0 z" />
          <path
             id="path4297"
             style="font-style:normal;font-variant:normal;font-weight:normal;font-stretch:normal;font-family:Shruti;-inkscape-font-specification:Shruti"
             d="m 374.09995,-636.67297 q 0.30101,-0.34732 0.63907,-0.51404 0.34269,-0.17134 0.71317,-0.17134 1.54211,0 1.54211,1.6764 l 0,2.96845 -0.81505,0 0,-2.92677 q 0,-0.56034 -0.19913,-0.80115 -0.1945,-0.24544 -0.63908,-0.24544 -0.61591,0 -1.24109,0.72243 l 0,3.25093 -0.80116,0 0,-4.53371 0.80116,0 0,0.57424 z" />
        </g>
        <g
           id="text_6"
           style="font-style:normal;font-variant:normal;font-weight:bold;font-stretch:normal;font-size:16px;line-height:125%;font-family:Arial;-inkscape-font-specification:'Arial Bold';letter-spacing:0px;word-spacing:0px;fill:#333333;fill-opacity:1;stroke:none;stroke-width:1px;stroke-linecap:butt;stroke-linejoin:miter;stroke-opacity:1"
           transform="scale(1,-1)">
          <path
             id="path4300"
             style="font-size:11.22999954px"
             d="m 414.98589,-642.77563 -1.49149,0.1645 q -0.0548,-0.4606 -0.28514,-0.67994 -0.2303,-0.21933 -0.59769,-0.21933 -0.48802,0 -0.82799,0.43867 -0.33449,0.43867 -0.42222,1.82597 0.57576,-0.67994 1.43117,-0.67994 0.96507,0 1.6505,0.73477 0.69091,0.73478 0.69091,1.89726 0,1.23377 -0.72381,1.97951 -0.72381,0.74574 -1.85887,0.74574 -1.21732,0 -2.00144,-0.94314 -0.78413,-0.94863 -0.78413,-3.10361 0,-2.20981 0.81703,-3.18585 0.81702,-0.97605 2.12207,-0.97605 0.91573,0 1.51342,0.51544 0.60317,0.50996 0.76768,1.486 z m -3.49293,3.36133 q 0,0.75122 0.34546,1.16248 0.34545,0.40577 0.7896,0.40577 0.42771,0 0.71285,-0.33449 0.28513,-0.33449 0.28513,-1.09668 0,-0.78413 -0.30707,-1.14603 -0.30707,-0.36739 -0.76767,-0.36739 -0.44416,0 -0.75123,0.35094 -0.30707,0.34545 -0.30707,1.0254 z" />
        </g>
        <g
           id="text_5"
           style="font-style:normal;font-variant:normal;font-weight:bold;font-stretch:normal;font-size:16px;line-height:125%;font-family:Arial;-inkscape-font-specification:'Arial Bold';letter-spacing:0px;word-spacing:0px;fill:#333333;fill-opacity:1;stroke:none;stroke-width:1px;stroke-linecap:butt;stroke-linejoin:miter;stroke-opacity:1"
           transform="scale(1,-1)">
          <path
             id="path4303"
             style="font-size:11.22999954px"
             d="m 394.68985,-666.31755 1.53535,-0.15901 q 0.0658,0.52092 0.38932,0.82799 0.32352,0.30159 0.74574,0.30159 0.48254,0 0.81703,-0.38933 0.33448,-0.3948 0.33448,-1.18441 0,-0.74026 -0.33448,-1.10765 -0.32901,-0.37287 -0.8609,-0.37287 -0.66349,0 -1.18989,0.58673 l -1.25022,-0.18096 0.78961,-4.18383 4.07417,0 0,1.44213 -2.90621,0 -0.24126,1.36537 q 0.51543,-0.25772 1.05281,-0.25772 1.02539,0 1.73824,0.74574 0.71284,0.74575 0.71284,1.93564 0,0.9925 -0.57576,1.77114 -0.78413,1.06378 -2.17691,1.06378 -1.11313,0 -1.815,-0.59769 -0.70188,-0.59769 -0.83896,-1.60664 z" />
        </g>
        <g
           id="text_1"
           style="font-style:normal;font-variant:normal;font-weight:bold;font-stretch:normal;font-size:11.22999954px;line-height:125%;font-family:Arial;-inkscape-font-specification:'Arial Bold';letter-spacing:0px;word-spacing:0px;fill:#333333;fill-opacity:1;stroke:none;stroke-width:1px;stroke-linecap:butt;stroke-linejoin:miter;stroke-opacity:1"
           transform="scale(1,-1)">
          <path
             id="path4306"
             style="stroke:none"
             d="m 297.19043,-636.81299 -1.54083,0 0,-5.80692 q -0.84445,0.78961 -1.99048,1.16797 l 0,-1.39827 q 0.60318,-0.1974 1.31054,-0.74574 0.70735,-0.55383 0.97056,-1.2886 l 1.25021,0 0,8.07156 z" />
        </g>
        <g
           id="text_4"
           style="font-style:normal;font-variant:normal;font-weight:bold;font-stretch:normal;font-size:16px;line-height:125%;font-family:Arial;-inkscape-font-specification:'Arial Bold';letter-spacing:0px;word-spacing:0px;fill-opacity:1;stroke:none;stroke-width:1px;stroke-linecap:butt;stroke-linejoin:miter;stroke-opacity:1"
           transform="scale(1,-1)">
          <path
             id="path4309"
             style="font-size:11.22999954px"
             d="m 370.2597,-679.46332 0,-1.6176 -3.29004,0 0,-1.34892 3.48744,-5.10504 1.29408,0 0,5.09956 0.99798,0 0,1.3544 -0.99798,0 0,1.6176 -1.49148,0 z m 0,-2.972 0,-2.74718 -1.84791,2.74718 1.84791,0 z" />
        </g>
        <g
           id="text_2"
           style="font-style:normal;font-variant:normal;font-weight:bold;font-stretch:normal;font-size:16px;line-height:125%;font-family:Arial;-inkscape-font-specification:'Arial Bold';letter-spacing:0px;word-spacing:0px;fill:#333333;fill-opacity:1;stroke:none;stroke-width:1px;stroke-linecap:butt;stroke-linejoin:miter;stroke-opacity:1"
           transform="scale(1,-1)">
          <path
             id="path4312"
             style="font-size:11.22999954px"
             d="m 315.04643,-665.69154 0,1.43116 -5.40115,0 q 0.0877,-0.81154 0.52641,-1.53535 0.43867,-0.72929 1.73275,-1.93015 1.04185,-0.97057 1.27764,-1.31602 0.31803,-0.47705 0.31803,-0.94314 0,-0.51544 -0.27965,-0.78961 -0.27417,-0.27966 -0.76219,-0.27966 -0.48254,0 -0.76768,0.29062 -0.28513,0.29062 -0.329,0.96508 l -1.53535,-0.15353 q 0.13708,-1.27215 0.86089,-1.82597 0.72381,-0.55383 1.80952,-0.55383 1.1899,0 1.86984,0.64156 0.67994,0.64156 0.67994,1.59567 0,0.54285 -0.1974,1.03636 -0.19192,0.48802 -0.61414,1.0254 -0.27965,0.35642 -1.00895,1.02539 -0.72929,0.66898 -0.92669,0.88831 -0.19192,0.21934 -0.31255,0.42771 l 3.05973,0 z" />
        </g>
        <g
           id="text_3"
           style="font-style:normal;font-variant:normal;font-weight:bold;font-stretch:normal;font-size:16px;line-height:125%;font-family:Arial;-inkscape-font-specification:'Arial Bold';letter-spacing:0px;word-spacing:0px;fill:#333333;fill-opacity:1;stroke:none;stroke-width:1px;stroke-linecap:butt;stroke-linejoin:miter;stroke-opacity:1"
           transform="scale(1,-1)">
          <path
             id="path4315"
             style="font-size:11.22999954px"
             d="m 337.33369,-681.48113 1.49148,-0.18095 q 0.0713,0.57028 0.38384,0.87186 0.31256,0.30159 0.75671,0.30159 0.47706,0 0.80058,-0.3619 0.329,-0.36191 0.329,-0.97605 0,-0.58124 -0.31255,-0.92121 -0.31256,-0.33997 -0.76219,-0.33997 -0.29611,0 -0.70736,0.11515 l 0.16998,-1.2557 q 0.62511,0.0164 0.95411,-0.26868 0.32901,-0.29062 0.32901,-0.76768 0,-0.40577 -0.24127,-0.64704 -0.24127,-0.24127 -0.64156,-0.24127 -0.3948,0 -0.67446,0.27417 -0.27965,0.27417 -0.33997,0.80058 l -1.4202,-0.24127 q 0.14805,-0.7293 0.44416,-1.16248 0.30158,-0.43868 0.83347,-0.68543 0.53738,-0.25224 1.20087,-0.25224 1.13506,0 1.82049,0.72381 0.56479,0.59221 0.56479,1.33795 0,1.0583 -1.157,1.68889 0.69091,0.14805 1.10216,0.66349 0.41674,0.51544 0.41674,1.24473 0,1.0583 -0.77316,1.80404 -0.77316,0.74574 -1.92467,0.74574 -1.0912,0 -1.80952,-0.62511 -0.71833,-0.63059 -0.83348,-1.64502 z" />
        </g>
      </g>
    </g>
    <rect
       style="opacity:1;fill:#999999;fill-opacity:0.99104477;stroke:none;stroke-width:1;stroke-linecap:butt;stroke-linejoin:round;stroke-miterlimit:4;stroke-dasharray:none;stroke-dashoffset:0;stroke-opacity:1"
       id="rect9073"
       width="213.1422"
       height="142.93658"
       x="318.07175"
       y="223.73254" />
    <g
       id="top_rail">
      <rect
         y="112.21935"
         x="320"
         height="117.85714"
         width="209.28572"
         id="rect9012"
         style="opacity:1;fill:#ffffff;fill-opacity:1;stroke:none;stroke-width:1;stroke-linecap:butt;stroke-linejoin:round;stroke-miterlimit:4;stroke-dasharray:none;stroke-dashoffset:0;stroke-opacity:1" />
      <rect
         style="opacity:1;fill:#ffffff;fill-opacity:1;stroke:#4d4d4d;stroke-width:0.99999988;stroke-linecap:butt;stroke-linejoin:round;stroke-miterlimit:4;stroke-dasharray:none;stroke-dashoffset:0;stroke-opacity:1"
         id="rect9042"
         width="220"
         height="6.2499995"
         x="314.64285"
         y="226.14793" />
    </g>
    <rect
       style="opacity:1;fill:#ffffff;fill-opacity:1;stroke:#4d4d4d;stroke-width:1;stroke-linecap:butt;stroke-linejoin:round;stroke-miterlimit:4;stroke-dasharray:none;stroke-dashoffset:0;stroke-opacity:1"
       id="rect9010"
       width="220"
       height="9.999999"
       x="314.64285"
       y="217.3622" />
    <g
       id="bottom_rail">
      <rect
         y="361.64792"
         x="317.14285"
         height="154.28572"
         width="215"
         id="rect9008"
         style="opacity:1;fill:#ffffff;fill-opacity:1;stroke:none;stroke-width:1;stroke-linecap:butt;stroke-linejoin:round;stroke-miterlimit:4;stroke-dasharray:none;stroke-dashoffset:0;stroke-opacity:1" />
      <rect
         y="357.36221"
         x="314.64285"
         height="6.2499995"
         width="220"
         id="rect9040"
         style="opacity:1;fill:#ffffff;fill-opacity:1;stroke:#4d4d4d;stroke-width:0.99999988;stroke-linecap:butt;stroke-linejoin:round;stroke-miterlimit:4;stroke-dasharray:none;stroke-dashoffset:0;stroke-opacity:1" />
    </g>
    <path
       id="play_button"
       d="m 124.35127,175.35181 0,-24.32447 21.8215,12.16224 z"
       style="fill:#999999;fill-rule:evenodd;stroke:#999999;stroke-width:3.68000007;stroke-linecap:butt;stroke-linejoin:round;stroke-miterlimit:4;stroke-dasharray:none;stroke-opacity:1" />
    <g
       id="tooltip">
      <circle
         style="opacity:1;fill:#000000;fill-opacity:1;stroke:none;stroke-width:1;stroke-linecap:butt;stroke-linejoin:round;stroke-miterlimit:4;stroke-dasharray:none;stroke-dashoffset:0;stroke-opacity:1"
         id="pointer"
         cx="206.83392"
         cy="149.71649"
         r="4" />
      <rect
         ry="0"
         y="149.71655"
         x="206.83391"
         height="27.39889"
         width="235.08249"
         id="text_background"
         style="opacity:0.95;fill:#000000;fill-opacity:1;stroke:none;stroke-width:1;stroke-linecap:butt;stroke-linejoin:round;stroke-miterlimit:4;stroke-dasharray:none;stroke-dashoffset:0;stroke-opacity:1" />
      <text
         id="text_container"
         y="167.63112"
         x="212.31369"
         style="font-style:normal;font-weight:normal;font-size:13.75px;line-height:125%;font-family:sans-serif;text-align:start;letter-spacing:0px;word-spacing:0px;text-anchor:start;fill:#ffffff;fill-opacity:1;stroke:none;stroke-width:1px;stroke-linecap:butt;stroke-linejoin:miter;stroke-opacity:1"
         xml:space="preserve"><tspan
           y="167.63112"
           x="212.31369"
           id="guide_text1">Press play to start the animation</tspan><tspan
           y="184.81862"
           x="212.31369"
           id="guide_text2" /></text>
    </g>
    <rect
       style="opacity:1;fill:#999999;fill-opacity:1;stroke:none;stroke-width:1;stroke-linecap:butt;stroke-linejoin:round;stroke-miterlimit:4;stroke-dasharray:none;stroke-dashoffset:0;stroke-opacity:1"
       id="stop_button"
       width="27.398891"
       height="26.302935"
       x="123.03272"
       y="149.60051"
       ry="3.503438" />
    <rect
       style="opacity:1;fill:none;fill-opacity:1;stroke:none;stroke-width:1;stroke-linecap:butt;stroke-linejoin:round;stroke-miterlimit:4;stroke-dasharray:none;stroke-dashoffset:0;stroke-opacity:1"
       id="text_start"
       width="7.8086839"
       height="8.2196674"
       x="204.59755"
       y="176.58842" />
  </g>
</svg>
