<?xml version="1.0" encoding="UTF-8" standalone="no"?>
<svg
   xmlns:dc="http://purl.org/dc/elements/1.1/"
   xmlns:cc="http://creativecommons.org/ns#"
   xmlns:rdf="http://www.w3.org/1999/02/22-rdf-syntax-ns#"
   xmlns:svg="http://www.w3.org/2000/svg"
   xmlns="http://www.w3.org/2000/svg"
   xmlns:xlink="http://www.w3.org/1999/xlink"
   xmlns:sodipodi="http://sodipodi.sourceforge.net/DTD/sodipodi-0.dtd"
   xmlns:inkscape="http://www.inkscape.org/namespaces/inkscape"
   viewBox="0 0 141.73228 194.88191"
   height="55mm"
   width="40mm"
   xml:space="preserve"
   version="1.1"
   id="svg2"
   inkscape:version="0.91 r13725"
   sodipodi:docname="m25s_vb_motor_bottom_limit_detail_slat180.svg"
   inkscape:export-filename="C:\Users\bogaert-b\apps\nordic\static\app\images\m25t_motor_button_push_top_limit_rollo.png"
   inkscape:export-xdpi="127"
   inkscape:export-ydpi="127"><sodipodi:namedview
     pagecolor="#ffffff"
     bordercolor="#666666"
     borderopacity="1"
     objecttolerance="10"
     gridtolerance="10"
     guidetolerance="10"
     inkscape:pageopacity="0"
     inkscape:pageshadow="2"
     inkscape:window-width="1920"
     inkscape:window-height="1017"
     id="namedview3215"
     showgrid="false"
     inkscape:zoom="4.3205657"
     inkscape:cx="70.866142"
     inkscape:cy="97.440945"
     inkscape:window-x="-8"
     inkscape:window-y="-8"
     inkscape:window-maximized="1"
     inkscape:current-layer="svg2"
     inkscape:showpageshadow="false"
     showborder="true"
     borderlayer="true" /><metadata
     id="metadata8"><rdf:RDF><cc:Work
         rdf:about=""><dc:format>image/svg+xml</dc:format><dc:type
           rdf:resource="http://purl.org/dc/dcmitype/StillImage" /><dc:title /></cc:Work></rdf:RDF></metadata><defs
     id="defs6"><clipPath
       id="clipPath16"
       clipPathUnits="userSpaceOnUse"><path
         id="path18"
         d="m 0,400 399.686,0 0,-400 L 0,0 0,400 Z"
         inkscape:connector-curvature="0" /></clipPath><clipPath
       id="clipPath24"
       clipPathUnits="userSpaceOnUse"><path
         id="path26"
         d="m -7.74023,403.219 626.91323,0 0,-416.3655 -626.91323,0 0,416.3655 z"
         inkscape:connector-curvature="0" /></clipPath><clipPath
       id="clipPath2612"
       clipPathUnits="userSpaceOnUse"><path
         id="path2614"
         d="m 152.713,174 246.973,0 0,226 -246.973,0 0,-226 z"
         inkscape:connector-curvature="0" /></clipPath><clipPath
       id="clipPath6476"
       clipPathUnits="userSpaceOnUse"><path
         id="path6478"
         d="m 0,400 399.686,0 0,-400 L 0,0 0,400 Z"
         inkscape:connector-curvature="0" /></clipPath><clipPath
       id="clipPath6488"
       clipPathUnits="userSpaceOnUse"><path
         id="path6490"
         d="m 100.553,254.707 c -6.105,0 -11.054,-4.95 -11.054,-11.055 l 0,0 0,-51.591 c 0,-6.106 4.949,-11.056 11.054,-11.056 l 0,0 51.59,0 c 6.106,0 11.055,4.95 11.055,11.056 l 0,0 0,51.591 c 0,6.105 -4.949,11.055 -11.055,11.055 l 0,0 -51.59,0 z"
         inkscape:connector-curvature="0" /></clipPath><clipPath
       id="clipPath10284"
       clipPathUnits="userSpaceOnUse"><path
         id="path10286"
         d="m 0,400 399.686,0 0,-400 L 0,0 0,400 Z"
         inkscape:connector-curvature="0" /></clipPath><clipPath
       id="clipPath10364"
       clipPathUnits="userSpaceOnUse"><path
         id="path10366"
         d="m 108.37,191.577 26.796,0 0,-22.827 -26.796,0 0,22.827 z"
         inkscape:connector-curvature="0" /></clipPath><clipPath
       id="clipPath4764"
       clipPathUnits="userSpaceOnUse"><path
         id="path4766-6"
         d="m 133.042,338.09 224.153,0 0,133.229 -224.153,0 0,-133.229 z"
         inkscape:connector-curvature="0" /></clipPath><clipPath
       id="clipPath4764-5"
       clipPathUnits="userSpaceOnUse"><path
         id="path4766-6-8"
         d="m 133.042,338.09 224.153,0 0,133.229 -224.153,0 0,-133.229 z"
         inkscape:connector-curvature="0" /></clipPath><linearGradient
       id="linearGradient4539"
       inkscape:collect="always"><stop
         id="stop4549"
         offset="0"
         style="stop-color:#ff0000;stop-opacity:1;" /><stop
         id="stop4551"
         offset="1"
         style="stop-color:#ff0000;stop-opacity:0;" /></linearGradient><linearGradient
       inkscape:collect="always"
       xlink:href="#linearGradient4539"
       id="linearGradient9278"
       x1="-0.56196237"
       y1="1.015123"
       x2="-0.83013892"
       y2="-21.186638"
       gradientUnits="userSpaceOnUse" /><linearGradient
       inkscape:collect="always"
       xlink:href="#linearGradient4539"
       id="linearGradient11350"
       x1="109.60091"
       y1="110.82273"
       x2="57.387642"
       y2="110.82273"
       gradientUnits="userSpaceOnUse" /></defs><g
     id="g10992"
     transform="translate(-16.955007,782.21338)"><g
       transform="translate(106.90022,526.08744)"
       id="g10173"><path
         d="m -54.960661,-1142.6863 0.24232,0.1377 0.25256,0.137 0.263571,0.1371 0.27673,0.1384 0.29064,0.1393 0.0366,0.014 0.30969,0.142 0.3126,0.1371 0.31554,0.1332 0.31846,0.1283 0.32139,0.1231 0.32359,0.1186 0.32651,0.1135 0.32798,0.1091 0.33019,0.1041 0.33237,0.099 0.33384,0.094 0.33529,0.089 0.33678,0.083 0.014,0 0.3375,0.078 0.33823,0.073"
         style="fill:none;stroke:#000e0e;stroke-width:0.44397089;stroke-linecap:butt;stroke-linejoin:miter;stroke-miterlimit:2;stroke-dasharray:none;stroke-opacity:1"
         id="path42472-3-8-1-7-8"
         inkscape:connector-curvature="0" /><path
         d="m -48.68461,-1140.3506 117.001649,-33.1989"
         style="fill:none;stroke:#000e0e;stroke-width:0.44397089;stroke-linecap:butt;stroke-linejoin:miter;stroke-miterlimit:2;stroke-dasharray:none;stroke-opacity:1"
         id="path42478-0-0-0-1-2"
         inkscape:connector-curvature="0" /><path
         style="fill:#ffffff;fill-opacity:1;fill-rule:evenodd;stroke:#000000;stroke-width:0.10000001;stroke-linecap:butt;stroke-linejoin:miter;stroke-miterlimit:4;stroke-dasharray:none;stroke-opacity:1"
         d="m -81.188382,-1142.8347 -5.14862,1.4915 -0.50823,0.4862 -0.32041,0.7292 -0.11049,0.7955 0.14363,0.8397 0.34251,0.8728 0.51928,1.4473 0.35355,1.5689 0.24307,1.4143 0.0442,1.381 -0.0773,1.4032 -0.15468,1.2706 -0.26516,1.1822 -0.3646,1.1159 -0.35356,0.8286 -0.17677,0.6629 0,0.6077 0.14363,0.7402 0.48613,0.9392 0.63792,0.661 0.84375,0.4375 1.875,0.9688 1.78125,0.8593 2.65625,1.125 3.09375,1.125 2.42187,0.75 2.796881,0.6875 2.09375,0.4219 1.92188,0.2813 2.39062,0.25 2.10938,0.062 2.25,0.031 2.14061,-0.125 1.40625,-0.094 1.51562,-0.4297 -0.28125,0.539 -0.64844,0.3985 -1.55468,0.414 -2.98436,0.625 -2.10938,0.2969 -1.82812,0.1094 -2.40625,-0.031 -2.3125,-0.1718 -2.21875,-0.2969 -2.437511,-0.4844 -1.96875,-0.5781 -2.34375,-0.7969 -2.73437,-1.0937 -2.07813,-1 -1.625,-0.8438 -2.57812,-1.6094 -1.375,-0.9687 -0.5625,-0.4063 -0.28125,-0.3281 -0.34375,-0.5937 -0.28125,-0.7657 -0.125,-0.5937 0.0312,-1.5313 -0.21353,-12.9464 0.0442,-0.6076 0.17678,-0.674 0.27621,-0.5193 0.41985,-0.453 0.54137,-0.4419 0.91703,-0.3315 1.30373,-0.3314 1.5026,-0.3536 1.43631,-0.2872 z"
         id="path31847-5-1-9-3"
         inkscape:connector-curvature="0" /><path
         style="fill:#c7ddef;fill-opacity:1;fill-rule:evenodd;stroke:#000000;stroke-width:0.10000001;stroke-linecap:butt;stroke-linejoin:miter;stroke-miterlimit:4;stroke-dasharray:none;stroke-opacity:1"
         d="m -86.093932,-1141.4426 -0.53033,0.2652 -0.33146,0.464 -0.24307,0.9281 -0.0663,0.7292 0.26517,0.906 0.46404,1.2153 0.35355,1.149 0.28726,1.2596 0.17678,1.3258 0.0663,1.0828 -0.0221,1.4805 -0.19887,1.5026 -0.24307,1.149 -0.28727,0.8839 -0.41984,0.9281 -0.19887,0.8176 0,0.7071 0.28726,0.9501 0.44194,0.7955 0.55243,0.4641 1.17114,0.6629 1.37002,0.7071 1.87826,0.906 1.83405,0.8176 2.3423,0.8839 2.05502,0.7071 2.20971,0.685 2.673751,0.6408 2.23181,0.3977 2.47487,0.3757 2.98311,0.2431 2.2981,0.022 1.87825,-0.066 1.5026,-0.088 1.17115,-0.1547 1.37002,-0.3757 2.408581,-0.6629 236.14896,-67.0337 0.0156,-34.4062 z"
         id="path31845-2-6-3-0"
         inkscape:connector-curvature="0" /><path
         d="m -87.743312,-1141.5761 -0.0805,0.022 -0.0797,0.029 -0.0791,0.029 -0.0783,0.029 -0.0775,0.037 -0.0769,0.037 -0.0739,0.036 -0.0739,0.044 -0.0731,0.044 -0.0731,0.044 -0.0659,0.051 -0.0659,0.051 -0.0659,0.051 -0.0659,0.059 -0.0659,0.059 -0.0585,0.059 -0.0585,0.066 -0.0585,0.066 -0.0585,0.066 -0.0513,0.066 -0.0513,0.073 -0.0365,0.059 -0.0513,0.074 -0.0439,0.076 -0.0439,0.078 -0.044,0.079 -0.0366,0.081 -0.0365,0.083 -0.0365,0.084 -0.0294,0.086 -0.0294,0.087 -0.0294,0.088 -0.008,0.029 -0.0219,0.089 -0.0219,0.091 -0.0219,0.091 -0.014,0.093 -0.014,0.094 -0.008,0.095 -0.008,0.096 -0.006,0.096 -0.002,0.097 3e-4,0.09"
         style="fill:none;stroke:#000e0e;stroke-width:0.44397089;stroke-linecap:butt;stroke-linejoin:miter;stroke-miterlimit:2;stroke-dasharray:none;stroke-opacity:1"
         id="path21378-5-5-9-7-9-5"
         inkscape:connector-curvature="0" /><path
         d="m -89.489722,-1124.3458 -0.23355,-14.3689"
         style="fill:none;stroke:#000e0e;stroke-width:0.44397089;stroke-linecap:butt;stroke-linejoin:miter;stroke-miterlimit:2;stroke-dasharray:none;stroke-opacity:1"
         id="path21380-2-1-5-5-0-0"
         inkscape:connector-curvature="0" /><path
         d="m -86.303342,-1141.9846 0.002,-9e-4 0.002,-6e-4 0.004,0 0.002,-7e-4 0.002,-8e-4 0.004,-7e-4 0.002,-9e-4 0.002,-6e-4 0.002,0 0.002,-7e-4"
         style="fill:none;stroke:#000e0e;stroke-width:0.44397089;stroke-linecap:butt;stroke-linejoin:miter;stroke-miterlimit:2;stroke-dasharray:none;stroke-opacity:1"
         id="path21382-9-4-4-4-6-0"
         inkscape:connector-curvature="0" /><path
         d="m -80.970142,-1142.9264 c -1.7927,0.1508 -3.56818,0.4637 -5.30488,0.9339"
         style="fill:none;stroke:#000e0e;stroke-width:0.44397089;stroke-linecap:butt;stroke-linejoin:miter;stroke-miterlimit:2;stroke-dasharray:none;stroke-opacity:1"
         id="path21384-9-2-2-0-9-0"
         inkscape:connector-curvature="0" /><path
         d="m -89.489722,-1124.3458 0.002,0.091 0.006,0.091 0.008,0.092 0.008,0.091 0.014,0.091 0.014,0.091 0.014,0.091 0.002,0.014 0.0219,0.091 0.022,0.09 0.0219,0.089 0.0294,0.089 0.0294,0.088 0.0294,0.087 0.0365,0.086 0.0366,0.085 0.0365,0.083 0.0365,0.082 0.0294,0.059 0.0439,0.081 0.0439,0.079 0.0513,0.078 0.0513,0.076 0.0513,0.075 0.0513,0.073 0.0585,0.073 0.0585,0.066 0.0585,0.066 0.0585,0.066 0.0585,0.066 0.0659,0.059 0.0659,0.059 0.0659,0.059 0.0659,0.051 0.0659,0.051 0.0659,0.051"
         style="fill:none;stroke:#000e0e;stroke-width:0.44397089;stroke-linecap:butt;stroke-linejoin:miter;stroke-miterlimit:2;stroke-dasharray:none;stroke-opacity:1"
         id="path21386-0-4-4-4-6-8"
         inkscape:connector-curvature="0" /><path
         d="m -56.858961,-1114.7239 -0.85524,0.2191 -0.86599,0.1956 -0.87582,0.1714 -0.884,0.1472 -0.89147,0.1217 -0.89727,0.097 -0.90173,0.073 -0.90458,0.044 -0.63399,0.014 -0.90664,0 -0.91336,-0.022 -0.91982,-0.051 -0.92559,-0.076 -0.93057,-0.1019 -0.93453,-0.1283 -0.938171,-0.1546 -0.94032,-0.1816 -0.54542,-0.1173 -0.94237,-0.2234 -0.9455,-0.2506 -0.94844,-0.2776 -0.95084,-0.3055 -0.95291,-0.3325 -0.95421,-0.3605 -0.95488,-0.3882 -0.95488,-0.4161 -0.32577,-0.148 -0.95379,-0.4527 -0.95334,-0.4813 -0.95239,-0.5091 -0.95135,-0.5377 -0.94954,-0.5663 -0.94705,-0.5948 -0.94418,-0.6234 -0.94061,-0.6519 -0.0659,-0.044"
         style="fill:none;stroke:#000e0e;stroke-width:0.44397089;stroke-linecap:butt;stroke-linejoin:miter;stroke-miterlimit:2;stroke-dasharray:none;stroke-opacity:1"
         id="path21388-0-6-6-4-4-8"
         inkscape:connector-curvature="0" /><path
         d="m -56.858961,-1114.7239 c 0.006,0 0.014,0 0.014,0"
         style="fill:none;stroke:#000e0e;stroke-width:0.44397089;stroke-linecap:butt;stroke-linejoin:miter;stroke-miterlimit:2;stroke-dasharray:none;stroke-opacity:1"
         id="path21390-0-9-7-0-2-1"
         inkscape:connector-curvature="0" /><path
         d="m -56.841101,-1114.7287 c 0.002,-9e-4 0.006,0 0.008,0"
         style="fill:none;stroke:#000e0e;stroke-width:0.44397089;stroke-linecap:butt;stroke-linejoin:miter;stroke-miterlimit:2;stroke-dasharray:none;stroke-opacity:1"
         id="path21392-5-3-2-7-9-3"
         inkscape:connector-curvature="0" /><path
         d="m -86.303342,-1141.9846 -0.014,0"
         style="fill:none;stroke:#000e0e;stroke-width:0.44397089;stroke-linecap:butt;stroke-linejoin:miter;stroke-miterlimit:2;stroke-dasharray:none;stroke-opacity:1"
         id="path21394-4-9-5-8-3-7"
         inkscape:connector-curvature="0" /><path
         d="m -55.408101,-1115.1354 0.0366,-0.014 0.0365,-0.014 0.0365,-0.014 0.0365,-0.014 0.0365,-0.014 0.0365,-0.014 0.0366,-0.022 0.0365,-0.022 0.0366,-0.022 0.0365,-0.022 0.0365,-0.022 0.0366,-0.022 0.0365,-0.022 0.0365,-0.029 0.0366,-0.029 0.0365,-0.029 0.008,-0.01 0.0294,-0.029 0.0294,-0.029 0.0294,-0.029 0.0294,-0.029 0.0294,-0.036 0.0294,-0.037 0.0294,-0.036 0.0294,-0.037 0.0294,-0.037 0.0294,-0.037 0.0294,-0.036 0.0294,-0.044 0.0294,-0.044 0.0294,-0.044 0.0219,-0.044 0.0219,-0.036"
         style="fill:none;stroke:#000e0e;stroke-width:0.44397089;stroke-linecap:butt;stroke-linejoin:miter;stroke-miterlimit:2;stroke-dasharray:none;stroke-opacity:1"
         id="path21396-8-0-3-3-3-7"
         inkscape:connector-curvature="0" /><path
         d="m -56.832181,-1114.7314 1.40799,-0.3992"
         style="fill:none;stroke:#000e0e;stroke-width:0.44397089;stroke-linecap:butt;stroke-linejoin:miter;stroke-miterlimit:2;stroke-dasharray:none;stroke-opacity:1"
         id="path21398-5-1-2-2-7-8"
         inkscape:connector-curvature="0" /><path
         d="m -55.424191,-1115.1309 0.014,0"
         style="fill:none;stroke:#000e0e;stroke-width:0.44397089;stroke-linecap:butt;stroke-linejoin:miter;stroke-miterlimit:2;stroke-dasharray:none;stroke-opacity:1"
         id="path21400-8-9-3-6-3-0"
         inkscape:connector-curvature="0" /><path
         d="m -87.743312,-1141.5761 1.42408,-0.4044"
         style="fill:none;stroke:#000e0e;stroke-width:0.44397089;stroke-linecap:butt;stroke-linejoin:miter;stroke-miterlimit:2;stroke-dasharray:none;stroke-opacity:1"
         id="path21402-5-2-8-6-3-2"
         inkscape:connector-curvature="0" /><path
         d="m -89.157942,-1139.0862 1.42378,-0.4037"
         style="fill:none;stroke:#000e0e;stroke-width:0.11099268;stroke-linecap:butt;stroke-linejoin:miter;stroke-miterlimit:2;stroke-dasharray:none;stroke-opacity:1"
         id="path21404-2-6-3-4-0-0"
         inkscape:connector-curvature="0" /><path
         d="m -56.847981,-1114.7269 0.014,0"
         style="fill:none;stroke:#000e0e;stroke-width:0.11099268;stroke-linecap:butt;stroke-linejoin:miter;stroke-miterlimit:2;stroke-dasharray:none;stroke-opacity:1"
         id="path21406-1-3-4-3-8-4"
         inkscape:connector-curvature="0" /><path
         d="m -56.832181,-1114.7314 1.40799,-0.3992"
         style="fill:none;stroke:#000e0e;stroke-width:0.11099268;stroke-linecap:butt;stroke-linejoin:miter;stroke-miterlimit:2;stroke-dasharray:none;stroke-opacity:1"
         id="path21408-7-2-0-9-8-3"
         inkscape:connector-curvature="0" /><path
         d="m -55.424191,-1115.1309 0.014,0"
         style="fill:none;stroke:#000e0e;stroke-width:0.44397089;stroke-linecap:butt;stroke-linejoin:miter;stroke-miterlimit:2;stroke-dasharray:none;stroke-opacity:1"
         id="path21410-9-5-1-9-7-6"
         inkscape:connector-curvature="0" /><path
         d="m -88.924032,-1124.7173 1.42408,-0.4036"
         style="fill:none;stroke:#000e0e;stroke-width:0.11099268;stroke-linecap:butt;stroke-linejoin:miter;stroke-miterlimit:2;stroke-dasharray:none;stroke-opacity:1"
         id="path21412-0-7-3-2-0-4"
         inkscape:connector-curvature="0" /><path
         d="m -87.499952,-1125.1213 0.004,0.1077 0.006,0.1077 0.008,0.1076 0.014,0.1077 0.014,0.1077 0.014,0.1077 0.0219,0.1077 0.022,0.1085 0.014,0.059 0.006,0.029 0.0294,0.1084 0.0294,0.1077 0.0366,0.1069 0.0365,0.1055 0.0365,0.1047 0.0439,0.1033 0.044,0.1019 0.0439,0.1 0.0514,0.098 0.0513,0.095 0.0513,0.094 0.0513,0.091 0.0585,0.088 0.0585,0.086 0.0585,0.084 0.0585,0.081 0.0585,0.078 0.0659,0.075 0.0659,0.073 0.0659,0.066 0.0659,0.066 0.0659,0.066 0.0659,0.059 0.0659,0.058 0.0733,0.059 0.0731,0.051"
         style="fill:none;stroke:#000e0e;stroke-width:0.44397089;stroke-linecap:butt;stroke-linejoin:miter;stroke-miterlimit:2;stroke-dasharray:none;stroke-opacity:1"
         id="path21414-6-6-2-8-5-7"
         inkscape:connector-curvature="0" /><path
         d="m -87.401502,-1121.5621 1.42387,-0.4044"
         style="fill:none;stroke:#000e0e;stroke-width:0.11099268;stroke-linecap:butt;stroke-linejoin:miter;stroke-miterlimit:2;stroke-dasharray:none;stroke-opacity:1"
         id="path21416-7-8-4-8-0-2"
         inkscape:connector-curvature="0" /><path
         d="m -89.723632,-1138.7147 2.2e-4,-0.01 6.5e-4,-0.01 0.001,-0.01 0.002,-0.01 0.002,-0.01 0.004,-0.01 0.004,-0.01 0.004,-0.01 0.004,-0.01 0.006,-0.01 0.006,-0.01 0.006,-0.01 0.008,-0.01 0.008,-0.01 0.008,-0.01 0.008,-0.01 0.008,-0.01 0.014,-0.01 0.014,-0.01 0.014,-0.01 0.014,-0.01 0.004,0 0.014,-0.01 0.014,-0.01 0.014,-0.01 0.014,-0.01 0.0219,-0.01 0.022,-0.01 0.0219,-0.01 0.0219,-0.01 0.022,-0.01 0.0294,-0.014 0.0294,-0.014 0.0294,-0.014 0.0365,-0.014 0.0365,-0.014 0.0365,-0.01 0.0365,-0.01 0.008,0"
         style="fill:none;stroke:#000e0e;stroke-width:0.11099268;stroke-linecap:butt;stroke-linejoin:miter;stroke-miterlimit:2;stroke-dasharray:none;stroke-opacity:1"
         id="path21418-7-5-8-4-4-6"
         inkscape:connector-curvature="0" /><path
         d="m -55.424191,-1115.1309 -0.002,6e-4 -0.002,0 -0.004,7e-4 -0.002,8e-4 -0.004,7e-4 -0.002,7e-4 -0.002,8e-4 -0.004,8e-4 -0.002,8e-4 -0.002,7e-4"
         style="fill:none;stroke:#000e0e;stroke-width:0.44397089;stroke-linecap:butt;stroke-linejoin:miter;stroke-miterlimit:2;stroke-dasharray:none;stroke-opacity:1"
         id="path21422-0-0-0-7-7-0"
         inkscape:connector-curvature="0" /><path
         d="m -55.643331,-1115.0723 c 0.0659,-0.014 0.12743,-0.037 0.19115,-0.051"
         style="fill:none;stroke:#000e0e;stroke-width:0.44397089;stroke-linecap:butt;stroke-linejoin:miter;stroke-miterlimit:2;stroke-dasharray:none;stroke-opacity:1"
         id="path21424-6-9-1-0-9-1"
         inkscape:connector-curvature="0" /><path
         d="m -56.841321,-1114.7824 c 0.40117,-0.089 0.80078,-0.1854 1.19799,-0.2901"
         style="fill:none;stroke:#000e0e;stroke-width:0.44397089;stroke-linecap:butt;stroke-linejoin:miter;stroke-miterlimit:2;stroke-dasharray:none;stroke-opacity:1"
         id="path21426-9-3-2-6-8-5"
         inkscape:connector-curvature="0" /><path
         d="m -56.841321,-1114.7824 -0.002,5e-4 -0.002,6e-4 -0.002,5e-4 -0.002,6e-4 -0.004,8e-4 -0.002,4e-4 -0.002,7e-4 -0.002,6e-4 -0.002,5e-4 -0.002,6e-4"
         style="fill:none;stroke:#000e0e;stroke-width:0.44397089;stroke-linecap:butt;stroke-linejoin:miter;stroke-miterlimit:2;stroke-dasharray:none;stroke-opacity:1"
         id="path21428-6-5-8-2-4-8"
         inkscape:connector-curvature="0" /><path
         d="m -56.868321,-1114.7766 -0.82378,0.1684 -0.83357,0.1459 -0.84207,0.1223 -0.84988,0.1 -0.85611,0.076 -0.86153,0.051 -0.86527,0.029 -0.86827,0 -0.36459,-0.01 -0.86951,-0.029 -0.87603,-0.051 -0.88167,-0.078 -0.88716,-0.1033 -0.8917,-0.1283 -0.89565,-0.1524 -0.89902,-0.178 -0.901731,-0.2029 -0.27747,-0.066 -0.90347,-0.2351 -0.90664,-0.2608 -0.90933,-0.2871 -0.91176,-0.3128 -0.91374,-0.3392 -0.91512,-0.3648 -0.9163,-0.3912 -0.91645,-0.4175 -0.0915,-0.044 -0.91628,-0.4461 -0.916,-0.4725 -0.91535,-0.4996 -0.91445,-0.5267 -0.91309,-0.5531 -0.91132,-0.5802 -0.90891,-0.6072 -0.78465,-0.5472"
         style="fill:none;stroke:#000e0e;stroke-width:0.44397089;stroke-linecap:butt;stroke-linejoin:miter;stroke-miterlimit:2;stroke-dasharray:none;stroke-opacity:1"
         id="path21430-0-9-6-4-7-6"
         inkscape:connector-curvature="0" /><path
         d="m -87.499952,-1125.1213 -0.23429,-14.3689"
         style="fill:none;stroke:#000e0e;stroke-width:0.44397089;stroke-linecap:butt;stroke-linejoin:miter;stroke-miterlimit:2;stroke-dasharray:none;stroke-opacity:1"
         id="path21432-4-8-6-7-9-8"
         inkscape:connector-curvature="0" /><path
         d="m -89.489722,-1124.3458 2.2e-4,-0.01 6.5e-4,-0.01 10e-4,-0.01 0.002,-0.01 0.002,-0.01 0.002,-0.01 0.004,-0.01 0.004,-0.01 0.004,-0.01 0.006,-0.01 0.006,-0.01 0.006,-0.01 0.008,-0.01 0.008,-0.01 0.008,-0.01 0.008,-0.01 0.014,-0.01 0.014,-0.01 0.014,-0.01 0.014,-0.01 0.014,-0.01 0.004,0 0.014,-0.014 0.014,-0.01 0.014,-0.01 0.0219,-0.01 0.0219,-0.01 0.0219,-0.01 0.022,-0.01 0.0219,-0.01 0.0219,-0.01 0.0294,-0.014 0.0294,-0.014 0.0294,-0.014 0.0365,-0.014 0.0365,-0.014 0.0365,-0.01 0.0365,-0.01 0.008,0"
         style="fill:none;stroke:#000e0e;stroke-width:0.11099268;stroke-linecap:butt;stroke-linejoin:miter;stroke-miterlimit:2;stroke-dasharray:none;stroke-opacity:1"
         id="path21434-3-8-4-9-8-1"
         inkscape:connector-curvature="0" /><path
         d="m -86.319462,-1141.9804 -0.0585,0.014 -0.0585,0.022 -0.0585,0.022 -0.0513,0.022 -0.0513,0.029 -0.0513,0.029 -0.0513,0.029 -0.0513,0.029 -0.0513,0.037 -0.0513,0.036 -0.0513,0.037 -0.002,0 -0.044,0.044 -0.0439,0.044 -0.0439,0.044 -0.044,0.044 -0.0439,0.051 -0.0439,0.051 -0.044,0.051 -0.0439,0.059 -0.0365,0.059 -0.0366,0.059 -0.0294,0.044 -0.0366,0.066 -0.0365,0.066 -0.0294,0.066 -0.0294,0.073 -0.0294,0.073 -0.0294,0.075 -0.0294,0.076 -0.0219,0.078 -0.0219,0.081 -0.022,0.082 -0.004,0.014 -0.014,0.084 -0.014,0.086 -0.014,0.087 -0.014,0.089 -0.008,0.09 -0.008,0.091 -0.006,0.092 -0.004,0.093 -0.001,0.094 4.4e-4,0.066"
         style="fill:none;stroke:#000e0e;stroke-width:0.44397089;stroke-linecap:butt;stroke-linejoin:miter;stroke-miterlimit:2;stroke-dasharray:none;stroke-opacity:1"
         id="path21436-5-7-8-2-5-3"
         inkscape:connector-curvature="0" /><path
         d="m -87.743312,-1141.5761 0,0"
         style="fill:none;stroke:#000e0e;stroke-width:0.11099268;stroke-linecap:butt;stroke-linejoin:miter;stroke-miterlimit:2;stroke-dasharray:none;stroke-opacity:1"
         id="path21438-5-5-1-2-6-5"
         inkscape:connector-curvature="0" /><path
         d="m -88.109932,-1121.6359 0.014,0.01 0.014,0.01 0.014,0.01 0.014,0.01 0.014,0.01 0.014,0.01 0.014,0.01 0.014,0.01 0.014,0.01 0.0219,0.01 0.0219,0.01 0.022,0.01 0.0219,0 0.0219,0 0.022,0 0.0219,0 0.022,0 0.008,9e-4 0.022,0 0.0219,0 0.022,9e-4 0.0219,2e-4 0.0219,0 0.022,-9e-4 0.0219,0 0.0219,0 0.0219,0 0.0219,0 0.022,0 0.0219,0 0.0294,-0.01 0.0294,-0.01 0.0294,-0.01 0.0294,-0.01 0.014,0"
         style="fill:none;stroke:#000e0e;stroke-width:0.11099268;stroke-linecap:butt;stroke-linejoin:miter;stroke-miterlimit:2;stroke-dasharray:none;stroke-opacity:1"
         id="path21440-0-3-8-7-8-3"
         inkscape:connector-curvature="0" /><path
         d="m -56.832181,-1114.7314 -0.014,0"
         style="fill:none;stroke:#000e0e;stroke-width:0.11099268;stroke-linecap:butt;stroke-linejoin:miter;stroke-miterlimit:2;stroke-dasharray:none;stroke-opacity:1"
         id="path21442-6-6-0-4-8-0"
         inkscape:connector-curvature="0" /><path
         d="m -78.717402,-1119.0688 -0.19987,0.059"
         style="fill:none;stroke:#000e0e;stroke-width:0.11099268;stroke-linecap:butt;stroke-linejoin:miter;stroke-miterlimit:2;stroke-dasharray:none;stroke-opacity:1"
         id="path21444-7-6-9-6-4-7"
         inkscape:connector-curvature="0" /><path
         d="m -56.858961,-1114.7239 0.014,0"
         style="fill:none;stroke:#000e0e;stroke-width:0.11099268;stroke-linecap:butt;stroke-linejoin:miter;stroke-miterlimit:2;stroke-dasharray:none;stroke-opacity:1"
         id="path21446-1-2-0-1-0-8"
         inkscape:connector-curvature="0" /><path
         d="m -61.994501,-1115.4519 -0.44511,0.126"
         style="fill:none;stroke:#000e0e;stroke-width:0.11099268;stroke-linecap:butt;stroke-linejoin:miter;stroke-miterlimit:2;stroke-dasharray:none;stroke-opacity:1"
         id="path21456-5-8-2-3-6-9"
         inkscape:connector-curvature="0" /><path
         d="m -56.847981,-1114.7269 -0.001,2e-4 -10e-4,4e-4 -10e-4,3e-4 -0.001,2e-4 -9.7e-4,4e-4 -0.001,2e-4 -10e-4,2e-4 -10e-4,5e-4 -0.001,2e-4 -10e-4,2e-4"
         style="fill:none;stroke:#000e0e;stroke-width:0.11099268;stroke-linecap:butt;stroke-linejoin:miter;stroke-miterlimit:2;stroke-dasharray:none;stroke-opacity:1"
         id="path21458-2-7-9-5-6-7"
         inkscape:connector-curvature="0" /><path
         d="m -56.858961,-1114.7241 -0.83085,0.2132 -0.84163,0.189 -0.85129,0.1656 -0.85969,0.1421 -0.86689,0.1173 -0.87288,0.093 -0.87736,0.066 -0.88027,0.044 -0.58859,0.014 -0.88233,0 -0.88965,-0.022 -0.89588,-0.051 -0.90215,-0.075 -0.90738,-0.1003 -0.91197,-0.1267 -0.91579,-0.1524 -0.918501,-0.1788 -0.51905,-0.1121 -0.92113,-0.219 -0.92478,-0.2454 -0.92809,-0.2725 -0.93072,-0.2996 -0.93319,-0.3268 -0.93505,-0.3538 -0.93635,-0.3809 -0.93702,-0.4088 -0.32652,-0.1486 -0.9368,-0.4454 -0.93679,-0.4732 -0.93614,-0.5011 -0.93539,-0.5289 -0.93438,-0.5574 -0.93233,-0.5853 -0.93006,-0.6132 -0.92721,-0.6416 -0.0885,-0.066"
         style="fill:none;stroke:#000e0e;stroke-width:0.11099268;stroke-linecap:butt;stroke-linejoin:miter;stroke-miterlimit:2;stroke-dasharray:none;stroke-opacity:1"
         id="path21460-5-1-9-9-7-8"
         inkscape:connector-curvature="0" /><path
         d="m -87.401502,-1121.5621 -0.0733,-0.051 -0.0659,-0.051 -0.0659,-0.059 -0.0659,-0.059 -0.0659,-0.066 -0.0659,-0.066 -0.0659,-0.073 -0.0659,-0.073 -0.0659,-0.075 -0.004,-0.01 -0.0659,-0.079 -0.0585,-0.081 -0.0585,-0.084 -0.0585,-0.087 -0.0585,-0.089 -0.0513,-0.091 -0.0513,-0.093 -0.0513,-0.095 -0.0513,-0.097 -0.044,-0.099 -0.0439,-0.1002 -0.0439,-0.1025 -0.0365,-0.1033 -0.0365,-0.1047 -0.0365,-0.1063 -0.0294,-0.1069 -0.0294,-0.1076 -0.022,-0.1085 -0.014,-0.083 -0.0219,-0.1091 -0.014,-0.1091 -0.014,-0.109 -0.014,-0.1091 -0.008,-0.1085 -0.006,-0.1077 -0.004,-0.1069"
         style="fill:none;stroke:#000e0e;stroke-width:0.11099268;stroke-linecap:butt;stroke-linejoin:miter;stroke-miterlimit:2;stroke-dasharray:none;stroke-opacity:1"
         id="path21462-3-4-5-7-7-7"
         inkscape:connector-curvature="0" /><path
         d="m -88.924032,-1124.7173 -0.23356,-14.3689"
         style="fill:none;stroke:#000e0e;stroke-width:0.11099268;stroke-linecap:butt;stroke-linejoin:miter;stroke-miterlimit:2;stroke-dasharray:none;stroke-opacity:1"
         id="path21464-8-5-3-0-1-2"
         inkscape:connector-curvature="0" /><path
         d="m -89.157942,-1139.0862 -5.2e-4,-0.066 0.001,-0.095 0.004,-0.094 0.006,-0.092 0.008,-0.091 0.008,-0.09 0.014,-0.089 0.014,-0.087 0.014,-0.086 0.014,-0.084 0.004,-0.014 0.0219,-0.082 0.022,-0.08 0.0219,-0.078 0.0294,-0.076 0.0294,-0.075 0.0294,-0.073 0.0294,-0.073 0.0294,-0.066 0.0365,-0.066 0.0365,-0.066 0.0294,-0.044 0.0365,-0.059 0.0365,-0.058 0.0439,-0.059 0.044,-0.051 0.0439,-0.051 0.0439,-0.051 0.044,-0.044 0.0439,-0.044 0.0439,-0.044 0.044,-0.044 0.002,0 0.0513,-0.037 0.0513,-0.036 0.0513,-0.037 0.0513,-0.029 0.0513,-0.029 0.0513,-0.029 0.0513,-0.029 0.0513,-0.022 0.0585,-0.022 0.0585,-0.022 0.0585,-0.014"
         style="fill:none;stroke:#000e0e;stroke-width:0.11099268;stroke-linecap:butt;stroke-linejoin:miter;stroke-miterlimit:2;stroke-dasharray:none;stroke-opacity:1"
         id="path21466-5-6-0-7-9-5"
         inkscape:connector-curvature="0" /><path
         d="m -87.000892,-1138.1149 -0.0294,-0.073 -0.0366,-0.1 -0.0365,-0.095 -0.0294,-0.091 -0.0294,-0.089 -0.022,-0.088 -0.0219,-0.086 -0.014,-0.086 -0.014,-0.085 -0.014,-0.085 -0.008,-0.086 -0.006,-0.086 -0.004,-0.087 -0.001,-0.089 0.002,-0.091 0.004,-0.092 0.004,-0.059 0.008,-0.093 0.014,-0.093 0.014,-0.093 0.014,-0.092 0.0219,-0.09 0.0219,-0.089 0.022,-0.086 0.0294,-0.084 0.0294,-0.082 0.0294,-0.078 0.0294,-0.076 0.0365,-0.073 0.0365,-0.073 0.0365,-0.066 0.0365,-0.066 0.0366,-0.059 0.0365,-0.059 0.0439,-0.051 0.044,-0.051 0.0439,-0.044 0.0439,-0.044 0.044,-0.044 0.0439,-0.037 0.0439,-0.037 0.044,-0.029 0.0514,-0.029 0.0513,-0.029 0.0513,-0.022 0.0513,-0.022 0.0513,-0.022 0.0513,-0.014"
         style="fill:none;stroke:#000e0e;stroke-width:0.44397089;stroke-linecap:butt;stroke-linejoin:miter;stroke-miterlimit:2;stroke-dasharray:none;stroke-opacity:1"
         id="path42580-6-2-7-3-7-4"
         inkscape:connector-curvature="0" /><path
         d="m -86.806502,-1126.1776 0.12962,-0.2769 0.12303,-0.2842 0.11565,-0.2923 0.10825,-0.3003 0.10108,-0.3084 0.0936,-0.3165 0.0865,-0.3252 0.0783,-0.3333 0.0513,-0.2249 0.0659,-0.3472 0.0585,-0.3524 0.0513,-0.3567 0.0365,-0.3619 0.0294,-0.3663 0.0219,-0.3706 0.014,-0.3751 0.002,-0.3787 -0.008,-0.3817 -0.014,-0.3846 -0.0294,-0.3875 -0.0366,-0.3897 -0.044,-0.3912 -0.0585,-0.3926 -0.0659,-0.3934 -0.0761,-0.3934 -0.0857,-0.3933 -0.0952,-0.3927 -0.10467,-0.3912 -0.11424,-0.3889 -0.12304,-0.3861 -0.13243,-0.3824 -0.14121,-0.3787 -0.0659,-0.1684 -0.153,-0.3714"
         style="fill:none;stroke:#000e0e;stroke-width:0.44397089;stroke-linecap:butt;stroke-linejoin:miter;stroke-miterlimit:2;stroke-dasharray:none;stroke-opacity:1"
         id="path42582-0-3-2-0-9-2"
         inkscape:connector-curvature="0" /><path
         d="m -85.646512,-1122.3503 -0.0659,-0.037 -0.0659,-0.044 -0.0659,-0.044 -0.0659,-0.051 -0.0659,-0.051 -0.0659,-0.058 -0.0659,-0.059 -0.0585,-0.066 -0.0585,-0.066 -0.0585,-0.073 -0.0585,-0.075 -0.0585,-0.078 -0.0585,-0.082 -0.0513,-0.085 -0.0513,-0.089 -0.0513,-0.091 -0.0513,-0.094 -0.0439,-0.097 -0.0439,-0.099 -0.044,-0.1011 -0.0366,-0.1033 -0.0365,-0.1047 -0.0294,-0.1063 -0.0219,-0.082 -0.0294,-0.1069 -0.0219,-0.1077 -0.0219,-0.1077 -0.014,-0.1077 -0.014,-0.1063 -0.008,-0.1055 -0.006,-0.1046 -0.004,-0.1033 2.2e-4,-0.1011 0.004,-0.1 0.006,-0.097 0.008,-0.095 0.014,-0.093 0.014,-0.091 0.0219,-0.088 0.0219,-0.086 0.022,-0.083 0.0294,-0.08 0.0294,-0.078 0.0294,-0.075 0.0365,-0.073"
         style="fill:none;stroke:#000e0e;stroke-width:0.44397089;stroke-linecap:butt;stroke-linejoin:miter;stroke-miterlimit:2;stroke-dasharray:none;stroke-opacity:1"
         id="path42584-3-4-3-5-7-3"
         inkscape:connector-curvature="0" /><path
         d="m -56.909041,-1115.5488 c 0.37996,-0.036 0.75985,-0.073 1.13877,-0.1178"
         style="fill:none;stroke:#000e0e;stroke-width:0.44397089;stroke-linecap:butt;stroke-linejoin:miter;stroke-miterlimit:2;stroke-dasharray:none;stroke-opacity:1"
         id="path42586-6-1-4-2-6-6"
         inkscape:connector-curvature="0" /><path
         d="m -56.909041,-1115.5488 -0.9953,0.078 -0.99959,0.051 -1.00311,0.029 -1.00629,0.01 -1.00854,-0.014 -1.01051,-0.044 -1.01141,-0.066 -0.0818,-0.01 -1.0119,-0.09 -1.01943,-0.1143 -1.02708,-0.1385 -1.03395,-0.1634 -1.04067,-0.1882 -1.04653,-0.2132 -1.052331,-0.2388 -1.05694,-0.2637 -1.06147,-0.2893 -1.06506,-0.3143 -1.06769,-0.3399 -1.06973,-0.3655 -1.07086,-0.3905 -1.07106,-0.4153 -1.06995,-0.441 -1.06821,-0.4652 -1.06477,-0.49 -1.06059,-0.5136 -1.05503,-0.5369 -1.04801,-0.5604 -0.55932,-0.3099"
         style="fill:none;stroke:#000e0e;stroke-width:0.44397089;stroke-linecap:butt;stroke-linejoin:miter;stroke-miterlimit:2;stroke-dasharray:none;stroke-opacity:1"
         id="path42588-0-2-6-8-5-6"
         inkscape:connector-curvature="0" /><path
         d="m -55.576321,-1115.7054 -0.19394,0.036"
         style="fill:none;stroke:#000e0e;stroke-width:0.44397089;stroke-linecap:butt;stroke-linejoin:miter;stroke-miterlimit:2;stroke-dasharray:none;stroke-opacity:1"
         id="path42590-3-7-7-5-4-5"
         inkscape:connector-curvature="0" /><path
         d="m 80.348899,-1154.2734 -133.956449,38.0096"
         style="fill:none;stroke:#000e0e;stroke-width:0.44397089;stroke-linecap:butt;stroke-linejoin:miter;stroke-miterlimit:2;stroke-dasharray:none;stroke-opacity:1"
         id="path42598-2-9-6-1-7-5"
         inkscape:connector-curvature="0" /><path
         d="m -53.60756,-1116.2638 -0.737301,0.2094"
         style="fill:none;stroke:#000e0e;stroke-width:0.44397089;stroke-linecap:butt;stroke-linejoin:miter;stroke-miterlimit:2;stroke-dasharray:none;stroke-opacity:1"
         id="path42600-0-1-1-2-4-4"
         inkscape:connector-curvature="0" /><path
         d="m -54.344861,-1116.0547 -1.23279,0.3502"
         style="fill:none;stroke:#000e0e;stroke-width:0.44397089;stroke-linecap:butt;stroke-linejoin:miter;stroke-miterlimit:2;stroke-dasharray:none;stroke-opacity:1"
         id="path42602-4-1-0-0-2-4"
         inkscape:connector-curvature="0" /><path
         d="m 67.341689,-1184.9635 -153.491591,43.5525"
         style="fill:none;stroke:#000e0e;stroke-width:0.44397089;stroke-linecap:butt;stroke-linejoin:miter;stroke-miterlimit:2;stroke-dasharray:none;stroke-opacity:1"
         id="path42626-6-6-8-5-9-9"
         inkscape:connector-curvature="0" /><path
         d="m 67.605749,-1181.984 -152.954431,43.4003"
         style="fill:none;stroke:#000e0e;stroke-width:0.11099268;stroke-linecap:butt;stroke-linejoin:miter;stroke-miterlimit:2;stroke-dasharray:none;stroke-opacity:1"
         id="path42646-3-5-6-8-7-9"
         inkscape:connector-curvature="0" /><path
         d="m -85.348682,-1138.5837 -1.65221,0.4688"
         style="fill:none;stroke:#000e0e;stroke-width:0.11099268;stroke-linecap:butt;stroke-linejoin:miter;stroke-miterlimit:2;stroke-dasharray:none;stroke-opacity:1"
         id="path42648-6-9-0-9-0-2"
         inkscape:connector-curvature="0" /><path
         d="m 80.316469,-1154.2805 -133.928509,38.0016"
         style="fill:none;stroke:#000e0e;stroke-width:0.11099268;stroke-linecap:butt;stroke-linejoin:miter;stroke-miterlimit:2;stroke-dasharray:none;stroke-opacity:1"
         id="path42656-1-5-1-0-7-6"
         inkscape:connector-curvature="0" /><path
         d="m -53.61204,-1116.2789 -0.724781,0.2059"
         style="fill:none;stroke:#000e0e;stroke-width:0.11099268;stroke-linecap:butt;stroke-linejoin:miter;stroke-miterlimit:2;stroke-dasharray:none;stroke-opacity:1"
         id="path42658-2-3-6-0-1-1"
         inkscape:connector-curvature="0" /><path
         d="m -54.336821,-1116.0732 -1.23746,0.3509"
         style="fill:none;stroke:#000e0e;stroke-width:0.11099268;stroke-linecap:butt;stroke-linejoin:miter;stroke-miterlimit:2;stroke-dasharray:none;stroke-opacity:1"
         id="path42660-6-8-2-9-6-3"
         inkscape:connector-curvature="0" /><path
         d="m -55.574281,-1115.722 -0.19612,0.059"
         style="fill:none;stroke:#000e0e;stroke-width:0.11099268;stroke-linecap:butt;stroke-linejoin:miter;stroke-miterlimit:2;stroke-dasharray:none;stroke-opacity:1"
         id="path42662-8-2-7-5-2-2"
         inkscape:connector-curvature="0" /><path
         d="m 67.124919,-1165.6985 -152.771431,43.3482"
         style="fill:none;stroke:#000e0e;stroke-width:0.11099268;stroke-linecap:butt;stroke-linejoin:miter;stroke-miterlimit:2;stroke-dasharray:none;stroke-opacity:1"
         id="path42694-5-8-2-4-9-1"
         inkscape:connector-curvature="0" /><path
         d="m 68.728239,-1170.31 -155.534741,44.1324"
         style="fill:none;stroke:#000e0e;stroke-width:0.11099268;stroke-linecap:butt;stroke-linejoin:miter;stroke-miterlimit:2;stroke-dasharray:none;stroke-opacity:1"
         id="path42704-8-1-4-8-4-9"
         inkscape:connector-curvature="0" /><path
         d="m -88.555138,-1141.1818 c 0.033,0.017 0.06625,0.034 0.0995,0.05"
         style="fill:none;stroke:#000000;stroke-width:0.44200003;stroke-linecap:butt;stroke-linejoin:miter;stroke-miterlimit:2;stroke-dasharray:none;stroke-opacity:1"
         id="path15452-9-1-8"
         inkscape:connector-curvature="0" /></g><g
       transform="translate(-430.14879,376.18083)"
       id="g10694"><path
         d="m 453.92627,-992.07798 0.002,-9e-4 0.002,-6e-4 0.004,0 0.002,-7e-4 0.002,-8e-4 0.004,-7e-4 0.002,-9e-4 0.002,-6e-4 0.002,0 0.002,-7e-4"
         style="fill:none;stroke:#000e0e;stroke-width:0.44397089;stroke-linecap:butt;stroke-linejoin:miter;stroke-miterlimit:2;stroke-dasharray:none;stroke-opacity:1"
         id="path21382-9-4-4-4-6-9"
         inkscape:connector-curvature="0" /><path
         d="m 453.92627,-992.07798 -0.014,0"
         style="fill:none;stroke:#000e0e;stroke-width:0.44397089;stroke-linecap:butt;stroke-linejoin:miter;stroke-miterlimit:2;stroke-dasharray:none;stroke-opacity:1"
         id="path21394-4-9-5-8-3-3"
         inkscape:connector-curvature="0" /><path
         d="m 452.4863,-991.66948 1.42408,-0.4044"
         style="fill:none;stroke:#000e0e;stroke-width:0.44397089;stroke-linecap:butt;stroke-linejoin:miter;stroke-miterlimit:2;stroke-dasharray:none;stroke-opacity:1"
         id="path21402-5-2-8-6-3-8"
         inkscape:connector-curvature="0" /><path
         d="m 452.4863,-991.66948 0,0"
         style="fill:none;stroke:#000e0e;stroke-width:0.11099268;stroke-linecap:butt;stroke-linejoin:miter;stroke-miterlimit:2;stroke-dasharray:none;stroke-opacity:1"
         id="path21438-5-5-1-2-6-8"
         inkscape:connector-curvature="0" /><path
         style="fill:#c7ddef;fill-opacity:1;fill-rule:evenodd;stroke:none;stroke-width:1px;stroke-linecap:butt;stroke-linejoin:miter;stroke-opacity:1"
         d="m 1184.2481,-1220.0405 -726.31643,206.0398 -1.67188,1.3906 -0.79687,1.0938 -1.125,2.2812 -1.09375,2.4844 -0.67188,1.9375 -0.54687,1.9063 -0.40625,1.8594 -0.375,1.98432 -0.28125,2.10938 -0.15625,1.89062 -0.0625,0.9375 0.0625,1.10938 0.32812,0.90625 0.49541,0.85724 0.11049,0.0608 0.0608,0 727.25531,-206.29299 z"
         id="path8274-6-8-4"
         inkscape:connector-curvature="0" /><path
         d="M 451.77404,-991.22491 679.7862,-1055.8835"
         style="fill:none;stroke:#000000;stroke-width:0.44200003;stroke-linecap:butt;stroke-linejoin:miter;stroke-miterlimit:2;stroke-dasharray:none;stroke-opacity:1"
         id="path15410-2-5-2"
         inkscape:connector-curvature="0" /><path
         d="m 455.4816,-1011.5002 -0.31903,0.5647 -0.30993,0.5776 -0.30075,0.5907 -0.29139,0.6037 -0.28189,0.6169 -0.27222,0.63 -0.0906,0.2182 -0.25898,0.6477 -0.24826,0.6594 -0.23735,0.671 -0.22626,0.6825 -0.21503,0.694 -0.20355,0.7053 -0.19191,0.7164 -0.18008,0.7273 -0.16801,0.7381 -0.1558,0.7487 -0.14331,0.75887 -0.13068,0.76874 -0.11787,0.77843 -0.10475,0.78751 -0.0915,0.79627 -0.0781,0.80445 -0.0645,0.81215 -0.0507,0.81917 -0.009,0.17945"
         style="fill:none;stroke:#000000;stroke-width:0.44200003;stroke-linecap:butt;stroke-linejoin:miter;stroke-miterlimit:2;stroke-dasharray:none;stroke-opacity:1"
         id="path15438-9-6-6"
         inkscape:connector-curvature="0" /><path
         d="m 450.73981,-994.20296 -3.6e-4,0.007 -0.002,0.07 -0.002,0.0696 -0.001,0.0695 -1.5e-4,0.0691 7.6e-4,0.0689 0.001,0.0685 0.002,0.0681 0.004,0.0677 0.005,0.0673 0.005,0.0669 0.006,0.0665 0.007,0.0659 0.007,0.0655 0.009,0.0649 0.01,0.0644 0.01,0.0639 0.0112,0.0632"
         style="fill:none;stroke:#000000;stroke-width:0.44200003;stroke-linecap:butt;stroke-linejoin:miter;stroke-miterlimit:2;stroke-dasharray:none;stroke-opacity:1"
         id="path15442-0-2-0"
         inkscape:connector-curvature="0" /><path
         d="m 450.81249,-993.05574 0.01,0.0554 0.0169,0.0811 0.0181,0.0796 0.0194,0.0782 0.0208,0.0771 0.022,0.0759 0.0234,0.0749 0.02,0.0604 0.0257,0.0731 0.027,0.0719 0.0282,0.0709 0.0295,0.0696 0.0306,0.0683 0.0316,0.0669 0.0328,0.0655 0.0337,0.0641 0.0347,0.0626 0.0356,0.061 0.0366,0.0595 0.0374,0.058 0.0383,0.0564 0.0391,0.0549 0.0399,0.0531 0.0406,0.0516 0.0414,0.05 0.042,0.0485 0.0428,0.0469 0.0434,0.0454"
         style="fill:none;stroke:#000000;stroke-width:0.44200003;stroke-linecap:butt;stroke-linejoin:miter;stroke-miterlimit:2;stroke-dasharray:none;stroke-opacity:1"
         id="path15444-7-1-8"
         inkscape:connector-curvature="0" /><path
         d="m 457.90833,-1014.0151 -0.14017,0.1015 -0.13885,0.1038 -0.13768,0.1067 -0.13665,0.1093 -0.1357,0.1122 -0.0479,0.04 -0.11213,0.096 -0.12641,0.1121 -0.1215,0.1114 -0.11675,0.1106 -0.11225,0.1101 -0.10788,0.1095 -0.10362,0.1091 -0.0995,0.1088 -0.0955,0.1084 -0.0915,0.108 -0.0878,0.1077 -0.084,0.1075 -0.0804,0.1073 -0.0769,0.1071 -0.0734,0.1069 -0.07,0.1068 -0.0668,0.1068 -0.0634,0.1067"
         style="fill:none;stroke:#000000;stroke-width:0.44200003;stroke-linecap:butt;stroke-linejoin:miter;stroke-miterlimit:2;stroke-dasharray:none;stroke-opacity:1"
         id="path15446-5-3-5"
         inkscape:connector-curvature="0" /><path
         d="m 457.90833,-1014.0151 726.57797,-206.0396"
         style="fill:none;stroke:#000000;stroke-width:0.44200003;stroke-linecap:butt;stroke-linejoin:miter;stroke-miterlimit:2;stroke-dasharray:none;stroke-opacity:1"
         id="path15448-7-8-5"
         inkscape:connector-curvature="0" /><path
         d="m 451.67447,-991.27519 c 0.033,0.017 0.0663,0.0337 0.0995,0.0503"
         style="fill:none;stroke:#000000;stroke-width:0.44200003;stroke-linecap:butt;stroke-linejoin:miter;stroke-miterlimit:2;stroke-dasharray:none;stroke-opacity:1"
         id="path15452-9-1-9"
         inkscape:connector-curvature="0" /><path
         style="fill:#c7ddef;fill-opacity:1;fill-rule:evenodd;stroke:none;stroke-width:1px;stroke-linecap:butt;stroke-linejoin:miter;stroke-opacity:1"
         d="m 1184.2481,-1223.7084 -726.31643,206.0398 -1.67188,1.3906 -0.79687,1.0938 -1.125,2.2812 -1.09375,2.4844 -0.67188,1.9375 -0.54687,1.9063 -0.40625,1.8594 -0.375,1.9843 -0.28125,2.1094 -0.15625,1.89062 -0.0625,0.9375 0.0625,1.10938 0.32812,0.90625 0.49541,0.85724 0.11049,0.0608 0.0608,0 727.25531,-206.29299 z"
         id="path8274-0-6"
         inkscape:connector-curvature="0" /><path
         d="M 451.77404,-994.89281 679.7862,-1059.5514"
         style="fill:none;stroke:#000000;stroke-width:0.44200003;stroke-linecap:butt;stroke-linejoin:miter;stroke-miterlimit:2;stroke-dasharray:none;stroke-opacity:1"
         id="path15410-28-6"
         inkscape:connector-curvature="0" /><path
         d="m 455.4816,-1015.1681 -0.31903,0.5647 -0.30993,0.5776 -0.30075,0.5907 -0.29139,0.6037 -0.28189,0.6169 -0.27222,0.63 -0.0906,0.2181 -0.25898,0.6478 -0.24826,0.6594 -0.23735,0.671 -0.22626,0.6825 -0.21503,0.694 -0.20355,0.7053 -0.19191,0.7164 -0.18008,0.7273 -0.16801,0.7381 -0.1558,0.7487 -0.14331,0.7589 -0.13068,0.7687 -0.11787,0.7784 -0.10475,0.7876 -0.0915,0.7962 -0.0781,0.80447 -0.0645,0.81215 -0.0507,0.81917 -0.009,0.17945"
         style="fill:none;stroke:#000000;stroke-width:0.44200003;stroke-linecap:butt;stroke-linejoin:miter;stroke-miterlimit:2;stroke-dasharray:none;stroke-opacity:1"
         id="path15438-6-6"
         inkscape:connector-curvature="0" /><path
         d="m 450.73981,-997.87086 -3.6e-4,0.008 -0.002,0.07 -0.002,0.0696 -0.001,0.0695 -1.5e-4,0.0691 7.6e-4,0.0689 0.001,0.0685 0.002,0.0681 0.004,0.0677 0.005,0.0673 0.005,0.0669 0.006,0.0665 0.007,0.0659 0.007,0.0655 0.009,0.0649 0.01,0.0644 0.01,0.0639 0.0112,0.0633"
         style="fill:none;stroke:#000000;stroke-width:0.44200003;stroke-linecap:butt;stroke-linejoin:miter;stroke-miterlimit:2;stroke-dasharray:none;stroke-opacity:1"
         id="path15442-01-9"
         inkscape:connector-curvature="0" /><path
         d="m 450.81249,-996.72364 0.01,0.0554 0.0169,0.0811 0.0181,0.0796 0.0194,0.0783 0.0208,0.0771 0.022,0.0759 0.0234,0.0749 0.02,0.0604 0.0257,0.0731 0.027,0.0719 0.0282,0.0709 0.0295,0.0696 0.0306,0.0683 0.0316,0.0669 0.0328,0.0655 0.0337,0.0641 0.0347,0.0626 0.0356,0.061 0.0366,0.0595 0.0374,0.058 0.0383,0.0564 0.0391,0.0549 0.0399,0.0531 0.0406,0.0516 0.0414,0.05 0.042,0.0485 0.0428,0.0469 0.0434,0.0454"
         style="fill:none;stroke:#000000;stroke-width:0.44200003;stroke-linecap:butt;stroke-linejoin:miter;stroke-miterlimit:2;stroke-dasharray:none;stroke-opacity:1"
         id="path15444-3-0"
         inkscape:connector-curvature="0" /><path
         d="m 457.90833,-1017.683 -0.14017,0.1015 -0.13885,0.1038 -0.13768,0.1067 -0.13665,0.1093 -0.1357,0.1122 -0.0479,0.04 -0.11213,0.096 -0.12641,0.1121 -0.1215,0.1114 -0.11675,0.1106 -0.11225,0.1101 -0.10788,0.1095 -0.10362,0.1091 -0.0995,0.1088 -0.0955,0.1084 -0.0915,0.108 -0.0878,0.1077 -0.084,0.1075 -0.0804,0.1073 -0.0769,0.1071 -0.0734,0.1069 -0.07,0.1068 -0.0668,0.1068 -0.0634,0.1067"
         style="fill:none;stroke:#000000;stroke-width:0.44200003;stroke-linecap:butt;stroke-linejoin:miter;stroke-miterlimit:2;stroke-dasharray:none;stroke-opacity:1"
         id="path15446-3-2"
         inkscape:connector-curvature="0" /><path
         d="m 457.90833,-1017.683 726.57797,-206.0396"
         style="fill:none;stroke:#000000;stroke-width:0.44200003;stroke-linecap:butt;stroke-linejoin:miter;stroke-miterlimit:2;stroke-dasharray:none;stroke-opacity:1"
         id="path15448-1-4"
         inkscape:connector-curvature="0" /><path
         d="m 451.67447,-994.94309 c 0.033,0.017 0.0663,0.0337 0.0995,0.0503"
         style="fill:none;stroke:#000000;stroke-width:0.44200003;stroke-linecap:butt;stroke-linejoin:miter;stroke-miterlimit:2;stroke-dasharray:none;stroke-opacity:1"
         id="path15452-5-3"
         inkscape:connector-curvature="0" /><path
         style="fill:#c7ddef;fill-opacity:1;fill-rule:evenodd;stroke:none;stroke-width:1px;stroke-linecap:butt;stroke-linejoin:miter;stroke-opacity:1"
         d="m 708.86397,-1108.2031 -252.89882,71.7811 -0.875,0.8437 -0.9063,1.2031 -0.6406,1.2969 -0.6094,1.8438 -0.5625,1.8906 -0.4687,2.1719 -0.4219,1.9687 -0.3437,2.3906 -0.2188,2.2813 -0.1406,2.1094 -0.047,2.3437 0.078,2.625 0.1406,2.1563 0.1406,1.0781 0.2813,0.7969 0.4687,0.8906 0.6094,0.7344 0.2031,0.031 0.9063,-0.2813 261.42602,-74.1588 z"
         id="path11447-69-5-1-0"
         inkscape:connector-curvature="0" /><path
         d="m 452.62005,-1007.7799 39.2519,-11.1333"
         style="fill:none;stroke:#000000;stroke-width:0.44200003;stroke-linecap:butt;stroke-linejoin:miter;stroke-miterlimit:4;stroke-dasharray:none;stroke-opacity:1"
         id="path15668-2-1-1-7"
         inkscape:connector-curvature="0" /><path
         d="m 491.87195,-1018.9132 86.38621,-24.502"
         style="fill:none;stroke:#000000;stroke-width:0.44200003;stroke-linecap:butt;stroke-linejoin:miter;stroke-miterlimit:4;stroke-dasharray:none;stroke-opacity:1"
         id="path15670-2-1-6-2"
         inkscape:connector-curvature="0" /><path
         d="m 578.21076,-1043.4011 135.38291,-38.3992"
         style="fill:none;stroke:#000000;stroke-width:0.44200003;stroke-linecap:butt;stroke-linejoin:miter;stroke-miterlimit:4;stroke-dasharray:none;stroke-opacity:1"
         id="path15674-3-6-0-2"
         inkscape:connector-curvature="0" /><path
         d="m 453.53885,-1033.0553 -0.2821,0.8015 -0.2685,0.8153 -0.2549,0.8295 -0.2408,0.8435 -0.2268,0.8579 -0.2111,0.8664 -0.1982,0.8866 -0.1827,0.898 -0.1672,0.9093 -0.1514,0.9204 -0.1356,0.9312 -0.1193,0.9416 -0.103,0.9518 -0.086,0.9617 -0.07,0.971 -0.053,0.9801 -0.036,0.9886 -0.019,0.9966 0,1.0041 0.016,1.0109 0.034,1.017 0.052,1.0226 0.069,1.0273 0.027,0.3422"
         style="fill:none;stroke:#000000;stroke-width:0.44200003;stroke-linecap:butt;stroke-linejoin:miter;stroke-miterlimit:4;stroke-dasharray:none;stroke-opacity:1"
         id="path15704-1-7-0-5"
         inkscape:connector-curvature="0" /><path
         d="m 450.93005,-1011.2802 0.01,0.092 0.015,0.1396 0.018,0.1379 0.02,0.1361 0.023,0.1345 0.026,0.1331 0.029,0.1317 0.032,0.1306 0.023,0.085 0.037,0.1289 0.039,0.1274 0.042,0.1258 0.045,0.124 0.047,0.1221 0.05,0.1198 0.052,0.1175 0.054,0.1151 0.056,0.1126 0.058,0.1098 0.06,0.1071 0.062,0.1043 0.064,0.1014 0.065,0.098 0.067,0.095 0.069,0.092 0.07,0.089 0.072,0.086 0.073,0.083 0.074,0.08 0.075,0.077 0.077,0.074 0.078,0.071"
         style="fill:none;stroke:#000000;stroke-width:0.44200003;stroke-linecap:butt;stroke-linejoin:miter;stroke-miterlimit:4;stroke-dasharray:none;stroke-opacity:1"
         id="path15708-5-4-9-3"
         inkscape:connector-curvature="0" /><path
         d="m 455.93745,-1036.423 -0.1344,0.122 -0.1323,0.1247 -0.1304,0.1274 -0.1286,0.1303 -0.1268,0.133 -0.1166,0.1269 -0.01,0.01 -0.1212,0.1369 -0.1174,0.1373 -0.1133,0.1375 -0.1092,0.1377 -0.1052,0.1377 -0.101,0.1377 -0.097,0.1376 -0.093,0.1374 -0.089,0.1374 -0.085,0.1372 -0.081,0.1367 -0.077,0.1365 -0.073,0.1361 -0.069,0.1359 -0.065,0.1355 -0.062,0.1351 -0.058,0.1347 -0.054,0.1342 -0.05,0.1338"
         style="fill:none;stroke:#000000;stroke-width:0.44200003;stroke-linecap:butt;stroke-linejoin:miter;stroke-miterlimit:4;stroke-dasharray:none;stroke-opacity:1"
         id="path15710-4-6-2-8"
         inkscape:connector-curvature="0" /><path
         inkscape:connector-curvature="0"
         style="fill:none;stroke:#000000;stroke-width:0.44200003;stroke-linecap:butt;stroke-linejoin:miter;stroke-miterlimit:4;stroke-dasharray:none;stroke-opacity:1"
         d="m 455.93745,-1036.423 252.96502,-71.7495"
         id="path15712-2-6-5-2" /><path
         d="m 452.50765,-1007.7963 c 0.037,0.01 0.075,0.012 0.1123,0.016"
         style="fill:none;stroke:#000000;stroke-width:0.44200003;stroke-linecap:butt;stroke-linejoin:miter;stroke-miterlimit:4;stroke-dasharray:none;stroke-opacity:1"
         id="path15716-0-8-0-1"
         inkscape:connector-curvature="0" /><path
         d="m 452.50765,-1007.7963 39.3517,-11.1615"
         style="fill:none;stroke:#000000;stroke-width:0.44200003;stroke-linecap:butt;stroke-linejoin:miter;stroke-miterlimit:4;stroke-dasharray:none;stroke-opacity:1"
         id="path15744-8-3-8-7"
         inkscape:connector-curvature="0" /><path
         style="fill:#c7ddef;fill-opacity:1;fill-rule:evenodd;stroke:none;stroke-width:1px;stroke-linecap:butt;stroke-linejoin:miter;stroke-opacity:1"
         d="m 708.86397,-1133.5041 -252.89882,71.781 -0.875,0.8438 -0.9063,1.2031 -0.6406,1.2969 -0.6094,1.8437 -0.5625,1.8907 -0.4687,2.1718 -0.4219,1.9688 -0.3437,2.3906 -0.2188,2.2813 -0.1406,2.1093 -0.047,2.3438 0.078,2.625 0.1406,2.1563 0.1406,1.0781 0.2813,0.7969 0.4687,0.8906 0.6094,0.7344 0.2031,0.031 0.9063,-0.2813 261.42602,-74.1588 z"
         id="path11447-69-58-2-9"
         inkscape:connector-curvature="0" /><path
         d="m 452.62005,-1033.081 39.2519,-11.1332"
         style="fill:none;stroke:#000000;stroke-width:0.44200003;stroke-linecap:butt;stroke-linejoin:miter;stroke-miterlimit:4;stroke-dasharray:none;stroke-opacity:1"
         id="path15668-2-8-7-2"
         inkscape:connector-curvature="0" /><path
         d="m 491.87195,-1044.2142 86.38621,-24.502"
         style="fill:none;stroke:#000000;stroke-width:0.44200003;stroke-linecap:butt;stroke-linejoin:miter;stroke-miterlimit:4;stroke-dasharray:none;stroke-opacity:1"
         id="path15670-2-6-1-7"
         inkscape:connector-curvature="0" /><path
         d="m 578.21076,-1068.7021 135.38291,-38.3992"
         style="fill:none;stroke:#000000;stroke-width:0.44200003;stroke-linecap:butt;stroke-linejoin:miter;stroke-miterlimit:4;stroke-dasharray:none;stroke-opacity:1"
         id="path15674-3-0-6-1"
         inkscape:connector-curvature="0" /><path
         d="m 453.53885,-1058.3563 -0.2821,0.8015 -0.2685,0.8153 -0.2549,0.8295 -0.2408,0.8435 -0.2268,0.8579 -0.2111,0.8664 -0.1982,0.8866 -0.1827,0.898 -0.1672,0.9093 -0.1514,0.9204 -0.1356,0.9311 -0.1193,0.9417 -0.103,0.9518 -0.086,0.9617 -0.07,0.971 -0.053,0.9801 -0.036,0.9886 -0.019,0.9966 0,1.0041 0.016,1.0109 0.034,1.017 0.052,1.0226 0.069,1.0273 0.027,0.3422"
         style="fill:none;stroke:#000000;stroke-width:0.44200003;stroke-linecap:butt;stroke-linejoin:miter;stroke-miterlimit:4;stroke-dasharray:none;stroke-opacity:1"
         id="path15704-1-5-5-2"
         inkscape:connector-curvature="0" /><path
         d="m 450.93005,-1036.5812 0.01,0.092 0.015,0.1396 0.018,0.1379 0.02,0.1361 0.023,0.1345 0.026,0.1331 0.029,0.1317 0.032,0.1306 0.023,0.085 0.037,0.1289 0.039,0.1274 0.042,0.1258 0.045,0.124 0.047,0.1221 0.05,0.1198 0.052,0.1175 0.054,0.1151 0.056,0.1126 0.058,0.1098 0.06,0.1071 0.062,0.1043 0.064,0.1014 0.065,0.098 0.067,0.095 0.069,0.092 0.07,0.089 0.072,0.086 0.073,0.083 0.074,0.08 0.075,0.077 0.077,0.074 0.078,0.071"
         style="fill:none;stroke:#000000;stroke-width:0.44200003;stroke-linecap:butt;stroke-linejoin:miter;stroke-miterlimit:4;stroke-dasharray:none;stroke-opacity:1"
         id="path15708-5-48-6-9"
         inkscape:connector-curvature="0" /><path
         d="m 455.93745,-1061.724 -0.1344,0.122 -0.1323,0.1247 -0.1304,0.1274 -0.1286,0.1303 -0.1268,0.133 -0.1166,0.1268 -0.01,0.01 -0.1212,0.137 -0.1174,0.1373 -0.1133,0.1374 -0.1092,0.1378 -0.1052,0.1377 -0.101,0.1377 -0.097,0.1376 -0.093,0.1374 -0.089,0.1374 -0.085,0.1372 -0.081,0.1367 -0.077,0.1365 -0.073,0.1361 -0.069,0.1359 -0.065,0.1355 -0.062,0.1351 -0.058,0.1346 -0.054,0.1343 -0.05,0.1338"
         style="fill:none;stroke:#000000;stroke-width:0.44200003;stroke-linecap:butt;stroke-linejoin:miter;stroke-miterlimit:4;stroke-dasharray:none;stroke-opacity:1"
         id="path15710-4-3-2-0"
         inkscape:connector-curvature="0" /><path
         inkscape:connector-curvature="0"
         style="fill:none;stroke:#000000;stroke-width:0.44200003;stroke-linecap:butt;stroke-linejoin:miter;stroke-miterlimit:4;stroke-dasharray:none;stroke-opacity:1"
         d="m 455.93745,-1061.724 252.96502,-71.7495"
         id="path15712-2-8-1-2" /><path
         d="m 452.50765,-1033.0973 c 0.037,0.01 0.075,0.012 0.1123,0.016"
         style="fill:none;stroke:#000000;stroke-width:0.44200003;stroke-linecap:butt;stroke-linejoin:miter;stroke-miterlimit:4;stroke-dasharray:none;stroke-opacity:1"
         id="path15716-0-3-0-6"
         inkscape:connector-curvature="0" /><path
         d="m 452.50765,-1033.0973 39.3517,-11.1615"
         style="fill:none;stroke:#000000;stroke-width:0.44200003;stroke-linecap:butt;stroke-linejoin:miter;stroke-miterlimit:4;stroke-dasharray:none;stroke-opacity:1"
         id="path15744-8-5-0-5"
         inkscape:connector-curvature="0" /><path
         style="fill:#c7ddef;fill-opacity:1;fill-rule:evenodd;stroke:none;stroke-width:1px;stroke-linecap:butt;stroke-linejoin:miter;stroke-opacity:1"
         d="m 708.86397,-1158.8051 -252.89882,71.781 -0.875,0.8438 -0.9063,1.2031 -0.6406,1.2969 -0.6094,1.8437 -0.5625,1.8907 -0.4687,2.1718 -0.4219,1.9688 -0.3437,2.3906 -0.2188,2.2813 -0.1406,2.1093 -0.047,2.3438 0.078,2.625 0.1406,2.1562 0.1406,1.0782 0.2813,0.7968 0.4687,0.8907 0.6094,0.7343 0.2031,0.031 0.9063,-0.2812 261.42602,-74.1588 z"
         id="path11447-69-6-2-3"
         inkscape:connector-curvature="0" /><path
         d="m 452.62005,-1058.382 39.2519,-11.1332"
         style="fill:none;stroke:#000000;stroke-width:0.44200003;stroke-linecap:butt;stroke-linejoin:miter;stroke-miterlimit:4;stroke-dasharray:none;stroke-opacity:1"
         id="path15668-2-3-7-3"
         inkscape:connector-curvature="0" /><path
         d="m 491.87195,-1069.5152 86.38621,-24.502"
         style="fill:none;stroke:#000000;stroke-width:0.44200003;stroke-linecap:butt;stroke-linejoin:miter;stroke-miterlimit:4;stroke-dasharray:none;stroke-opacity:1"
         id="path15670-2-8-4-6"
         inkscape:connector-curvature="0" /><path
         d="m 578.21076,-1094.0031 135.38291,-38.3992"
         style="fill:none;stroke:#000000;stroke-width:0.44200003;stroke-linecap:butt;stroke-linejoin:miter;stroke-miterlimit:4;stroke-dasharray:none;stroke-opacity:1"
         id="path15674-3-5-9-3"
         inkscape:connector-curvature="0" /><path
         d="m 453.53885,-1083.6573 -0.2821,0.8015 -0.2685,0.8153 -0.2549,0.8295 -0.2408,0.8435 -0.2268,0.8579 -0.2111,0.8664 -0.1982,0.8866 -0.1827,0.898 -0.1672,0.9093 -0.1514,0.9204 -0.1356,0.9311 -0.1193,0.9417 -0.103,0.9518 -0.086,0.9617 -0.07,0.971 -0.053,0.9801 -0.036,0.9886 -0.019,0.9966 0,1.0041 0.016,1.0108 0.034,1.0171 0.052,1.0226 0.069,1.0273 0.027,0.3422"
         style="fill:none;stroke:#000000;stroke-width:0.44200003;stroke-linecap:butt;stroke-linejoin:miter;stroke-miterlimit:4;stroke-dasharray:none;stroke-opacity:1"
         id="path15704-1-9-9-9"
         inkscape:connector-curvature="0" /><path
         d="m 450.93005,-1061.8822 0.01,0.092 0.015,0.1396 0.018,0.1379 0.02,0.1361 0.023,0.1345 0.026,0.1331 0.029,0.1317 0.032,0.1306 0.023,0.085 0.037,0.1289 0.039,0.1274 0.042,0.1258 0.045,0.124 0.047,0.1221 0.05,0.1198 0.052,0.1175 0.054,0.1151 0.056,0.1126 0.058,0.1098 0.06,0.1071 0.062,0.1043 0.064,0.1014 0.065,0.098 0.067,0.095 0.069,0.092 0.07,0.089 0.072,0.086 0.073,0.083 0.074,0.08 0.075,0.077 0.077,0.074 0.078,0.071"
         style="fill:none;stroke:#000000;stroke-width:0.44200003;stroke-linecap:butt;stroke-linejoin:miter;stroke-miterlimit:4;stroke-dasharray:none;stroke-opacity:1"
         id="path15708-5-0-3-7"
         inkscape:connector-curvature="0" /><path
         d="m 455.93745,-1087.025 -0.1344,0.122 -0.1323,0.1247 -0.1304,0.1274 -0.1286,0.1303 -0.1268,0.133 -0.1166,0.1268 -0.01,0.01 -0.1212,0.137 -0.1174,0.1373 -0.1133,0.1374 -0.1092,0.1378 -0.1052,0.1377 -0.101,0.1377 -0.097,0.1376 -0.093,0.1374 -0.089,0.1374 -0.085,0.1371 -0.081,0.1367 -0.077,0.1366 -0.073,0.1361 -0.069,0.1358 -0.065,0.1356 -0.062,0.1351 -0.058,0.1346 -0.054,0.1343 -0.05,0.1338"
         style="fill:none;stroke:#000000;stroke-width:0.44200003;stroke-linecap:butt;stroke-linejoin:miter;stroke-miterlimit:4;stroke-dasharray:none;stroke-opacity:1"
         id="path15710-4-5-4-5"
         inkscape:connector-curvature="0" /><path
         inkscape:connector-curvature="0"
         style="fill:none;stroke:#000000;stroke-width:0.44200003;stroke-linecap:butt;stroke-linejoin:miter;stroke-miterlimit:4;stroke-dasharray:none;stroke-opacity:1"
         d="m 455.93745,-1087.025 252.96502,-71.7495"
         id="path15712-2-4-6-9" /><path
         d="m 452.50765,-1058.3983 c 0.037,0.01 0.075,0.012 0.1123,0.016"
         style="fill:none;stroke:#000000;stroke-width:0.44200003;stroke-linecap:butt;stroke-linejoin:miter;stroke-miterlimit:4;stroke-dasharray:none;stroke-opacity:1"
         id="path15716-0-6-3-7"
         inkscape:connector-curvature="0" /><path
         d="m 452.50765,-1058.3983 39.3517,-11.1615"
         style="fill:none;stroke:#000000;stroke-width:0.44200003;stroke-linecap:butt;stroke-linejoin:miter;stroke-miterlimit:4;stroke-dasharray:none;stroke-opacity:1"
         id="path15744-8-4-3-1"
         inkscape:connector-curvature="0" /><path
         style="fill:#c7ddef;fill-opacity:1;fill-rule:evenodd;stroke:none;stroke-width:1px;stroke-linecap:butt;stroke-linejoin:miter;stroke-opacity:1"
         d="m 708.86397,-1184.1062 -252.89882,71.7811 -0.875,0.8437 -0.9063,1.2032 -0.6406,1.2968 -0.6094,1.8438 -0.5625,1.8906 -0.4687,2.1719 -0.4219,1.9687 -0.3437,2.3907 -0.2188,2.2812 -0.1406,2.1094 -0.047,2.3437 0.078,2.625 0.1406,2.1563 0.1406,1.0781 0.2813,0.7969 0.4687,0.8906 0.6094,0.7344 0.2031,0.031 0.9063,-0.2813 261.42602,-74.1588 z"
         id="path11447-69-7-1-3"
         inkscape:connector-curvature="0" /><path
         d="m 452.62005,-1083.683 39.2519,-11.1332"
         style="fill:none;stroke:#000000;stroke-width:0.44200003;stroke-linecap:butt;stroke-linejoin:miter;stroke-miterlimit:4;stroke-dasharray:none;stroke-opacity:1"
         id="path15668-2-10-6-0"
         inkscape:connector-curvature="0" /><path
         d="m 491.87195,-1094.8162 86.38621,-24.502"
         style="fill:none;stroke:#000000;stroke-width:0.44200003;stroke-linecap:butt;stroke-linejoin:miter;stroke-miterlimit:4;stroke-dasharray:none;stroke-opacity:1"
         id="path15670-2-7-1-5"
         inkscape:connector-curvature="0" /><path
         d="m 578.21076,-1119.3042 135.38291,-38.3992"
         style="fill:none;stroke:#000000;stroke-width:0.44200003;stroke-linecap:butt;stroke-linejoin:miter;stroke-miterlimit:4;stroke-dasharray:none;stroke-opacity:1"
         id="path15674-3-3-3-9"
         inkscape:connector-curvature="0" /><path
         d="m 453.53885,-1108.9583 -0.2821,0.8014 -0.2685,0.8154 -0.2549,0.8294 -0.2408,0.8436 -0.2268,0.8578 -0.2111,0.8664 -0.1982,0.8866 -0.1827,0.8981 -0.1672,0.9093 -0.1514,0.9203 -0.1356,0.9312 -0.1193,0.9416 -0.103,0.9519 -0.086,0.9616 -0.07,0.9711 -0.053,0.98 -0.036,0.9887 -0.019,0.9966 0,1.004 0.016,1.0109 0.034,1.0171 0.052,1.0226 0.069,1.0272 0.027,0.3422"
         style="fill:none;stroke:#000000;stroke-width:0.44200003;stroke-linecap:butt;stroke-linejoin:miter;stroke-miterlimit:4;stroke-dasharray:none;stroke-opacity:1"
         id="path15704-1-8-2-1"
         inkscape:connector-curvature="0" /><path
         d="m 450.93005,-1087.1833 0.01,0.092 0.015,0.1396 0.018,0.1379 0.02,0.1361 0.023,0.1345 0.026,0.1331 0.029,0.1318 0.032,0.1306 0.023,0.085 0.037,0.1288 0.039,0.1274 0.042,0.1258 0.045,0.1241 0.047,0.122 0.05,0.1199 0.052,0.1175 0.054,0.115 0.056,0.1126 0.058,0.1098 0.06,0.1071 0.062,0.1043 0.064,0.1014 0.065,0.098 0.067,0.095 0.069,0.092 0.07,0.089 0.072,0.086 0.073,0.083 0.074,0.08 0.075,0.077 0.077,0.074 0.078,0.071"
         style="fill:none;stroke:#000000;stroke-width:0.44200003;stroke-linecap:butt;stroke-linejoin:miter;stroke-miterlimit:4;stroke-dasharray:none;stroke-opacity:1"
         id="path15708-5-02-0-7"
         inkscape:connector-curvature="0" /><path
         d="m 455.93745,-1112.3261 -0.1344,0.1221 -0.1323,0.1246 -0.1304,0.1274 -0.1286,0.1303 -0.1268,0.1331 -0.1166,0.1268 -0.01,0.01 -0.1212,0.137 -0.1174,0.1373 -0.1133,0.1374 -0.1092,0.1377 -0.1052,0.1377 -0.101,0.1377 -0.097,0.1376 -0.093,0.1374 -0.089,0.1375 -0.085,0.1371 -0.081,0.1367 -0.077,0.1365 -0.073,0.1362 -0.069,0.1358 -0.065,0.1355 -0.062,0.1351 -0.058,0.1347 -0.054,0.1342 -0.05,0.1338"
         style="fill:none;stroke:#000000;stroke-width:0.44200003;stroke-linecap:butt;stroke-linejoin:miter;stroke-miterlimit:4;stroke-dasharray:none;stroke-opacity:1"
         id="path15710-4-4-2-7"
         inkscape:connector-curvature="0" /><path
         inkscape:connector-curvature="0"
         style="fill:none;stroke:#000000;stroke-width:0.44200003;stroke-linecap:butt;stroke-linejoin:miter;stroke-miterlimit:4;stroke-dasharray:none;stroke-opacity:1"
         d="m 455.93745,-1112.326 252.96502,-71.7496"
         id="path15712-2-5-0-6" /><path
         d="m 452.50765,-1083.6994 c 0.037,0.01 0.075,0.012 0.1123,0.016"
         style="fill:none;stroke:#000000;stroke-width:0.44200003;stroke-linecap:butt;stroke-linejoin:miter;stroke-miterlimit:4;stroke-dasharray:none;stroke-opacity:1"
         id="path15716-0-2-8-6"
         inkscape:connector-curvature="0" /><path
         d="m 452.50765,-1083.6994 39.3517,-11.1614"
         style="fill:none;stroke:#000000;stroke-width:0.44200003;stroke-linecap:butt;stroke-linejoin:miter;stroke-miterlimit:4;stroke-dasharray:none;stroke-opacity:1"
         id="path15744-8-6-5-6"
         inkscape:connector-curvature="0" /><path
         style="fill:#c7ddef;fill-opacity:1;fill-rule:evenodd;stroke:none;stroke-width:1px;stroke-linecap:butt;stroke-linejoin:miter;stroke-opacity:1"
         d="m 708.86447,-1209.4069 -252.89882,71.781 -0.875,0.8438 -0.9063,1.2031 -0.6406,1.2969 -0.6094,1.8437 -0.5625,1.8907 -0.4687,2.1718 -0.4219,1.9688 -0.3437,2.3906 -0.2188,2.2813 -0.1406,2.1093 -0.047,2.3438 0.078,2.625 0.1406,2.1562 0.1406,1.0782 0.2813,0.7968 0.4687,0.8907 0.6094,0.7343 0.2031,0.031 0.9063,-0.2812 261.42602,-74.1588 z"
         id="path11447-69-1-0"
         inkscape:connector-curvature="0" /><path
         d="m 452.62055,-1108.9838 39.2519,-11.1332"
         style="fill:none;stroke:#000000;stroke-width:0.44200003;stroke-linecap:butt;stroke-linejoin:miter;stroke-miterlimit:4;stroke-dasharray:none;stroke-opacity:1"
         id="path15668-2-54-4"
         inkscape:connector-curvature="0" /><path
         d="m 491.87245,-1120.117 86.38621,-24.502"
         style="fill:none;stroke:#000000;stroke-width:0.44200003;stroke-linecap:butt;stroke-linejoin:miter;stroke-miterlimit:4;stroke-dasharray:none;stroke-opacity:1"
         id="path15670-2-802-9"
         inkscape:connector-curvature="0" /><path
         d="m 578.21126,-1144.6049 135.38291,-38.3992"
         style="fill:none;stroke:#000000;stroke-width:0.44200003;stroke-linecap:butt;stroke-linejoin:miter;stroke-miterlimit:4;stroke-dasharray:none;stroke-opacity:1"
         id="path15674-3-97-4"
         inkscape:connector-curvature="0" /><path
         d="m 453.53935,-1134.2591 -0.2821,0.8015 -0.2685,0.8153 -0.2549,0.8295 -0.2408,0.8435 -0.2268,0.8579 -0.2111,0.8664 -0.1982,0.8866 -0.1827,0.898 -0.1672,0.9093 -0.1514,0.9204 -0.1356,0.9311 -0.1193,0.9417 -0.103,0.9518 -0.086,0.9617 -0.07,0.971 -0.053,0.9801 -0.036,0.9886 -0.019,0.9966 0,1.0041 0.016,1.0108 0.034,1.0171 0.052,1.0226 0.069,1.0273 0.027,0.3422"
         style="fill:none;stroke:#000000;stroke-width:0.44200003;stroke-linecap:butt;stroke-linejoin:miter;stroke-miterlimit:4;stroke-dasharray:none;stroke-opacity:1"
         id="path15704-1-3-4"
         inkscape:connector-curvature="0" /><path
         d="m 450.93055,-1112.484 0.01,0.092 0.015,0.1396 0.018,0.1379 0.02,0.1361 0.023,0.1345 0.026,0.1331 0.029,0.1317 0.032,0.1306 0.023,0.085 0.037,0.1289 0.039,0.1274 0.042,0.1258 0.045,0.124 0.047,0.1221 0.05,0.1198 0.052,0.1175 0.054,0.1151 0.056,0.1126 0.058,0.1098 0.06,0.1071 0.062,0.1043 0.064,0.1014 0.065,0.098 0.067,0.095 0.069,0.092 0.07,0.089 0.072,0.086 0.073,0.083 0.074,0.08 0.075,0.077 0.077,0.074 0.078,0.071"
         style="fill:none;stroke:#000000;stroke-width:0.44200003;stroke-linecap:butt;stroke-linejoin:miter;stroke-miterlimit:4;stroke-dasharray:none;stroke-opacity:1"
         id="path15708-5-6-2"
         inkscape:connector-curvature="0" /><path
         d="m 455.93795,-1137.6268 -0.1344,0.122 -0.1323,0.1247 -0.1304,0.1274 -0.1286,0.1303 -0.1268,0.133 -0.1166,0.1268 -0.01,0.01 -0.1212,0.137 -0.1174,0.1373 -0.1133,0.1374 -0.1092,0.1378 -0.1052,0.1377 -0.101,0.1377 -0.097,0.1376 -0.093,0.1374 -0.089,0.1374 -0.085,0.1371 -0.081,0.1367 -0.077,0.1366 -0.073,0.1361 -0.069,0.1358 -0.065,0.1356 -0.062,0.1351 -0.058,0.1346 -0.054,0.1343 -0.05,0.1338"
         style="fill:none;stroke:#000000;stroke-width:0.44200003;stroke-linecap:butt;stroke-linejoin:miter;stroke-miterlimit:4;stroke-dasharray:none;stroke-opacity:1"
         id="path15710-4-64-5"
         inkscape:connector-curvature="0" /><path
         inkscape:connector-curvature="0"
         style="fill:none;stroke:#000000;stroke-width:0.44200003;stroke-linecap:butt;stroke-linejoin:miter;stroke-miterlimit:4;stroke-dasharray:none;stroke-opacity:1"
         d="m 455.93795,-1137.6268 252.96502,-71.7495"
         id="path15712-2-58-5" /><path
         d="m 452.50815,-1109.0001 c 0.037,0.01 0.075,0.012 0.1123,0.016"
         style="fill:none;stroke:#000000;stroke-width:0.44200003;stroke-linecap:butt;stroke-linejoin:miter;stroke-miterlimit:4;stroke-dasharray:none;stroke-opacity:1"
         id="path15716-0-5-9"
         inkscape:connector-curvature="0" /><path
         d="m 452.50815,-1109.0001 39.3517,-11.1615"
         style="fill:none;stroke:#000000;stroke-width:0.44200003;stroke-linecap:butt;stroke-linejoin:miter;stroke-miterlimit:4;stroke-dasharray:none;stroke-opacity:1"
         id="path15744-8-2-9"
         inkscape:connector-curvature="0" /><path
         style="fill:#c7ddef;fill-opacity:1;fill-rule:evenodd;stroke:none;stroke-width:1px;stroke-linecap:butt;stroke-linejoin:miter;stroke-opacity:1"
         d="m 709.23807,-1234.7077 -252.89882,71.781 -0.875,0.8438 -0.9063,1.2031 -0.6406,1.2969 -0.6094,1.8437 -0.5625,1.8907 -0.4687,2.1718 -0.4219,1.9688 -0.3437,2.3906 -0.2188,2.2813 -0.1406,2.1093 -0.047,2.3438 0.078,2.625 0.1406,2.1562 0.1406,1.0782 0.2813,0.7968 0.4687,0.8907 0.6094,0.7343 0.2031,0.031 0.9063,-0.2812 261.42602,-74.1588 z"
         id="path11447-69-4-2-2"
         inkscape:connector-curvature="0" /><path
         d="m 452.99415,-1134.2846 39.2519,-11.1332"
         style="fill:none;stroke:#000000;stroke-width:0.44200003;stroke-linecap:butt;stroke-linejoin:miter;stroke-miterlimit:4;stroke-dasharray:none;stroke-opacity:1"
         id="path15668-2-5-3-1"
         inkscape:connector-curvature="0" /><path
         d="m 492.24605,-1145.4178 86.38621,-24.502"
         style="fill:none;stroke:#000000;stroke-width:0.44200003;stroke-linecap:butt;stroke-linejoin:miter;stroke-miterlimit:4;stroke-dasharray:none;stroke-opacity:1"
         id="path15670-2-9-0-4"
         inkscape:connector-curvature="0" /><path
         d="m 578.58486,-1169.9058 135.38291,-38.3991"
         style="fill:none;stroke:#000000;stroke-width:0.44200003;stroke-linecap:butt;stroke-linejoin:miter;stroke-miterlimit:4;stroke-dasharray:none;stroke-opacity:1"
         id="path15674-3-1-0-2"
         inkscape:connector-curvature="0" /><path
         d="m 453.91295,-1159.5599 -0.2821,0.8015 -0.2685,0.8153 -0.2549,0.8295 -0.2408,0.8435 -0.2268,0.8579 -0.2111,0.8664 -0.1982,0.8866 -0.1827,0.898 -0.1672,0.9093 -0.1514,0.9204 -0.1356,0.9311 -0.1193,0.9417 -0.103,0.9518 -0.086,0.9617 -0.07,0.971 -0.053,0.9801 -0.036,0.9886 -0.019,0.9966 0,1.0041 0.016,1.0108 0.034,1.0171 0.052,1.0226 0.069,1.0273 0.027,0.3422"
         style="fill:none;stroke:#000000;stroke-width:0.44200003;stroke-linecap:butt;stroke-linejoin:miter;stroke-miterlimit:4;stroke-dasharray:none;stroke-opacity:1"
         id="path15704-1-6-9-9"
         inkscape:connector-curvature="0" /><path
         d="m 451.30415,-1137.7848 0.01,0.092 0.015,0.1396 0.018,0.1379 0.02,0.1361 0.023,0.1345 0.026,0.1331 0.029,0.1317 0.032,0.1306 0.023,0.085 0.037,0.1289 0.039,0.1274 0.042,0.1258 0.045,0.124 0.047,0.1221 0.05,0.1198 0.052,0.1175 0.054,0.1151 0.056,0.1126 0.058,0.1098 0.06,0.1071 0.062,0.1043 0.064,0.1014 0.065,0.098 0.067,0.095 0.069,0.092 0.07,0.089 0.072,0.086 0.073,0.083 0.074,0.08 0.075,0.077 0.077,0.074 0.078,0.071"
         style="fill:none;stroke:#000000;stroke-width:0.44200003;stroke-linecap:butt;stroke-linejoin:miter;stroke-miterlimit:4;stroke-dasharray:none;stroke-opacity:1"
         id="path15708-5-9-9-2"
         inkscape:connector-curvature="0" /><path
         d="m 456.31155,-1162.9276 -0.1344,0.122 -0.1323,0.1246 -0.1304,0.1274 -0.1286,0.1303 -0.1268,0.1331 -0.1166,0.1268 -0.01,0.01 -0.1212,0.137 -0.1174,0.1373 -0.1133,0.1374 -0.1092,0.1377 -0.1052,0.1378 -0.101,0.1377 -0.097,0.1375 -0.093,0.1375 -0.089,0.1374 -0.085,0.1371 -0.081,0.1367 -0.077,0.1366 -0.073,0.1361 -0.069,0.1358 -0.065,0.1356 -0.062,0.1351 -0.058,0.1346 -0.054,0.1343 -0.05,0.1338"
         style="fill:none;stroke:#000000;stroke-width:0.44200003;stroke-linecap:butt;stroke-linejoin:miter;stroke-miterlimit:4;stroke-dasharray:none;stroke-opacity:1"
         id="path15710-4-45-0-1"
         inkscape:connector-curvature="0" /><path
         inkscape:connector-curvature="0"
         style="fill:none;stroke:#000000;stroke-width:0.44200003;stroke-linecap:butt;stroke-linejoin:miter;stroke-miterlimit:4;stroke-dasharray:none;stroke-opacity:1"
         d="m 456.31155,-1162.9276 252.96502,-71.7495"
         id="path15712-2-2-1-1" /><path
         d="m 452.88175,-1134.3009 c 0.037,0.01 0.075,0.012 0.1123,0.016"
         style="fill:none;stroke:#000000;stroke-width:0.44200003;stroke-linecap:butt;stroke-linejoin:miter;stroke-miterlimit:4;stroke-dasharray:none;stroke-opacity:1"
         id="path15716-0-25-7-1"
         inkscape:connector-curvature="0" /><path
         d="m 452.88175,-1134.3009 39.3517,-11.1615"
         style="fill:none;stroke:#000000;stroke-width:0.44200003;stroke-linecap:butt;stroke-linejoin:miter;stroke-miterlimit:4;stroke-dasharray:none;stroke-opacity:1"
         id="path15744-8-0-4-8"
         inkscape:connector-curvature="0" /><path
         style="fill:#c7ddef;fill-opacity:1;fill-rule:evenodd;stroke:none;stroke-width:1px;stroke-linecap:butt;stroke-linejoin:miter;stroke-opacity:1"
         d="m 708.86447,-1260.0087 -252.89882,71.781 -0.875,0.8438 -0.9063,1.2031 -0.6406,1.2969 -0.6094,1.8437 -0.5625,1.8907 -0.4687,2.1718 -0.4219,1.9688 -0.3437,2.3906 -0.2188,2.2813 -0.1406,2.1093 -0.047,2.3438 0.078,2.625 0.1406,2.1562 0.1406,1.0782 0.2813,0.7968 0.4687,0.8907 0.6094,0.7343 0.2031,0.031 0.9063,-0.2812 261.42602,-74.1588 z"
         id="path11447-69-3-6-0"
         inkscape:connector-curvature="0" /><path
         d="m 452.62055,-1159.5856 39.2519,-11.1332"
         style="fill:none;stroke:#000000;stroke-width:0.44200003;stroke-linecap:butt;stroke-linejoin:miter;stroke-miterlimit:4;stroke-dasharray:none;stroke-opacity:1"
         id="path15668-2-58-0-4"
         inkscape:connector-curvature="0" /><path
         d="m 491.87245,-1170.7188 86.38621,-24.502"
         style="fill:none;stroke:#000000;stroke-width:0.44200003;stroke-linecap:butt;stroke-linejoin:miter;stroke-miterlimit:4;stroke-dasharray:none;stroke-opacity:1"
         id="path15670-2-80-5-9"
         inkscape:connector-curvature="0" /><path
         d="m 578.21126,-1195.2068 135.38291,-38.3991"
         style="fill:none;stroke:#000000;stroke-width:0.44200003;stroke-linecap:butt;stroke-linejoin:miter;stroke-miterlimit:4;stroke-dasharray:none;stroke-opacity:1"
         id="path15674-3-9-5-5"
         inkscape:connector-curvature="0" /><path
         d="m 453.53935,-1184.8609 -0.2821,0.8015 -0.2685,0.8153 -0.2549,0.8294 -0.2408,0.8436 -0.2268,0.8579 -0.2111,0.8664 -0.1982,0.8866 -0.1827,0.898 -0.1672,0.9093 -0.1514,0.9204 -0.1356,0.9311 -0.1193,0.9417 -0.103,0.9518 -0.086,0.9617 -0.07,0.971 -0.053,0.9801 -0.036,0.9886 -0.019,0.9966 0,1.0041 0.016,1.0108 0.034,1.0171 0.052,1.0226 0.069,1.0273 0.027,0.3422"
         style="fill:none;stroke:#000000;stroke-width:0.44200003;stroke-linecap:butt;stroke-linejoin:miter;stroke-miterlimit:4;stroke-dasharray:none;stroke-opacity:1"
         id="path15704-1-90-2-2"
         inkscape:connector-curvature="0" /><path
         d="m 450.93055,-1163.0858 0.01,0.092 0.015,0.1396 0.018,0.1378 0.02,0.1362 0.023,0.1345 0.026,0.133 0.029,0.1318 0.032,0.1306 0.023,0.085 0.037,0.1289 0.039,0.1274 0.042,0.1258 0.045,0.124 0.047,0.1221 0.05,0.1198 0.052,0.1175 0.054,0.1151 0.056,0.1126 0.058,0.1098 0.06,0.1071 0.062,0.1043 0.064,0.1014 0.065,0.098 0.067,0.095 0.069,0.092 0.07,0.089 0.072,0.086 0.073,0.083 0.074,0.08 0.075,0.077 0.077,0.074 0.078,0.071"
         style="fill:none;stroke:#000000;stroke-width:0.44200003;stroke-linecap:butt;stroke-linejoin:miter;stroke-miterlimit:4;stroke-dasharray:none;stroke-opacity:1"
         id="path15708-5-3-9-5"
         inkscape:connector-curvature="0" /><path
         d="m 455.93795,-1188.2286 -0.1344,0.122 -0.1323,0.1246 -0.1304,0.1274 -0.1286,0.1303 -0.1268,0.1331 -0.1166,0.1268 -0.01,0.01 -0.1212,0.137 -0.1174,0.1373 -0.1133,0.1374 -0.1092,0.1377 -0.1052,0.1378 -0.101,0.1377 -0.097,0.1375 -0.093,0.1375 -0.089,0.1374 -0.085,0.1371 -0.081,0.1367 -0.077,0.1366 -0.073,0.1361 -0.069,0.1358 -0.065,0.1356 -0.062,0.1351 -0.058,0.1346 -0.054,0.1343 -0.05,0.1338"
         style="fill:none;stroke:#000000;stroke-width:0.44200003;stroke-linecap:butt;stroke-linejoin:miter;stroke-miterlimit:4;stroke-dasharray:none;stroke-opacity:1"
         id="path15710-4-2-8-6"
         inkscape:connector-curvature="0" /><path
         inkscape:connector-curvature="0"
         style="fill:none;stroke:#000000;stroke-width:0.44200003;stroke-linecap:butt;stroke-linejoin:miter;stroke-miterlimit:4;stroke-dasharray:none;stroke-opacity:1"
         d="m 455.93795,-1188.2286 252.96502,-71.7495"
         id="path15712-2-7-4-5" /><path
         d="m 452.50815,-1159.6019 c 0.037,0.01 0.075,0.012 0.1123,0.016"
         style="fill:none;stroke:#000000;stroke-width:0.44200003;stroke-linecap:butt;stroke-linejoin:miter;stroke-miterlimit:4;stroke-dasharray:none;stroke-opacity:1"
         id="path15716-0-7-2-3"
         inkscape:connector-curvature="0" /><path
         d="m 452.50815,-1159.6019 39.3517,-11.1615"
         style="fill:none;stroke:#000000;stroke-width:0.44200003;stroke-linecap:butt;stroke-linejoin:miter;stroke-miterlimit:4;stroke-dasharray:none;stroke-opacity:1"
         id="path15744-8-38-1-9"
         inkscape:connector-curvature="0" /></g></g><path
     id="path4729-1-3"
     d="m 57.275006,110.78786 c 0,0 12.641565,18.90545 36.589473,16.22556 l -0.04282,7.86848 15.891895,-24.09181 -16.370162,-4.26411 0.118789,9.4065 C 71.880486,118.78736 61.938913,99.845012 61.938913,99.845012 l -4.663907,10.942848 z"
     inkscape:connector-curvature="0"
     style="fill:url(#linearGradient11350);fill-opacity:1;stroke:#464646;stroke-opacity:0.50196081;stroke-width:0.50000004;stroke-miterlimit:4;stroke-dasharray:none" /><path
     id="path4729-17-9"
     d="m 109.62293,56.630382 c 0,0 -12.641556,-18.905445 -36.589458,-16.225555 l 0.04281,-7.86848 -15.891862,24.0918 16.37015,4.264112 -0.118802,-9.406492 c 21.58169,-2.854871 31.523262,16.087472 31.523262,16.087472 l 4.6639,-10.942857 z"
     inkscape:connector-curvature="0"
     style="fill:none;fill-opacity:1;stroke:#464646;stroke-opacity:0.50196081;stroke-width:0.50000004;stroke-miterlimit:4;stroke-dasharray:none" /><path
     id="path4729-2-5"
     d="m 56.112755,57.682695 c 0,0 -18.905451,12.641577 -16.225551,36.589484 l -7.868474,-0.04282 24.091796,15.89187 4.264118,-16.370155 -9.406507,0.118803 C 48.113277,72.288173 67.055629,62.346608 67.055629,62.346608 L 56.112755,57.682695 Z"
     inkscape:connector-curvature="0"
     style="fill:none;fill-opacity:1;stroke:#464646;stroke-opacity:0.50196081;stroke-width:0.50000004;stroke-miterlimit:4;stroke-dasharray:none" /></svg>