<?xml version="1.0" encoding="UTF-8" standalone="no"?>
<!-- Created with Inkscape (http://www.inkscape.org/) -->

<svg
   xmlns:dc="http://purl.org/dc/elements/1.1/"
   xmlns:cc="http://creativecommons.org/ns#"
   xmlns:rdf="http://www.w3.org/1999/02/22-rdf-syntax-ns#"
   xmlns:svg="http://www.w3.org/2000/svg"
   xmlns="http://www.w3.org/2000/svg"
   xmlns:sodipodi="http://sodipodi.sourceforge.net/DTD/sodipodi-0.dtd"
   xmlns:inkscape="http://www.inkscape.org/namespaces/inkscape"
   version="1.1"
   id="svg2"
   xml:space="preserve"
   width="250"
   height="250"
   viewBox="0 0 250 250"
   sodipodi:docname="pebble_scene_controller_all_colors.svg"
   inkscape:version="0.92.1 r15371"><metadata
     id="metadata8"><rdf:RDF><cc:Work
         rdf:about=""><dc:format>image/svg+xml</dc:format><dc:type
           rdf:resource="http://purl.org/dc/dcmitype/StillImage" /><dc:title /></cc:Work></rdf:RDF></metadata><defs
     id="defs6"><marker
       inkscape:stockid="DotL"
       orient="auto"
       refY="0"
       refX="0"
       id="DotL"
       style="overflow:visible"
       inkscape:isstock="true"><path
         id="path5915"
         d="m -2.5,-1 c 0,2.76 -2.24,5 -5,5 -2.76,0 -5,-2.24 -5,-5 0,-2.76 2.24,-5 5,-5 2.76,0 5,2.24 5,5 z"
         style="fill:#000000;fill-opacity:1;fill-rule:evenodd;stroke:#000000;stroke-width:1.00000003pt;stroke-opacity:1"
         transform="matrix(0.8,0,0,0.8,5.92,0.8)"
         inkscape:connector-curvature="0" /></marker><marker
       inkscape:stockid="DotL"
       orient="auto"
       refY="0"
       refX="0"
       id="DotL-2"
       style="overflow:visible"
       inkscape:isstock="true"><path
         id="path5915-1"
         d="m -2.5,-1 c 0,2.76 -2.24,5 -5,5 -2.76,0 -5,-2.24 -5,-5 0,-2.76 2.24,-5 5,-5 2.76,0 5,2.24 5,5 z"
         style="fill:#000000;fill-opacity:1;fill-rule:evenodd;stroke:#000000;stroke-width:1.00000003pt;stroke-opacity:1"
         transform="matrix(0.8,0,0,0.8,5.92,0.8)"
         inkscape:connector-curvature="0" /></marker><pattern
       y="0"
       x="0"
       height="6"
       width="6"
       patternUnits="userSpaceOnUse"
       id="EMFhbasepattern" /></defs><sodipodi:namedview
     pagecolor="#ffffff"
     bordercolor="#666666"
     borderopacity="1"
     objecttolerance="10"
     gridtolerance="10"
     guidetolerance="10"
     inkscape:pageopacity="0"
     inkscape:pageshadow="2"
     inkscape:window-width="1920"
     inkscape:window-height="1017"
     id="namedview4"
     showgrid="false"
     fit-margin-top="0"
     fit-margin-left="0"
     fit-margin-right="0"
     fit-margin-bottom="0"
     borderlayer="true"
     inkscape:showpageshadow="false"
     inkscape:zoom="3.368"
     inkscape:cx="125"
     inkscape:cy="125"
     inkscape:window-x="-8"
     inkscape:window-y="-8"
     inkscape:window-maximized="1"
     inkscape:current-layer="g10"
     inkscape:object-nodes="true"
     inkscape:snap-bbox="false"
     inkscape:bbox-paths="true"
     inkscape:bbox-nodes="true"
     inkscape:snap-bbox-edge-midpoints="true"
     inkscape:snap-bbox-midpoints="true"
     inkscape:object-paths="true"
     inkscape:snap-intersection-paths="true"
     inkscape:snap-smooth-nodes="true"
     inkscape:snap-object-midpoints="true"
     inkscape:snap-center="true"
     inkscape:snap-nodes="false" /><g
     id="g10"
     inkscape:groupmode="layer"
     inkscape:label="19-55-00-00-01-00_170326"
     transform="matrix(1.3333333,0,0,-1.3333333,-524.2937,669.38745)"><path
       style="color:#000000;font-style:normal;font-variant:normal;font-weight:normal;font-stretch:normal;font-size:medium;line-height:normal;font-family:sans-serif;font-variant-ligatures:normal;font-variant-position:normal;font-variant-caps:normal;font-variant-numeric:normal;font-variant-alternates:normal;font-feature-settings:normal;text-indent:0;text-align:start;text-decoration:none;text-decoration-line:none;text-decoration-style:solid;text-decoration-color:#000000;letter-spacing:normal;word-spacing:normal;text-transform:none;writing-mode:lr-tb;direction:ltr;text-orientation:mixed;dominant-baseline:auto;baseline-shift:baseline;text-anchor:start;white-space:normal;shape-padding:0;clip-rule:nonzero;display:inline;overflow:visible;visibility:visible;opacity:1;isolation:auto;mix-blend-mode:normal;color-interpolation:sRGB;color-interpolation-filters:linearRGB;solid-color:#000000;solid-opacity:1;vector-effect:none;fill:#ffffff;fill-opacity:1;fill-rule:nonzero;stroke:none;stroke-width:0.40903428;stroke-linecap:butt;stroke-linejoin:miter;stroke-miterlimit:2;stroke-dasharray:none;stroke-dashoffset:0;stroke-opacity:1;color-rendering:auto;image-rendering:auto;shape-rendering:auto;text-rendering:auto;enable-background:accumulate"
       d="m 467.68446,502.04061 -3.0957,-0.14167 -3.07373,-0.37108 -2.91747,-0.58107 -2.85645,-0.81542 -2.63185,-1.00341 -2.53173,-1.22804 -2.42432,-1.4502 -2.28515,-1.65771 -2.4121,-2.12159 -2.20705,-2.3413 -2.39745,-3.07616 -2.11425,-3.27394 -2.16555,-4.0039 -1.88475,-4.13818 -1.51611,-3.86475 -1.34522,-3.92823 -1.42578,-4.81445 -1.2329,-4.86572 -1.25,-5.85693 -1.03517,-5.896 -0.94237,-6.75048 -0.7129,-6.77978 -0.50781,-6.95802 -0.29785,-6.96777 -0.0928,-7.7881 0.15384,-7.78319 0.4492,-8.45215 0.75196,-8.4326 0.20752,0.0195 -0.20508,-0.0292 1.69923,-12.39503 2.16797,-10.85205 2.4951,-9.35058 2.9004,-8.4082 3.0127,-6.88965 3.43261,-6.18897 3.42285,-4.82423 4.02099,-4.29442 4.15285,-3.23731 0.13666,0.1709 -0.10733,-0.18799 4.2993,-2.3999 4.71436,-1.77003 5.17334,-1.11327 5.77148,-0.40771 6.3208,0.4248 6.70898,1.3794 7.10938,2.47803 7.75147,3.87938 8.35937,5.60302 8.17383,7.0044 7.9834,8.5083 7.53661,9.917 6.56007,10.68848 5.37597,11.03271 4.10156,11.01562 2.86865,11.05225 1.52589,10.54686 0.25878,9.33595 -0.708,7.86377 -0.23193,-0.022 0.22948,0.0415 -0.67382,3.73048 -0.896,3.68895 -1.24268,4.04787 -1.48437,3.96483 -1.87256,4.2627 -2.0996,4.15283 -2.59034,4.51415 -2.82226,4.37257 -3.26417,4.53857 -3.48388,4.36523 -3.74024,4.2505 -3.93798,4.06493 -4.1089,3.85743 -4.28955,3.65234 -4.27733,3.30078 -4.4336,3.08105 -0.11717,-0.16845 0.1075,0.17333 -4.37988,2.71974 -4.52392,2.48046 -3.98438,1.91407 -4.08447,1.6919 -3.59374,1.2622 -3.66212,1.06202 -3.50585,0.79345 -3.5498,0.57373 -3.34482,0.31982 z"
       id="path5758"
       inkscape:connector-curvature="0" /><g
       id="g5316"
       transform="matrix(1.6666665,0,0,1.6666665,-262.1468,-209.69369)"><path
         inkscape:connector-curvature="0"
         id="path1882"
         style="fill:none;stroke:#000000;stroke-width:0.06135515;stroke-linecap:butt;stroke-linejoin:miter;stroke-miterlimit:2;stroke-dasharray:none;stroke-opacity:1"
         d="m 471.12516,356.88064 c -9.30851,-10.97366 -25.35769,-13.2417 -37.34252,-5.27715 m 36.45847,42.98037 c 9.81261,-10.52533 10.19257,-26.72954 0.88405,-37.70322" /><path
         inkscape:connector-curvature="0"
         id="path2330"
         style="fill:none;stroke:#000000;stroke-width:0.24542059;stroke-linecap:butt;stroke-linejoin:miter;stroke-miterlimit:2;stroke-dasharray:none;stroke-opacity:1"
         d="m 411.62119,357.84698 1.02081,-7.43302 1.29824,-6.50502 1.49513,-5.60166 1.7364,-5.03675 1.80483,-4.12503 2.05253,-3.70086 2.04559,-2.88208 2.39902,-2.5638 2.48574,-1.93737" /><path
         inkscape:connector-curvature="0"
         id="path2332"
         style="fill:none;stroke:#000000;stroke-width:0.24542059;stroke-linecap:butt;stroke-linejoin:miter;stroke-miterlimit:2;stroke-dasharray:none;stroke-opacity:1"
         d="m 427.95948,318.06139 2.57217,-1.43441 2.81057,-1.05507 3.08677,-0.66575 3.44521,-0.24256 3.77623,0.25324 4.00894,0.82449 4.25117,1.48096 4.63597,2.32143 5.00372,3.35352 4.89227,4.19275 4.78211,5.09751 4.5148,5.93941 3.92945,6.40294 3.22066,6.60762 2.45579,6.59858 1.71913,6.61851 0.91411,6.3149 0.15358,5.58623 -0.42331,4.71272" /><path
         inkscape:connector-curvature="0"
         id="path2410"
         style="fill:none;stroke:#000000;stroke-width:0.24542059;stroke-linecap:butt;stroke-linejoin:miter;stroke-miterlimit:2;stroke-dasharray:none;stroke-opacity:1"
         d="m 460.62751,419.19653 -2.62443,1.62974 -2.70802,1.48547 -2.38564,1.14503 -2.44462,1.01351 -2.15102,0.7555 -2.19001,0.6344 -2.09563,0.47493 -2.12144,0.34288 -1.9994,0.18918 -2.00758,0.0507 -1.84717,-0.0855 -1.83571,-0.22025 -1.73997,-0.34642 -1.70517,-0.48775 -1.56894,-0.59763 -1.51178,-0.73171 -1.44346,-0.86455 -1.36069,-0.98884 -1.44028,-1.26566 -1.31621,-1.39504 -1.43011,-1.83692 -1.26325,-1.95732 -1.29429,-2.39363 -1.12875,-2.47628 -0.90731,-2.31332 -0.80522,-2.35104 -0.85494,-2.88386 -0.73946,-2.91576 -0.74878,-3.50887 -0.61956,-3.53393 -0.56414,-4.04639 -0.42675,-4.06321 -0.30487,-4.17084 -0.17865,-4.17818 -0.0559,-4.6673 0.0926,-4.66673 0.26967,-5.06841 0.45066,-5.05554" /><path
         inkscape:connector-curvature="0"
         id="path2412"
         style="fill:none;stroke:#000000;stroke-width:0.24542059;stroke-linecap:butt;stroke-linejoin:miter;stroke-miterlimit:2;stroke-dasharray:none;stroke-opacity:1"
         d="m 487.70882,380.96841 -0.4037,2.23443 -0.53555,2.20698 -0.74515,2.42163 -0.88704,2.3733 -1.12088,2.54983 -1.25738,2.4855 -1.55183,2.703 -1.68996,2.61897 -1.95387,2.71659 -2.08661,2.61608 -2.24032,2.54574 -2.35938,2.43566 -2.46058,2.30935 -2.56908,2.18838 -2.56243,1.97623 -2.65755,1.84645" /><path
         inkscape:connector-curvature="0"
         id="path2436"
         style="fill:none;stroke:#000000;stroke-width:0.24542059;stroke-linecap:butt;stroke-linejoin:miter;stroke-miterlimit:2;stroke-dasharray:none;stroke-opacity:1"
         d="m 462.37049,349.97409 0.77229,0.4034 0.75063,0.42122 0.72804,0.43736" /><path
         inkscape:connector-curvature="0"
         id="path2438"
         style="fill:none;stroke:#000000;stroke-width:0.24542059;stroke-linecap:butt;stroke-linejoin:miter;stroke-miterlimit:2;stroke-dasharray:none;stroke-opacity:1"
         d="m 473.88655,360.59354 0.18459,0.1766 0.14262,0.20371 0.0986,0.22092 0.0548,0.23108" /><path
         inkscape:connector-curvature="0"
         id="path2440"
         style="fill:none;stroke:#000000;stroke-width:0.06135515;stroke-linecap:butt;stroke-linejoin:miter;stroke-miterlimit:2;stroke-dasharray:none;stroke-opacity:1"
         d="m 436.60147,346.25792 -0.31076,-0.69581" /><path
         inkscape:connector-curvature="0"
         id="path2442"
         style="fill:none;stroke:#000000;stroke-width:0.06135515;stroke-linecap:butt;stroke-linejoin:miter;stroke-miterlimit:2;stroke-dasharray:none;stroke-opacity:1"
         d="m 462.37049,346.26129 -1.49113,-0.61776 -1.7186,-0.60485 -1.54693,-0.45079 -1.81483,-0.42283 -1.95777,-0.33535 -1.89314,-0.20486 -2.04848,-0.0928 -2.23307,0.0496" /><path
         inkscape:connector-curvature="0"
         id="path2444"
         style="fill:none;stroke:#000000;stroke-width:0.06135515;stroke-linecap:butt;stroke-linejoin:miter;stroke-miterlimit:2;stroke-dasharray:none;stroke-opacity:1"
         d="m 417.73591,375.23522 -0.18669,-7.5e-4 -0.20331,-3.8e-4 -0.21101,-3.8e-4 -0.20235,-3.5e-4" /><path
         inkscape:connector-curvature="0"
         id="path2446"
         style="fill:none;stroke:#000000;stroke-width:0.06135515;stroke-linecap:butt;stroke-linejoin:miter;stroke-miterlimit:2;stroke-dasharray:none;stroke-opacity:1"
         d="m 436.60147,346.25792 -3.61651,1.8908 -3.34055,2.337 -3.00862,2.74288 -2.63027,3.09951 -2.20883,3.40639 -1.75412,3.65469 -1.27347,3.84401 -0.77208,3.96985 -0.26111,4.03217" /><path
         inkscape:connector-curvature="0"
         id="path2448"
         style="fill:none;stroke:#000000;stroke-width:0.06135515;stroke-linecap:butt;stroke-linejoin:miter;stroke-miterlimit:2;stroke-dasharray:none;stroke-opacity:1"
         d="m 481.25289,375.23522 0.186,7.6e-4 0.20238,7.6e-4 0.21063,7.6e-4 0.20356,3.8e-4" /><path
         inkscape:connector-curvature="0"
         id="path2450"
         style="fill:none;stroke:#000000;stroke-width:0.06135515;stroke-linecap:butt;stroke-linejoin:miter;stroke-miterlimit:2;stroke-dasharray:none;stroke-opacity:1"
         d="m 417.7362,375.23522 0.29408,4.29656 0.87261,4.21443 1.43287,4.05372 1.96569,3.82043 2.46475,3.51766 2.91471,3.15582 3.31379,2.73025 3.65234,2.25716 3.92576,1.74553 4.12758,1.19947 4.25377,0.63133 4.30595,0.0481" /><path
         inkscape:connector-curvature="0"
         id="path2468"
         style="fill:none;stroke:#000000;stroke-width:0.24542059;stroke-linecap:butt;stroke-linejoin:miter;stroke-miterlimit:2;stroke-dasharray:none;stroke-opacity:1"
         d="m 473.88655,360.59354 -0.0813,-0.0583 -0.0548,-0.0331 -0.0191,-0.009" /><path
         inkscape:connector-curvature="0"
         id="path2470"
         style="fill:none;stroke:#000000;stroke-width:0.06135515;stroke-linecap:butt;stroke-linejoin:miter;stroke-miterlimit:2;stroke-dasharray:none;stroke-opacity:1"
         d="m 465.23641,351.53594 c 3.52027,2.33933 6.47516,5.4335 8.65003,9.05767" /><path
         inkscape:connector-curvature="0"
         id="path2472"
         style="fill:none;stroke:#000000;stroke-width:0.06135515;stroke-linecap:butt;stroke-linejoin:miter;stroke-miterlimit:2;stroke-dasharray:none;stroke-opacity:1"
         d="m 465.19168,351.60331 0.0447,-0.0673" /><path
         inkscape:connector-curvature="0"
         id="path2474"
         style="fill:none;stroke:#000000;stroke-width:0.06135515;stroke-linecap:butt;stroke-linejoin:miter;stroke-miterlimit:2;stroke-dasharray:none;stroke-opacity:1"
         d="m 465.19168,351.60331 c 3.46357,2.30166 6.37886,5.33652 8.53953,8.88976" /><path
         inkscape:connector-curvature="0"
         id="path2476"
         style="fill:none;stroke:#000000;stroke-width:0.06135515;stroke-linecap:butt;stroke-linejoin:miter;stroke-miterlimit:2;stroke-dasharray:none;stroke-opacity:1"
         d="m 465.22684,351.52934 0.01,0.006" /><path
         inkscape:connector-curvature="0"
         id="path2478"
         style="fill:none;stroke:#000000;stroke-width:0.24542059;stroke-linecap:butt;stroke-linejoin:miter;stroke-miterlimit:2;stroke-dasharray:none;stroke-opacity:1"
         d="m 464.81265,351.35568 0.0845,0.0518 0.0792,0.0451 0.0739,0.0376 0.0681,0.0284 0.0611,0.0158 0.0474,-0.005" /><path
         inkscape:connector-curvature="0"
         id="path2480"
         style="fill:none;stroke:#000000;stroke-width:0.06135515;stroke-linecap:butt;stroke-linejoin:miter;stroke-miterlimit:2;stroke-dasharray:none;stroke-opacity:1"
         d="m 464.81271,351.35574 c 0.12701,0.0815 0.25333,0.164 0.37899,0.24752" /><path
         inkscape:connector-curvature="0"
         id="path2482"
         style="fill:none;stroke:#000000;stroke-width:0.24542059;stroke-linecap:butt;stroke-linejoin:miter;stroke-miterlimit:2;stroke-dasharray:none;stroke-opacity:1"
         d="m 465.25347,351.50474 -0.007,0.009 -0.009,0.008 -0.011,0.007" /><path
         inkscape:connector-curvature="0"
         id="path2484"
         style="fill:none;stroke:#000000;stroke-width:0.06135515;stroke-linecap:butt;stroke-linejoin:miter;stroke-miterlimit:2;stroke-dasharray:none;stroke-opacity:1"
         d="m 462.37049,349.44003 0.0625,-0.13284 0.0471,-0.12461 0.0259,-0.10131" /><path
         inkscape:connector-curvature="0"
         id="path2486"
         style="fill:none;stroke:#000000;stroke-width:0.06135515;stroke-linecap:butt;stroke-linejoin:miter;stroke-miterlimit:2;stroke-dasharray:none;stroke-opacity:1"
         d="m 464.62143,351.23607 -0.65895,-0.65661 -0.7664,-0.61528 -0.82559,-0.52415" /><path
         inkscape:connector-curvature="0"
         id="path2488"
         style="fill:none;stroke:#000000;stroke-width:0.24542059;stroke-linecap:butt;stroke-linejoin:miter;stroke-miterlimit:2;stroke-dasharray:none;stroke-opacity:1"
         d="m 464.81271,351.35574 -0.0627,-0.0394 -0.0637,-0.0399 -0.0648,-0.0404" /><path
         inkscape:connector-curvature="0"
         id="path2490"
         style="fill:none;stroke:#000000;stroke-width:0.24542059;stroke-linecap:butt;stroke-linejoin:miter;stroke-miterlimit:2;stroke-dasharray:none;stroke-opacity:1"
         d="m 462.37044,347.26314 0.62294,0.46454 0.5789,0.47758 0.53021,0.49225 0.47077,0.50756 0.39057,0.52043 0.28675,0.52888 0.14057,0.50909 -0.0152,0.42568 -0.12246,0.31559" /><path
         inkscape:connector-curvature="0"
         id="path2492"
         style="fill:none;stroke:#000000;stroke-width:0.06135515;stroke-linecap:butt;stroke-linejoin:miter;stroke-miterlimit:2;stroke-dasharray:none;stroke-opacity:1"
         d="m 462.37044,349.00994 -2e-5,-0.73213 v -0.58654 l 2e-5,-0.42813" /><path
         inkscape:connector-curvature="0"
         id="path2494"
         style="fill:none;stroke:#000000;stroke-width:0.06135515;stroke-linecap:butt;stroke-linejoin:miter;stroke-miterlimit:2;stroke-dasharray:none;stroke-opacity:1"
         d="m 462.50595,349.08134 -0.0448,-0.0239 -0.0452,-0.0238 -0.0455,-0.0237" /><path
         inkscape:connector-curvature="0"
         id="path2496"
         style="fill:none;stroke:#000000;stroke-width:0.06135515;stroke-linecap:butt;stroke-linejoin:miter;stroke-miterlimit:2;stroke-dasharray:none;stroke-opacity:1"
         d="m 465.25347,351.50474 -0.34526,-0.44286 -0.36801,-0.41443 -0.38281,-0.37762 -0.40356,-0.34955 -0.40973,-0.31203 -0.40407,-0.27084 -0.43408,-0.25607" /><path
         inkscape:connector-curvature="0"
         id="path2498"
         style="fill:none;stroke:#000000;stroke-width:0.06135515;stroke-linecap:butt;stroke-linejoin:miter;stroke-miterlimit:2;stroke-dasharray:none;stroke-opacity:1"
         d="m 436.60455,349.00987 2.0246,-0.9453 2.07086,-0.76935 2.11458,-0.5928" /><path
         inkscape:connector-curvature="0"
         id="path2500"
         style="fill:none;stroke:#000000;stroke-width:0.06135515;stroke-linecap:butt;stroke-linejoin:miter;stroke-miterlimit:2;stroke-dasharray:none;stroke-opacity:1"
         d="m 442.81459,346.70242 3.24247,-0.5618 3.53288,-0.19833 3.52132,0.22148 3.21837,0.5778 3.05624,0.9436 2.9846,1.3247" /><path
         inkscape:connector-curvature="0"
         id="path2502"
         style="fill:none;stroke:#000000;stroke-width:0.06135515;stroke-linecap:butt;stroke-linejoin:miter;stroke-miterlimit:2;stroke-dasharray:none;stroke-opacity:1"
         d="m 442.81443,346.70246 0.0137,0.10651 0.022,0.12667 0.0294,0.1402" /><path
         inkscape:connector-curvature="0"
         id="path2504"
         style="fill:none;stroke:#000000;stroke-width:0.06135515;stroke-linecap:butt;stroke-linejoin:miter;stroke-miterlimit:2;stroke-dasharray:none;stroke-opacity:1"
         d="m 436.73389,349.3708 -0.0599,-0.13381 -0.0443,-0.12329 -0.0251,-0.10394" /><path
         inkscape:connector-curvature="0"
         id="path2506"
         style="fill:none;stroke:#000000;stroke-width:0.06135515;stroke-linecap:butt;stroke-linejoin:miter;stroke-miterlimit:2;stroke-dasharray:none;stroke-opacity:1"
         d="m 436.73393,349.37089 1.08553,-0.53538 1.20307,-0.52559 1.34173,-0.5062 1.10355,-0.35642 0.82214,-0.22873 0.58959,-0.14272" /><path
         inkscape:connector-curvature="0"
         id="path2508"
         style="fill:none;stroke:#000000;stroke-width:0.06135515;stroke-linecap:butt;stroke-linejoin:miter;stroke-miterlimit:2;stroke-dasharray:none;stroke-opacity:1"
         d="m 436.60454,349.43991 0.0427,-0.0231 0.0432,-0.023 0.0436,-0.0229" /><path
         inkscape:connector-curvature="0"
         id="path2510"
         style="fill:none;stroke:#000000;stroke-width:0.06135515;stroke-linecap:butt;stroke-linejoin:miter;stroke-miterlimit:2;stroke-dasharray:none;stroke-opacity:1"
         d="m 436.60454,349.97409 v -0.53418" /><path
         inkscape:connector-curvature="0"
         id="path2512"
         style="fill:none;stroke:#000000;stroke-width:0.06135515;stroke-linecap:butt;stroke-linejoin:miter;stroke-miterlimit:2;stroke-dasharray:none;stroke-opacity:1"
         d="m 462.24106,349.37101 0.0436,0.0229 0.0432,0.023 0.0427,0.0231" /><path
         inkscape:connector-curvature="0"
         id="path2514"
         style="fill:none;stroke:#000000;stroke-width:0.06135515;stroke-linecap:butt;stroke-linejoin:miter;stroke-miterlimit:2;stroke-dasharray:none;stroke-opacity:1"
         d="m 442.87954,347.07585 1.41419,-0.2827 1.29622,-0.19667 1.01691,-0.11377 0.96387,-0.0766 0.90045,-0.0439 0.9469,-0.0171 0.68224,0.006 0.65526,0.0204 0.61475,0.0321 0.55365,0.0396 0.49768,0.0444 0.43144,0.0452 0.3026,0.0353 0.32868,0.0418 0.34718,0.0481 0.3674,0.0554 0.3386,0.0551 0.27446,0.0477 0.34493,0.0639 0.30822,0.0607 0.37636,0.0788 0.3979,0.0892 0.37056,0.0901 0.35136,0.0921 0.31061,0.0866 0.30504,0.0896 0.23579,0.0722 0.29175,0.0932 0.32129,0.10714 0.3356,0.11674 0.43484,0.15853 0.50162,0.19303 0.52129,0.2125 0.52384,0.22639 0.51766,0.23701 0.50225,0.24316 0.47813,0.24384" /><path
         inkscape:connector-curvature="0"
         id="path2516"
         style="fill:none;stroke:#000000;stroke-width:0.06135515;stroke-linecap:butt;stroke-linejoin:miter;stroke-miterlimit:2;stroke-dasharray:none;stroke-opacity:1"
         d="m 436.60455,349.43991 -0.0625,-0.13275 -0.0471,-0.12476 -0.0259,-0.10114" /><path
         inkscape:connector-curvature="0"
         id="path2518"
         style="fill:none;stroke:#000000;stroke-width:0.06135515;stroke-linecap:butt;stroke-linejoin:miter;stroke-miterlimit:2;stroke-dasharray:none;stroke-opacity:1"
         d="m 436.60459,349.00994 -0.0455,0.0237 -0.0452,0.0238 -0.0448,0.0239" /><path
         inkscape:connector-curvature="0"
         id="path2520"
         style="fill:none;stroke:#000000;stroke-width:0.06135515;stroke-linecap:butt;stroke-linejoin:miter;stroke-miterlimit:2;stroke-dasharray:none;stroke-opacity:1"
         d="m 436.60459,347.26115 1e-5,0.42869 v 0.58722 l -1e-5,0.73288" /><path
         inkscape:connector-curvature="0"
         id="path2522"
         style="fill:none;stroke:#000000;stroke-width:0.24542059;stroke-linecap:butt;stroke-linejoin:miter;stroke-miterlimit:2;stroke-dasharray:none;stroke-opacity:1"
         d="m 433.72087,351.50526 -0.12273,-0.31771 -0.0153,-0.42666 0.142,-0.50947 0.28745,-0.52994 0.39112,-0.52058 0.47133,-0.50747 0.52956,-0.49163 0.57831,-0.47692 0.622,-0.46373" /><path
         inkscape:connector-curvature="0"
         id="path2524"
         style="fill:none;stroke:#000000;stroke-width:0.06135515;stroke-linecap:butt;stroke-linejoin:miter;stroke-miterlimit:2;stroke-dasharray:none;stroke-opacity:1"
         d="m 436.4691,349.08133 -0.36825,0.21491 -0.38807,0.25431 -0.39591,0.29299 -0.40387,0.33937 -0.40087,0.38401 -0.39547,0.43494 -0.39579,0.5034" /><path
         inkscape:connector-curvature="0"
         id="path2526"
         style="fill:none;stroke:#000000;stroke-width:0.24542059;stroke-linecap:butt;stroke-linejoin:miter;stroke-miterlimit:2;stroke-dasharray:none;stroke-opacity:1"
         d="m 434.3529,351.23648 -0.065,0.0405 -0.0639,0.04 -0.0627,0.0394" /><path
         inkscape:connector-curvature="0"
         id="path2528"
         style="fill:none;stroke:#000000;stroke-width:0.24542059;stroke-linecap:butt;stroke-linejoin:miter;stroke-miterlimit:2;stroke-dasharray:none;stroke-opacity:1"
         d="m 433.74749,351.52982 -0.0108,-0.007 -0.009,-0.008 -0.007,-0.009" /><path
         inkscape:connector-curvature="0"
         id="path2536"
         style="fill:none;stroke:#000000;stroke-width:0.24542059;stroke-linecap:butt;stroke-linejoin:miter;stroke-miterlimit:2;stroke-dasharray:none;stroke-opacity:1"
         d="m 434.3529,351.23648 0.72822,-0.43748 0.75084,-0.42136 0.77258,-0.40355" /><path
         inkscape:connector-curvature="0"
         id="path2538"
         style="fill:none;stroke:#000000;stroke-width:0.24542059;stroke-linecap:butt;stroke-linejoin:miter;stroke-miterlimit:2;stroke-dasharray:none;stroke-opacity:1"
         d="m 425.24377,360.49309 -0.0203,0.01 -0.0555,0.0338 -0.0794,0.057" /><path
         inkscape:connector-curvature="0"
         id="path2540"
         style="fill:none;stroke:#000000;stroke-width:0.06135515;stroke-linecap:butt;stroke-linejoin:miter;stroke-miterlimit:2;stroke-dasharray:none;stroke-opacity:1"
         d="m 425.24351,360.49289 c 2.16058,-3.55307 5.07574,-6.5878 8.53913,-8.8894" /><path
         inkscape:connector-curvature="0"
         id="path2542"
         style="fill:none;stroke:#000000;stroke-width:0.06135515;stroke-linecap:butt;stroke-linejoin:miter;stroke-miterlimit:2;stroke-dasharray:none;stroke-opacity:1"
         d="m 433.73771,351.53594 0.0449,0.0675" /><path
         inkscape:connector-curvature="0"
         id="path2544"
         style="fill:none;stroke:#000000;stroke-width:0.06135515;stroke-linecap:butt;stroke-linejoin:miter;stroke-miterlimit:2;stroke-dasharray:none;stroke-opacity:1"
         d="m 425.08896,360.59376 c 2.1747,-3.62387 5.12936,-6.71779 8.6493,-9.057" /><path
         inkscape:connector-curvature="0"
         id="path2546"
         style="fill:none;stroke:#000000;stroke-width:0.24542059;stroke-linecap:butt;stroke-linejoin:miter;stroke-miterlimit:2;stroke-dasharray:none;stroke-opacity:1"
         d="m 424.60793,361.42597 0.0606,-0.24818 0.1051,-0.22541 0.14207,-0.19587 0.17279,-0.16299" /><path
         inkscape:connector-curvature="0"
         id="path2548"
         style="fill:none;stroke:#000000;stroke-width:0.06135515;stroke-linecap:butt;stroke-linejoin:miter;stroke-miterlimit:2;stroke-dasharray:none;stroke-opacity:1"
         d="m 482.05546,375.23817 -0.039,1.62901 -0.11695,1.59173 -0.15497,1.30097 -0.19445,1.21741 -0.22324,1.12609 -0.20649,0.89034 -0.21433,0.82126 -0.22213,0.77026 -0.2328,0.73969 -0.24894,0.73054 -0.28433,0.77233 -0.29099,0.73342 -0.30566,0.71917 -0.34489,0.75898 -0.38119,0.78366 -0.36554,0.70521 -0.41914,0.76113 -0.39418,0.67494 -0.3355,0.54677 -0.28477,0.44591 -0.2418,0.36697 -0.20617,0.30555 -0.17769,0.25807 -0.15579,0.2223 -0.13962,0.19608 -0.17464,0.24108 -0.20449,0.27628 -0.17515,0.2313 -0.14521,0.18789 -0.13516,0.17152 -0.16332,0.20282 -0.10444,0.12721 -0.0988,0.12037 -0.11066,0.13402 -0.14478,0.17324 -0.14871,0.1754 -0.1619,0.18817 -0.17742,0.20287 -0.18472,0.20769 -0.20532,0.22675 -0.22799,0.24688 -0.25162,0.26662 -0.27148,0.28107 -0.29847,0.30139 -0.32463,0.31896 -0.33774,0.32251 -0.37137,0.34407 -0.4107,0.36828 -0.45636,0.3949 -0.5089,0.42339 -0.56903,0.45322 -0.6224,0.47247 -0.66575,0.47966 -0.73817,0.50241 -0.81145,0.51879 -0.88641,0.52886 -0.97478,0.53946 -1.03015,0.52372 -1.21259,0.55943 -1.36288,0.55939 -1.62867,0.57656 -1.80743,0.52765 -1.65452,0.38299" /><path
         inkscape:connector-curvature="0"
         id="path2550"
         style="fill:none;stroke:#000000;stroke-width:0.06135515;stroke-linecap:butt;stroke-linejoin:miter;stroke-miterlimit:2;stroke-dasharray:none;stroke-opacity:1"
         d="m 462.37049,346.26129 0.0963,-0.21471 0.1067,-0.23805 0.10995,-0.24544" /><path
         inkscape:connector-curvature="0"
         id="path2552"
         style="fill:none;stroke:#000000;stroke-width:0.06135515;stroke-linecap:butt;stroke-linejoin:miter;stroke-miterlimit:2;stroke-dasharray:none;stroke-opacity:1"
         d="m 481.25315,375.23522 -7.6e-4,-0.54779 -0.0283,-0.96146 -0.0642,-0.96881 -0.076,-0.78759 -0.12064,-0.96855 -0.19054,-1.20615 -0.28332,-1.42813 -0.29034,-1.20039 -0.41273,-1.43216 -0.58603,-1.68985 -0.82633,-1.9717 -1.05047,-2.07783 -1.38849,-2.28442 -1.39335,-1.93276 -2.01298,-2.3379 -2.37098,-2.25266 -3.05601,-2.31902 -2.70357,-1.61723 -2.02787,-0.98953" /><path
         inkscape:connector-curvature="0"
         id="path2554"
         style="fill:none;stroke:#000000;stroke-width:0.06135515;stroke-linecap:butt;stroke-linejoin:miter;stroke-miterlimit:2;stroke-dasharray:none;stroke-opacity:1"
         d="m 451.25835,406.90714 3.20818,-0.34126 3.50271,-0.75866 3.76884,-1.30195 3.70571,-1.83909 3.43892,-2.30836 3.10751,-2.73488 2.72572,-3.11671 2.29673,-3.44468 1.82891,-3.71439 1.32994,-3.92085 0.80828,-4.06042 0.27298,-4.13067" /><path
         inkscape:connector-curvature="0"
         id="path2556"
         style="fill:none;stroke:#000000;stroke-width:0.06135515;stroke-linecap:butt;stroke-linejoin:miter;stroke-miterlimit:2;stroke-dasharray:none;stroke-opacity:1"
         d="m 421.11337,375.23522 -0.0809,-5e-5" /><path
         inkscape:connector-curvature="0"
         id="path2558"
         style="fill:none;stroke:#000000;stroke-width:0.06135515;stroke-linecap:butt;stroke-linejoin:miter;stroke-miterlimit:2;stroke-dasharray:none;stroke-opacity:1"
         d="m 421.11337,375.23522 c 0,-4.76203 1.19853,-9.44748 3.48515,-13.62461" /><path
         inkscape:connector-curvature="0"
         id="path2560"
         style="fill:none;stroke:#000000;stroke-width:0.24542059;stroke-linecap:butt;stroke-linejoin:miter;stroke-miterlimit:2;stroke-dasharray:none;stroke-opacity:1"
         d="m 424.60793,361.42597 -0.01,0.0995 -0.001,0.064 0.002,0.021" /><path
         inkscape:connector-curvature="0"
         id="path2562"
         style="fill:none;stroke:#000000;stroke-width:0.06135515;stroke-linecap:butt;stroke-linejoin:miter;stroke-miterlimit:2;stroke-dasharray:none;stroke-opacity:1"
         d="m 421.03221,375.23517 c 0,-4.83202 1.2305,-9.58447 3.57548,-13.80934" /><path
         inkscape:connector-curvature="0"
         id="path2564"
         style="fill:none;stroke:#000000;stroke-width:0.24542059;stroke-linecap:butt;stroke-linejoin:miter;stroke-miterlimit:2;stroke-dasharray:none;stroke-opacity:1"
         d="m 424.59856,388.85985 -0.002,0.0225 0.002,0.065 0.01,0.0972" /><path
         inkscape:connector-curvature="0"
         id="path2566"
         style="fill:none;stroke:#000000;stroke-width:0.06135515;stroke-linecap:butt;stroke-linejoin:miter;stroke-miterlimit:2;stroke-dasharray:none;stroke-opacity:1"
         d="m 424.59853,388.85984 c -2.28662,-4.17712 -3.48516,-8.86257 -3.48516,-13.62462" /><path
         inkscape:connector-curvature="0"
         id="path2568"
         style="fill:none;stroke:#000000;stroke-width:0.06135515;stroke-linecap:butt;stroke-linejoin:miter;stroke-miterlimit:2;stroke-dasharray:none;stroke-opacity:1"
         d="m 424.60773,389.04432 c -2.3449,-4.22482 -3.57536,-8.97717 -3.57536,-13.8091" /><path
         inkscape:connector-curvature="0"
         id="path2570"
         style="fill:none;stroke:#000000;stroke-width:0.24542059;stroke-linecap:butt;stroke-linejoin:miter;stroke-miterlimit:2;stroke-dasharray:none;stroke-opacity:1"
         d="m 425.08851,389.87694 -0.18459,-0.1766 -0.14265,-0.20373 -0.0986,-0.22094 -0.0548,-0.23113" /><path
         inkscape:connector-curvature="0"
         id="path2572"
         style="fill:none;stroke:#000000;stroke-width:0.24542059;stroke-linecap:butt;stroke-linejoin:miter;stroke-miterlimit:2;stroke-dasharray:none;stroke-opacity:1"
         d="m 473.73126,389.97736 0.0204,-0.01 0.0555,-0.0338 0.0794,-0.057" /><path
         inkscape:connector-curvature="0"
         id="path2574"
         style="fill:none;stroke:#000000;stroke-width:0.06135515;stroke-linecap:butt;stroke-linejoin:miter;stroke-miterlimit:2;stroke-dasharray:none;stroke-opacity:1"
         d="m 473.73154,389.97757 c -5.0281,8.26877 -13.92378,13.4047 -23.59879,13.62474" /><path
         inkscape:connector-curvature="0"
         id="path2576"
         style="fill:none;stroke:#000000;stroke-width:0.24542059;stroke-linecap:butt;stroke-linejoin:miter;stroke-miterlimit:2;stroke-dasharray:none;stroke-opacity:1"
         d="m 449.96808,403.68625 0.0911,-0.0413 0.0561,-0.0309 0.0173,-0.012" /><path
         inkscape:connector-curvature="0"
         id="path2578"
         style="fill:none;stroke:#000000;stroke-width:0.06135515;stroke-linecap:butt;stroke-linejoin:miter;stroke-miterlimit:2;stroke-dasharray:none;stroke-opacity:1"
         d="m 451.38717,403.627 c -0.47246,0.0316 -0.94563,0.0514 -1.41907,0.0594" /><path
         inkscape:connector-curvature="0"
         id="path2580"
         style="fill:none;stroke:#000000;stroke-width:0.06135515;stroke-linecap:butt;stroke-linejoin:miter;stroke-miterlimit:2;stroke-dasharray:none;stroke-opacity:1"
         d="m 473.88683,389.87708 c -4.79557,7.9914 -13.20056,13.12789 -22.49964,13.75006" /><path
         inkscape:connector-curvature="0"
         id="path2582"
         style="fill:none;stroke:#000000;stroke-width:0.06135515;stroke-linecap:butt;stroke-linejoin:miter;stroke-miterlimit:2;stroke-dasharray:none;stroke-opacity:1"
         d="m 436.29085,345.56242 -3.71135,1.94061 -3.41388,2.38338 -3.04252,2.75782 -2.70235,3.15949 -2.30755,3.53394 -1.86638,3.89857 -1.29272,3.92409 -0.76813,4.02007 -0.25342,4.05285" /><path
         inkscape:connector-curvature="0"
         id="path2584"
         style="fill:none;stroke:#000000;stroke-width:0.24542059;stroke-linecap:butt;stroke-linejoin:miter;stroke-miterlimit:2;stroke-dasharray:none;stroke-opacity:1"
         d="m 448.84231,403.60199 0.0186,0.0128 0.057,0.0312 0.0891,0.0403" /><path
         inkscape:connector-curvature="0"
         id="path2586"
         style="fill:none;stroke:#000000;stroke-width:0.06135515;stroke-linecap:butt;stroke-linejoin:miter;stroke-miterlimit:2;stroke-dasharray:none;stroke-opacity:1"
         d="m 448.84228,403.60247 c -9.67513,-0.21981 -18.57095,-5.35585 -23.59882,-13.62488" /><path
         inkscape:connector-curvature="0"
         id="path2588"
         style="fill:none;stroke:#000000;stroke-width:0.24542059;stroke-linecap:butt;stroke-linejoin:miter;stroke-miterlimit:2;stroke-dasharray:none;stroke-opacity:1"
         d="m 425.08851,389.87694 0.0813,0.0582 0.0547,0.0331 0.0191,0.009" /><path
         inkscape:connector-curvature="0"
         id="path2590"
         style="fill:none;stroke:#000000;stroke-width:0.06135515;stroke-linecap:butt;stroke-linejoin:miter;stroke-miterlimit:2;stroke-dasharray:none;stroke-opacity:1"
         d="m 449.00695,403.68678 -3.59118,-0.28902 -3.53066,-0.74111 -3.3797,-1.17007 -3.21039,-1.58787 -2.99995,-1.98887 -2.7335,-2.36039 -2.41626,-2.69172 -2.05694,-2.98072" /><path
         inkscape:connector-curvature="0"
         id="path2592"
         style="fill:none;stroke:#000000;stroke-width:0.24542059;stroke-linecap:butt;stroke-linejoin:miter;stroke-miterlimit:2;stroke-dasharray:none;stroke-opacity:1"
         d="m 449.96808,403.68625 -0.24524,0.0715 -0.24774,0.0217 -0.24062,-0.0251 -0.22752,-0.0681" /><path
         inkscape:connector-curvature="0"
         id="path2594"
         style="fill:none;stroke:#000000;stroke-width:0.06135515;stroke-linecap:butt;stroke-linejoin:miter;stroke-miterlimit:2;stroke-dasharray:none;stroke-opacity:1"
         d="m 442.8602,343.44891 -2.23647,0.54827 -2.19347,0.70557 -2.13941,0.85967" /><path
         inkscape:connector-curvature="0"
         id="path2596"
         style="fill:none;stroke:#000000;stroke-width:0.06135515;stroke-linecap:butt;stroke-linejoin:miter;stroke-miterlimit:2;stroke-dasharray:none;stroke-opacity:1"
         d="m 416.93255,375.23324 0.0239,1.20166 0.10517,1.62296 0.22874,1.91811 0.29112,1.65846 0.45,1.92581 0.62149,2.05812 0.90216,2.35091 1.07084,2.24311 1.30289,2.26423 2.02451,2.86299 2.27952,2.58519 2.81425,2.55987 3.25939,2.31878 3.4872,1.88746 3.81644,1.48993 4.12551,1.02802 4.1306,0.47661 4.15093,-0.0487 4.0996,-0.57185" /><path
         inkscape:connector-curvature="0"
         id="path2598"
         style="fill:none;stroke:#000000;stroke-width:0.06135515;stroke-linecap:butt;stroke-linejoin:miter;stroke-miterlimit:2;stroke-dasharray:none;stroke-opacity:1"
         d="m 462.68351,345.56294 -3.80622,-1.40954 -3.94726,-0.92482 -4.02678,-0.4276 -4.04403,0.0744 -3.99898,0.57353" /><path
         inkscape:connector-curvature="0"
         id="path2600"
         style="fill:none;stroke:#000000;stroke-width:0.06135515;stroke-linecap:butt;stroke-linejoin:miter;stroke-miterlimit:2;stroke-dasharray:none;stroke-opacity:1"
         d="m 482.05546,375.23817 -0.13291,-2.90075 -0.41753,-3.00793 -0.5521,-2.42763 -0.85798,-2.71347 -1.09407,-2.63035 -1.35895,-2.5893 -1.25796,-1.98911 -1.89375,-2.49968 -2.23756,-2.41968 -2.54197,-2.24263 -3.14266,-2.20665 -3.88451,-2.04805" /><path
         inkscape:connector-curvature="0"
         id="path2602"
         style="fill:none;stroke:#000000;stroke-width:0.24542059;stroke-linecap:butt;stroke-linejoin:miter;stroke-miterlimit:2;stroke-dasharray:none;stroke-opacity:1"
         d="m 474.36709,389.04456 -0.0607,0.24814 -0.10508,0.22539 -0.14205,0.19582 -0.17275,0.16296" /><path
         inkscape:connector-curvature="0"
         id="path2642"
         style="fill:none;stroke:#000000;stroke-width:0.06135515;stroke-linecap:butt;stroke-linejoin:miter;stroke-miterlimit:2;stroke-dasharray:none;stroke-opacity:1"
         d="m 433.78274,351.60363 c 0.12555,-0.0834 0.25178,-0.16588 0.37865,-0.24731" /><path
         inkscape:connector-curvature="0"
         id="path2644"
         style="fill:none;stroke:#000000;stroke-width:0.24542059;stroke-linecap:butt;stroke-linejoin:miter;stroke-miterlimit:2;stroke-dasharray:none;stroke-opacity:1"
         d="m 433.74749,351.52982 0.0472,0.005 0.0609,-0.0156 0.0683,-0.0286 0.0738,-0.0375 0.0792,-0.045 0.0845,-0.0517" /><path
         inkscape:connector-curvature="0"
         id="path2646"
         style="fill:none;stroke:#000000;stroke-width:0.06135515;stroke-linecap:butt;stroke-linejoin:miter;stroke-miterlimit:2;stroke-dasharray:none;stroke-opacity:1"
         d="m 433.73788,351.5362 0.01,-0.006" /><path
         inkscape:connector-curvature="0"
         id="path2722"
         style="fill:none;stroke:#000000;stroke-width:0.24542059;stroke-linecap:butt;stroke-linejoin:miter;stroke-miterlimit:2;stroke-dasharray:none;stroke-opacity:1"
         d="m 436.60454,349.97409 3.02264,-1.30987 3.16991,-0.95913 3.3075,-0.59259 3.36721,-0.20074 3.34478,0.19448 3.30438,0.58537 3.20393,0.96426 3.0456,1.31822" /><path
         inkscape:connector-curvature="0"
         id="path2724"
         style="fill:none;stroke:#000000;stroke-width:0.06135515;stroke-linecap:butt;stroke-linejoin:miter;stroke-miterlimit:2;stroke-dasharray:none;stroke-opacity:1"
         d="m 434.35294,351.23647 0.70202,-0.70073 0.75978,-0.59882 0.78986,-0.49706" /><path
         inkscape:connector-curvature="0"
         id="path2726"
         style="fill:none;stroke:#000000;stroke-width:0.24542059;stroke-linecap:butt;stroke-linejoin:miter;stroke-miterlimit:2;stroke-dasharray:none;stroke-opacity:1"
         d="m 443.14592,344.20636 -1.51172,0.4149 -1.60202,0.64922 -1.68427,0.87215 -1.74341,1.11825" /><path
         inkscape:connector-curvature="0"
         id="path2728"
         style="fill:none;stroke:#000000;stroke-width:0.24542059;stroke-linecap:butt;stroke-linejoin:miter;stroke-miterlimit:2;stroke-dasharray:none;stroke-opacity:1"
         d="m 443.14592,344.20636 c 1.4914,-0.30481 3.00283,-0.50169 4.52253,-0.58913" /><path
         inkscape:connector-curvature="0"
         id="path2730"
         style="fill:none;stroke:#000000;stroke-width:0.24542059;stroke-linecap:butt;stroke-linejoin:miter;stroke-miterlimit:2;stroke-dasharray:none;stroke-opacity:1"
         d="m 447.66844,343.61709 c 2.73393,-0.15729 5.4767,0.0407 8.15969,0.58893" /><path
         inkscape:connector-curvature="0"
         id="path2732"
         style="fill:none;stroke:#000000;stroke-width:0.24542059;stroke-linecap:butt;stroke-linejoin:miter;stroke-miterlimit:2;stroke-dasharray:none;stroke-opacity:1"
         d="m 462.37051,347.26291 -1.74169,-1.11718 -1.68346,-0.87368 -1.60005,-0.64975 -1.51718,-0.41622" /><path
         inkscape:connector-curvature="0"
         id="path2734"
         style="fill:none;stroke:#000000;stroke-width:0.06135515;stroke-linecap:butt;stroke-linejoin:miter;stroke-miterlimit:2;stroke-dasharray:none;stroke-opacity:1"
         d="m 436.60447,346.25641 1.17984,-0.49557 1.65855,-0.60451 2.18222,-0.63817 2.26874,-0.49169 1.8399,-0.27393 1.93307,-0.1707" /><path
         inkscape:connector-curvature="0"
         id="path2736"
         style="fill:none;stroke:#000000;stroke-width:0.06135515;stroke-linecap:butt;stroke-linejoin:miter;stroke-miterlimit:2;stroke-dasharray:none;stroke-opacity:1"
         d="m 462.37051,349.97413 -9e-5,-0.53414" /><path
         inkscape:connector-curvature="0"
         id="path2738"
         style="fill:none;stroke:#000000;stroke-width:0.06135515;stroke-linecap:butt;stroke-linejoin:miter;stroke-miterlimit:2;stroke-dasharray:none;stroke-opacity:1"
         d="m 462.24106,349.37101 0.0599,-0.1336 0.045,-0.12557 0.0245,-0.10188" /><path
         inkscape:connector-curvature="0"
         id="path2758"
         style="fill:none;stroke:#000000;stroke-width:0.24542059;stroke-linecap:butt;stroke-linejoin:miter;stroke-miterlimit:2;stroke-dasharray:none;stroke-opacity:1"
         d="m 474.37645,361.6106 0.002,-0.0225 -0.002,-0.065 -0.01,-0.0973" /><path
         inkscape:connector-curvature="0"
         id="path2760"
         style="fill:none;stroke:#000000;stroke-width:0.06135515;stroke-linecap:butt;stroke-linejoin:miter;stroke-miterlimit:2;stroke-dasharray:none;stroke-opacity:1"
         d="m 474.37648,361.61061 c 2.28663,4.17713 3.48516,8.86258 3.48516,13.62461" /><path
         inkscape:connector-curvature="0"
         id="path2762"
         style="fill:none;stroke:#000000;stroke-width:0.06135515;stroke-linecap:butt;stroke-linejoin:miter;stroke-miterlimit:2;stroke-dasharray:none;stroke-opacity:1"
         d="m 477.94245,375.23522 c 0,-4.83204 -1.2305,-9.58451 -3.57552,-13.80937" /><path
         inkscape:connector-curvature="0"
         id="path2764"
         style="fill:none;stroke:#000000;stroke-width:0.06135515;stroke-linecap:butt;stroke-linejoin:miter;stroke-miterlimit:2;stroke-dasharray:none;stroke-opacity:1"
         d="m 477.86168,375.23522 0.0809,5e-5" /><path
         inkscape:connector-curvature="0"
         id="path2766"
         style="fill:none;stroke:#000000;stroke-width:0.06135515;stroke-linecap:butt;stroke-linejoin:miter;stroke-miterlimit:2;stroke-dasharray:none;stroke-opacity:1"
         d="m 474.37692,388.86007 c 2.28653,-4.17723 3.48492,-8.86276 3.48478,-13.62485" /><path
         inkscape:connector-curvature="0"
         id="path2768"
         style="fill:none;stroke:#000000;stroke-width:0.24542059;stroke-linecap:butt;stroke-linejoin:miter;stroke-miterlimit:2;stroke-dasharray:none;stroke-opacity:1"
         d="m 474.36709,389.04456 0.01,-0.0995 10e-4,-0.064 -0.002,-0.0211" /><path
         inkscape:connector-curvature="0"
         id="path2770"
         style="fill:none;stroke:#000000;stroke-width:0.06135515;stroke-linecap:butt;stroke-linejoin:miter;stroke-miterlimit:2;stroke-dasharray:none;stroke-opacity:1"
         d="m 474.36749,389.04478 c 2.3449,-4.22494 3.57526,-8.97745 3.57512,-13.80951" /></g><g
       id="g5056"
       transform="translate(-152.75972,-34.654731)"><path
         inkscape:connector-curvature="0"
         style="fill:#ffffff;fill-opacity:1;fill-rule:nonzero;stroke:#4d4d4d;stroke-width:0.50550002;stroke-linecap:round;stroke-linejoin:miter;stroke-miterlimit:14;stroke-dasharray:none;stroke-opacity:1"
         d="m 686.93162,450.35147 c 0,-26.08378 -21.08982,-47.1736 -47.1736,-47.1736 -26.04536,0 -47.1736,21.08982 -47.1736,47.1736 0,26.04536 21.12824,47.17359 47.1736,47.17359 26.08378,0 47.1736,-21.12823 47.1736,-47.17359 z"
         id="path4684" /><path
         inkscape:connector-curvature="0"
         style="fill:#ffffff;fill-opacity:1;fill-rule:nonzero;stroke:none;stroke-width:0.48019084"
         d="m 595.46555,450.00573 h 13.40682 c 0.0384,-5.41651 1.49819,-10.48729 3.99516,-14.90501 l -11.60132,-6.68421 c -3.64943,6.37689 -5.76225,13.75256 -5.80066,21.58922 z"
         id="path4686" /><path
         inkscape:connector-curvature="0"
         style="fill:#ffffff;fill-opacity:1;fill-rule:nonzero;stroke:none;stroke-width:0.48019084"
         d="m 670.68208,450.00573 h 13.40683 c -0.0384,-7.83666 -2.15124,-15.21233 -5.80066,-21.58922 l -11.60132,6.68421 c 2.49697,4.41772 3.95674,9.4885 3.99515,14.90501 z"
         id="path4688" /><path
         inkscape:connector-curvature="0"
         style="fill:#ffffff;fill-opacity:1;fill-rule:nonzero;stroke:none;stroke-width:0.48019084"
         d="m 613.21326,434.56291 c 5.3781,-9.06593 15.25076,-15.17392 26.54476,-15.17392 11.33242,0 21.16665,6.10799 26.58317,15.17392 l 11.60133,-6.68421 c -7.683,-13.06109 -21.89655,-21.85812 -38.1845,-21.85812 -16.24954,0 -30.46308,8.79703 -38.18449,21.85812 z"
         id="path4690" /><path
         inkscape:connector-curvature="0"
         style="fill:none;stroke:#4d4d4d;stroke-width:0.50550002;stroke-linecap:round;stroke-linejoin:miter;stroke-miterlimit:14;stroke-dasharray:none;stroke-opacity:1"
         d="m 684.3194,450.27464 c 0,-24.62401 -19.97579,-44.5998 -44.59979,-44.5998 -24.62401,0 -44.5998,19.97579 -44.5998,44.5998 0,24.624 19.97579,44.59979 44.5998,44.59979 24.624,0 44.59979,-19.97579 44.59979,-44.59979 z"
         id="path4692" /><path
         inkscape:connector-curvature="0"
         style="fill:none;stroke:#4d4d4d;stroke-width:0.50550002;stroke-linecap:round;stroke-linejoin:miter;stroke-miterlimit:14;stroke-dasharray:none;stroke-opacity:1"
         d="m 670.33635,450.35147 c 0,-16.9026 -13.67574,-30.57833 -30.57833,-30.57833 -16.86418,0 -30.57833,13.67573 -30.57833,30.57833 0,16.86417 13.71415,30.57833 30.57833,30.57833 16.90259,0 30.57833,-13.71416 30.57833,-30.57833 z"
         id="path4694" /><path
         inkscape:connector-curvature="0"
         style="fill:none;stroke:#4d4d4d;stroke-width:0.50550002;stroke-linecap:butt;stroke-linejoin:miter;stroke-miterlimit:4;stroke-dasharray:none;stroke-opacity:1"
         d="m 601.11254,427.95553 12.21597,7.06836"
         id="path4696" /><path
         inkscape:connector-curvature="0"
         style="fill:none;stroke:#4d4d4d;stroke-width:0.50550002;stroke-linecap:butt;stroke-linejoin:miter;stroke-miterlimit:4;stroke-dasharray:none;stroke-opacity:1"
         d="m 595.11981,450.35147 h 14.0983"
         id="path4698" /><path
         inkscape:connector-curvature="0"
         style="fill:none;stroke:#4d4d4d;stroke-width:0.50550002;stroke-linecap:butt;stroke-linejoin:miter;stroke-miterlimit:4;stroke-dasharray:none;stroke-opacity:1"
         d="m 670.29793,450.35147 h 14.13671"
         id="path4700" /><path
         inkscape:connector-curvature="0"
         style="fill:none;stroke:#4d4d4d;stroke-width:0.50550002;stroke-linecap:butt;stroke-linejoin:miter;stroke-miterlimit:4;stroke-dasharray:none;stroke-opacity:1"
         d="m 666.22594,434.98548 12.21597,-7.02995"
         id="path4702" /><path
         sodipodi:nodetypes="ccccc"
         inkscape:connector-curvature="0"
         style="fill:#ffffff;fill-opacity:1;fill-rule:nonzero;stroke:none;stroke-width:0.48019084"
         d="m 601.55045,427.84201 11.63615,6.77861 c 2.5738,-4.3793 6.27716,-8.16095 10.92538,-10.92683 l -6.71731,-11.65499 c -6.76104,3.95674 -12.15638,9.46473 -15.84422,15.80321 z"
         id="path4704" /><path
         sodipodi:nodetypes="ccccc"
         inkscape:connector-curvature="0"
         style="fill:#ffffff;fill-opacity:1;fill-rule:nonzero;stroke:none;stroke-width:0.48019084"
         d="m 662.20929,412.13994 -6.71383,11.60979 c 4.37931,2.5738 8.07985,6.16496 10.84573,10.81318 l 11.60133,-6.68421 c -3.95675,-6.79945 -9.39476,-12.05092 -15.73323,-15.73876 z"
         id="path4706" /><path
         inkscape:connector-curvature="0"
         style="fill:#4d4d4d;fill-opacity:1;fill-rule:nonzero;stroke:#4d4d4d;stroke-width:0.03841498px;stroke-linecap:butt;stroke-linejoin:miter;stroke-miterlimit:14;stroke-dasharray:none;stroke-opacity:1"
         d="m 634.76408,412.05173 c 0,-0.26891 -0.11525,-0.46098 -0.30733,-0.61465 -0.19207,-0.15365 -0.4994,-0.23048 -0.84513,-0.23048 -0.23049,0 -0.42256,0 -0.57623,0.0384 -0.15365,0.0768 -0.30731,0.11524 -0.42256,0.19207 v 0.4994 h 0.0384 c 0.11524,-0.11524 0.30732,-0.19207 0.46098,-0.2689 0.19207,-0.0384 0.34573,-0.0768 0.53781,-0.0768 0.19208,0 0.34573,0.0384 0.46098,0.0768 0.11524,0.0768 0.19207,0.19207 0.19207,0.30732 0,0.11524 -0.0384,0.19207 -0.11524,0.26891 -0.0384,0.0384 -0.15366,0.11524 -0.34573,0.15366 -0.0768,0 -0.15367,0.0384 -0.26891,0.0384 -0.11525,0.0384 -0.19208,0.0384 -0.26891,0.0768 -0.26891,0.0384 -0.42256,0.15366 -0.53781,0.2689 -0.0768,0.11525 -0.15366,0.26891 -0.15366,0.46098 0,0.11525 0.0384,0.23049 0.0768,0.30732 0.0384,0.11525 0.11525,0.19208 0.2305,0.26891 0.0768,0.0768 0.19207,0.15365 0.34573,0.19207 0.11524,0.0384 0.30732,0.0768 0.46098,0.0768 0.19207,0 0.34573,-0.0384 0.49939,-0.0768 0.19208,-0.0384 0.30732,-0.0768 0.42257,-0.11525 v -0.49939 0 c -0.11525,0.0768 -0.26891,0.15366 -0.46098,0.19208 -0.15366,0.0768 -0.30733,0.11524 -0.4994,0.11524 -0.15366,0 -0.30732,-0.0384 -0.42256,-0.11524 -0.11525,-0.0384 -0.15366,-0.15366 -0.15366,-0.26891 0,-0.11524 0,-0.23049 0.0768,-0.2689 0.0768,-0.0768 0.19207,-0.11525 0.34573,-0.15366 0.0768,0 0.19208,-0.0384 0.30733,-0.0384 0.0768,-0.0384 0.19207,-0.0384 0.2689,-0.0768 0.19207,-0.0384 0.38415,-0.11524 0.49939,-0.23048 0.11525,-0.15366 0.15367,-0.30732 0.15367,-0.4994 z"
         id="path4708" /><path
         inkscape:connector-curvature="0"
         style="fill:#4d4d4d;fill-opacity:1;fill-rule:nonzero;stroke:#4d4d4d;stroke-width:0.03841498px;stroke-linecap:butt;stroke-linejoin:miter;stroke-miterlimit:14;stroke-dasharray:none;stroke-opacity:1"
         d="m 637.68361,412.58954 h -2.036 c 0,-0.15366 0.0384,-0.30732 0.0768,-0.46098 0.0384,-0.11525 0.11525,-0.23049 0.19208,-0.30732 0.11525,-0.0768 0.19208,-0.11525 0.30732,-0.15366 0.11525,-0.0384 0.26891,-0.0768 0.38415,-0.0768 0.19208,0 0.38415,0.0384 0.57623,0.11524 0.19207,0.0768 0.34573,0.15366 0.42256,0.23049 h 0.0384 v -0.4994 c -0.19207,-0.0768 -0.34573,-0.11524 -0.49939,-0.19207 -0.15366,-0.0384 -0.34573,-0.0384 -0.4994,-0.0384 -0.46097,0 -0.84513,0.11524 -1.07561,0.34573 -0.26891,0.26891 -0.38415,0.61464 -0.38415,1.07562 0,0.46098 0.11524,0.80672 0.34573,1.07562 0.2689,0.2689 0.57623,0.38415 0.99879,0.38415 0.34574,0 0.65306,-0.11525 0.84513,-0.30732 0.19207,-0.23049 0.30732,-0.53781 0.30732,-0.92196 z m -0.46098,0.34573 c 0,0.26891 -0.0768,0.46098 -0.19207,0.57623 -0.11525,0.15366 -0.30733,0.19207 -0.53781,0.19207 -0.26891,0 -0.46098,-0.0768 -0.61464,-0.19207 -0.11525,-0.15366 -0.2305,-0.34573 -0.2305,-0.57623 z"
         id="path4710" /><path
         inkscape:connector-curvature="0"
         style="fill:#4d4d4d;fill-opacity:1;fill-rule:nonzero;stroke:#4d4d4d;stroke-width:0.03841498px;stroke-linecap:butt;stroke-linejoin:miter;stroke-miterlimit:14;stroke-dasharray:none;stroke-opacity:1"
         d="m 638.79765,411.24501 h -0.46099 v 3.87992 h 0.46099 z"
         id="path4712" /><path
         inkscape:connector-curvature="0"
         style="fill:#4d4d4d;fill-opacity:1;fill-rule:nonzero;stroke:#4d4d4d;stroke-width:0.03841498px;stroke-linecap:butt;stroke-linejoin:miter;stroke-miterlimit:14;stroke-dasharray:none;stroke-opacity:1"
         d="m 641.94767,412.58954 h -2.03599 c 0,-0.15366 0,-0.30732 0.0768,-0.46098 0.0384,-0.11525 0.11524,-0.23049 0.19207,-0.30732 0.0768,-0.0768 0.19208,-0.11525 0.30733,-0.15366 0.11523,-0.0384 0.23048,-0.0768 0.38414,-0.0768 0.19208,0 0.38415,0.0384 0.57623,0.11524 0.19208,0.0768 0.30732,0.15366 0.42256,0.23049 v 0 -0.4994 c -0.15365,-0.0768 -0.30731,-0.11524 -0.46097,-0.19207 -0.19208,-0.0384 -0.34574,-0.0384 -0.53782,-0.0384 -0.46098,0 -0.80671,0.11524 -1.07561,0.34573 -0.23049,0.26891 -0.38416,0.61464 -0.38416,1.07562 0,0.46098 0.11525,0.80672 0.38416,1.07562 0.23048,0.2689 0.57622,0.38415 0.96037,0.38415 0.38415,0 0.65306,-0.11525 0.88355,-0.30732 0.19207,-0.23049 0.30731,-0.53781 0.30731,-0.92196 z m -0.46097,0.34573 c 0,0.26891 -0.0768,0.46098 -0.19208,0.57623 -0.11525,0.15366 -0.30732,0.19207 -0.53781,0.19207 -0.2689,0 -0.46098,-0.0768 -0.61464,-0.19207 -0.15366,-0.15366 -0.23049,-0.34573 -0.23049,-0.57623 z"
         id="path4714" /><path
         inkscape:connector-curvature="0"
         style="fill:#4d4d4d;fill-opacity:1;fill-rule:nonzero;stroke:#4d4d4d;stroke-width:0.03841498px;stroke-linecap:butt;stroke-linejoin:miter;stroke-miterlimit:14;stroke-dasharray:none;stroke-opacity:1"
         d="m 644.59831,411.43708 c -0.15366,-0.0768 -0.30732,-0.15365 -0.42256,-0.19207 -0.15367,-0.0384 -0.30733,-0.0384 -0.46099,-0.0384 -0.19207,0 -0.38415,0 -0.53781,0.0768 -0.15366,0.0384 -0.30732,0.15365 -0.42256,0.2689 -0.11525,0.11525 -0.23049,0.26891 -0.2689,0.46098 -0.0768,0.15366 -0.11525,0.38416 -0.11525,0.61464 0,0.46098 0.11525,0.80672 0.38415,1.07562 0.23049,0.2689 0.57622,0.38415 0.96037,0.38415 0.15366,0 0.30732,-0.0384 0.46099,-0.0768 0.15366,-0.0384 0.30731,-0.0768 0.42256,-0.15366 v -0.53781 0 c -0.15366,0.11525 -0.30732,0.23049 -0.46098,0.26891 -0.15366,0.0768 -0.26891,0.0768 -0.42257,0.0768 -0.2689,0 -0.4994,-0.0768 -0.65305,-0.26891 -0.11525,-0.15366 -0.19208,-0.42256 -0.19208,-0.7683 0,-0.30731 0.0384,-0.57622 0.19208,-0.7683 0.15365,-0.19207 0.38415,-0.2689 0.65305,-0.2689 0.0768,0 0.19208,0 0.26891,0.0384 0.11524,0.0384 0.19208,0.0768 0.26891,0.11525 0.0768,0.0384 0.15366,0.0768 0.19207,0.0768 0.0768,0.0768 0.11524,0.0768 0.15366,0.11524 v 0 z"
         id="path4716" /><path
         inkscape:connector-curvature="0"
         style="fill:#4d4d4d;fill-opacity:1;fill-rule:nonzero;stroke:#4d4d4d;stroke-width:0.03841498px;stroke-linecap:butt;stroke-linejoin:miter;stroke-miterlimit:14;stroke-dasharray:none;stroke-opacity:1"
         d="m 646.55747,411.28343 c -0.0768,-0.0384 -0.15366,-0.0384 -0.2689,-0.0768 -0.11525,0 -0.19208,0 -0.26891,0 -0.30732,0 -0.49939,0.0768 -0.65305,0.23048 -0.15367,0.15367 -0.2305,0.38416 -0.2305,0.72989 v 1.45977 h -0.30731 v 0.38415 h 0.30731 v 0.80672 h 0.46099 v -0.80672 h 0.96037 v -0.38415 h -0.96037 v -1.26769 c 0,-0.11524 0.0384,-0.23049 0.0384,-0.34574 0,-0.0768 0,-0.15366 0.0768,-0.23049 0,-0.0384 0.0768,-0.11524 0.11524,-0.11524 0.0768,-0.0384 0.19208,-0.0768 0.30732,-0.0768 0.0768,0 0.15367,0.0384 0.2305,0.0384 0.0768,0.0384 0.15366,0.0384 0.19207,0.0768 v 0 z"
         id="path4718" /><path
         inkscape:connector-curvature="0"
         style="fill:#4d4d4d;fill-opacity:1;fill-rule:nonzero;stroke:none;stroke-width:0.48019084"
         d="m 674.13943,438.17392 c 0,0 0,0 0,0 0,0 0,0 0,0 -0.0384,0 -0.0384,0 -0.0384,0.0384 0,0 0,0 0,0 0,0 0,0 0,0 0,0 0,0 0,0 -0.0384,0 -0.0384,0 -0.0384,0 0,0 0,0 0,0.0384 v 0 l -0.92196,0.99878 -0.96037,0.9988 c 0,0 0,0 0,0 l -0.0768,0.0768 v 0.0384 l -0.0384,0.0768 -0.0384,0.0384 v 0.0384 l -0.0384,0.0768 v 0.0384 l -0.0384,0.0384 v 0 l -0.0384,0.11524 -0.0384,0.0384 v 0.0768 0.19208 c 0,0 0,0 0,0 0,0 0,0 0,0.0384 v 0.19208 0.0384 l 0.0384,0.11525 v 0 l 0.0384,0.11524 0.0384,0.0384 v 0 0 0.0768 l 0.0384,0.0384 v 0 h 0.0384 l 0.0384,0.0768 0.0384,0.0768 0.0768,0.0768 0.0768,0.0384 0.0768,0.0768 0.0384,0.0384 0.0384,0.0384 0.0768,0.0384 h 0.0384 v 0 0 l 0.0384,0.0384 0.11525,0.0384 v 0 l 0.11524,0.0384 v 0 h 0.23049 v 0 0 h 0.26891 0.0384 l 0.0384,-0.0384 h 0.0384 l 0.0768,-0.0384 v 0 0 l 0.0768,-0.0384 v -0.0384 h 0.0768 l 0.0384,-0.0384 v 0 l 0.0768,-0.0384 0.0384,-0.0384 v 0 0 l 0.11524,-0.0384 v -0.0768 l 0.0768,-0.0768 h 0.0384 l 0.0384,-0.0384 v -0.0384 0.0384 0 0 l 0.0384,0.0384 0.0384,0.0384 0.0384,0.0384 0.0384,0.0384 v 0.0384 l 0.11524,0.0384 v 0 0 l 0.0384,0.0384 0.0768,0.0384 h -0.0384 l 0.0768,0.0384 v 0.0384 l 0.0768,0.0384 h 0.0384 0.0384 v 0 l 0.0768,0.0384 h 0.0384 l 0.0384,0.0384 h 0.0384 0.15365 l 0.0768,0.0384 c 0,0 0,0 0,0 0,0 0,0 0,0 0,0 0,0 0,0 0.0384,0 0.0384,0 0.0384,0 0,0 0,0 0,0 0,0 0,0 0.0384,0 v 0 c 0,0 0,0 0,0 v 0 l 0.0768,-0.0384 h 0.11524 l 0.0768,-0.0384 h 0.0384 v 0 l 0.0768,-0.0384 h 0.0384 l 0.0768,-0.0384 h 0.0384 l 0.0768,-0.0768 v 0 l 0.0768,-0.0384 0.0384,-0.0384 0.0384,-0.0384 0.0384,-0.0384 v 0 l 0.0384,-0.0384 v 0 l 0.0384,-0.0768 h 0.0384 l 0.0384,-0.0384 v 0 l 0.0384,-0.0384 v -0.0384 l 0.0384,-0.0768 v 0 l 0.0384,-0.0384 0.0384,-0.0768 v -0.0384 -0.0768 0 l 0.0384,-0.0768 v -0.2305 c 0,0 0,0 0,0 v -0.23048 0 l -0.0384,-0.11525 v -0.0384 l -0.0384,-0.0384 -0.0384,-0.11524 v -0.0384 l -0.0768,-0.0768 -0.0384,-0.0768 v -0.0384 l -0.0768,-0.0768 c 0,0 0,0 0,0 v 0 c 0,0 0,0 0,0 l -0.92196,-1.03721 -0.88354,-0.99878 c 0,0 0,-0.0384 0,-0.0384 0,0 0,0 0,0 0,0 0,0 0,0 -0.0384,0 -0.0384,0 -0.0384,0 0,0 0,-0.0384 -0.0384,-0.0384 0,0 0,0 0,0 0,0 0,0 0,0 0,0 0,0 0,0 0,0 0,0 0,0 z"
         id="path4720" /><path
         inkscape:connector-curvature="0"
         style="fill:#4d4d4d;fill-opacity:1;fill-rule:nonzero;stroke:none;stroke-width:0.48019084"
         d="m 678.74923,438.17392 c 0,0 0,0 0,0 0,0 0,0 0,0 0,0 0,0 0,0.0384 0,0 0,0 0,0 0,0 0,0 -0.0384,0 0,0 0,0 0,0 0,0 0,0 0,0 -0.0384,0 -0.0384,0 -0.0384,0.0384 v 0 l -0.88355,0.99878 -0.96037,0.9988 c 0,0 0,0 0,0 l -0.0768,0.0768 -0.0384,0.0384 -0.0384,0.0768 v 0.0384 l -0.0384,0.0384 -0.0384,0.0768 v 0.0384 l -0.0384,0.0384 v 0 l -0.0384,0.11524 v 0.0384 l -0.0384,0.0768 v 0.19208 c 0,0 0,0 0,0 0,0 0,0 0,0.0384 v 0.19208 0.0384 l 0.0384,0.11525 v 0 l 0.0384,0.11524 0.0384,0.0384 v 0 0 l 0.0384,0.0768 0.0384,0.0384 v 0 0 l 0.0384,0.0768 0.0384,0.0768 0.11524,0.0768 0.0768,0.0384 0.0384,0.0768 0.0384,0.0384 0.0384,0.0384 0.0768,0.0384 h 0.0384 v 0 0 l 0.0384,0.0384 0.11525,0.0384 v 0 l 0.11524,0.0384 h 0.0384 0.19207 0.0384 v 0 h 0.2305 0.0768 l 0.0384,-0.0384 v 0 l 0.0768,-0.0384 v 0 0 l 0.0768,-0.0384 0.0384,-0.0384 h 0.0384 l 0.0768,-0.0384 v 0 l 0.0768,-0.0384 0.0384,-0.0384 v 0 0 l 0.0768,-0.0384 0.0384,-0.0768 0.0768,-0.0768 v 0 l 0.0384,-0.0384 v -0.0384 l 0.0384,0.0384 v 0 0 0.0384 l 0.0384,0.0384 0.0384,0.0384 0.0384,0.0384 0.0384,0.0384 0.0768,0.0384 v 0 0 l 0.0384,0.0384 0.0768,0.0384 v 0 l 0.0384,0.0384 0.0384,0.0384 0.0768,0.0384 h 0.0384 0.0384 v 0 l 0.0768,0.0384 v 0 l 0.0384,0.0384 h 0.0768 0.11525 l 0.0768,0.0384 c 0,0 0,0 0,0 0,0 0.0384,0 0.0384,0 0,0 0,0 0,0 0,0 0,0 0,0 0,0 0,0 0,0 0.0384,0 0.0384,0 0.0384,0 v 0 c 0,0 0,0 0.0384,0 v 0 l 0.0768,-0.0384 h 0.11524 l 0.0768,-0.0384 v 0 h 0.0384 l 0.0768,-0.0384 v 0 l 0.0768,-0.0384 h 0.0384 l 0.0768,-0.0768 v 0 l 0.0768,-0.0384 0.0384,-0.0384 0.0384,-0.0384 0.0384,-0.0384 v 0 l 0.0384,-0.0384 h 0.0384 v -0.0768 h 0.0384 l 0.0384,-0.0384 v 0 l 0.0384,-0.0384 0.0384,-0.0384 v -0.0768 h 0.0384 v -0.0384 l 0.0384,-0.0768 0.0384,-0.0384 v -0.0768 0 l 0.0384,-0.0768 v -0.2305 c 0,0 0,0 0,0 v -0.23048 0 l -0.0384,-0.11525 -0.0384,-0.0384 v -0.0384 l -0.0384,-0.11524 -0.0384,-0.0384 -0.0384,-0.0768 -0.0384,-0.0768 -0.0384,-0.0384 -0.0768,-0.0768 c 0,0 0,0 0,0 v 0 c 0,0 0,0 0,0 l -0.92196,-1.03721 -0.84514,-0.99878 c 0,0 0,-0.0384 -0.0384,-0.0384 0,0 0,0 0,0 0,0 0,0 0,0 0,0 0,0 0,0 -0.0384,0 -0.0384,-0.0384 -0.0384,-0.0384 0,0 0,0 0,0 0,0 0,0 0,0 0,0 -0.0384,0 -0.0384,0 0,0 0,0 0,0 z"
         id="path4722" /><path
         inkscape:connector-curvature="0"
         style="fill:#4d4d4d;fill-opacity:1;fill-rule:nonzero;stroke:none;stroke-width:0.48019084"
         d="m 603.26379,438.17392 c 0,0 0,0 0,0 0,0 0,0 0,0 0,0 0,0 -0.0384,0.0384 0,0 0,0 0,0 0,0 0,0 0,0 0,0 0,0 0,0 0,0 -0.0384,0 -0.0384,0 0,0 0,0 0,0.0384 v 0 l -0.92196,0.99878 -0.96038,0.9988 c 0,0 0,0 0,0 l -0.0384,0.0768 -0.0384,0.0384 -0.0384,0.0768 v 0.0384 l -0.0384,0.0384 -0.0384,0.0768 v 0.0384 l -0.0384,0.0384 v 0 l -0.0384,0.11524 -0.0384,0.0384 v 0.0768 0.19208 c 0,0 0,0 0,0 0,0 0,0 0,0.0384 v 0.19208 0.0384 l 0.0384,0.11525 v 0 l 0.0384,0.11524 0.0384,0.0384 v 0 0 l 0.0384,0.0768 0.0384,0.0384 v 0 0 l 0.0384,0.0768 0.0384,0.0768 0.11524,0.0768 0.0384,0.0384 0.0768,0.0768 0.0384,0.0384 0.0384,0.0384 0.0768,0.0384 h 0.0384 v 0 0 l 0.0384,0.0384 0.11524,0.0384 v 0 l 0.11524,0.0384 h 0.0384 0.19208 v 0 h 0.0384 0.23049 0.0384 l 0.0768,-0.0384 v 0 l 0.0768,-0.0384 v 0 0 l 0.0768,-0.0384 v -0.0384 h 0.0768 l 0.0384,-0.0384 h 0.0384 l 0.0768,-0.0384 v -0.0384 h 0.0384 v 0 l 0.0768,-0.0384 0.0384,-0.0768 0.0384,-0.0768 h 0.0384 l 0.0384,-0.0384 v -0.0384 0.0384 0 0 l 0.0384,0.0384 0.0384,0.0384 0.0384,0.0384 0.0384,0.0384 0.0384,0.0384 0.0768,0.0384 v 0 0 l 0.0384,0.0384 0.0768,0.0384 v 0 l 0.0384,0.0384 v 0.0384 l 0.0768,0.0384 h 0.0768 v 0 h 0.0384 l 0.0384,0.0384 h 0.0384 l 0.0384,0.0384 h 0.0384 0.15366 l 0.0768,0.0384 c 0,0 0,0 0,0 0,0 0,0 0,0 0.0384,0 0.0384,0 0.0384,0 0,0 0,0 0,0 0,0 0,0 0,0 0,0 0.0384,0 0.0384,0 v 0 c 0,0 0,0 0,0 v 0 l 0.0768,-0.0384 h 0.15365 l 0.0768,-0.0384 v 0 h 0.0384 l 0.0384,-0.0384 h 0.0384 l 0.0768,-0.0384 h 0.0384 l 0.0768,-0.0768 v 0 l 0.0768,-0.0384 0.0384,-0.0384 0.0384,-0.0384 0.0384,-0.0384 v 0 l 0.0384,-0.0384 v 0 l 0.0384,-0.0768 h 0.0384 l 0.0384,-0.0384 v 0 l 0.0384,-0.0384 v -0.0384 l 0.0384,-0.0768 h 0.0384 v -0.0384 l 0.0384,-0.0768 v -0.0384 -0.0768 h 0.0384 v -0.0768 -0.2305 c 0,0 0,0 0,0 v -0.23048 0 l -0.0384,-0.11525 v -0.0384 l -0.0384,-0.0384 -0.0384,-0.11524 v -0.0384 l -0.0768,-0.0768 -0.0384,-0.0768 v -0.0384 l -0.0768,-0.0768 c 0,0 0,0 0,0 v 0 c 0,0 0,0 0,0 l -0.92196,-1.03721 -0.88354,-0.99878 c 0,0 0,-0.0384 0,-0.0384 0,0 0,0 0,0 0,0 0,0 0,0 0,0 -0.0384,0 -0.0384,0 0,0 0,-0.0384 0,-0.0384 0,0 -0.0384,0 -0.0384,0 0,0 0,0 0,0 0,0 0,0 0,0 0,0 0,0 0,0 z"
         id="path4724" /><path
         inkscape:connector-curvature="0"
         style="fill:#464d4d;fill-opacity:1;fill-rule:nonzero;stroke:#000000;stroke-width:0.50550002;stroke-linecap:square;stroke-linejoin:miter;stroke-miterlimit:14;stroke-dasharray:none;stroke-opacity:1"
         d="m 622.70176,463.68146 h 34.03568 c 1.30611,0 2.38173,-1.07561 2.38173,-2.38172 v -22.01179 c 0,-1.34452 -1.07562,-2.42014 -2.38173,-2.42014 h -34.03568 c -1.3061,0 -2.38172,1.07562 -2.38172,2.42014 v 22.01179 c 0,1.30611 1.07562,2.38172 2.38172,2.38172 z"
         id="path4730" /><path
         inkscape:connector-curvature="0"
         style="fill:none;stroke:#4d4d4d;stroke-width:0.76829964px;stroke-linecap:butt;stroke-linejoin:miter;stroke-miterlimit:4;stroke-dasharray:none;stroke-opacity:1"
         d="m 615.05718,425.91954 -3.91832,-2.61222 3.91832,-2.61222"
         id="path4732" /><path
         inkscape:connector-curvature="0"
         style="fill:none;stroke:#4d4d4d;stroke-width:0.76829964px;stroke-linecap:butt;stroke-linejoin:miter;stroke-miterlimit:4;stroke-dasharray:none;stroke-opacity:1"
         d="m 664.72776,425.91954 3.91832,-2.61222 -3.91832,-2.61222"
         id="path4734" /><path
         inkscape:connector-curvature="0"
         id="path4889"
         d="m 617.51526,411.59007 7.04324,12.22514"
         style="fill:none;fill-rule:evenodd;stroke:#4d4d4d;stroke-width:0.50550002;stroke-linecap:butt;stroke-linejoin:miter;stroke-miterlimit:4;stroke-dasharray:none;stroke-opacity:1" /><path
         inkscape:connector-curvature="0"
         id="path4889-7"
         d="m 662.14014,411.61183 -7.06562,12.21222"
         style="fill:none;fill-rule:evenodd;stroke:#4d4d4d;stroke-width:0.50550002;stroke-linecap:butt;stroke-linejoin:miter;stroke-miterlimit:4;stroke-dasharray:none;stroke-opacity:1" /></g><g
       id="g6143"
       transform="matrix(1.6666665,0,0,1.6666665,-262.1468,-175.31868)"><circle
         r="3.6591799"
         transform="scale(1,-1)"
         cy="-402.66559"
         cx="396.97028"
         id="path5760"
         style="opacity:1;fill:#ffffff;fill-opacity:1;stroke:#000000;stroke-width:0.1816401;stroke-linecap:square;stroke-linejoin:miter;stroke-miterlimit:7.07692289;stroke-dasharray:none;stroke-dashoffset:0;stroke-opacity:1" /><circle
         transform="scale(1,-1)"
         r="3.6591799"
         cy="-395.16559"
         cx="396.97028"
         id="path5760-7"
         style="opacity:1;fill:#0f141a;fill-opacity:1;stroke:#000000;stroke-width:0.1816401;stroke-linecap:square;stroke-linejoin:miter;stroke-miterlimit:7.07692289;stroke-dasharray:none;stroke-dashoffset:0;stroke-opacity:1" /><circle
         transform="scale(1,-1)"
         r="3.6591799"
         cy="-387.66559"
         cx="396.97028"
         id="path5760-7-7"
         style="opacity:1;fill:#b8070e;fill-opacity:1;stroke:#000000;stroke-width:0.1816401;stroke-linecap:square;stroke-linejoin:miter;stroke-miterlimit:7.07692289;stroke-dasharray:none;stroke-dashoffset:0;stroke-opacity:1" /><circle
         transform="scale(1,-1)"
         r="3.6591799"
         cy="-380.16559"
         cx="396.97028"
         id="path5760-7-7-6"
         style="opacity:1;fill:#4773ff;fill-opacity:1;stroke:#000000;stroke-width:0.1816401;stroke-linecap:square;stroke-linejoin:miter;stroke-miterlimit:7.07692289;stroke-dasharray:none;stroke-dashoffset:0;stroke-opacity:1" /><circle
         transform="scale(1,-1)"
         r="3.6591799"
         cy="-372.66559"
         cx="396.97028"
         id="path5760-7-7-6-8"
         style="opacity:1;fill:#bfb800;fill-opacity:1;stroke:#000000;stroke-width:0.1816401;stroke-linecap:square;stroke-linejoin:miter;stroke-miterlimit:7.07692289;stroke-dasharray:none;stroke-dashoffset:0;stroke-opacity:1" /><circle
         transform="scale(1,-1)"
         r="3.6591799"
         cy="-365.16559"
         cx="396.97028"
         id="path5760-7-7-6-8-2"
         style="opacity:1;fill:#c5c5c5;fill-opacity:1;stroke:#000000;stroke-width:0.1816401;stroke-linecap:square;stroke-linejoin:miter;stroke-miterlimit:7.07692289;stroke-dasharray:none;stroke-dashoffset:0;stroke-opacity:1" /><circle
         transform="scale(1,-1)"
         r="3.6591799"
         cy="-357.66559"
         cx="396.97028"
         id="path5760-7-7-6-8-2-5"
         style="opacity:1;fill:#c5c5c5;fill-opacity:0.13953492;stroke:#000000;stroke-width:0.1816401;stroke-linecap:square;stroke-linejoin:miter;stroke-miterlimit:7.07692289;stroke-dasharray:none;stroke-dashoffset:0;stroke-opacity:1" /></g><path
       style="fill:none;fill-rule:evenodd;stroke:#000000;stroke-width:0.24999999;stroke-linecap:butt;stroke-linejoin:miter;stroke-miterlimit:4;stroke-dasharray:none;stroke-opacity:1;marker-start:url(#DotL)"
       d="m 437.91525,458.29051 -30.1195,-0.1045"
       id="path5852"
       inkscape:connector-curvature="0"
       sodipodi:nodetypes="cc" /><g
       id="g6190"
       transform="matrix(1.6666665,0,0,1.6666665,-258.82138,-214.78936)"><circle
         r="3.6591799"
         transform="scale(1,-1)"
         cy="-397.56613"
         cx="499.97504"
         id="path5760-0"
         style="opacity:1;fill:#ffffff;fill-opacity:1;stroke:#000000;stroke-width:0.1816401;stroke-linecap:square;stroke-linejoin:miter;stroke-miterlimit:7.07692289;stroke-dasharray:none;stroke-dashoffset:0;stroke-opacity:1" /><circle
         transform="scale(1,-1)"
         r="3.6591799"
         cy="-390.06613"
         cx="499.97504"
         id="path5760-7-6"
         style="opacity:1;fill:#0f141a;fill-opacity:1;stroke:#000000;stroke-width:0.1816401;stroke-linecap:square;stroke-linejoin:miter;stroke-miterlimit:7.07692289;stroke-dasharray:none;stroke-dashoffset:0;stroke-opacity:1" /></g><path
       style="fill:none;fill-rule:evenodd;stroke:#000000;stroke-width:0.24999999;stroke-linecap:butt;stroke-linejoin:miter;stroke-miterlimit:4;stroke-dasharray:none;stroke-opacity:1;marker-start:url(#DotL-2)"
       d="m 513.87557,441.57083 52.41604,0.1045"
       id="path5852-8"
       inkscape:connector-curvature="0"
       sodipodi:nodetypes="cc" /></g></svg>