<?xml version="1.0" encoding="UTF-8" standalone="no"?>
<!-- Created with Inkscape (http://www.inkscape.org/) -->

<svg
   xmlns:dc="http://purl.org/dc/elements/1.1/"
   xmlns:cc="http://creativecommons.org/ns#"
   xmlns:rdf="http://www.w3.org/1999/02/22-rdf-syntax-ns#"
   xmlns:svg="http://www.w3.org/2000/svg"
   xmlns="http://www.w3.org/2000/svg"
   xmlns:sodipodi="http://sodipodi.sourceforge.net/DTD/sodipodi-0.dtd"
   xmlns:inkscape="http://www.inkscape.org/namespaces/inkscape"
   id="svg2"
   version="1.1"
   inkscape:version="0.91 r13725"
   xml:space="preserve"
   width="100"
   height="100"
   viewBox="0 0 100 99.999997"
   sodipodi:docname="toothed_belt.svg"
   inkscape:export-filename="C:\Users\Bert Bogaert\SharePoint\website - Documents\website\powerview_website\docs\imgs\datasheet\vvb-pv\toothed_belt.png"
   inkscape:export-xdpi="150"
   inkscape:export-ydpi="150"><metadata
     id="metadata8"><rdf:RDF><cc:Work
         rdf:about=""><dc:format>image/svg+xml</dc:format><dc:type
           rdf:resource="http://purl.org/dc/dcmitype/StillImage" /><dc:title /></cc:Work></rdf:RDF></metadata><defs
     id="defs6"><clipPath
       clipPathUnits="userSpaceOnUse"
       id="clipPath154"><path
         d="m 704.423,331.202 102.02,0 0,66.697 -102.02,0 0,-66.697 z"
         id="path156"
         inkscape:connector-curvature="0" /></clipPath><clipPath
       clipPathUnits="userSpaceOnUse"
       id="clipPath170"><path
         d="m 704.423,331.202 102.02,0 0,66.697 -102.02,0 0,-66.697 z"
         id="path172"
         inkscape:connector-curvature="0" /></clipPath><clipPath
       clipPathUnits="userSpaceOnUse"
       id="clipPath190"><path
         d="m 704.423,331.202 102.02,0 0,66.697 -102.02,0 0,-66.697 z"
         id="path192"
         inkscape:connector-curvature="0" /></clipPath><clipPath
       clipPathUnits="userSpaceOnUse"
       id="clipPath310"><path
         d="m 707.153,260.415 96.56,0 0,65.118 -96.56,0 0,-65.118 z"
         id="path312"
         inkscape:connector-curvature="0" /></clipPath><clipPath
       clipPathUnits="userSpaceOnUse"
       id="clipPath358"><path
         d="m 704.202,196.918 102.461,0 0,57.828 -102.461,0 0,-57.828 z"
         id="path360"
         inkscape:connector-curvature="0" /></clipPath><clipPath
       clipPathUnits="userSpaceOnUse"
       id="clipPath444"><path
         d="m 25.511,321.385 368.504,0 0,233.056 -368.504,0 0,-233.056 z"
         id="path446"
         inkscape:connector-curvature="0" /></clipPath><clipPath
       clipPathUnits="userSpaceOnUse"
       id="clipPath780"><path
         d="m 25.511,321.695 368.501,0 0,99.22 -368.501,0 0,-99.22 z"
         id="path782"
         inkscape:connector-curvature="0" /></clipPath><clipPath
       clipPathUnits="userSpaceOnUse"
       id="clipPath808"><path
         d="m 25.511,321.695 368.501,0 0,99.22 -368.501,0 0,-99.22 z"
         id="path810"
         inkscape:connector-curvature="0" /></clipPath></defs><sodipodi:namedview
     pagecolor="#ffffff"
     bordercolor="#666666"
     borderopacity="1"
     objecttolerance="10"
     gridtolerance="10"
     guidetolerance="10"
     inkscape:pageopacity="0"
     inkscape:pageshadow="2"
     inkscape:window-width="1920"
     inkscape:window-height="1017"
     id="namedview4"
     showgrid="false"
     units="px"
     inkscape:showpageshadow="false"
     inkscape:zoom="8.42"
     inkscape:cx="50"
     inkscape:cy="50"
     inkscape:window-x="-8"
     inkscape:window-y="-8"
     inkscape:window-maximized="1"
     inkscape:current-layer="g10"
     fit-margin-top="0"
     fit-margin-left="0"
     fit-margin-right="0"
     fit-margin-bottom="0" /><g
     id="g10"
     inkscape:groupmode="layer"
     inkscape:label="Datasheet M25T PV-v1.1"
     transform="matrix(1.25,0,0,-1.25,-7.1993721e-6,100.00002)"><g
       id="g4196"
       transform="matrix(-1,0,0,1,80.000018,2.0499807e-5)"><path
         d="M 69.328025,7.2574055 75.44665,10.78986 m -7.060669,20.571501 0.124645,0.07207 m 0.719888,-1.303261 -0.166193,-0.09582 m -2.857506,4.399033 0.241658,0.139908 M 70.767802,26.746098 70.482051,26.5816 m -6.71726,10.552423 0.373087,0.214525 M 71.854841,23.37815 71.430031,23.1331 m -10.277696,16.229278 0.531649,0.307797 m 10.78645,-19.507356 -0.596939,-0.345105 m -13.41332,21.248145 0.717344,0.414635 M 72.628148,17.243415 71.79379,16.763489 m -16.05291,25.872727 0.726671,0.418875 M 72.387338,14.772562 71.196004,14.084895 m -18.174418,30.120829 0.726671,0.418875 M 71.30793,12.579829 70.101333,11.884531 m -19.799042,33.890702 0.726671,0.419723 m -3.446813,1.149786 0.727519,0.419722 M 69.90631,11.026431 68.552174,10.244644 m -23.68932,38.670454 0.727519,0.419723 M 69.885112,11.122246 66.607035,9.2288305 M 42.14356,50.484607 42.871079,50.904329 M 70.458309,12.4077 64.339684,8.8760938 M 39.424265,52.054963 40.151784,52.474686 M 67.954387,12.729912 61.836611,9.1983052 M 36.705818,53.62532 37.43249,54.044195 m -3.446814,1.149786 0.727519,0.42057 M 65.310558,13.7152 59.191934,10.182746 m -27.925553,46.581591 0.72752,0.419723 M 62.603135,15.229594 56.485358,11.697139 m -27.938271,46.636707 0.727519,0.419722 M 59.88384,16.79995 53.765215,13.267496 m -27.937423,46.635858 0.72752,0.420568 M 57.164546,18.368611 51.045921,14.836157 m -27.937423,46.63755 0.727519,0.420571 M 54.445251,19.938967 48.326626,16.406513 m -27.937423,46.637551 0.726672,0.418875 M 51.725957,21.509324 45.607332,17.97687 m 3.39933,5.101963 -6.118625,-3.532455 m -25.76504,45.383471 0.726672,0.418874 M 10.671986,72.742627 4.5533617,69.21102 M 46.287368,24.648341 40.168743,21.115887 m -25.748929,45.298678 0.792809,0.457031 M 43.568073,26.21785 37.450296,22.685395 m -25.664984,44.64832 1.126044,0.650358 M 40.848779,27.788206 34.730154,24.255752 M 9.3017401,67.588092 10.498162,68.279151 M 38.129484,29.357715 32.011707,25.825261 M 7.0623709,67.166674 8.3825897,67.928958 M 35.411037,30.928071 29.292413,27.395617 M 32.690895,32.49758 26.57227,28.965974 M 5.1536924,66.08557 6.9512928,67.124278 M 29.9716,34.067089 23.853824,30.535482 M 3.6477782,64.387177 9.0990861,67.533825 M 27.252306,35.637445 21.133681,32.105839 M 2.602287,62.134241 8.7200637,65.666695 M 24.533011,37.206954 18.415235,33.675347 M 2.0553756,59.413254 8.1740002,62.945705 M 21.813717,38.776462 15.695092,35.244856 M 2.0290899,56.326808 8.1477145,59.859262 M 19.115621,40.443482 12.996996,36.911876 M 2.5242779,52.992768 8.6429026,56.525222 M 16.491294,42.619257 10.373517,39.087651 m -6.8520796,10.449824 6.1177767,3.531606 m 4.3888579,-7.79158 -6.1186243,-3.531606 m -2.9261881,4.345614 6.1186244,3.532454 M 11.819228,48.317311 5.7006039,44.784857 M 75.44665,10.78986 l 8.48e-4,8.48e-4 0.27388,0.166193 0.267096,0.17976 0.259465,0.192479 0.251834,0.20435 0.244202,0.216221 0.235723,0.227243 0.227244,0.241659 0.218764,0.250986 0.210286,0.262856 0.200958,0.274728 0.192479,0.285751 0.183151,0.296773 0.174673,0.306949 0.164497,0.317124 0.155171,0.328147 0.144995,0.338322 0.137363,0.347649 0.126341,0.356976 0.117014,0.367151 0.106838,0.376479 0.09666,0.38411 0.08649,0.393437 0.07716,0.401916 0.06614,0.4087 0.05681,0.417179 0.04579,0.42481 0.03646,0.432442 0.02629,0.439225 0.01526,0.44516 0.0051,0.451096 -0.0051,0.457032 -0.01526,0.463814 -0.02629,0.468903 -0.03646,0.473142 -0.04579,0.478229 -0.05681,0.482469 -0.06614,0.486709 -0.07716,0.490101 -0.08649,0.493492 -0.09666,0.496884 -0.106838,0.498579 -0.117014,0.501972 -0.126341,0.503667 -0.137363,0.504515 -0.144995,0.507059 -0.155171,0.507059 -0.164497,0.508755 -0.174673,0.507059 -0.183151,0.508755 -0.192479,0.507907 -0.200958,0.506211 -0.210286,0.506211 -0.218764,0.504515 -0.227244,0.501972 -0.235723,0.500275 -0.244202,0.497732 -0.251834,0.49434 -0.259465,0.491796 -0.267096,0.489253 -0.27388,0.483317 -0.282359,0.479925 -0.289142,0.475686 -0.295926,0.471446 -0.302709,0.463815 -0.308645,0.460423 -0.315428,0.454488 -0.321363,0.447704 -0.328147,0.441769 -0.333234,0.434985 -0.337474,0.427354 -0.34341,0.420571 -0.348497,0.412939 -0.352737,0.40446 -0.357824,0.396829 -0.362064,0.38835 -0.365455,0.37987 -0.369695,0.369695 -0.373087,0.362064 -0.375631,0.351889 -0.378174,0.341713 -0.382414,0.332387 -0.38411,0.322211 -0.385806,0.311188 -0.38835,0.301862 -0.389197,0.288294 -0.391741,0.280663 -0.391741,0.267096 -0.39259,0.256922 -0.392589,0.24505 -0.393437,0.232331 M 58.69505,8.310528 59.089335,8.0892197 59.482772,7.8797823 59.875361,7.6830637 60.266254,7.4982162 60.657995,7.3260874 61.047193,7.1666776 61.435542,7.0191387 61.821348,6.8860145 62.206306,6.7639134 62.587872,6.655379 62.966046,6.560411 63.341677,6.478162 63.714764,6.40948 l 0.368847,-0.055963 0.366304,-0.043244 0.362063,-0.028829 0.356977,-0.016111 0.353584,-0.00339 0.348497,0.011023 0.34341,0.023742 0.33917,0.036461 0.331538,0.050876 0.327299,0.063594 0.322212,0.077161 0.315428,0.08988 0.308644,0.1025989 0.302709,0.1161657 0.295926,0.1288845 0.289142,0.1416035 0.282359,0.1543223 0.27388,0.1670411 0.267944,0.1797601 0.259465,0.1924789 0.251834,0.2035019 0.243354,0.2170687 0.235723,0.2272439 0.227244,0.2408106 0.218765,0.2509857 0.210285,0.2637046 0.200958,0.2747276 0.192479,0.2857506 0.184,0.2959254 0.173824,0.306949 0.16365,0.317971 0.156018,0.328147 0.146691,0.337474 0.135668,0.347649 0.126341,0.357825 0.117013,0.367151 0.106839,0.375631 0.09666,0.38411 0.08734,0.393437 0.07631,0.401916 0.06783,0.409548 0.05596,0.417179 0.04664,0.423962 0.03561,0.432441 0.02544,0.439225 0.01441,0.445161 0.0059,0.451944 -0.0059,0.457031 -0.01441,0.463815 -0.02544,0.468054 -0.03561,0.47399 -0.04664,0.477382 -0.05596,0.482469 -0.06783,0.486709 -0.07631,0.4901 -0.08734,0.493493 -0.09666,0.496883 -0.106839,0.499428 -0.117013,0.501124 -0.126341,0.503667 -0.135668,0.505363 -0.146691,0.507059 -0.156018,0.507059 -0.16365,0.507907 -0.173824,0.507907 -0.184,0.507907 -0.192479,0.507906 -0.200958,0.506212 -0.210285,0.506211 -0.218765,0.504515 -0.227244,0.502819 -0.235723,0.499428 -0.243354,0.497732 -0.251834,0.495188 -0.259465,0.490948 -0.267944,0.489253 -0.27388,0.484165 -0.282359,0.479925 -0.289142,0.474838 -0.295926,0.471446 -0.302709,0.464663 -0.308644,0.460423 -0.315428,0.453639 -0.322212,0.448553 -0.327299,0.44092 -0.331538,0.434986 -0.33917,0.428202 -0.34341,0.42057 -0.348497,0.412092 -0.353584,0.405308 -0.356977,0.396829 -0.362063,0.388349 -0.366304,0.379022 -0.368847,0.370544 -0.373087,0.361216 -0.375631,0.351888 -0.378174,0.342562 -0.381566,0.331538 -0.384958,0.322212 -0.385806,0.311188 -0.388349,0.301861 -0.389198,0.289143 -0.391741,0.279815 -0.390893,0.267096 -0.392589,0.257769 -0.393437,0.244203 -0.394285,0.233179 m 0,0 -43.508713,25.117222 m 0,-34.730145 L 58.69505,8.310528 m -43.508713,59.84737 -0.393437,0.221308 -0.393437,0.209438 -0.393437,0.196718 -0.391741,0.184848 -0.390893,0.172128 -0.389198,0.160258 -0.388349,0.146691 -0.385806,0.133972 -0.38411,0.121254 -0.381566,0.108534 -0.379022,0.09582 -0.375631,0.0814 -0.373087,0.06953 -0.3696949,0.05596 -0.3654556,0.04324 -0.3612159,0.02883 -0.3578242,0.01611 -0.3527367,0.0025 -0.348497,-0.01018 -0.3442575,-0.02374 -0.337474,-0.03816 -0.3332344,-0.05003 -0.3272989,-0.06275 -0.3213635,-0.07716 -0.315428,-0.08988 L 5.7226499,69.751148 5.4199408,69.635831 5.1240151,69.506946 4.8348727,69.365343 4.5525138,69.210172 4.2786341,69.043131 4.0115379,68.863371 3.751225,68.67174 3.4993913,68.46739 3.2560369,68.252018 3.0203139,68.023078 2.7930701,67.783115 2.5743055,67.531282 2.3640202,67.267577 2.163062,66.993697 1.9705831,66.707947 1.7874314,66.412021 1.6136068,66.104224 1.4482615,65.786252 1.2930913,65.458954 1.1472482,65.120632 1.0115803,64.772982 0.88439156,64.415158 0.76822588,64.048855 0.66138737,63.673224 l -0.0975113,-0.384958 -0.0864883,-0.393437 -0.0771612,-0.401068 -0.0661381,-0.410396 -0.0576589,-0.417179 -0.04494,-0.423962 -0.0364608,-0.432442 -0.0262857,-0.439225 -0.0152626,-0.445157 -0.005088,-0.451096 0.005088,-0.457879 0.0152626,-0.463815 0.0262857,-0.468054 0.0364608,-0.473142 0.04494,-0.47823 0.0576589,-0.482469 0.0661381,-0.486709 0.0771612,-0.4901 0.0864883,-0.493492 0.0975113,-0.496036 L 0.76822588,54.18495 0.88439156,53.682979 1.0115803,53.179311 1.1472482,52.674796 1.2930913,52.168585 1.4482615,51.660678 1.6136068,51.152771 1.7874314,50.644017 1.9705831,50.13611 2.163062,49.629051 2.3640202,49.121992 2.5743055,48.615781 2.7930701,48.112113 3.0203139,47.609294 3.2560369,47.109019 3.4993913,46.611287 3.751225,46.116099 4.0115379,45.62515 4.2786341,45.136746 4.5525138,44.652581 4.8348727,44.172655 5.1240151,43.69697 l 0.2959257,-0.470599 0.3027091,-0.46551 0.3094925,-0.460423 0.315428,-0.45364 0.3213635,-0.447704 0.3272989,-0.441769 0.3332344,-0.434986 0.337474,-0.427354 0.3442575,-0.42057 0.348497,-0.41294 0.3527367,-0.40446 0.3578242,-0.39598 0.3612159,-0.389198 0.3654556,-0.379022 0.3696949,-0.370543 0.373087,-0.361216 0.375631,-0.352737 0.379022,-0.341714 0.381566,-0.332386 0.38411,-0.322211 0.385806,-0.311189 0.388349,-0.300165 0.389198,-0.291686 0.390893,-0.27812 0.391741,-0.268792 0.393437,-0.256073 0.393437,-0.244202 0.393437,-0.234028 m 43.512952,8.166363 0,0.172977 m -1.632255,0.76822 0.0051,-0.100055 0.01357,-0.105143 0.0212,-0.108534 0.03052,-0.109383 0.03901,-0.11023 0.04664,-0.109382 0.05342,-0.107687 0.0602,-0.104294 0.06699,-0.100056 0.07123,-0.09581 0.07547,-0.08903 0.08055,-0.08055 0.0831,-0.07292 0.0831,-0.06444 0.08649,-0.05512 0.08479,-0.04324 0.08394,-0.03307 0.0831,-0.02289 0.07971,-0.01017 0.07547,8.48e-4 0.07207,0.01187 0.06614,0.02459 0.06105,0.03392 0.05342,0.04579 0.04664,0.05596 0.03816,0.06614 0.03052,0.07377 0.02205,0.08225 0.01357,0.08988 0.0051,0.09582 m -1.632255,1.115021 0,-0.173824 m 0,0.173824 -1.087887,0.627465 m 0,-0.172129 0,0.172129 m -1.631407,0.769067 0.0051,-0.100903 0.01272,-0.105142 0.02205,-0.107687 0.03137,-0.11023 0.03816,-0.11023 0.04664,-0.109383 0.05342,-0.107686 0.0602,-0.104295 0.06614,-0.100055 0.07123,-0.09582 0.07716,-0.08819 0.07971,-0.08055 0.08225,-0.07377 0.08479,-0.06529 0.08479,-0.05342 0.08564,-0.04409 0.08394,-0.03307 0.0831,-0.02205 0.0797,-0.01102 0.07547,8.48e-4 0.07123,0.01272 0.06699,0.02374 0.06105,0.03392 0.05257,0.04579 0.04748,0.05681 0.03816,0.06444 0.03137,0.07462 0.0212,0.08225 0.01357,0.08988 0.0042,0.09666 m -1.631407,1.114173 0,-0.172977 m 0,0.172977 -1.08704,0.627464 m 0,-0.172129 0,0.172129 m -1.632255,0.769916 0.0042,-0.101751 0.01357,-0.105143 0.02205,-0.107686 0.03052,-0.109383 0.03901,-0.11023 0.04664,-0.109382 0.05342,-0.107687 0.0602,-0.105142 0.06614,-0.09921 0.07207,-0.09582 0.07547,-0.08903 0.08055,-0.0814 0.08225,-0.07292 0.08394,-0.06444 0.08649,-0.05342 0.08394,-0.04494 0.08479,-0.03307 0.0831,-0.02205 0.07886,-0.01017 0.07631,8.48e-4 0.07122,0.01187 0.06614,0.02459 0.0619,0.03392 0.05257,0.04579 0.04748,0.05596 0.039,0.06529 0.02968,0.07462 0.02205,0.08225 0.01357,0.08988 0.0051,0.09582 m -1.632255,1.115021 0,-0.172976 m 0,0.172976 -1.087039,0.627465 m 0,-0.172977 0,0.172977 m -1.632255,0.769067 0.0051,-0.100903 0.01272,-0.105142 0.02205,-0.107687 0.03137,-0.11023 0.03816,-0.11023 0.04664,-0.109382 0.05342,-0.107687 0.0602,-0.104295 0.06614,-0.100903 0.07207,-0.09497 0.07631,-0.08903 0.07971,-0.08055 0.08225,-0.07292 0.08479,-0.06444 0.08479,-0.05427 0.08479,-0.04494 0.08479,-0.03307 0.0831,-0.0212 0.07886,-0.01102 0.07631,8.48e-4 0.07123,0.01272 0.06614,0.02289 0.06105,0.03477 0.05427,0.04579 0.04664,0.05596 0.03816,0.06614 0.03137,0.07377 0.0212,0.0831 0.01357,0.08903 0.0051,0.09581 m -1.632255,1.115021 0,-0.172977 m 0,0.172977 -1.08704,0.627464 m 0,-0.172128 0,0.172128 m -1.632255,0.769068 0.0051,-0.100055 0.01272,-0.105991 0.02205,-0.107686 0.03052,-0.11023 0.039,-0.110231 0.04664,-0.109382 0.05342,-0.107686 0.0602,-0.104295 0.06699,-0.100055 0.07123,-0.09497 0.07547,-0.08903 0.08055,-0.0814 0.08225,-0.07292 0.08394,-0.06444 0.08564,-0.05427 0.08479,-0.04409 0.08479,-0.03307 0.0831,-0.02205 0.07886,-0.01018 0.07631,8.48e-4 0.07122,0.01102 0.06699,0.02459 0.06105,0.03477 0.05257,0.04579 0.04664,0.05596 0.03985,0.06529 0.02968,0.07377 0.02205,0.0831 0.01357,0.08988 0.0051,0.09582 m -1.632255,1.114173 0,-0.172977 m 0,0.172977 -1.087039,0.628312 m 0,-0.172977 0,0.172977 m -1.632255,0.769068 0.0051,-0.100903 0.01272,-0.105143 0.02205,-0.108535 0.03053,-0.109382 0.039,-0.11023 0.04579,-0.109382 0.05427,-0.107687 0.0602,-0.104294 0.06614,-0.100904 0.07207,-0.09497 0.07547,-0.08818 0.08055,-0.0814 0.0831,-0.07377 0.0831,-0.06444 0.08649,-0.05342 0.08394,-0.04409 0.08479,-0.03392 0.0831,-0.02205 0.07886,-0.01102 0.07631,0.0017 0.07123,0.01187 0.06614,0.02374 0.06105,0.03476 0.05427,0.04579 0.04664,0.05596 0.03816,0.06614 0.03053,0.07377 0.02205,0.0831 0.01357,0.08903 0.0051,0.09581 m -1.632255,1.114173 0,-0.172128 m 0,0.172128 -1.087888,0.628312 m 0,-0.172128 0,0.172128 m -1.631407,0.769068 0.0051,-0.100903 0.01272,-0.105143 0.02205,-0.107686 0.03052,-0.11023 0.039,-0.11023 0.04579,-0.109383 0.05427,-0.107686 0.0602,-0.104295 0.06614,-0.100055 0.07207,-0.09497 0.07631,-0.08903 0.0797,-0.08225 0.08225,-0.07207 0.08479,-0.06444 0.08479,-0.05427 0.08479,-0.04494 0.08479,-0.03307 0.0831,-0.0212 0.07886,-0.01102 0.07631,8.48e-4 0.07122,0.01272 0.06699,0.02289 0.06105,0.03477 0.05257,0.04664 0.04748,0.05512 0.039,0.06529 0.03053,0.07547 0.0212,0.08225 0.01357,0.08903 0.0042,0.09666 m -1.631407,1.114173 0,-0.172977 m 0,0.172977 -1.087039,0.628312 m 0,-0.172977 0,0.172977 m -1.632255,0.76822 0.0051,-0.100055 0.01272,-0.105143 0.02289,-0.109382 0.02968,-0.109383 0.03985,-0.109382 0.04579,-0.109382 0.05342,-0.107687 0.06105,-0.104294 0.06614,-0.100903 0.07122,-0.09497 0.07631,-0.08903 0.07971,-0.0814 0.0831,-0.07292 0.08394,-0.06444 0.08564,-0.05427 0.08479,-0.04324 0.08479,-0.03392 0.08225,-0.02205 0.0797,-0.01017 0.07547,8.48e-4 0.07207,0.01187 0.06614,0.02374 0.06105,0.03477 0.05342,0.04579 0.04664,0.05596 0.03901,0.06529 0.03052,0.07462 0.0212,0.08225 0.01441,0.08988 0.0042,0.09581 m -1.632255,1.115021 0,-0.173824 m 0,0.173824 -1.08704,0.627465 m 0,-0.172129 0,0.172129 m -1.631407,0.769067 0.0042,-0.100903 0.01272,-0.105142 0.02205,-0.107687 0.03137,-0.11023 0.03816,-0.11023 0.04664,-0.109383 0.05427,-0.107686 0.0602,-0.104295 0.06614,-0.100903 0.07123,-0.09497 0.07631,-0.08818 0.0797,-0.0814 0.08225,-0.07377 0.08479,-0.06359 0.08564,-0.05427 0.08479,-0.04494 0.08394,-0.03307 0.0831,-0.0212 0.07886,-0.01187 0.07716,0.0017 0.07123,0.01187 0.06614,0.02374 0.06105,0.03561 0.05342,0.04579 0.04664,0.05512 0.039,0.06529 0.03053,0.07462 0.02205,0.0831 0.01272,0.08903 0.0051,0.09666 m -1.631407,1.113325 0,-0.172129 m 0,0.172129 -1.087887,0.628312 m 0,-0.172976 0,0.172976 m -1.632255,0.769916 0.0051,-0.101751 0.01272,-0.105143 0.02289,-0.108534 0.03052,-0.108534 0.03816,-0.110231 0.04664,-0.109382 0.05342,-0.108534 0.06105,-0.104295 0.06614,-0.100055 0.07122,-0.09582 0.07631,-0.08818 0.07971,-0.0814 0.08225,-0.07377 0.08479,-0.06275 0.08479,-0.05512 0.08564,-0.04409 0.08479,-0.03392 0.08225,-0.02205 0.0797,-0.01017 0.07547,8.48e-4 0.07207,0.01187 0.06614,0.02459 0.0602,0.03476 0.05427,0.04494 0.04664,0.05681 0.03901,0.06529 0.03052,0.07462 0.0212,0.0814 0.01441,0.09073 0.0042,0.09497 m -1.632255,1.115021 0,-0.172129 m 0,0.172129 -1.08704,0.628312 m 0,-0.172977 0,0.172977 m -1.631407,0.769068 0.0042,-0.100904 0.01272,-0.105142 0.02289,-0.108535 0.03053,-0.109382 0.03816,-0.11023 0.04664,-0.11023 0.05342,-0.107687 0.0602,-0.104294 0.06699,-0.100056 0.07123,-0.09497 0.07631,-0.08903 0.07971,-0.08055 0.08225,-0.07377 0.08479,-0.06359 0.08564,-0.05512 0.08479,-0.04409 0.08394,-0.03307 0.08225,-0.02205 0.07971,-0.01102 0.07631,8.48e-4 0.07207,0.01272 0.06614,0.02374 0.0602,0.03476 0.05427,0.04579 0.04664,0.05512 0.039,0.06529 0.02968,0.07547 0.02289,0.08225 0.01272,0.08988 0.0051,0.09582 m -1.631407,1.114173 0,-0.172128 m 0,0.172128 -1.088735,0.628312 m 0,-0.172976 0,0.172976 m -1.631407,0.769068 0.0051,-0.100055 0.01272,-0.105143 0.02289,-0.108534 0.03052,-0.11023 0.03816,-0.109383 0.04664,-0.11023 0.05427,-0.107686 0.0602,-0.104295 0.06614,-0.100903 0.07123,-0.09497 0.07631,-0.08819 0.07971,-0.08225 0.08225,-0.07292 0.08479,-0.06359 0.08564,-0.05427 0.08479,-0.04494 0.08394,-0.03307 0.08225,-0.0212 0.08055,-0.01102 0.07547,8.48e-4 0.07207,0.01187 0.06614,0.02459 0.0602,0.03477 0.05427,0.04494 0.04663,0.05681 0.03816,0.06444 0.03137,0.07462 0.0212,0.0831 0.01357,0.08988 0.0042,0.09497 m -1.631407,1.115021 0,-0.172977 m 0,0.172977 -1.087888,0.628309 m 0,-0.172977 0,0.172977 M 24.4355,61.3745 l 0.0051,-0.101751 0.01272,-0.104294 0.02289,-0.108535 0.02968,-0.109382 0.03985,-0.111078 0.04579,-0.109382 0.05342,-0.106839 0.0602,-0.105143 0.06699,-0.100903 0.07123,-0.09412 0.07631,-0.08818 0.07971,-0.08225 0.08225,-0.07377 0.08479,-0.06275 0.08564,-0.05512 0.08479,-0.04409 0.08479,-0.03307 0.0814,-0.02205 0.08055,-0.01102 0.07546,8.48e-4 0.07207,0.01272 0.06614,0.02289 0.0602,0.03561 0.05427,0.04579 0.04664,0.05512 0.03816,0.06614 0.03053,0.07462 0.02205,0.08225 0.01441,0.08988 0.0034,0.09582 m -1.631407,1.114173 0,-0.172129 m 0,0.172129 -1.087887,0.628312 m 0,-0.172976 0,0.172976 m -1.631407,0.769068 0.0042,-0.100903 0.01357,-0.104295 0.02205,-0.109382 0.03137,-0.109382 0.03816,-0.110231 0.04664,-0.109382 0.05427,-0.107686 0.0602,-0.104295 0.06614,-0.100903 0.07123,-0.09412 0.07631,-0.08903 0.07971,-0.08225 0.08225,-0.07292 0.08479,-0.06359 0.08564,-0.05512 0.08479,-0.04324 0.08394,-0.03307 0.08225,-0.02289 0.07971,-0.01102 0.07631,8.48e-4 0.07207,0.01272 0.06614,0.02374 0.0602,0.03477 0.05427,0.04664 0.04664,0.05512 0.03816,0.06529 0.03137,0.07462 0.0212,0.08225 0.01357,0.08988 0.0042,0.09582 m -1.631407,1.114173 0,-0.172129 m 0,0.172129 -1.087888,0.628312 m 0,-0.172129 0,0.172129 m -1.631407,0.769068 0.0042,-0.100904 0.01357,-0.105142 0.02205,-0.107687 0.03137,-0.11023 0.03816,-0.109382 0.04664,-0.109382 0.05342,-0.108535 0.0602,-0.104295 0.06699,-0.100903 0.07123,-0.09497 0.07631,-0.08734 0.0797,-0.08225 0.08225,-0.07292 0.08479,-0.06444 0.08479,-0.05512 0.08564,-0.04324 0.08479,-0.03307 0.0814,-0.02289 0.08055,-0.01017 0.07546,8.48e-4 0.07207,0.01272 0.06614,0.02289 0.0602,0.03561 0.05342,0.04494 0.04664,0.05681 0.039,0.06444 0.03137,0.07547 0.0212,0.0814 0.01441,0.09073 0.0034,0.09582 m -1.631407,1.114173 0,-0.172976 m 0,0.172976 -1.634799,0.94374 m 0,-0.172128 0,0.172128 m -1.632255,0.769068 0.0051,-0.100055 0.01357,-0.105991 0.0212,-0.107686 0.03053,-0.11023 0.039,-0.109383 0.04664,-0.11023 0.05342,-0.107686 0.0602,-0.104295 0.06699,-0.100055 0.07207,-0.09497 0.07547,-0.08903 0.07971,-0.0814 0.0831,-0.07292 0.08394,-0.06444 0.08564,-0.05427 0.08479,-0.04409 0.08479,-0.03392 0.08225,-0.0212 0.07971,-0.01102 0.07547,8.48e-4 0.07207,0.01272 0.06699,0.02374 0.05936,0.03477 0.05427,0.04579 0.04664,0.05512 0.03816,0.06529 0.03052,0.07547 0.02205,0.08225 0.01357,0.08903 0.0051,0.09666 m -1.632255,1.114173 0,-0.172977 m 0,0.172977 -0.54352,0.313732 m 0,0 -0.06783,0.03985 -0.06868,0.03816 -0.06783,0.03816 -0.06699,0.03816 -0.06783,0.03731 -0.06783,0.03646 -0.06868,0.03731 -0.06783,0.03646 m 0.01187,-0.151778 -0.01187,0.151778 m -1.611905,0.602027 0.01357,-0.104295 0.0212,-0.107687 0.03052,-0.11023 0.03816,-0.11023 0.04494,-0.109382 0.05427,-0.107687 0.05936,-0.105142 0.06614,-0.100056 0.07123,-0.09582 0.07547,-0.08903 0.08055,-0.0831 0.0814,-0.07292 0.08479,-0.06529 0.08479,-0.05427 0.08564,-0.04494 0.08479,-0.03392 0.0814,-0.02289 0.08055,-0.01187 0.07631,0 0.07207,0.01187 0.06699,0.02289 0.0602,0.03392 0.05427,0.04494 0.04748,0.05512 0.039,0.06444 0.03222,0.07462 0.02205,0.0814 0.01441,0.08988 0.0042,0.09497 -0.0042,0.100904 m -1.634799,0.905583 0.01102,-0.151778 m -0.01102,0.151778 -0.13482,0.05172 -0.133972,0.05088 -0.133972,0.04918 -0.133125,0.04748 -0.132276,0.04494 -0.133972,0.04494 -0.132276,0.0424 -0.132276,0.03985 m 0.03646,-0.15941 -0.03646,0.15941 m -1.525417,0.199262 0.02798,-0.11023 0.03731,-0.11023 0.04494,-0.108534 0.05257,-0.108535 0.05935,-0.10599 0.06529,-0.100903 0.07038,-0.09666 0.07462,-0.08988 0.0797,-0.0831 0.0814,-0.07462 0.08479,-0.06614 0.08479,-0.05596 0.08564,-0.04664 0.08479,-0.03561 0.08225,-0.02374 0.08055,-0.01357 0.07716,-0.0017 0.07207,0.01017 0.06783,0.0212 0.06105,0.03307 0.05596,0.04324 0.04748,0.05427 0.0407,0.06275 0.03222,0.07292 0.02459,0.08055 0.01441,0.08818 0.0059,0.09497 -0.0017,0.100055 -0.01187,0.104295 -0.02035,0.107686 m -1.598338,0.518082 0.03646,-0.15941 m -0.03646,0.15941 -0.127188,0.0195 -0.127189,0.01611 -0.126341,0.01611 -0.1254927,0.01357 -0.1254929,0.01272 -0.1246449,0.0093 -0.124645,0.0085 -0.123797,0.0076 m 0.058507,-0.163649 -0.058507,0.163649 m -1.3829652,-0.213677 0.044092,-0.109382 0.051723,-0.108535 0.057659,-0.10599 0.06529,-0.101751 0.06953,-0.09751 0.073769,-0.09073 0.078857,-0.08394 0.082249,-0.07631 0.083945,-0.06699 0.084792,-0.05851 0.08564,-0.04664 0.083944,-0.03731 0.083945,-0.02629 0.080553,-0.01441 0.077161,-0.0025 0.072921,0.0085 0.06953,0.01865 0.061898,0.03137 0.055963,0.0424 0.04918,0.05257 0.041548,0.0619 0.033069,0.07207 0.02459,0.07971 0.016958,0.08734 0.00763,0.09327 -0.0017,0.100055 -0.010175,0.103447 -0.019502,0.106838 -0.027134,0.109382 -0.036461,0.109383 m -1.4999788,0.111926 0.058507,-0.161954 m -0.058507,0.161954 -0.1153177,-0.01526 -0.1153178,-0.01696 -0.1144698,-0.01865 -0.1136219,-0.0212 -0.112774,-0.0212 -0.1119261,-0.02374 -0.111926,-0.02629 -0.1102302,-0.02713 m 0.078857,-0.157714 -0.078857,0.157714 m -1.1862467,-0.616441 0.056811,-0.105991 0.063594,-0.103447 0.06953,-0.09666 0.07377,-0.09242 0.078009,-0.08479 0.081401,-0.07716 0.083945,-0.06868 0.084792,-0.05851 0.084792,-0.05003 0.08564,-0.03816 0.083097,-0.02713 0.081401,-0.01611 0.078009,-0.0051 0.073769,0.0076 0.068682,0.01781 0.063594,0.02968 0.056811,0.03985 0.050028,0.05172 0.042396,0.0602 0.034765,0.07038 0.026286,0.07886 0.017806,0.08649 0.00848,0.09327 0,0.09836 -0.00933,0.103447 -0.017806,0.106839 -0.027134,0.109382 -0.034765,0.11023 -0.042396,0.11023 -0.050875,0.108535 M 5.7735254,68.095151 5.8532303,67.93659 m -0.079705,0.158561 -0.099207,-0.05003 -0.099207,-0.05003 -0.098359,-0.05257 -0.096663,-0.05342 -0.095815,-0.05596 -0.095816,-0.05596 -0.093272,-0.05935 -0.093272,-0.0602 m 0.096663,-0.148387 -0.096663,0.148387 m -0.945436,-0.996311 0.068682,-0.09921 0.072922,-0.09242 0.078009,-0.08564 0.080553,-0.07801 0.083945,-0.06953 0.083944,-0.06105 0.08564,-0.05088 0.084793,-0.03985 0.083944,-0.02883 0.081401,-0.01781 0.078009,-0.0068 0.074617,0.0059 0.06953,0.01696 0.06529,0.02798 0.056811,0.03901 0.051723,0.04918 0.043244,0.0602 0.035613,0.06868 0.027134,0.07801 0.019502,0.08479 0.010175,0.09242 8.479e-4,0.09836 -0.00848,0.102598 -0.016958,0.105991 -0.025438,0.109382 -0.033069,0.110231 -0.042396,0.109382 -0.04918,0.109382 -0.055963,0.106839 -0.062747,0.102598 m -1.1396108,-0.699537 0.097511,-0.148387 m -0.097511,0.148387 -0.079705,-0.08055 -0.078009,-0.08225 -0.078009,-0.08394 -0.077161,-0.08479 -0.075465,-0.08734 -0.074617,-0.08818 -0.073769,-0.08903 -0.072074,-0.09158 m 0.1102302,-0.132277 -0.1102302,0.132277 m -0.6681647,-1.338873 0.077161,-0.08649 0.080553,-0.07971 0.083097,-0.07122 0.084792,-0.06105 0.084793,-0.05172 0.084792,-0.04155 0.084792,-0.03053 0.081401,-0.0195 0.078857,-0.0076 0.075465,0.0025 0.070378,0.01526 0.064442,0.02713 0.059355,0.03731 0.051724,0.04833 0.04494,0.05851 0.036461,0.06783 0.02883,0.07631 0.02035,0.08479 0.010175,0.09073 0.00254,0.09666 -0.00678,0.102599 -0.015263,0.10599 -0.023742,0.108535 -0.033069,0.11023 -0.0407,0.11023 -0.048332,0.109382 -0.055115,0.106839 -0.062746,0.103447 -0.067834,0.09921 -0.072921,0.09412 m -0.888626,-1.073403 0.1102302,-0.133124 m -0.1102302,0.133124 -0.056811,-0.109383 -0.055963,-0.11023 -0.055115,-0.112774 -0.053419,-0.112774 -0.052571,-0.11447 -0.050875,-0.116165 -0.050028,-0.117014 -0.04918,-0.118709 M 2.268205,63.891989 2.1477997,64.004763 m -0.3654556,-1.630559 0.082249,-0.07207 0.084792,-0.06275 0.08564,-0.05342 0.084793,-0.04324 0.084792,-0.03222 0.082249,-0.02035 0.078857,-0.0093 0.075465,0.0025 0.071226,0.01272 0.066138,0.02544 0.059355,0.03646 0.053419,0.04664 0.04494,0.05681 0.038157,0.06699 0.029677,0.07462 0.021198,0.08394 0.011871,0.08988 0.00424,0.09582 -0.00594,0.102599 -0.014415,0.10599 -0.022894,0.107687 -0.031373,0.109382 -0.039853,0.111078 -0.047484,0.109383 -0.054267,0.106838 -0.061051,0.104295 -0.066986,0.100055 -0.072074,0.09412 -0.076313,0.08818 -0.080553,0.07971 M 1.6619385,62.486977 1.7823438,62.374204 m -0.1204053,0.112773 -0.032221,-0.133124 -0.030525,-0.135668 -0.029677,-0.135668 -0.027982,-0.138211 -0.027134,-0.137364 -0.025438,-0.13906 -0.02459,-0.140755 -0.023742,-0.140756 m 0.1254928,-0.08818 -0.1254928,0.08818 m -0.04918,-1.860343 0.084793,-0.05427 0.08564,-0.04494 0.084793,-0.03307 0.082249,-0.02289 0.079705,-0.01017 0.076313,0 0.072074,0.01272 0.066138,0.02289 0.060203,0.03477 0.054267,0.04494 0.046636,0.05596 0.039005,0.06529 0.030525,0.07462 0.022046,0.0814 0.013567,0.09073 0.00509,0.09582 -0.00424,0.100052 -0.012719,0.105142 -0.022894,0.107687 -0.029677,0.11023 -0.039004,0.11023 -0.045788,0.109383 -0.053419,0.107686 -0.060203,0.104295 -0.066138,0.100903 -0.072074,0.09497 -0.075465,0.08903 -0.080553,0.0814 -0.081401,0.07377 -0.084793,0.06359 M 1.2659602,59.614221 1.391453,59.526041 m -0.1254928,0.08818 -0.00509,-0.154322 -0.00509,-0.152627 -0.00339,-0.15517 -0.0017,-0.156018 -8.479e-4,-0.156018 8.479e-4,-0.158562 0.0017,-0.157714 0.00339,-0.158562 m 0.1246449,-0.05936 -0.1246449,0.05936 m 0.2679442,-2.018909 0.084793,-0.03392 0.082249,-0.02544 0.080553,-0.01187 0.077161,-8.48e-4 0.072074,0.01018 0.066986,0.02205 0.061899,0.03307 0.055115,0.04409 0.046636,0.05427 0.0407,0.06359 0.032221,0.07292 0.023742,0.0814 0.014415,0.08818 0.00594,0.09582 -0.00339,0.100055 -0.011023,0.105143 -0.021198,0.106839 -0.029677,0.109382 -0.037309,0.111078 -0.04494,0.109382 -0.052571,0.106839 -0.060203,0.10599 -0.06529,0.101751 -0.070378,0.09582 -0.075465,0.08903 -0.078857,0.0831 -0.082249,0.07377 -0.084792,0.06614 -0.084792,0.05596 -0.08564,0.04579 m 0.018654,-1.900199 0.1246449,-0.05935 m -0.1246449,0.05935 0.02035,-0.166193 0.021198,-0.167889 0.022894,-0.167889 0.02459,-0.16789 0.025438,-0.168737 0.027981,-0.170432 0.027982,-0.169585 0.029677,-0.169585 m 0.1204053,-0.02968 -0.1204053,0.02968 m 0.5757409,-2.101158 0.080553,-0.01441 0.077161,-0.0025 0.072922,0.0085 0.067834,0.02035 0.062746,0.03222 0.055963,0.0424 0.04918,0.05342 0.0407,0.0619 0.032221,0.07207 0.025438,0.0797 0.015263,0.08818 0.00763,0.09327 -0.0017,0.100055 -0.011023,0.105143 -0.019502,0.10599 -0.027982,0.109382 -0.036461,0.110231 -0.044092,0.11023 -0.050876,0.107686 -0.059355,0.105991 -0.064442,0.101751 -0.070378,0.09666 -0.074617,0.09073 -0.078857,0.08394 -0.081401,0.07546 -0.083945,0.06783 -0.08564,0.05596 -0.084792,0.04833 -0.084793,0.03646 -0.083097,0.02459 m 0.3349302,-2.04265 0.1204054,-0.02883 m -0.1204054,0.02883 0.045788,-0.173825 0.047484,-0.174672 0.048332,-0.174673 0.050027,-0.174672 0.050876,-0.174673 0.052571,-0.174672 0.053419,-0.175521 0.055115,-0.17552 m 0.1110781,0.0034 -0.1110781,-0.0034 m 0.8614915,-2.103701 0.07377,0.0076 0.068682,0.0195 0.063594,0.02968 0.055963,0.0407 0.050028,0.05172 0.042396,0.06105 0.033917,0.07123 0.026286,0.07886 0.016958,0.08649 0.00848,0.09327 -8.479e-4,0.09921 -0.00933,0.102599 -0.017806,0.107686 -0.027982,0.109383 -0.035613,0.11023 -0.042396,0.109382 -0.050876,0.108534 -0.056811,0.105991 -0.063594,0.102599 -0.070378,0.09751 -0.073769,0.09158 -0.078857,0.08479 -0.081401,0.07631 -0.083945,0.06868 -0.084793,0.05851 -0.08564,0.04918 -0.083945,0.03816 -0.083945,0.02629 -0.081401,0.01526 -0.077161,0.0051 m 0.6384873,-2.108789 0.1119261,0.0017 m -0.1119261,-0.0017 0.070378,-0.175521 0.071226,-0.173824 0.072074,-0.175521 0.073769,-0.173824 0.07377,-0.173825 0.076313,-0.174672 0.076313,-0.173825 0.078009,-0.173824 m 0.098359,0.03392 -0.098359,-0.03392 m 1.115021,-2.025692 0.064442,0.02798 0.057659,0.03985 0.050028,0.04918 0.044092,0.06105 0.034765,0.06953 0.027134,0.07801 0.018654,0.08564 0.010175,0.09158 0,0.09836 -0.00848,0.103447 -0.016959,0.106839 -0.025438,0.108534 -0.034765,0.11023 -0.041548,0.109382 -0.050028,0.109383 -0.056811,0.10599 -0.062746,0.103447 -0.068682,0.09836 -0.07377,0.09242 -0.078009,0.08564 -0.081401,0.07801 -0.082249,0.06953 -0.08564,0.05935 -0.084792,0.05003 -0.084792,0.03985 -0.083945,0.02798 -0.081401,0.01781 -0.078857,0.0059 -0.073769,-0.0059 -0.06953,-0.01781 m 0.9191504,-2.093526 0.097511,0.03392 m -0.097511,-0.03392 0.090728,-0.169585 0.092424,-0.167889 0.093272,-0.16789 0.09412,-0.167041 0.094968,-0.167041 0.096663,-0.167041 0.096663,-0.165345 0.098359,-0.165346 m 0.080553,0.06359 -0.080553,-0.06359 m 1.3261542,-1.872217 0.051723,0.04833 0.044092,0.05851 0.035613,0.06868 0.027982,0.07631 0.02035,0.08479 0.011023,0.09158 0.0017,0.09751 -0.00678,0.101751 -0.016111,0.106838 -0.02459,0.108535 -0.033069,0.11023 -0.0407,0.109382 -0.04918,0.109383 -0.055963,0.106838 -0.061898,0.104295 -0.067834,0.09921 -0.072921,0.09242 -0.077161,0.08649 -0.080553,0.07971 -0.083945,0.06953 -0.083945,0.0619 -0.08564,0.05172 -0.084792,0.0407 -0.083945,0.03052 -0.082249,0.01866 -0.078857,0.0068 -0.074617,-0.0042 -0.06953,-0.01526 -0.06529,-0.02629 -0.058507,-0.039 m 1.1642006,-2.000255 0.081401,0.06444 m -0.081401,-0.06444 0.1085344,-0.156018 0.1102302,-0.156018 0.1102302,-0.15517 0.1119261,-0.153475 0.111926,-0.154322 0.1119261,-0.151778 0.1144698,-0.151779 0.1144699,-0.15093 m 0.060203,0.09242 -0.060203,-0.09242 m 1.4872599,-1.64667 0.037309,0.06699 0.028829,0.07547 0.02035,0.08394 0.012719,0.08988 0.00339,0.09666 -0.00594,0.101751 -0.014415,0.105991 -0.023742,0.108534 -0.032221,0.109382 -0.039853,0.11023 -0.047484,0.109383 -0.055115,0.107686 -0.061051,0.103447 -0.066986,0.100055 -0.072921,0.09412 -0.076313,0.08734 -0.080553,0.08055 -0.082249,0.07207 -0.084792,0.06275 -0.08564,0.05257 -0.084792,0.0424 -0.084793,0.03137 -0.081401,0.02035 -0.079705,0.0093 -0.075465,-0.0034 -0.070378,-0.01357 -0.06529,-0.02544 -0.060203,-0.03646 -0.052571,-0.04748 -0.045788,-0.05681 m 1.3660067,-1.830669 0.061051,0.09158 m -0.061051,-0.09158 0.1221012,-0.138212 0.123797,-0.137364 0.123797,-0.136516 0.123797,-0.133972 0.1246449,-0.133972 0.1263408,-0.133972 0.1254922,-0.13058 0.125493,-0.130581 m 0.039,0.115318 -0.039,-0.115318 m 1.591555,-1.360071 0.02205,0.0831 0.01357,0.08903 0.0042,0.09666 -0.0051,0.100903 -0.01272,0.105991 -0.02289,0.107686 -0.03052,0.110231 -0.03901,0.11023 -0.04664,0.108534 -0.05427,0.107687 -0.0602,0.104294 -0.06614,0.100903 -0.07207,0.09497 -0.07547,0.08818 -0.08055,0.0814 -0.08225,0.07292 -0.08394,0.06359 -0.08564,0.05512 -0.08479,0.0424 -0.08479,0.03392 -0.08225,0.02205 -0.07971,0.01102 -0.07631,-8.48e-4 -0.07123,-0.01272 -0.06614,-0.02374 -0.0602,-0.03561 -0.05427,-0.04664 -0.04664,-0.05512 -0.03816,-0.06614 -0.03053,-0.07462 m 1.514393,-1.590707 0.03816,0.115318 m -0.03816,-0.115318 0.131428,-0.114469 0.132277,-0.113622 0.132276,-0.111926 0.133124,-0.111079 0.132276,-0.109382 0.133125,-0.107686 0.133124,-0.106839 0.133972,-0.105142 m 0.01441,0.135668 -0.01441,-0.135668 m 1.634799,-1.020054 0.0059,0.09497 -0.0034,0.100903 -0.01272,0.104294 -0.0212,0.107687 -0.02968,0.109382 -0.03731,0.111078 -0.04579,0.108535 -0.05257,0.107686 -0.0602,0.105991 -0.06529,0.100903 -0.07123,0.09581 -0.07631,0.08903 -0.07886,0.08225 -0.08225,0.07462 -0.08394,0.06529 -0.08479,0.05512 -0.08564,0.04579 -0.08394,0.03392 -0.0831,0.02374 -0.08055,0.01272 -0.07631,0 -0.07292,-0.01102 -0.06614,-0.02205 -0.06105,-0.03392 -0.05427,-0.04494 -0.04748,-0.05342 -0.03985,-0.06444 -0.03137,-0.07377 -0.02374,-0.0814 -0.01441,-0.08903 m 1.605969,-1.29139 0.01441,0.135668 m -0.01441,-0.135668 0.101751,-0.06614 0.102599,-0.06359 0.101751,-0.06359 0.101751,-0.06359 0.102599,-0.0619 0.101751,-0.06105 0.101751,-0.0602 0.102598,-0.05935 m 0,0 0.269641,-0.156019 m 0,0.172977 0,-0.172977 m 1.632255,-0.769067 -0.0042,0.101751 -0.01357,0.104294 -0.02205,0.108535 -0.03053,0.109382 -0.039,0.109382 -0.04664,0.110231 -0.05342,0.107686 -0.06105,0.104295 -0.06614,0.100903 -0.07122,0.09497 -0.07631,0.08818 -0.07971,0.08225 -0.08225,0.07292 -0.08479,0.06359 -0.08479,0.05427 -0.08564,0.04494 -0.08394,0.03307 -0.0831,0.02205 -0.0797,0.01017 -0.07631,-8.47e-4 -0.07123,-0.01187 -0.06614,-0.02459 -0.0602,-0.03477 -0.05427,-0.04494 -0.04579,-0.05596 -0.039,-0.06529 -0.03053,-0.07462 -0.02289,-0.08225 -0.01272,-0.08988 -0.0051,-0.09582 m 1.632255,-1.115021 0,0.172977 m 0,-0.172977 1.087887,-0.628312 m 0,0.172976 0,-0.172976 m 1.631407,-0.76822 -0.0042,0.100903 -0.01357,0.105143 -0.02205,0.107686 -0.03053,0.11023 -0.039,0.110231 -0.04664,0.109382 -0.05342,0.107686 -0.06105,0.105143 -0.06614,0.100055 -0.07123,0.09412 -0.07631,0.08903 -0.07971,0.0814 -0.08225,0.07377 -0.08479,0.06275 -0.08479,0.05512 -0.08564,0.04494 -0.08394,0.03307 -0.0831,0.0212 -0.07971,0.01187 -0.07547,-0.0017 -0.07207,-0.01187 -0.06614,-0.02374 -0.0602,-0.03561 -0.05427,-0.04494 -0.04579,-0.05596 -0.039,-0.06529 -0.03053,-0.07462 -0.02205,-0.0831 -0.01357,-0.08903 -0.0042,-0.09666 m 1.631407,-1.113325 0,0.172129 m 0,-0.172129 1.087887,-0.628312 m 0,0.172977 0,-0.172977 m 1.631408,-0.769915 -0.0042,0.100903 -0.01357,0.105142 -0.02205,0.108535 -0.03052,0.109382 -0.039,0.11023 -0.04664,0.109382 -0.05342,0.108535 -0.06105,0.104294 -0.06614,0.100056 -0.07207,0.09497 -0.07547,0.08903 -0.0797,0.0814 -0.08225,0.07377 -0.08479,0.06275 -0.08479,0.05512 -0.08564,0.04409 -0.08394,0.03307 -0.08225,0.02205 -0.07971,0.01102 -0.07716,-8.48e-4 -0.07122,-0.01187 -0.06614,-0.02459 -0.0602,-0.03477 -0.05427,-0.04579 -0.04579,-0.05596 -0.039,-0.06529 -0.03053,-0.07462 -0.02289,-0.08225 -0.01272,-0.08988 -0.0042,-0.09497 m 1.631408,-1.115021 0,0.172129 m 0,-0.172129 1.087887,-0.628312 m 0,0.172976 0,-0.172976 m 1.631407,-0.769068 -0.0042,0.100903 -0.01357,0.105143 -0.02205,0.108534 -0.03053,0.109382 -0.039,0.11023 -0.04664,0.109383 -0.05342,0.107686 -0.06105,0.105143 -0.06614,0.100903 -0.07123,0.09412 -0.07631,0.08818 -0.07971,0.0814 -0.08225,0.07377 -0.08479,0.06359 -0.08479,0.05511 -0.08564,0.04325 -0.08394,0.03392 -0.0831,0.02205 -0.07971,0.01102 -0.07547,-8.48e-4 -0.07207,-0.01272 -0.06614,-0.02374 -0.0602,-0.03477 -0.05427,-0.04579 -0.04664,-0.05596 -0.03816,-0.06529 -0.03053,-0.07462 -0.02205,-0.08225 -0.01357,-0.09073 -0.0042,-0.09497 m 1.631407,-1.114173 0,0.172129 m 0,-0.172129 1.087888,-0.62916 m 0,0.173825 0,-0.173825 m 1.631407,-0.769068 -0.0042,0.101751 -0.01357,0.104295 -0.02205,0.108534 -0.03052,0.109383 -0.03901,0.111078 -0.04664,0.109382 -0.05342,0.107687 -0.06105,0.104294 -0.06614,0.100055 -0.07123,0.09497 -0.07631,0.08903 -0.0797,0.08225 -0.08225,0.07292 -0.08479,0.06359 -0.08479,0.05427 -0.08564,0.04409 -0.08394,0.03307 -0.08225,0.02205 -0.08055,0.01102 -0.07631,-8.48e-4 -0.07122,-0.01272 -0.06614,-0.02289 -0.0602,-0.03561 -0.05342,-0.04579 -0.04664,-0.05512 -0.039,-0.06529 -0.03053,-0.07546 -0.02289,-0.08225 -0.01272,-0.08903 -0.0042,-0.09582 m 1.631407,-1.115021 0,0.172128 m 0,-0.172128 1.087887,-0.628313 m 0,0.172977 0,-0.172977 m 1.631407,-0.769067 -0.0042,0.101751 -0.01357,0.104294 -0.02205,0.108535 -0.03053,0.109382 -0.039,0.11023 -0.04664,0.109383 -0.05342,0.107686 -0.06105,0.104295 -0.06614,0.101751 -0.07123,0.09412 -0.07631,0.08818 -0.07971,0.08225 -0.08225,0.07292 -0.08479,0.06359 -0.08479,0.05512 -0.08564,0.04324 -0.08394,0.03307 -0.0831,0.02374 -0.07971,0.0093 -0.07631,0 -0.07123,-0.01272 -0.06614,-0.02289 -0.0602,-0.03561 -0.05342,-0.04579 -0.04664,-0.05596 -0.039,-0.06529 -0.03053,-0.07462 -0.02289,-0.08225 -0.01272,-0.08988 -0.0042,-0.09582 m 1.631407,-1.115021 0,0.172977 m 0,-0.172977 1.087888,-0.627464 m 0,0.172129 0,-0.172129 m 1.631407,-0.769068 -0.0042,0.100903 -0.01357,0.105143 -0.02205,0.107686 -0.03053,0.11023 -0.039,0.110231 -0.04664,0.109382 -0.05342,0.107686 -0.06105,0.104295 -0.06614,0.100903 -0.07123,0.09497 -0.07631,0.08818 -0.07886,0.0814 -0.0831,0.07292 -0.08479,0.06529 -0.08479,0.05427 -0.08564,0.04324 -0.08394,0.03307 -0.08225,0.02289 -0.08055,0.01018 -0.07547,-8.48e-4 -0.07207,-0.01272 -0.06614,-0.02289 -0.0602,-0.03561 -0.05342,-0.04579 -0.04664,-0.05512 -0.039,-0.06529 -0.03053,-0.07462 -0.02289,-0.0831 -0.01272,-0.08903 -0.0042,-0.09666 M 33.404,24.18283 l 0,0.172977 m 0,-0.172977 1.087887,-0.627464 m 0,0.172129 0,-0.172129 m 1.631407,-0.769915 -0.0042,0.101751 -0.01357,0.105142 -0.02205,0.107687 -0.03053,0.109382 -0.039,0.11023 -0.04664,0.109382 -0.05342,0.107687 -0.06105,0.105143 -0.06614,0.100055 -0.07123,0.09581 -0.07547,0.08818 -0.08055,0.0814 -0.08225,0.07292 -0.08394,0.06444 -0.08564,0.05427 -0.08564,0.04324 -0.08394,0.03307 -0.08225,0.02374 -0.08055,0.0093 -0.07631,0 -0.07123,-0.01272 -0.06614,-0.02374 -0.0602,-0.03561 -0.05342,-0.04409 -0.04664,-0.05681 -0.039,-0.06529 -0.03052,-0.07462 -0.02205,-0.0814 -0.01357,-0.09073 -0.0042,-0.09581 m 1.631407,-1.115021 0,0.172977 m 0,-0.172977 1.087888,-0.627464 m 0,0.172976 0,-0.172976 m 1.631407,-0.769068 -0.0042,0.101751 -0.01357,0.104295 -0.02205,0.107686 -0.03053,0.11023 -0.039,0.110231 -0.04664,0.11023 -0.05342,0.106838 -0.0602,0.105143 -0.06699,0.100055 -0.07123,0.09497 -0.07547,0.08903 -0.08055,0.08055 -0.08225,0.07292 -0.08394,0.06444 -0.08564,0.05512 -0.08564,0.04409 -0.08394,0.03307 -0.08225,0.02205 -0.08055,0.01018 -0.07547,0 -0.07122,-0.01357 -0.06699,-0.02289 -0.0602,-0.03477 -0.05342,-0.04579 -0.04664,-0.05512 -0.039,-0.06614 -0.03053,-0.07462 -0.02205,-0.08225 -0.01357,-0.08903 -0.0042,-0.09666 m 1.631407,-1.115021 0,0.172977 m 0,-0.172977 1.087887,-0.627464 m 0,0.172977 0,-0.172977 m 1.631407,-0.769916 -0.0051,0.101751 -0.01357,0.105143 -0.0212,0.107686 -0.03053,0.109383 -0.039,0.11023 -0.04664,0.11023 -0.05342,0.107687 -0.0602,0.104294 -0.06699,0.100055 -0.07207,0.09582 -0.07547,0.08818 -0.0797,0.0814 -0.08225,0.07292 -0.08479,0.06444 -0.08479,0.05427 -0.08564,0.04324 -0.08394,0.03392 -0.0831,0.02289 -0.07971,0.0093 -0.07547,0 -0.07123,-0.01272 -0.06699,-0.02374 -0.0602,-0.03476 -0.05342,-0.04494 -0.04664,-0.05596 -0.039,-0.06614 -0.03052,-0.07377 -0.02205,-0.0831 -0.01357,-0.08903 -0.0042,-0.09582 m 1.631407,-1.115869 0,0.172976 m 0,-0.172976 1.08704,-0.626617 m 0,0.172129 0,-0.172129 m 1.632255,-0.769915 -0.0042,0.101751 -0.01441,0.105142 -0.0212,0.107687 -0.03053,0.109382 -0.039,0.111078 -0.04664,0.109383 -0.05342,0.106838 -0.0602,0.105991 -0.06783,0.09921 -0.07123,0.09581 -0.07547,0.08819 -0.0797,0.08055 -0.08225,0.07377 -0.08479,0.06359 -0.08479,0.05512 -0.08564,0.04409 -0.08479,0.03307 -0.08225,0.02205 -0.0797,0.01102 -0.07547,-8.47e-4 -0.07123,-0.01272 -0.06783,-0.02374 -0.05935,-0.03477 -0.05342,-0.04494 -0.04748,-0.05596 -0.03816,-0.06699 -0.03053,-0.07292 -0.02205,-0.0831 -0.01357,-0.08988 -0.0051,-0.09582 m 1.632255,-1.114173 0,0.172129 m 0,-0.172129 1.087039,-0.628312 m 0,0.173824 0,-0.173824 m 1.632255,-0.769068 -0.0051,0.100903 -0.01357,0.105143 -0.0212,0.107686 -0.03053,0.109383 -0.039,0.111078 -0.04664,0.109382 -0.05342,0.107686 -0.0602,0.105143 -0.06699,0.09921 -0.07123,0.09582 -0.07631,0.08903 -0.0797,0.0814 -0.0831,0.07292 -0.0831,0.0636 -0.08564,0.05427 -0.08564,0.04409 -0.08394,0.03392 -0.0831,0.0212 -0.07971,0.01102 -0.07547,-8.48e-4 -0.07207,-0.01272 -0.06529,-0.02374 -0.06105,-0.03392 -0.05427,-0.04579 -0.04664,-0.05596 -0.03816,-0.06614 -0.03052,-0.07377 -0.02205,-0.08225 -0.01357,-0.08988 -0.0051,-0.09497 m 1.632255,-1.115868 0,0.172976 m 0,-0.172976 1.08704,-0.627465 m 0,0.172977 0,-0.172977 m 1.632255,-0.769067 -0.0042,0.100903 -0.01357,0.105142 -0.02205,0.107687 -0.03052,0.11023 -0.039,0.11023 -0.04664,0.109382 -0.05342,0.106839 -0.0602,0.105143 -0.06614,0.100903 -0.07207,0.09497 -0.07631,0.08818 -0.0797,0.0814 -0.08225,0.07292 -0.08479,0.06444 -0.08479,0.05427 -0.08479,0.04324 -0.08479,0.03392 -0.0831,0.02205 -0.0797,0.01102 -0.07547,-8.48e-4 -0.07123,-0.01272 -0.06699,-0.02374 -0.06105,-0.03392 -0.05257,-0.04579 -0.04748,-0.05681 -0.03816,-0.06529 -0.03137,-0.07377 -0.0212,-0.08225 -0.01357,-0.08988 -0.0051,-0.09581 m 1.632255,-1.115021 0,0.172977 m 0,-0.172977 1.087039,-0.628312 m 0,0.172976 0,-0.172976 m 1.632255,-0.769068 -0.0051,0.100903 -0.01272,0.105143 -0.02205,0.107686 -0.03053,0.11023 -0.039,0.110231 -0.04664,0.11023 -0.05342,0.106838 -0.0602,0.105143 -0.06614,0.100055 -0.07207,0.09497 -0.07546,0.08903 -0.08055,0.0814 -0.0831,0.07207 -0.0831,0.06529 -0.08564,0.05342 -0.08479,0.04494 -0.08479,0.03307 -0.0831,0.0212 -0.07886,0.01102 -0.07631,-8.48e-4 -0.07123,-0.01272 -0.06614,-0.02374 -0.06105,-0.03392 -0.05427,-0.04579 -0.04664,-0.05596 -0.03816,-0.06529 -0.03052,-0.07377 -0.02205,-0.0831 -0.01357,-0.08988 -0.0051,-0.09582 m 1.632255,-1.115021 0,0.172977 m 0,-0.172977 1.08704,-0.627464 m 0,0.172977 0,-0.172977 m 1.632255,-0.769068 -0.0042,0.100903 -0.01272,0.105991 -0.02289,0.106839 -0.03052,0.11023 -0.03901,0.11023 -0.04663,0.109382 -0.05342,0.106839 -0.0602,0.105142 -0.06614,0.100056 -0.07207,0.09581 -0.07631,0.08818 -0.0797,0.0814 -0.08225,0.07377 -0.08479,0.0636 -0.08479,0.05427 -0.08479,0.04409 -0.08479,0.03307 -0.0831,0.02205 -0.07886,0.01102 -0.07631,-0.0017 -0.07123,-0.01102 -0.06699,-0.02459 -0.06105,-0.03476 -0.05342,-0.04494 -0.04664,-0.05681 -0.03816,-0.06529 -0.03137,-0.07377 -0.0212,-0.08225 -0.01357,-0.08988 -0.0051,-0.09581 m 1.632255,-1.115021 0,0.172976 m 0,-0.172976 1.087039,-0.627465 m 0,0.172129 0,-0.172129 m 1.632255,-0.769067 -0.0042,0.100055 -0.01357,0.10599 -0.02205,0.107687 -0.03052,0.11023 -0.03901,0.11023 -0.04664,0.109383 -0.05342,0.107686 -0.0602,0.104295 -0.06699,0.100055 -0.07123,0.09497 -0.07546,0.08988 -0.08055,0.07971 -0.08225,0.07292 -0.08394,0.06444 -0.08564,0.05512 -0.08479,0.04409 -0.08479,0.03307 -0.0831,0.02205 -0.07886,0.01102 -0.07631,-8.48e-4 -0.07123,-0.01272 -0.06699,-0.02374 -0.0602,-0.03392 -0.05342,-0.04664 -0.04664,-0.05596 -0.039,-0.06444 -0.03052,-0.07462 -0.02205,-0.0831 -0.01357,-0.08903 -0.0051,-0.09666 m 1.632255,-1.114173 0,0.172977 m 0,-0.172977 0.8174,-0.4722939 m 0,0 0.03392,-0.019502 0.03392,-0.019502 0.03307,-0.018654 0.03392,-0.019502 0.03392,-0.018654 0.03392,-0.019502 0.03307,-0.018654 0.03392,-0.017806 m -0.0093,0.1492347 0.0093,-0.1492347 m 1.61784,-0.642727 -0.01187,0.1042948 -0.02035,0.1076864 -0.02883,0.1093823 -0.03646,0.1093823 -0.04324,0.1093823 -0.05257,0.1085343 -0.05851,0.1059906 -0.06529,0.1009031 -0.07038,0.097511 -0.07462,0.08988 -0.07886,0.083097 -0.08225,0.076313 -0.0831,0.066138 -0.08564,0.05596 -0.08564,0.04748 -0.08394,0.03561 -0.08394,0.02544 -0.08055,0.01357 -0.07631,0.0025 -0.07377,-0.0093 -0.06699,-0.0212 -0.06275,-0.03222 -0.05512,-0.0424 -0.04918,-0.05427 -0.0407,-0.06275 -0.03222,-0.072074 -0.02459,-0.080553 -0.01526,-0.087336 -0.0068,-0.095816 0.0025,-0.099207 m 1.635646,-0.9420443 -0.0085,0.1500826 m 0.0085,-0.1500826 0.13482,-0.055963 0.13482,-0.053419 0.133972,-0.052571 0.133125,-0.050875 0.133972,-0.04918 0.133972,-0.046636 0.133124,-0.046636 0.132276,-0.044092 m -0.03307,0.1594099 0.03307,-0.1594099 m 1.537288,-0.2391147 -0.02713,0.1093822 -0.03561,0.1102303 -0.04324,0.1102302 -0.05088,0.1076864 -0.05766,0.1059906 -0.06444,0.1025989 -0.06953,0.096663 -0.07462,0.091576 -0.07801,0.083944 -0.08225,0.077161 -0.08394,0.067834 -0.08394,0.057659 -0.08564,0.048332 -0.08479,0.038157 -0.08394,0.026286 -0.08055,0.015263 -0.07801,0.00339 -0.07292,-0.00763 -0.06868,-0.019502 -0.06275,-0.030525 -0.05596,-0.041548 -0.05003,-0.051723 -0.0424,-0.061051 -0.03392,-0.071226 -0.02459,-0.079705 -0.01696,-0.087336 -0.0076,-0.093272 8.48e-4,-0.099207 0.0093,-0.1034468 0.0195,-0.1076864 M 63.233256,7.8398201 63.198486,7.99923 m 0.03477,-0.1594099 0.127188,-0.022894 0.128037,-0.019502 0.127189,-0.019502 0.127188,-0.016959 0.127189,-0.015263 0.125493,-0.013567 0.124645,-0.011871 0.125493,-0.011023 m -0.05766,0.1628016 0.05766,-0.1628016 m 1.399076,0.1721287 -0.0424,0.1102302 -0.05003,0.1085344 -0.05766,0.1068385 -0.06275,0.1025989 -0.06953,0.097511 -0.07292,0.092424 -0.07716,0.08564 -0.08225,0.077161 -0.0831,0.068682 -0.08479,0.060203 -0.08564,0.04918 -0.08564,0.039852 -0.08225,0.027134 -0.08225,0.017806 -0.07801,0.00509 -0.07462,-0.00678 -0.06868,-0.017806 -0.06359,-0.02883 -0.05681,-0.039852 -0.05088,-0.050028 -0.04324,-0.061051 -0.03476,-0.070378 -0.02629,-0.077161 -0.01781,-0.086488 -0.0093,-0.092424 0,-0.099207 0.0085,-0.1025989 0.01696,-0.1068385 0.02629,-0.1093823 0.03392,-0.1093822 m 1.513545,-0.1526265 -0.05681,0.1619536 m 0.05681,-0.1619536 0.116166,0.011871 0.117014,0.012719 0.116165,0.016111 0.115318,0.016959 0.113622,0.019502 0.113622,0.019502 0.113622,0.022894 0.111926,0.023742 m -0.07801,0.1585619 0.07801,-0.1585619 m 1.207445,0.5765888 -0.05512,0.1068385 -0.06275,0.1034468 -0.06868,0.098359 -0.07292,0.092424 -0.07716,0.087336 -0.0814,0.078857 -0.08225,0.06953 -0.08564,0.061051 -0.08564,0.050876 -0.08394,0.039852 -0.08479,0.029677 -0.08055,0.019502 -0.07886,0.00678 -0.07462,-0.00509 -0.07038,-0.01611 -0.06444,-0.027982 -0.05851,-0.038157 -0.05087,-0.04918 -0.04409,-0.059355 -0.03646,-0.068682 -0.02713,-0.077161 -0.0195,-0.084792 -0.01018,-0.092424 -0.0017,-0.096664 0.0076,-0.1025988 0.01611,-0.1059906 0.02459,-0.1093823 0.03307,-0.1093823 0.04155,-0.1102302 0.04918,-0.1093823 m 1.363463,0.258617 -0.07801,0.1594099 m 0.07801,-0.1594099 0.100903,0.045788 0.101751,0.047484 0.09921,0.04918 0.09921,0.050876 0.09751,0.051723 0.09666,0.054267 0.09666,0.055115 0.09497,0.056811 m -0.09497,0.1492348 0.09497,-0.1492348 m 0.971722,0.9598508 -0.06868,0.099207 -0.07207,0.09412 -0.07631,0.087336 -0.08055,0.079705 -0.0831,0.07123 -0.08394,0.06275 -0.08564,0.05257 -0.08479,0.04155 -0.08479,0.03137 -0.08225,0.0195 -0.07886,0.0085 -0.07462,-0.0034 -0.07038,-0.01441 -0.06614,-0.02629 -0.05935,-0.03646 -0.05172,-0.04748 -0.04494,-0.05851 -0.03731,-0.06699 -0.02883,-0.075465 -0.0212,-0.083945 -0.01102,-0.091576 -0.0025,-0.096663 0.0059,-0.1017509 0.01526,-0.1059906 0.02289,-0.1085344 0.03392,-0.1102302 0.039,-0.1102302 0.04833,-0.1093823 0.05427,-0.1068385 0.06275,-0.1042947 m 1.161657,0.6605333 -0.09497,0.1500827 m 0.09497,-0.1500827 0.08225,0.078009 0.08055,0.079705 0.08055,0.079705 0.07886,0.082249 0.07716,0.083097 0.07631,0.086488 0.07546,0.08564 0.07547,0.08903 m -0.109383,0.133972 0.109383,-0.133972 m 0.696994,1.305804 -0.07547,0.08903 -0.08055,0.08055 -0.08225,0.07207 -0.08479,0.06444 -0.08479,0.05342 -0.08564,0.04324 -0.08394,0.03222 -0.08225,0.02205 -0.07971,0.01018 -0.07631,-0.0017 -0.07123,-0.01272 -0.06614,-0.02459 -0.05935,-0.03561 -0.05342,-0.04664 -0.04579,-0.05596 -0.03816,-0.06614 -0.03052,-0.07462 -0.02205,-0.0831 -0.01187,-0.09073 -0.0051,-0.09582 0.0059,-0.101751 0.01357,-0.105143 0.02289,-0.107686 0.03053,-0.11023 0.03985,-0.11023 0.04664,-0.110231 0.05427,-0.106838 0.0602,-0.104295 0.06699,-0.100055 0.07207,-0.09497 m 0.915759,1.03786 -0.109382,0.133972 m 0.109382,-0.133972 0.0602,0.106839 0.05851,0.106838 0.05596,0.109383 0.05681,0.111078 0.05427,0.111926 0.05427,0.113622 0.05172,0.11447 0.05172,0.114469 m -0.119558,0.116166 0.119558,-0.116166 m 0.396828,1.605122 -0.08225,0.07377 -0.08479,0.06444 -0.08394,0.05511 -0.08649,0.04494 -0.08479,0.03392 -0.0814,0.02374 -0.08055,0.01102 -0.07631,0 -0.07207,-0.01102 -0.06699,-0.02289 -0.0602,-0.03477 -0.05427,-0.04494 -0.04748,-0.05427 -0.03901,-0.06444 -0.03137,-0.07462 -0.02289,-0.0814 -0.01441,-0.08903 -0.0051,-0.09666 0.0042,-0.100056 0.01187,-0.105142 0.02205,-0.107687 0.02968,-0.11023 0.039,-0.109382 0.04579,-0.109382 0.05257,-0.107687 0.0602,-0.105143 0.06614,-0.100903 0.07123,-0.09581 0.07547,-0.08903 0.07971,-0.0814 m 0.635944,1.374486 -0.119558,0.11447 m 0.119558,-0.11447 0.03476,0.13058 0.03307,0.133125 0.03137,0.133972 0.03137,0.13482 0.03052,0.135668 0.02798,0.136516 0.02713,0.139059 0.02544,0.139908 m -0.124645,0.08903 0.124645,-0.08903 m 0.08225,1.839148 -0.08564,0.05681 -0.08479,0.04664 -0.08479,0.03477 -0.08225,0.02459 -0.08055,0.01272 -0.07801,0.0017 -0.07207,-0.0093 -0.06699,-0.0212 -0.0619,-0.03222 -0.05596,-0.04409 -0.04748,-0.05342 -0.0407,-0.06359 -0.03222,-0.07292 -0.02459,-0.08055 -0.01441,-0.08818 -0.0068,-0.09497 0.0025,-0.100055 0.01187,-0.104294 0.0195,-0.107687 0.02883,-0.108534 0.03731,-0.111078 0.04494,-0.110231 0.05257,-0.106838 0.05935,-0.105991 0.06444,-0.101751 0.07038,-0.09581 0.07546,-0.08903 0.07886,-0.08394 0.08225,-0.07546 0.08394,-0.06614 m 0.330691,1.659388 -0.123797,0.09073 m 0.123797,-0.09073 0.0093,0.152627 0.0068,0.151778 0.0068,0.153475 0.0051,0.154322 0.0034,0.154322 0.0017,0.156019 0,0.156018 0,0.157714 m -0.126341,0.0619 0.126341,-0.0619 m -0.236571,2.00619 -0.08479,0.03646 -0.0831,0.02629 -0.0814,0.01526 -0.07801,0.0025 -0.07207,-0.0076 -0.06953,-0.0195 -0.0619,-0.03137 -0.05596,-0.04155 -0.04918,-0.05342 -0.04155,-0.0619 -0.03392,-0.07123 -0.02459,-0.07971 -0.01696,-0.08734 -0.0068,-0.09412 0.0017,-0.09921 0.0093,-0.103447 0.0195,-0.107686 0.02798,-0.109383 0.03561,-0.11023 0.04409,-0.108534 0.05088,-0.109383 0.05851,-0.10599 0.06444,-0.100903 0.06953,-0.09836 0.07462,-0.08988 0.07886,-0.08479 0.08055,-0.07631 0.08479,-0.06699 0.08394,-0.05766 0.08564,-0.04833 m 0.01526,1.881545 -0.125493,0.06275 m 0.125493,-0.06275 -0.01865,0.165345 -0.01865,0.167042 -0.0212,0.167041 -0.0212,0.167041 -0.02205,0.167889 -0.02544,0.168737 -0.02544,0.168737 -0.02629,0.169585 m -0.122101,0.03222 0.122101,-0.03222 m -0.546064,2.096918 -0.08225,0.01611 -0.07716,0.0042 -0.07377,-0.0076 -0.06868,-0.01696 -0.06359,-0.02968 -0.05766,-0.0407 -0.04918,-0.05087 -0.04324,-0.06105 -0.03392,-0.07038 -0.02713,-0.07801 -0.01781,-0.08564 -0.0085,-0.09412 0,-0.09836 0.0093,-0.103447 0.01781,-0.106838 0.02713,-0.109382 0.03476,-0.109383 0.0424,-0.111078 0.05003,-0.108534 0.05681,-0.105991 0.06444,-0.102599 0.06868,-0.09666 0.07462,-0.09242 0.07716,-0.08564 0.0814,-0.07716 0.08394,-0.06868 0.08394,-0.05851 0.08649,-0.04918 0.08479,-0.039 0.0831,-0.02713 m -0.302709,2.031628 -0.121254,0.03307 m 0.121254,-0.03307 -0.04409,0.173824 -0.04494,0.173825 -0.04494,0.174672 -0.04833,0.173825 -0.04833,0.174672 -0.05003,0.174673 -0.05088,0.174672 -0.05172,0.175521 m -0.112774,8.48e-4 0.112774,-8.48e-4 m -0.835206,2.107093 -0.07462,-0.0051 -0.06953,-0.01696 -0.06444,-0.02798 -0.05766,-0.03816 -0.05172,-0.05003 -0.04324,-0.05936 -0.03561,-0.06953 -0.02798,-0.07716 -0.01781,-0.08479 -0.01018,-0.09327 -0.0017,-0.09751 0.0085,-0.102599 0.01611,-0.106839 0.02629,-0.108534 0.03307,-0.11023 0.04155,-0.110231 0.04918,-0.109382 0.05681,-0.10599 0.06275,-0.103447 0.06783,-0.09836 0.07462,-0.09242 0.07716,-0.08649 0.08055,-0.07801 0.0831,-0.07038 0.08479,-0.0602 0.08479,-0.05003 0.08649,-0.03985 0.08225,-0.02968 0.08225,-0.01781 0.07886,-0.0059 m -0.609658,2.105397 -0.112774,8.48e-4 m 0.112774,-8.48e-4 -0.06783,0.174672 -0.06868,0.175521 -0.07038,0.17552 -0.07123,0.173825 -0.07207,0.174672 -0.07292,0.174673 -0.07546,0.173824 -0.07462,0.173825 m -0.100055,-0.02968 0.100055,0.02968 m -1.092127,2.037563 -0.06529,-0.02629 -0.05766,-0.03731 -0.05257,-0.04833 -0.04579,-0.05766 -0.03646,-0.06783 -0.02798,-0.07631 -0.0195,-0.08394 -0.01187,-0.09242 -0.0025,-0.09666 0.0068,-0.101751 0.01611,-0.105991 0.02374,-0.108534 0.03222,-0.11023 0.0407,-0.11023 0.04833,-0.109383 0.05596,-0.106838 0.06105,-0.103447 0.06783,-0.09921 0.07292,-0.09327 0.07716,-0.08734 0.08055,-0.07971 0.08225,-0.07123 0.08564,-0.06105 0.08564,-0.05257 0.08479,-0.04155 0.08394,-0.03053 0.0814,-0.0195 0.07886,-0.0085 0.07547,0.0034 0.07038,0.01696 m -0.892017,2.097766 -0.100055,-0.03053 m 0.100055,0.03053 -0.08903,0.171281 -0.09073,0.168737 -0.09073,0.168737 -0.09242,0.168737 -0.09412,0.167889 -0.09327,0.167041 -0.09497,0.167041 -0.09666,0.166194 m -0.08225,-0.06105 0.08225,0.06105 m -1.3075,1.89172 -0.05257,-0.04664 -0.04579,-0.05681 -0.03816,-0.06699 -0.02968,-0.07462 -0.02035,-0.08394 -0.01272,-0.09073 -0.0034,-0.09666 0.0051,-0.100903 0.01441,-0.105142 0.02289,-0.108535 0.03137,-0.109382 0.03901,-0.11023 0.04833,-0.109382 0.05427,-0.107687 0.0602,-0.104295 0.06699,-0.100055 0.07207,-0.09412 0.07716,-0.08818 0.07971,-0.08055 0.0831,-0.07207 0.08394,-0.06359 0.08564,-0.05342 0.08479,-0.04324 0.08479,-0.03137 0.08225,-0.0212 0.07886,-0.0093 0.07547,0.0025 0.07123,0.01357 0.06614,0.02374 0.0602,0.03646 m -1.141307,2.012973 -0.08394,-0.0602 m 0.08394,0.0602 -0.107686,0.15941 -0.108535,0.156018 -0.108534,0.156866 -0.11023,0.156018 -0.111078,0.154323 -0.11023,0.15517 -0.111927,0.152626 -0.113621,0.152627 m -0.06275,-0.08988 0.06275,0.08988 m -1.472846,1.672955 -0.039,-0.06529 -0.03052,-0.07377 -0.02289,-0.08225 -0.01357,-0.08988 -0.0051,-0.09582 0.0042,-0.100903 0.01272,-0.105142 0.02289,-0.106839 0.02968,-0.11023 0.03816,-0.111078 0.04664,-0.109382 0.05342,-0.107687 0.0602,-0.105143 0.06614,-0.100055 0.07122,-0.09497 0.07631,-0.08988 0.07971,-0.08055 0.08225,-0.07377 0.08394,-0.06359 0.08564,-0.05512 0.08479,-0.04494 0.08479,-0.03307 0.0831,-0.02289 0.07886,-0.01102 0.07631,8.48e-4 0.07207,0.01187 0.06614,0.02374 0.0619,0.03392 0.05257,0.04579 0.04748,0.05427 m -1.347352,1.851019 -0.06275,-0.08818 m 0.06275,0.08818 -0.121253,0.140756 -0.122102,0.13906 -0.122949,0.138211 -0.122949,0.137364 -0.123797,0.136516 -0.123797,0.13482 -0.126341,0.133972 -0.123797,0.132276 m -0.04155,-0.113622 0.04155,0.113622 m -1.583923,1.391445 -0.02374,-0.0814 -0.01441,-0.08734 -0.0059,-0.09666 0.0025,-0.09921 0.01102,-0.105143 0.0212,-0.106838 0.02968,-0.11023 0.03731,-0.11023 0.04494,-0.110231 0.05172,-0.107686 0.0602,-0.105143 0.06614,-0.101751 0.06953,-0.09497 0.07631,-0.08988 0.07886,-0.0831 0.08225,-0.07377 0.08394,-0.06614 0.08479,-0.05596 0.08564,-0.04664 0.08394,-0.03392 0.0831,-0.02544 0.08055,-0.01187 0.07716,-8.48e-4 0.07207,0.01018 0.06699,0.02205 0.0619,0.03307 0.05427,0.04324 0.04833,0.05427 0.03985,0.06359 0.03222,0.07292 m -1.501674,1.618689 -0.0407,-0.113622 m 0.0407,0.113622 -0.131429,0.117013 -0.13058,0.116166 -0.131429,0.11447 -0.132276,0.113622 -0.132276,0.111078 -0.132276,0.111078 -0.133124,0.109382 -0.133973,0.108535 m -0.01696,-0.133972 0.01696,0.133972 m -1.632255,1.055666 -0.0076,-0.09412 0.0017,-0.09921 0.01017,-0.103447 0.0195,-0.107686 0.02798,-0.109382 0.03646,-0.110231 0.04409,-0.11023 0.05087,-0.108534 0.0602,-0.105143 0.06359,-0.101751 0.07038,-0.09666 0.07462,-0.09073 0.07886,-0.0831 0.0814,-0.07631 0.08394,-0.06699 0.08479,-0.05766 0.08564,-0.04664 0.08564,-0.03646 0.08225,-0.02629 0.08055,-0.01357 0.07801,-0.0034 0.07292,0.0093 0.06783,0.02035 0.0619,0.03053 0.05596,0.0424 0.04918,0.05342 0.0407,0.06275 0.03307,0.07207 0.02459,0.0797 0.01611,0.08734 m -1.599186,1.32361 -0.01611,-0.133972 m 0.01611,0.133972 -0.13482,0.08988 -0.135668,0.08818 -0.135668,0.08649 -0.136516,0.08564 -0.135668,0.08394 -0.135668,0.08225 -0.135668,0.08055 -0.135668,0.07971 m 6.115233,4.805189 -43.50956,25.11807 M 68.670884,8.7234674 67.90436,8.2800027 M 66.477303,8.1672287 65.701451,7.7195245 m 4.756858,4.6881755 0.0017,8.48e-4 0.06359,0.02883 0.06868,0.01865 0.07462,0.0059 0.07801,-0.0042 0.0814,-0.01781 0.0831,-0.02798 0.06105,-0.02629 M 64.10057,8.3402054 63.233143,7.8399298 m 4.721244,4.8899822 0.05596,0.02628 0.06953,0.0195 0.07292,0.0085 0.07801,-0.0034 0.0814,-0.01611 0.08225,-0.02544 0.08564,-0.03816 0.08564,-0.04833 0.08394,-0.05851 0.08394,-0.06699 0.08225,-0.07716 0.07716,-0.08479 0.07462,-0.09073 0.06953,-0.09666 0.06444,-0.102599 0.05851,-0.105991 0.05003,-0.108534 0.04409,-0.109383 0.01187,-0.03222 m -2.556493,0.450248 -6.118625,-3.531606 m 6.118625,3.531606 0.13482,-0.05511 0.02544,-0.01018 m -1.559334,1.611057 0.04664,0.02374 0.06783,0.02035 0.07292,0.01018 0.07716,-0.0034 0.08055,-0.01357 0.0831,-0.02459 0.08479,-0.03561 0.08564,-0.04748 0.08479,-0.05681 0.08394,-0.06614 0.0814,-0.07546 0.07886,-0.0831 0.07547,-0.09073 0.07038,-0.09666 0.06444,-0.101751 0.05935,-0.105143 0.05172,-0.108534 0.04494,-0.109382 0.03646,-0.110231 0.02798,-0.109382 0.02035,-0.106838 0.01102,-0.104295 m 0,0 0.0093,-0.150931 m -4.106499,3.060161 0.03137,0.01611 0.06699,0.02374 0.07123,0.01272 0.07547,8.48e-4 0.0797,-0.01102 0.0831,-0.02205 0.08394,-0.03307 0.08564,-0.04409 0.08564,-0.05512 0.08394,-0.06444 0.08225,-0.07292 0.0797,-0.0814 0.07631,-0.08903 0.07123,-0.09412 0.06699,-0.100903 0.0602,-0.103447 0.05342,-0.108534 0.04664,-0.109382 0.039,-0.110231 0.03053,-0.109382 0.0212,-0.108534 0.01357,-0.105143 0.0051,-0.100903 m 0,-0.172129 -6.118625,-3.532454 m 6.118625,3.532454 0.545215,-0.315428 m -0.545215,0.487557 0,-0.172129 m -2.719295,1.569509 -6.118624,-3.532454 m 6.118624,3.532454 0.599483,-0.346801 m -1.992623,1.990079 0.03137,0.01526 0.06699,0.02459 0.07123,0.01102 0.07547,0.0017 0.07971,-0.01102 0.0831,-0.02205 0.08394,-0.03307 0.08564,-0.04409 0.08564,-0.05512 0.08394,-0.06275 0.08225,-0.07377 0.08055,-0.08225 0.07462,-0.08818 0.07207,-0.09497 0.06699,-0.100903 0.0602,-0.104295 0.05342,-0.107686 0.04664,-0.109383 0.03901,-0.109382 0.03052,-0.11023 0.0212,-0.108535 0.01442,-0.104294 0.0042,-0.100903 m 0,0 0,-0.172977 m -2.719294,1.569509 -6.118625,-3.532455 m 6.118625,3.532455 0.600331,-0.346802 m -1.993471,1.989232 0.03137,0.01611 0.06699,0.02374 0.07038,0.01272 0.07631,8.48e-4 0.0797,-0.01102 0.0831,-0.0212 0.08394,-0.03307 0.08564,-0.04494 0.08564,-0.05427 0.08394,-0.06444 0.08225,-0.07207 0.08055,-0.08225 0.07547,-0.08903 0.07123,-0.09412 0.06614,-0.100903 0.06105,-0.104294 0.05342,-0.107687 0.04664,-0.11023 0.039,-0.109382 0.03053,-0.110231 0.02205,-0.107686 0.01357,-0.105143 0.0042,-0.100903 m 0,0 0,-0.172976 m -2.719295,1.570356 -6.118624,-3.532454 m 6.118624,3.532454 0.599483,-0.347649 m -1.992623,1.990079 0.03137,0.01611 0.06614,0.02374 0.07123,0.01272 0.07631,8.48e-4 0.07971,-0.01102 0.0831,-0.02205 0.08394,-0.03392 0.08564,-0.04325 0.08479,-0.05511 0.08479,-0.06359 0.0831,-0.07377 0.07971,-0.0814 0.07547,-0.08818 0.07122,-0.09412 0.06614,-0.101751 0.06105,-0.104295 0.05342,-0.107686 0.04664,-0.109383 0.03901,-0.109382 0.03052,-0.11023 0.0212,-0.108534 0.01357,-0.105143 0.0051,-0.100055 m 0,0 0,-0.172977 m -2.719294,1.569509 -6.118625,-3.532454 m 6.118625,3.532454 0.599483,-0.346801 m -1.992623,1.990079 0.03137,0.01526 0.06614,0.02374 0.07123,0.01272 0.07631,8.48e-4 0.0797,-0.01102 0.0831,-0.0212 0.08394,-0.03392 0.08564,-0.04409 0.08479,-0.05427 0.08479,-0.06359 0.08225,-0.07292 0.0797,-0.08225 0.07547,-0.08903 0.07207,-0.09497 0.06614,-0.100056 0.06105,-0.104294 0.05342,-0.108535 0.04664,-0.109382 0.039,-0.11023 0.03053,-0.109382 0.0212,-0.108535 0.01441,-0.105142 0.0042,-0.100056 m 0,0 0,-0.172976 m -2.719295,1.570356 -6.118624,-3.532454 m 6.118624,3.532454 0.600331,-0.347649 m -1.993471,1.99008 0.03137,0.01611 0.06614,0.02374 0.07123,0.01187 0.07631,0.0017 0.07971,-0.01187 0.0831,-0.0212 0.08394,-0.03307 0.08564,-0.04494 0.08479,-0.05427 0.08479,-0.06359 0.08225,-0.07377 0.07886,-0.08055 0.07716,-0.08903 0.07122,-0.09497 0.06614,-0.100055 0.06105,-0.105143 0.05342,-0.107686 0.04664,-0.109382 0.03901,-0.110231 0.03052,-0.11023 0.0212,-0.107686 0.01357,-0.105143 0.0051,-0.100903 m 0,0 0,-0.172129 m -29.09484,50.25395 -0.394285,0.221309 -0.392589,0.209437 -0.392589,0.196718 -0.392589,0.184848 -0.390894,0.172129 -0.389197,0.15941 -0.38835,0.147539 -0.385805,0.133972 -0.38411,0.121253 -0.382414,0.108534 -0.378175,0.09582 -0.37563,0.0814 -0.373935,0.06953 -0.368847,0.05596 -0.365456,0.0424 -0.362064,0.02968 -0.356976,0.01526 -0.353585,0.0025 -0.348497,-0.01018 -0.343409,-0.02374 -0.338322,-0.03731 -0.332387,-0.05003 -0.327298,-0.06359 -0.322212,-0.07716 -0.315428,-0.08988 -0.308644,-0.102599 -0.30271,-0.116166 -0.295925,-0.128885 -0.289143,-0.141603 -0.281511,-0.154322 m 37.008606,-49.73752 -6.118625,-3.532454 m 6.118625,3.532454 0.599483,-0.345953 m -1.992623,1.989231 0.03137,0.01526 0.06614,0.02459 0.07123,0.01187 0.07631,8.47e-4 0.0797,-0.01018 0.0831,-0.02205 0.08394,-0.03392 0.08564,-0.04409 0.08479,-0.05342 0.08479,-0.06444 0.08225,-0.07292 0.0797,-0.0814 0.07547,-0.08903 0.07207,-0.09497 0.06614,-0.100903 0.06105,-0.104295 0.05342,-0.107686 0.04664,-0.109383 0.039,-0.11023 0.03053,-0.109382 0.0212,-0.107687 0.01441,-0.10599 0.0042,-0.100903 m 0,0 0,-0.172977 m -2.719295,1.570357 -6.118624,-3.532455 m 6.118624,3.532455 0.600331,-0.345954 m -1.993471,1.988384 0.03137,0.01696 0.06614,0.02289 0.07123,0.01272 0.07631,8.48e-4 0.07971,-0.01102 0.0831,-0.0212 0.08394,-0.03392 0.08564,-0.04409 0.08479,-0.05427 0.08479,-0.06444 0.08225,-0.07292 0.07971,-0.08055 0.07631,-0.08988 0.07122,-0.09497 0.06614,-0.100055 0.06105,-0.104294 0.05342,-0.107687 0.04664,-0.109382 0.03901,-0.11023 0.03052,-0.110231 0.02205,-0.107686 0.01272,-0.105143 0.0051,-0.100903 m 0,0 0,-0.172976 m -2.719294,1.569508 -6.118625,-3.532454 m 6.118625,3.532454 0.599483,-0.345953 m -1.992623,1.989231 0.03137,0.01526 0.06614,0.02459 0.07123,0.01187 0.07631,8.48e-4 0.0797,-0.01018 0.0831,-0.02289 0.08394,-0.03307 0.08564,-0.04409 0.08479,-0.05342 0.08479,-0.06444 0.08225,-0.07377 0.0797,-0.08055 0.07547,-0.08903 0.07207,-0.09582 0.06614,-0.100055 0.06105,-0.104295 0.05342,-0.107686 0.04664,-0.109383 0.039,-0.11023 0.03053,-0.109382 0.0212,-0.107686 0.01357,-0.105991 0.0051,-0.100903 m 0,0 0,-0.172977 M 39.522624,27.715285 33.404,24.18283 m 6.118624,3.532455 0.600331,-0.345953 m -1.993471,1.988383 0.03137,0.01611 0.06614,0.02374 0.07123,0.01187 0.07631,0.0017 0.08055,-0.01102 0.08225,-0.02205 0.08394,-0.03307 0.08564,-0.04409 0.08479,-0.05342 0.08479,-0.06529 0.08225,-0.07292 0.07971,-0.0814 0.07631,-0.08903 0.07122,-0.09497 0.06614,-0.100056 0.06105,-0.104294 0.05342,-0.107687 0.04664,-0.109382 0.03901,-0.11023 0.03052,-0.11023 0.02205,-0.107687 0.01357,-0.10599 0.0042,-0.100056 m 0,0 0,-0.172976 m -2.719294,1.569508 -6.118625,-3.532454 m 6.118625,3.532454 0.60033,-0.345953 m -1.992623,1.989231 0.03053,0.01611 0.06614,0.02289 0.07207,0.01272 0.07547,8.48e-4 0.07971,-0.01018 0.08225,-0.02289 0.08479,-0.03307 0.08564,-0.04409 0.08479,-0.05427 0.08479,-0.06444 0.08225,-0.07292 0.0797,-0.0814 0.07631,-0.08818 0.07123,-0.09497 0.06614,-0.100903 0.06105,-0.104295 0.05342,-0.107686 0.04664,-0.109382 0.039,-0.110231 0.03053,-0.109382 0.02205,-0.108534 0.01357,-0.105143 0.0042,-0.100903 m 0,0 0,-0.172977 M 5.0019139,67.657622 5.6751661,68.045972 M 34.084035,30.85515 27.965411,27.322696 m 6.118624,3.532454 0.600331,-0.346801 m -1.993471,1.989231 0.03137,0.01611 0.06614,0.02374 0.07123,0.01187 0.07631,8.48e-4 0.07971,-0.01102 0.08225,-0.0212 0.08479,-0.03307 0.08564,-0.04494 0.08479,-0.05342 0.08479,-0.06444 0.08225,-0.07292 0.07971,-0.0814 0.07631,-0.08903 0.07123,-0.09581 0.06614,-0.09921 0.0602,-0.105143 0.05427,-0.106839 0.04664,-0.109382 0.039,-0.111078 0.03052,-0.11023 0.02205,-0.107687 0.01357,-0.105142 0.0042,-0.100903 m 0,0 0,-0.172129 m -2.719294,1.569509 -6.118625,-3.531607 m 6.118625,3.531607 0.60033,-0.346802 m -1.993471,1.989232 0.03137,0.01611 0.06614,0.02374 0.07122,0.01272 0.07631,8.48e-4 0.08055,-0.01102 0.0814,-0.02205 0.08479,-0.03307 0.08564,-0.04409 0.08479,-0.05427 0.08479,-0.06444 0.0814,-0.07377 0.08055,-0.08055 0.07631,-0.08818 0.07123,-0.09582 0.06614,-0.09921 0.0602,-0.105143 0.05427,-0.107686 0.04664,-0.109382 0.039,-0.11023 0.03053,-0.110231 0.02205,-0.107686 0.01357,-0.105143 0.0042,-0.100903 M 3.3500756,66.122034 4.1216871,66.567194 M 31.36466,32.597638 l 0,-0.172976 m -2.719295,1.569508 -6.118624,-3.531606 m 6.118624,3.531606 0.600331,-0.345953 m -1.993471,1.989231 0.03137,0.01526 0.06614,0.02459 0.07207,0.01187 0.07547,8.48e-4 0.07971,-0.01018 0.08225,-0.02289 0.08479,-0.03307 0.08564,-0.04409 0.08479,-0.05427 0.08479,-0.06444 0.08225,-0.07292 0.07971,-0.08055 0.07631,-0.08903 0.07123,-0.09582 0.06614,-0.100055 0.0602,-0.104295 0.05427,-0.107686 0.04664,-0.109383 0.03816,-0.111078 0.03137,-0.109382 0.02205,-0.107686 0.01357,-0.105143 0.0042,-0.100903 m 0,0 0,-0.172977 M 2.1477994,64.004763 2.9948761,64.493167 m 5.5725612,2.73371 0.047484,-0.06529 0.067834,-0.100055 0.061051,-0.103447 0.054267,-0.107686 0.047484,-0.109382 0.039852,-0.110231 0.031373,-0.109382 0.022894,-0.108534 0.014415,-0.105143 0.00594,-0.101751 -0.00339,-0.09666 -0.012719,-0.09073 -0.021198,-0.0831 -0.029677,-0.07546 -0.038157,-0.06699 -0.045788,-0.05681 -0.053419,-0.04664 -0.035613,-0.02289 M 25.925304,35.564524 19.807527,32.032917 m 6.117777,3.531607 0.60033,-0.346801 m -1.992623,1.989231 0.03137,0.01611 0.06614,0.02374 0.07122,0.01272 0.07631,8.48e-4 0.08055,-0.01102 0.0814,-0.02205 0.08479,-0.03307 0.08564,-0.04409 0.08479,-0.05512 0.08479,-0.06359 0.0814,-0.07377 0.08055,-0.08055 0.07546,-0.08903 0.07207,-0.09497 0.06614,-0.09921 0.0602,-0.10599 0.05427,-0.106839 0.04664,-0.109382 0.03816,-0.111078 0.03137,-0.11023 0.02205,-0.106839 0.01357,-0.105143 0.0034,-0.101751 m 0,0 0,-0.172128 M 1.4406302,61.386371 7.5592548,64.917978 m 0.014415,0.08649 -0.014415,-0.08649 m 0.1254929,-0.08734 0.083945,-0.06444 0.083097,-0.07292 0.079705,-0.0814 0.075465,-0.08903 0.071226,-0.09497 0.066986,-0.100903 0.059355,-0.104295 0.054267,-0.107686 0.045788,-0.11023 0.039005,-0.110231 0.029677,-0.109382 0.022894,-0.108534 0.012719,-0.104295 0.00424,-0.101751 -0.00509,-0.09497 -0.012719,-0.08988 -0.022894,-0.08225 -0.030525,-0.07377 -0.039853,-0.06614 -0.045788,-0.05512 -0.054267,-0.04494 -0.027981,-0.01781 M 23.206009,37.133184 17.088233,33.601578 m 6.117776,3.531606 0.600331,-0.345953 m -1.992623,1.989231 0.03137,0.01611 0.06614,0.02374 0.07207,0.01272 0.07547,0 0.07971,-0.0093 0.08225,-0.02289 0.08479,-0.03307 0.08564,-0.04409 0.08479,-0.05427 0.08479,-0.06444 0.08225,-0.07292 0.0797,-0.0814 0.07631,-0.08818 0.07123,-0.09582 0.06614,-0.100055 0.0602,-0.105143 0.05427,-0.106838 0.04664,-0.11023 0.03816,-0.110231 0.03137,-0.109382 0.02205,-0.107686 0.01357,-0.104295 0.0034,-0.102599 M 7.5592548,64.917978 7.6847477,64.830641 m 15.5212613,-27.52448 0,-0.172977 M 1.2557826,58.365219 7.3744072,61.89767 m -0.00594,0.582524 0,-0.108534 8.48e-4,-0.157714 0.0017,-0.157714 0.00339,-0.158562 m 0.1246449,-0.05935 0.08564,-0.04664 0.08564,-0.05512 0.083945,-0.06614 0.081401,-0.07462 0.079705,-0.08225 0.075465,-0.08988 0.070378,-0.09582 0.06529,-0.101751 0.060203,-0.105142 0.051723,-0.107687 0.045788,-0.109382 0.037309,-0.11023 0.029677,-0.109382 0.02035,-0.107687 0.011871,-0.104295 0.00339,-0.100903 -0.00594,-0.09497 -0.015263,-0.08818 -0.023742,-0.08225 -0.031373,-0.07292 -0.0407,-0.06275 -0.046636,-0.05427 -0.055115,-0.04409 -0.02035,-0.01272 m 10.9679069,-19.41578 0.039,0.0195 0.06699,0.02289 0.07207,0.01017 0.07631,0 0.08055,-0.01187 0.08225,-0.02374 0.08479,-0.03477 0.08564,-0.04579 0.08479,-0.05427 0.08394,-0.06614 0.08225,-0.07377 0.07971,-0.08225 0.07546,-0.08988 0.07123,-0.09582 0.06529,-0.100903 0.0602,-0.105143 0.05257,-0.107686 0.04579,-0.109383 0.03816,-0.11023 0.02883,-0.109382 0.0212,-0.107687 0.01187,-0.105142 0.0034,-0.100055 -0.0051,-0.09582 m -0.01441,-0.135668 -6.118625,-3.531606 m 6.118625,3.531606 0.101751,-0.06529 0.101751,-0.06444 0.102598,-0.06275 0.101751,-0.06359 0.101751,-0.06275 0.09073,-0.05342 M 7.3744072,61.89767 7.4990521,61.838315 M 20.502825,38.866339 20.488411,38.730671 m -12.6510369,19.829567 0.083945,-0.02459 0.084792,-0.03646 0.084793,-0.04833 0.08564,-0.05681 0.083097,-0.06699 0.082249,-0.07631 0.078857,-0.0831 0.074617,-0.09073 0.070378,-0.09751 0.064442,-0.100903 0.058507,-0.105991 0.051723,-0.107686 0.044092,-0.11023 0.036461,-0.110231 0.027981,-0.109382 0.019502,-0.106839 0.011023,-0.104294 0.0017,-0.100055 -0.00678,-0.09412 -0.016111,-0.08734 -0.025438,-0.0797 -0.033069,-0.07207 -0.0407,-0.06275 -0.048332,-0.05257 -0.055963,-0.04324 -0.011871,-0.0068 m -7.0437105,-1.467758 6.1186246,3.531607 m -0.1475389,0.936956 0.012719,-0.08988 0.023742,-0.168737 0.025438,-0.168737 0.027134,-0.169585 0.028829,-0.169584 0.029677,-0.170433 m 8.7734777,-15.969814 0.03053,0.01611 0.06614,0.02374 0.07123,0.01272 0.07631,8.48e-4 0.0797,-0.01102 0.08225,-0.0212 0.08394,-0.03392 0.08564,-0.04324 0.08479,-0.05512 0.08479,-0.06275 0.08225,-0.07377 0.07971,-0.0814 0.07631,-0.08818 0.07207,-0.09497 0.06614,-0.100055 0.06105,-0.105142 0.05427,-0.106839 0.04579,-0.109382 0.039,-0.11023 0.03053,-0.110231 0.02289,-0.107686 0.01272,-0.105143 0.0051,-0.101751 -0.0042,-0.09666 -0.01272,-0.08903 -0.02289,-0.0831 m -0.039,-0.11447 -6.117777,-3.532454 m 6.117777,3.532454 0.132276,-0.11447 0.132276,-0.114469 0.132277,-0.111926 0.132276,-0.111079 0.133124,-0.109382 0.09921,-0.07971 M 7.7178167,58.589068 7.8373741,58.560238 m 10.0072069,-17.678382 -0.039,-0.11447 m -9.1177344,14.354518 0.078009,-0.0042 0.080553,-0.01611 0.083944,-0.02629 0.084793,-0.03731 0.08564,-0.04918 0.083945,-0.05935 0.083944,-0.06783 0.081401,-0.07631 0.078009,-0.08479 0.074617,-0.09242 0.06953,-0.09666 0.063594,-0.102599 0.057659,-0.105991 0.050876,-0.109382 0.043244,-0.109382 0.034765,-0.11023 0.027134,-0.108535 0.018654,-0.107686 0.00933,-0.103447 8.48e-4,-0.09836 -0.00848,-0.09412 -0.017806,-0.08649 -0.025438,-0.07971 -0.033917,-0.06953 -0.042396,-0.0619 -0.04918,-0.05088 -0.057659,-0.04155 -0.00424,-0.0025 m 4.3888574,-7.79158 0.0212,0.01187 0.06614,0.02459 0.07038,0.01441 0.07547,0.0025 0.07886,-0.0085 0.08225,-0.02035 0.08479,-0.03137 0.08479,-0.04324 0.08564,-0.05257 0.08394,-0.06275 0.0831,-0.07122 0.08055,-0.08055 0.07631,-0.08734 0.07207,-0.09412 0.06783,-0.100055 0.06105,-0.104295 0.05427,-0.106838 0.04833,-0.109383 0.03985,-0.11023 0.03137,-0.11023 0.02374,-0.107686 0.01526,-0.105991 0.0051,-0.101751 -0.0025,-0.09666 -0.01187,-0.09073 -0.0212,-0.08394 -0.02883,-0.07546 -0.03816,-0.06699 M 2.4581398,51.586905 8.5767644,55.11936 m -0.3434095,1.169288 0.033069,-0.119557 0.048332,-0.174673 0.050028,-0.174672 0.050875,-0.175521 0.052571,-0.174672 0.053419,-0.175521 0.055115,-0.174672 M 15.256715,43.317096 9.1389385,39.785489 m 6.1177765,3.531607 0.122949,-0.138212 0.122949,-0.137364 0.123797,-0.135668 0.124645,-0.13482 0.124645,-0.133972 0.125493,-0.133124 0.103447,-0.108534 m -6.088099,9.257642 0.06953,0.01696 0.07462,0.0059 0.07716,-0.0059 0.0814,-0.01696 0.08394,-0.02883 0.08479,-0.03985 0.08564,-0.04918 0.08564,-0.0602 0.08225,-0.06953 0.0814,-0.07716 0.07801,-0.08564 0.07377,-0.09327 0.06868,-0.09836 0.06275,-0.103447 0.05681,-0.10599 0.04918,-0.109383 0.0424,-0.109382 0.03392,-0.109382 0.02628,-0.109382 0.01696,-0.105991 0.0076,-0.102599 0,-0.09921 -0.0093,-0.09242 -0.01865,-0.08564 -0.02713,-0.07716 -0.03561,-0.06953 -0.0424,-0.06105 -0.05088,-0.04918 -0.05342,-0.03731 m 0.717344,-1.306652 0.01272,0.0068 0.06444,0.02629 0.07038,0.01611 0.07462,0.0042 0.07886,-0.0068 0.0814,-0.0195 0.08479,-0.03053 0.08479,-0.03985 0.08564,-0.05172 0.08394,-0.0619 0.0831,-0.07038 0.0814,-0.07886 0.07631,-0.08734 0.07292,-0.09242 0.06868,-0.09921 0.0619,-0.103447 0.05596,-0.106839 0.04833,-0.109382 0.04155,-0.109382 0.03307,-0.11023 0.02459,-0.108535 0.01611,-0.10599 0.0068,-0.102599 -0.0017,-0.09836 -0.01102,-0.09073 -0.0195,-0.08479 -0.02798,-0.07631 -0.03646,-0.06953 -0.04494,-0.05851 -0.05087,-0.04748 m -4.4422776,8.769237 0.1110782,0.0025 m 6.6299234,-11.713232 -0.06105,-0.09158 m -11.4571583,4.769576 6.1186246,3.532455 m -0.551151,1.293085 0.029677,-0.07377 0.071226,-0.174672 0.072074,-0.174673 0.073769,-0.173824 0.074617,-0.174673 0.075465,-0.173824 0.076313,-0.174673 0.078009,-0.172976 M 12.937641,46.284832 6.8190165,42.753226 m 6.1186245,3.531606 0.108535,-0.156018 0.11023,-0.156018 0.11023,-0.154322 0.111926,-0.154323 0.111078,-0.153474 0.113622,-0.151778 0.113622,-0.151779 0.05681,-0.07631 m -2.826133,4.404121 0.07886,-0.144995 0.09242,-0.16789 0.09327,-0.168737 0.09412,-0.167041 0.09497,-0.167041 0.09581,-0.166193 0.09751,-0.166193 0.08818,-0.148387 m -1.7645317,3.380676 0.09836,0.03392 m 3.002501,-5.302921 -0.0814,-0.06529"
         style="fill:none;stroke:#231f20;stroke-width:0.16;stroke-linecap:round;stroke-linejoin:round;stroke-miterlimit:10;stroke-dasharray:none;stroke-opacity:1"
         id="path240-2"
         inkscape:connector-curvature="0" /><path
         d="m 68.509948,31.435558 -0.08818,-0.05172 m 0.812311,-1.262559 -0.08818,-0.05172 m -2.720142,4.533006 -0.08988,-0.05088 m 4.454148,-7.862806 -0.09158,-0.05342 m -6.642642,10.800865 -0.09581,-0.05427 m 7.934031,-14.160343 -0.09921,-0.05596 m -10.303981,16.662568 -0.105991,-0.0619 M 72.507065,19.85545 72.395139,19.791008 M 58.846998,41.680184 58.699459,41.593696 M 72.608816,16.717281 72.474844,16.638424 M 56.129399,43.250541 55.980164,43.164052 M 72.206899,13.931 72.031379,13.829249 m -18.622122,30.9908 -0.148387,-0.08649 M 71.347952,11.624645 71.081703,11.470323 M 50.69081,46.389558 50.541575,46.303917 m -2.570907,1.655997 -0.148387,-0.08649 M 70.219364,9.9720399 69.662277,9.6515243 M 45.251373,49.529423 45.102138,49.442935 M 68.576934,8.8722815 67.82652,8.4398399 M 42.532927,51.09978 42.383692,51.013291 M 66.423205,8.3304576 65.64481,7.8819055 M 39.813632,52.669288 39.663549,52.5828 m -2.569211,1.656845 -0.150083,-0.08649 M 64.117698,8.528872 63.197699,7.9989191 M 34.375043,55.809153 34.22496,55.723513 M 66.699628,12.319095 60.581004,8.7874891 M 31.655749,57.37951 31.505666,57.292174 M 58.954684,9.7320772 58.695219,9.5828424 M 63.996444,13.758872 57.87782,10.226417 M 28.936454,58.948171 28.786371,58.86253 M 61.27715,15.329228 55.158525,11.796774 M 26.217159,60.518529 26.067077,60.43204 M 58.557855,16.898737 52.439231,13.366282 M 23.497865,62.088037 23.347782,62.002397 M 55.838561,18.469093 49.719936,14.936639 M 20.77857,63.658394 20.628488,63.571058 M 53.119266,20.03945 47.000642,16.506996 m 3.39933,5.101962 -6.118625,-3.533302 M 17.510669,65.544178 17.361434,65.45769 M 47.680677,23.178467 41.562053,19.646013 m -26.776614,47.46513 -0.129733,-0.07546 M 44.961383,24.747976 38.842758,21.215521 M 12.156872,68.249906 11.989831,68.154091 M 42.242088,26.318332 36.123464,22.785878 M 9.691955,68.754421 9.4452089,68.612818 M 39.521946,27.886993 33.404169,24.354539 M 7.5992768,68.672173 7.1193515,68.394901 M 36.802651,29.457349 30.684875,25.924895 m 3.398482,5.102811 -6.117777,-3.532454 M 5.8500082,67.942957 5.0987469,67.50882 M 31.364062,32.597215 25.246286,29.06476 M 4.2296241,66.432804 3.4605564,65.989339 M 28.644768,34.166723 22.526991,30.635117 M 3.1519118,64.402024 2.2683743,63.892421 M 25.925473,35.736232 19.806849,32.204625 M 7.6849172,64.831074 1.5662926,61.29862 M 23.206179,37.306588 17.087554,33.774982 M 7.4992217,61.8379 1.381445,58.305444 M 15.46717,34.862022 15.186507,34.700068 M 20.502995,38.86677 14.38437,35.335163 M 7.8383916,58.559821 1.7189191,55.028215 M 17.844751,40.882287 11.726126,37.350681 M 8.6880122,55.121486 2.5693875,51.58988 M 15.318783,43.409102 9.1993108,39.876648 M 10.01671,51.652626 3.8980855,48.12102 M 13.019212,46.349705 6.899739,42.817251"
         style="fill:none;stroke:#231f20;stroke-width:0.16;stroke-linecap:round;stroke-linejoin:round;stroke-miterlimit:10;stroke-dasharray:none;stroke-opacity:1"
         id="path244-2"
         inkscape:connector-curvature="0" /></g></g></svg>