<?xml version="1.0" encoding="UTF-8" standalone="no"?>
<svg
   xmlns:dc="http://purl.org/dc/elements/1.1/"
   xmlns:cc="http://creativecommons.org/ns#"
   xmlns:rdf="http://www.w3.org/1999/02/22-rdf-syntax-ns#"
   xmlns:svg="http://www.w3.org/2000/svg"
   xmlns="http://www.w3.org/2000/svg"
   xmlns:xlink="http://www.w3.org/1999/xlink"
   xmlns:sodipodi="http://sodipodi.sourceforge.net/DTD/sodipodi-0.dtd"
   xmlns:inkscape="http://www.inkscape.org/namespaces/inkscape"
   viewBox="0 0 354.33069 248.03152"
   height="70mm"
   width="100mm"
   xml:space="preserve"
   version="1.1"
   id="svg2"
   inkscape:version="0.91 r13725"
   sodipodi:docname="happy_face.svg"
   inkscape:export-filename="C:\Users\bogaert-b\apps\nordic\static\app\images\happy_face.png"
   inkscape:export-xdpi="127"
   inkscape:export-ydpi="127"><sodipodi:namedview
     pagecolor="#ffffff"
     bordercolor="#666666"
     borderopacity="1"
     objecttolerance="10"
     gridtolerance="10"
     guidetolerance="10"
     inkscape:pageopacity="0"
     inkscape:pageshadow="2"
     inkscape:window-width="1920"
     inkscape:window-height="1018"
     id="namedview3215"
     showgrid="false"
     inkscape:zoom="2.0000001"
     inkscape:cx="73.501415"
     inkscape:cy="132.50667"
     inkscape:window-x="-8"
     inkscape:window-y="-8"
     inkscape:window-maximized="1"
     inkscape:current-layer="svg2"
     inkscape:showpageshadow="false"
     showborder="true" /><metadata
     id="metadata8"><rdf:RDF><cc:Work
         rdf:about=""><dc:format>image/svg+xml</dc:format><dc:type
           rdf:resource="http://purl.org/dc/dcmitype/StillImage" /><dc:title /></cc:Work></rdf:RDF></metadata><defs
     id="defs6"><linearGradient
       inkscape:collect="always"
       id="linearGradient4443"><stop
         style="stop-color:#ff0000;stop-opacity:1;"
         offset="0"
         id="stop4445" /><stop
         style="stop-color:#ff0000;stop-opacity:0;"
         offset="1"
         id="stop4447" /></linearGradient><clipPath
       id="clipPath16"
       clipPathUnits="userSpaceOnUse"><path
         id="path18"
         d="m 0,400 399.686,0 0,-400 L 0,0 0,400 Z"
         inkscape:connector-curvature="0" /></clipPath><clipPath
       id="clipPath24"
       clipPathUnits="userSpaceOnUse"><path
         id="path26"
         d="m -7.74023,403.219 626.91323,0 0,-416.3655 -626.91323,0 0,416.3655 z"
         inkscape:connector-curvature="0" /></clipPath><clipPath
       id="clipPath2612"
       clipPathUnits="userSpaceOnUse"><path
         id="path2614"
         d="m 152.713,174 246.973,0 0,226 -246.973,0 0,-226 z"
         inkscape:connector-curvature="0" /></clipPath><clipPath
       id="clipPath6476"
       clipPathUnits="userSpaceOnUse"><path
         id="path6478"
         d="m 0,400 399.686,0 0,-400 L 0,0 0,400 Z"
         inkscape:connector-curvature="0" /></clipPath><clipPath
       id="clipPath6488"
       clipPathUnits="userSpaceOnUse"><path
         id="path6490"
         d="m 100.553,254.707 c -6.105,0 -11.054,-4.95 -11.054,-11.055 l 0,0 0,-51.591 c 0,-6.106 4.949,-11.056 11.054,-11.056 l 0,0 51.59,0 c 6.106,0 11.055,4.95 11.055,11.056 l 0,0 0,51.591 c 0,6.105 -4.949,11.055 -11.055,11.055 l 0,0 -51.59,0 z"
         inkscape:connector-curvature="0" /></clipPath><clipPath
       id="clipPath10284"
       clipPathUnits="userSpaceOnUse"><path
         id="path10286"
         d="m 0,400 399.686,0 0,-400 L 0,0 0,400 Z"
         inkscape:connector-curvature="0" /></clipPath><clipPath
       id="clipPath10364"
       clipPathUnits="userSpaceOnUse"><path
         id="path10366"
         d="m 108.37,191.577 26.796,0 0,-22.827 -26.796,0 0,22.827 z"
         inkscape:connector-curvature="0" /></clipPath><clipPath
       id="clipPath4764"
       clipPathUnits="userSpaceOnUse"><path
         id="path4766-6"
         d="m 133.042,338.09 224.153,0 0,133.229 -224.153,0 0,-133.229 z"
         inkscape:connector-curvature="0" /></clipPath><clipPath
       id="clipPath4764-5"
       clipPathUnits="userSpaceOnUse"><path
         id="path4766-6-8"
         d="m 133.042,338.09 224.153,0 0,133.229 -224.153,0 0,-133.229 z"
         inkscape:connector-curvature="0" /></clipPath><linearGradient
       inkscape:collect="always"
       id="linearGradient5759"><stop
         style="stop-color:#ff0000;stop-opacity:1;"
         offset="0"
         id="stop5761" /><stop
         style="stop-color:#ff0000;stop-opacity:0;"
         offset="1"
         id="stop5763" /></linearGradient><linearGradient
       inkscape:collect="always"
       xlink:href="#linearGradient5759"
       id="linearGradient4609"
       x1="-1.0765296"
       y1="6.2692337"
       x2="-0.46039709"
       y2="-25.913483"
       gradientUnits="userSpaceOnUse" /><linearGradient
       inkscape:collect="always"
       xlink:href="#linearGradient5759"
       id="linearGradient5803"
       x1="-0.95309883"
       y1="7.0038137"
       x2="-0.45651996"
       y2="-25.951071"
       gradientUnits="userSpaceOnUse" /><linearGradient
       inkscape:collect="always"
       xlink:href="#linearGradient4443"
       id="linearGradient4463"
       x1="-0.92572749"
       y1="6.2897625"
       x2="-1.0574352"
       y2="-26.358847"
       gradientUnits="userSpaceOnUse" /><symbol
       id="RoundedBalloon"
       style="stroke-linejoin:miter;stroke-miterlimit:10"><title
         id="title6389">Rounded Balloon</title><rect
         x="80"
         y="65"
         width="250"
         height="120"
         rx="32"
         style="stroke:none"
         id="rect6391" /><path
         d="m 124,179 -30,53 78,-53"
         style="stroke:none"
         id="path6393"
         inkscape:connector-curvature="0" /><rect
         x="75"
         y="60"
         width="250"
         height="120"
         rx="30"
         style="fill:#eeeeee;stroke-width:3.5"
         id="rect6395" /><path
         d="m 120,175 -30,53 78,-53"
         style="fill:#eeeeee;stroke-width:3.5"
         id="path6397"
         inkscape:connector-curvature="0" /><rect
         x="80"
         y="65"
         width="235"
         height="105"
         rx="25"
         style="fill:#ffffff;stroke:none"
         id="rect6399" /><path
         d="m 132,160 -30,53 78,-53"
         style="fill:#ffffff;stroke:none"
         id="path6401"
         inkscape:connector-curvature="0" /></symbol><symbol
       id="SquaredBalloon"
       style="stroke-linejoin:miter;stroke-miterlimit:10"><title
         id="title6404">Squared Balloon</title><rect
         x="80"
         y="65"
         width="250"
         height="140"
         rx="17"
         style="stroke:none"
         id="rect6406" /><path
         d="m 126,199 25,43 30,-43"
         style="stroke:none"
         id="path6408"
         inkscape:connector-curvature="0" /><rect
         x="75"
         y="60"
         width="250"
         height="140"
         rx="15"
         style="fill:#eeeeee;stroke-width:3.5"
         id="rect6410" /><path
         d="m 120,195 25,43 30,-43"
         style="fill:#eeeeee;stroke-width:3.5"
         id="path6412"
         inkscape:connector-curvature="0" /><rect
         x="80"
         y="65"
         width="235"
         height="125"
         rx="10"
         style="fill:#ffffff;stroke:none"
         id="rect6414" /><path
         d="m 118,180 25,43 30,-43"
         style="fill:#ffffff;stroke:none"
         id="path6416"
         inkscape:connector-curvature="0" /></symbol><symbol
       id="CircleBalloon"
       style="stroke-linejoin:miter;stroke-miterlimit:10"><title
         id="title6449">Circle Balloon</title><ellipse
         cx="205"
         cy="125"
         rx="125"
         ry="70"
         style="stroke:none"
         id="ellipse6451" /><path
         d="m 110,166 c 11,21 -10,30 -22,43 32,-3 59,-7 70,-26"
         style="stroke:none"
         id="path6453"
         inkscape:connector-curvature="0" /><ellipse
         cx="200"
         cy="120"
         rx="125"
         ry="70"
         style="fill:#eeeeee;stroke-width:3.5"
         id="ellipse6455" /><path
         d="m 106,162 c 11,21 -10,30 -22,43 32,-3 59,-7 70,-26"
         style="fill:#eeeeee;stroke-width:3.5"
         id="path6457"
         inkscape:connector-curvature="0" /><ellipse
         cx="197"
         cy="117"
         rx="117"
         ry="63"
         style="fill:#ffffff;stroke:none"
         id="ellipse6459" /><path
         d="m 103,149 c 14,25 9,34 -6,47 30,-3 50,-10 58,-31"
         style="fill:#ffffff;stroke:none"
         id="path6461"
         inkscape:connector-curvature="0" /></symbol><symbol
       id="Store"><title
         id="title8123">Store</title><g
         style="stroke:none"
         id="g8125"><rect
           x="18"
           y="9"
           width="9"
           height="3.5"
           id="rect8127" /><path
           d="M 9.125,22.25 C 9.125,21.5 9.375,21 9.75,20.5 L 14,15.25 C 14.5,14.625 15.375,14 16.25,14 l 11.25,0 c 3.375,0 6,3.625 6,7 l 0,40.5 c 0,1 -1,2 -2,2 l -20.25,0 c -1,0 -2,-1 -2,-2 z M 11.5,33 c 0,1.25 1.625,2.375 2.75,1 L 17.5,29.75 C 17.875,29.25 18,29 18,28.5 L 18,18 c 0,-3 -3,-0.5 -3.75,0.5 L 12,21.25 c -0.5,0.625 -0.5,1 -0.5,1.25 z"
           id="path8129"
           inkscape:connector-curvature="0" /><path
           d="m 49,40 c 0,0 -1,-10 11,-11 0,0 -0.5,12 -11,11 z"
           id="path8131"
           inkscape:connector-curvature="0" /><path
           d="m 52,44.5 c 1.25,-1.25 3.5,-2 5.25,-2 4.25,0 7.5,3.5 7.5,7.125 C 64.75,53.5 60.5,64 55.75,64 54.25,64 52.5,63 52,62 c -0.5,1 -2.25,2 -3.75,2 -4.75,0 -9,-10.5 -9,-14.375 0,-3.625 3.25,-7.125 7.5,-7.125 1.75,0 4,0.75 5.25,2 z"
           id="path8133"
           inkscape:connector-curvature="0" /></g></symbol><symbol
       id="ExclaimBalloon"
       style="stroke-linejoin:miter;stroke-miterlimit:10"><title
         id="title6464">Exclaim Balloon</title><path
         d="m 117,183 -88,110 146,-98 10,31 53,-46 39,49 0,-46 69,28 -29,-57 66,-33 -68,-23.9 29,-58 -58,29 -15,-46 -48,46 -18,-42 -35,42 -20,-42 -33,40 -36.2,-42 0,50 -55,-2 42,42 -42,29 48,9 -24,46 z"
         style="stroke:none"
         id="path6466"
         inkscape:connector-curvature="0" /><path
         d="m 110,177 -88,110 146,-98 10,31 53,-46 39,49 0,-46 69,28 -29,-57 66,-33 -68,-23.9 29,-58 -58,29 -15,-46 -48,46 -18,-42 -35,42 -20,-42 -33,40 -36.2,-42 0,50 -55,-2 42,42 -42,29 48,9 -24,46 z"
         style="fill:#eeeeee;stroke-width:3.5"
         id="path6468"
         inkscape:connector-curvature="0" /><path
         d="m 122,166 -82,102 129,-89 9,28 52,-45 30,39 0,-38 58,23 -24,-45 57,-28 L 295,93 318,46 271,69 257,27 210,71 193,31 160,71 139,27 108,65 75.1,27 l 0,43 -46,-2 38,38 -36,25 43,8 -21,41 z"
         style="fill:#ffffff;stroke:none"
         id="path6470"
         inkscape:connector-curvature="0" /></symbol></defs><g
     id="g10376"
     transform="matrix(-2.2891124,0.04429711,0.04636631,2.2895904,266.00476,140.24107)"
     style="fill:#ff0000;fill-opacity:1;stroke:#464646;stroke-width:0.21835969;stroke-miterlimit:4;stroke-dasharray:none;stroke-opacity:1" /><path
     inkscape:connector-curvature="0"
     style="fill:#000000"
     d="m 177.16533,199.01576 c 41.41875,0 75.00001,-33.58124 75.00001,-75 0,-41.418748 -33.58126,-74.999999 -75.00001,-74.999999 -41.41875,0 -75,33.581251 -75,74.999999 0,41.41876 33.58125,75 75,75 z m 0,-135.937498 c 33.65625,0 60.93751,27.28125 60.93751,60.937498 0,33.65625 -27.28126,60.9375 -60.93751,60.9375 -33.65625,0 -60.9375,-27.28125 -60.9375,-60.9375 0,-33.656248 27.28125,-60.937498 60.9375,-60.937498 z m 0,73.649998 c 16.9875,0 33.14062,-4.50937 46.875,-12.44062 -2.1375,26.1375 -22.43438,46.60313 -46.875,46.60313 -24.44063,0 -44.7375,-20.49376 -46.875,-46.62188 13.73437,7.92187 29.8875,12.45937 46.875,12.45937 z m -37.5,-36.15 c 0,-7.762498 4.2,-14.062497 9.375,-14.062497 5.175,0 9.375,6.299999 9.375,14.062497 0,7.7625 -4.2,14.0625 -9.375,14.0625 -5.175,0 -9.375,-6.3 -9.375,-14.0625 z m 56.25,0 c 0,-7.762498 4.2,-14.062497 9.375,-14.062497 5.175,0 9.375,6.299999 9.375,14.062497 0,7.7625 -4.2,14.0625 -9.375,14.0625 -5.175,0 -9.375,-6.3 -9.375,-14.0625 z"
     id="path4" /></svg>