<?xml version="1.0" encoding="UTF-8" standalone="no"?>
<svg
   xmlns:dc="http://purl.org/dc/elements/1.1/"
   xmlns:cc="http://creativecommons.org/ns#"
   xmlns:rdf="http://www.w3.org/1999/02/22-rdf-syntax-ns#"
   xmlns:svg="http://www.w3.org/2000/svg"
   xmlns="http://www.w3.org/2000/svg"
   xmlns:xlink="http://www.w3.org/1999/xlink"
   xmlns:sodipodi="http://sodipodi.sourceforge.net/DTD/sodipodi-0.dtd"
   xmlns:inkscape="http://www.inkscape.org/namespaces/inkscape"
   viewBox="0 0 230.31495 194.88191"
   height="55mm"
   width="65mm"
   xml:space="preserve"
   version="1.1"
   id="svg2"
   inkscape:version="0.91 r13725"
   sodipodi:docname="m25s_vb_motor_bottom_limit.svg"
   inkscape:export-filename="C:\Users\bogaert-b\apps\nordic\static\app\images\m25t_motor_button_push_top_limit_rollo.png"
   inkscape:export-xdpi="127"
   inkscape:export-ydpi="127"><sodipodi:namedview
     pagecolor="#ffffff"
     bordercolor="#666666"
     borderopacity="1"
     objecttolerance="10"
     gridtolerance="10"
     guidetolerance="10"
     inkscape:pageopacity="0"
     inkscape:pageshadow="2"
     inkscape:window-width="1920"
     inkscape:window-height="1018"
     id="namedview3215"
     showgrid="false"
     inkscape:zoom="1.4142136"
     inkscape:cx="155.52603"
     inkscape:cy="123.94646"
     inkscape:window-x="-8"
     inkscape:window-y="-8"
     inkscape:window-maximized="1"
     inkscape:current-layer="svg2"
     inkscape:showpageshadow="false"
     showborder="true" /><metadata
     id="metadata8"><rdf:RDF><cc:Work
         rdf:about=""><dc:format>image/svg+xml</dc:format><dc:type
           rdf:resource="http://purl.org/dc/dcmitype/StillImage" /><dc:title /></cc:Work></rdf:RDF></metadata><defs
     id="defs6"><clipPath
       id="clipPath16"
       clipPathUnits="userSpaceOnUse"><path
         id="path18"
         d="m 0,400 399.686,0 0,-400 L 0,0 0,400 Z"
         inkscape:connector-curvature="0" /></clipPath><clipPath
       id="clipPath24"
       clipPathUnits="userSpaceOnUse"><path
         id="path26"
         d="m -7.74023,403.219 626.91323,0 0,-416.3655 -626.91323,0 0,416.3655 z"
         inkscape:connector-curvature="0" /></clipPath><clipPath
       id="clipPath2612"
       clipPathUnits="userSpaceOnUse"><path
         id="path2614"
         d="m 152.713,174 246.973,0 0,226 -246.973,0 0,-226 z"
         inkscape:connector-curvature="0" /></clipPath><clipPath
       id="clipPath6476"
       clipPathUnits="userSpaceOnUse"><path
         id="path6478"
         d="m 0,400 399.686,0 0,-400 L 0,0 0,400 Z"
         inkscape:connector-curvature="0" /></clipPath><clipPath
       id="clipPath6488"
       clipPathUnits="userSpaceOnUse"><path
         id="path6490"
         d="m 100.553,254.707 c -6.105,0 -11.054,-4.95 -11.054,-11.055 l 0,0 0,-51.591 c 0,-6.106 4.949,-11.056 11.054,-11.056 l 0,0 51.59,0 c 6.106,0 11.055,4.95 11.055,11.056 l 0,0 0,51.591 c 0,6.105 -4.949,11.055 -11.055,11.055 l 0,0 -51.59,0 z"
         inkscape:connector-curvature="0" /></clipPath><clipPath
       id="clipPath10284"
       clipPathUnits="userSpaceOnUse"><path
         id="path10286"
         d="m 0,400 399.686,0 0,-400 L 0,0 0,400 Z"
         inkscape:connector-curvature="0" /></clipPath><clipPath
       id="clipPath10364"
       clipPathUnits="userSpaceOnUse"><path
         id="path10366"
         d="m 108.37,191.577 26.796,0 0,-22.827 -26.796,0 0,22.827 z"
         inkscape:connector-curvature="0" /></clipPath><clipPath
       id="clipPath4764"
       clipPathUnits="userSpaceOnUse"><path
         id="path4766-6"
         d="m 133.042,338.09 224.153,0 0,133.229 -224.153,0 0,-133.229 z"
         inkscape:connector-curvature="0" /></clipPath><clipPath
       id="clipPath4764-5"
       clipPathUnits="userSpaceOnUse"><path
         id="path4766-6-8"
         d="m 133.042,338.09 224.153,0 0,133.229 -224.153,0 0,-133.229 z"
         inkscape:connector-curvature="0" /></clipPath><linearGradient
       id="linearGradient4539"
       inkscape:collect="always"><stop
         id="stop4549"
         offset="0"
         style="stop-color:#ff0000;stop-opacity:1;" /><stop
         id="stop4551"
         offset="1"
         style="stop-color:#ff0000;stop-opacity:0;" /></linearGradient><linearGradient
       inkscape:collect="always"
       xlink:href="#linearGradient4539"
       id="linearGradient9829"
       x1="0.16203727"
       y1="-0.086486757"
       x2="-0.17053355"
       y2="-21.945004"
       gradientUnits="userSpaceOnUse" /></defs><g
     id="g8234"
     transform="translate(0,16.215996)"><path
       inkscape:connector-curvature="0"
       id="path42472-3-8-1"
       style="fill:none;stroke:#000e0e;stroke-width:0.44397089;stroke-linecap:butt;stroke-linejoin:miter;stroke-miterlimit:2;stroke-dasharray:none;stroke-opacity:1"
       d="m 123.1173,150.61452 0.24232,0.1377 0.25256,0.137 0.26357,0.1371 0.27673,0.1384 0.29064,0.1393 0.0366,0.014 0.30969,0.142 0.3126,0.1371 0.31554,0.1332 0.31846,0.1283 0.32139,0.1231 0.32359,0.1186 0.32651,0.1135 0.32798,0.1091 0.33019,0.1041 0.33237,0.099 0.33384,0.094 0.33529,0.089 0.33678,0.083 0.014,0 0.3375,0.078 0.33823,0.073" /><path
       inkscape:connector-curvature="0"
       id="path42478-0-0-0"
       style="fill:none;stroke:#000e0e;stroke-width:0.44397089;stroke-linecap:butt;stroke-linejoin:miter;stroke-miterlimit:2;stroke-dasharray:none;stroke-opacity:1"
       d="m 129.39335,152.95022 117.00164,-33.1989" /><path
       inkscape:connector-curvature="0"
       id="path31847-5-1"
       d="m 96.88958,150.46612 -5.14862,1.4915 -0.50823,0.4862 -0.32041,0.7292 -0.11049,0.7955 0.14363,0.8397 0.34251,0.8728 0.51928,1.4473 0.35355,1.5689 0.24307,1.4143 0.0442,1.381 -0.0773,1.4032 -0.15468,1.2706 -0.26516,1.1822 -0.3646,1.1159 -0.35356,0.8286 -0.17677,0.6629 0,0.6077 0.14363,0.7402 0.48613,0.9392 0.63792,0.661 0.84375,0.4375 1.875,0.9688 1.78125,0.8593 2.65625,1.125 3.09375,1.125 2.42187,0.75 2.79688,0.6875 2.09375,0.4219 1.92188,0.2813 2.39062,0.25 2.10938,0.062 2.25,0.031 2.14061,-0.125 1.40625,-0.094 1.51562,-0.4297 -0.28125,0.539 -0.64844,0.3985 -1.55468,0.414 -2.98436,0.625 -2.10938,0.2969 -1.82812,0.1094 -2.40625,-0.031 -2.3125,-0.1718 -2.21875,-0.2969 -2.43751,-0.4844 -1.96875,-0.5781 -2.34375,-0.7969 -2.73437,-1.0937 -2.07813,-1 -1.625,-0.8438 -2.57812,-1.6094 -1.375,-0.9687 -0.5625,-0.4063 -0.28125,-0.3281 -0.34375,-0.5937 -0.28125,-0.7657 -0.125,-0.5937 0.0312,-1.5313 -0.21353,-12.9464 0.0442,-0.6076 0.17678,-0.674 0.27621,-0.5193 0.41985,-0.453 0.54137,-0.4419 0.91703,-0.3315 1.30373,-0.3314 1.5026,-0.3536 1.43631,-0.2872 z"
       style="fill:#b4b4b4;fill-opacity:1;fill-rule:evenodd;stroke:#000000;stroke-width:0.10000001;stroke-linecap:butt;stroke-linejoin:miter;stroke-miterlimit:4;stroke-dasharray:none;stroke-opacity:1" /><path
       inkscape:connector-curvature="0"
       id="path31845-2-6"
       d="m 91.98403,151.85822 -0.53033,0.2652 -0.33146,0.464 -0.24307,0.9281 -0.0663,0.7292 0.26517,0.906 0.46404,1.2153 0.35355,1.149 0.28726,1.2596 0.17678,1.3258 0.0663,1.0828 -0.0221,1.4805 -0.19887,1.5026 -0.24307,1.149 -0.28727,0.8839 -0.41984,0.9281 -0.19887,0.8176 0,0.7071 0.28726,0.9501 0.44194,0.7955 0.55243,0.4641 1.17114,0.6629 1.37002,0.7071 1.87826,0.906 1.83405,0.8176 2.3423,0.8839 2.05502,0.7071 2.20971,0.685 2.67375,0.6408 2.23181,0.3977 2.47487,0.3757 2.98311,0.2431 2.2981,0.022 1.87825,-0.066 1.5026,-0.088 1.17115,-0.1547 1.37002,-0.3757 2.40858,-0.6629 236.14894,-67.0337 0.0156,-34.4062 z"
       style="fill:#c8c8c8;fill-opacity:1;fill-rule:evenodd;stroke:#000000;stroke-width:0.10000001;stroke-linecap:butt;stroke-linejoin:miter;stroke-miterlimit:4;stroke-dasharray:none;stroke-opacity:1" /><path
       inkscape:connector-curvature="0"
       id="path21378-5-5-9-7"
       style="fill:none;stroke:#000e0e;stroke-width:0.44397089;stroke-linecap:butt;stroke-linejoin:miter;stroke-miterlimit:2;stroke-dasharray:none;stroke-opacity:1"
       d="m 90.33465,151.72472 -0.0805,0.022 -0.0797,0.029 -0.0791,0.029 -0.0783,0.029 -0.0775,0.037 -0.0769,0.037 -0.0739,0.036 -0.0739,0.044 -0.0731,0.044 -0.0731,0.044 -0.0659,0.051 -0.0659,0.051 -0.0659,0.051 -0.0659,0.059 -0.0659,0.059 -0.0585,0.059 -0.0585,0.066 -0.0585,0.066 -0.0585,0.066 -0.0513,0.066 -0.0513,0.073 -0.0365,0.059 -0.0513,0.074 -0.0439,0.076 -0.0439,0.078 -0.044,0.079 -0.0366,0.081 -0.0365,0.083 -0.0365,0.084 -0.0294,0.086 -0.0294,0.087 -0.0294,0.088 -0.008,0.029 -0.0219,0.089 -0.0219,0.091 -0.0219,0.091 -0.014,0.093 -0.014,0.094 -0.008,0.095 -0.008,0.096 -0.006,0.096 -0.002,0.097 3e-4,0.09" /><path
       inkscape:connector-curvature="0"
       id="path21380-2-1-5-5"
       style="fill:none;stroke:#000e0e;stroke-width:0.44397089;stroke-linecap:butt;stroke-linejoin:miter;stroke-miterlimit:2;stroke-dasharray:none;stroke-opacity:1"
       d="m 88.58824,168.95502 -0.23355,-14.3689" /><path
       inkscape:connector-curvature="0"
       id="path21382-9-4-4-4"
       style="fill:none;stroke:#000e0e;stroke-width:0.44397089;stroke-linecap:butt;stroke-linejoin:miter;stroke-miterlimit:2;stroke-dasharray:none;stroke-opacity:1"
       d="m 91.77462,151.31622 0.002,-9e-4 0.002,-6e-4 0.004,0 0.002,-7e-4 0.002,-8e-4 0.004,-7e-4 0.002,-9e-4 0.002,-6e-4 0.002,0 0.002,-7e-4" /><path
       inkscape:connector-curvature="0"
       id="path21384-9-2-2-0"
       style="fill:none;stroke:#000e0e;stroke-width:0.44397089;stroke-linecap:butt;stroke-linejoin:miter;stroke-miterlimit:2;stroke-dasharray:none;stroke-opacity:1"
       d="m 97.10782,150.37442 c -1.7927,0.1508 -3.56818,0.4637 -5.30488,0.9339" /><path
       inkscape:connector-curvature="0"
       id="path21386-0-4-4-4"
       style="fill:none;stroke:#000e0e;stroke-width:0.44397089;stroke-linecap:butt;stroke-linejoin:miter;stroke-miterlimit:2;stroke-dasharray:none;stroke-opacity:1"
       d="m 88.58824,168.95502 0.002,0.091 0.006,0.091 0.008,0.092 0.008,0.091 0.014,0.091 0.014,0.091 0.014,0.091 0.002,0.014 0.0219,0.091 0.022,0.09 0.0219,0.089 0.0294,0.089 0.0294,0.088 0.0294,0.087 0.0365,0.086 0.0366,0.085 0.0365,0.083 0.0365,0.082 0.0294,0.059 0.0439,0.081 0.0439,0.079 0.0513,0.078 0.0513,0.076 0.0513,0.075 0.0513,0.073 0.0585,0.073 0.0585,0.066 0.0585,0.066 0.0585,0.066 0.0585,0.066 0.0659,0.059 0.0659,0.059 0.0659,0.059 0.0659,0.051 0.0659,0.051 0.0659,0.051" /><path
       inkscape:connector-curvature="0"
       id="path21388-0-6-6-4"
       style="fill:none;stroke:#000e0e;stroke-width:0.44397089;stroke-linecap:butt;stroke-linejoin:miter;stroke-miterlimit:2;stroke-dasharray:none;stroke-opacity:1"
       d="m 121.219,178.57692 -0.85524,0.2191 -0.86599,0.1956 -0.87582,0.1714 -0.884,0.1472 -0.89147,0.1217 -0.89727,0.097 -0.90173,0.073 -0.90458,0.044 -0.63399,0.014 -0.90664,0 -0.91336,-0.022 -0.91982,-0.051 -0.92559,-0.076 -0.93057,-0.1019 -0.93453,-0.1283 -0.93817,-0.1546 -0.94032,-0.1816 -0.54542,-0.1173 -0.94237,-0.2234 -0.9455,-0.2506 -0.94844,-0.2776 -0.95084,-0.3055 -0.95291,-0.3325 -0.95421,-0.3605 -0.95488,-0.3882 -0.95488,-0.4161 -0.32577,-0.148 -0.95379,-0.4527 -0.95334,-0.4813 -0.95239,-0.5091 -0.95135,-0.5377 -0.94954,-0.5663 -0.94705,-0.5948 -0.94418,-0.6234 -0.94061,-0.6519 -0.0659,-0.044" /><path
       inkscape:connector-curvature="0"
       id="path21390-0-9-7-0"
       style="fill:none;stroke:#000e0e;stroke-width:0.44397089;stroke-linecap:butt;stroke-linejoin:miter;stroke-miterlimit:2;stroke-dasharray:none;stroke-opacity:1"
       d="m 121.219,178.57692 c 0.006,0 0.014,0 0.014,0" /><path
       inkscape:connector-curvature="0"
       id="path21392-5-3-2-7"
       style="fill:none;stroke:#000e0e;stroke-width:0.44397089;stroke-linecap:butt;stroke-linejoin:miter;stroke-miterlimit:2;stroke-dasharray:none;stroke-opacity:1"
       d="m 121.23686,178.57212 c 0.002,-9e-4 0.006,0 0.008,0" /><path
       inkscape:connector-curvature="0"
       id="path21394-4-9-5-8"
       style="fill:none;stroke:#000e0e;stroke-width:0.44397089;stroke-linecap:butt;stroke-linejoin:miter;stroke-miterlimit:2;stroke-dasharray:none;stroke-opacity:1"
       d="m 91.77462,151.31622 -0.014,0" /><path
       inkscape:connector-curvature="0"
       id="path21396-8-0-3-3"
       style="fill:none;stroke:#000e0e;stroke-width:0.44397089;stroke-linecap:butt;stroke-linejoin:miter;stroke-miterlimit:2;stroke-dasharray:none;stroke-opacity:1"
       d="m 122.66986,178.16542 0.0366,-0.014 0.0365,-0.014 0.0365,-0.014 0.0365,-0.014 0.0365,-0.014 0.0365,-0.014 0.0366,-0.022 0.0365,-0.022 0.0366,-0.022 0.0365,-0.022 0.0365,-0.022 0.0366,-0.022 0.0365,-0.022 0.0365,-0.029 0.0366,-0.029 0.0365,-0.029 0.008,-0.01 0.0294,-0.029 0.0294,-0.029 0.0294,-0.029 0.0294,-0.029 0.0294,-0.036 0.0294,-0.037 0.0294,-0.036 0.0294,-0.037 0.0294,-0.037 0.0294,-0.037 0.0294,-0.036 0.0294,-0.044 0.0294,-0.044 0.0294,-0.044 0.0219,-0.044 0.0219,-0.036" /><path
       inkscape:connector-curvature="0"
       id="path21398-5-1-2-2"
       style="fill:none;stroke:#000e0e;stroke-width:0.44397089;stroke-linecap:butt;stroke-linejoin:miter;stroke-miterlimit:2;stroke-dasharray:none;stroke-opacity:1"
       d="m 121.24578,178.56942 1.40799,-0.3992" /><path
       inkscape:connector-curvature="0"
       id="path21400-8-9-3-6"
       style="fill:none;stroke:#000e0e;stroke-width:0.44397089;stroke-linecap:butt;stroke-linejoin:miter;stroke-miterlimit:2;stroke-dasharray:none;stroke-opacity:1"
       d="m 122.65377,178.16992 0.014,0" /><path
       inkscape:connector-curvature="0"
       id="path21402-5-2-8-6"
       style="fill:none;stroke:#000e0e;stroke-width:0.44397089;stroke-linecap:butt;stroke-linejoin:miter;stroke-miterlimit:2;stroke-dasharray:none;stroke-opacity:1"
       d="m 90.33465,151.72472 1.42408,-0.4044" /><path
       inkscape:connector-curvature="0"
       id="path21404-2-6-3-4"
       style="fill:none;stroke:#000e0e;stroke-width:0.11099268;stroke-linecap:butt;stroke-linejoin:miter;stroke-miterlimit:2;stroke-dasharray:none;stroke-opacity:1"
       d="m 88.92002,154.21462 1.42378,-0.4037" /><path
       inkscape:connector-curvature="0"
       id="path21406-1-3-4-3"
       style="fill:none;stroke:#000e0e;stroke-width:0.11099268;stroke-linecap:butt;stroke-linejoin:miter;stroke-miterlimit:2;stroke-dasharray:none;stroke-opacity:1"
       d="m 121.22998,178.57392 0.014,0" /><path
       inkscape:connector-curvature="0"
       id="path21408-7-2-0-9"
       style="fill:none;stroke:#000e0e;stroke-width:0.11099268;stroke-linecap:butt;stroke-linejoin:miter;stroke-miterlimit:2;stroke-dasharray:none;stroke-opacity:1"
       d="m 121.24578,178.56942 1.40799,-0.3992" /><path
       inkscape:connector-curvature="0"
       id="path21410-9-5-1-9"
       style="fill:none;stroke:#000e0e;stroke-width:0.44397089;stroke-linecap:butt;stroke-linejoin:miter;stroke-miterlimit:2;stroke-dasharray:none;stroke-opacity:1"
       d="m 122.65377,178.16992 0.014,0" /><path
       inkscape:connector-curvature="0"
       id="path21412-0-7-3-2"
       style="fill:none;stroke:#000e0e;stroke-width:0.11099268;stroke-linecap:butt;stroke-linejoin:miter;stroke-miterlimit:2;stroke-dasharray:none;stroke-opacity:1"
       d="m 89.15393,168.58352 1.42408,-0.4036" /><path
       inkscape:connector-curvature="0"
       id="path21414-6-6-2-8"
       style="fill:none;stroke:#000e0e;stroke-width:0.44397089;stroke-linecap:butt;stroke-linejoin:miter;stroke-miterlimit:2;stroke-dasharray:none;stroke-opacity:1"
       d="m 90.57801,168.17952 0.004,0.1077 0.006,0.1077 0.008,0.1076 0.014,0.1077 0.014,0.1077 0.014,0.1077 0.0219,0.1077 0.022,0.1085 0.014,0.059 0.006,0.029 0.0294,0.1084 0.0294,0.1077 0.0366,0.1069 0.0365,0.1055 0.0365,0.1047 0.0439,0.1033 0.044,0.1019 0.0439,0.1 0.0514,0.098 0.0513,0.095 0.0513,0.094 0.0513,0.091 0.0585,0.088 0.0585,0.086 0.0585,0.084 0.0585,0.081 0.0585,0.078 0.0659,0.075 0.0659,0.073 0.0659,0.066 0.0659,0.066 0.0659,0.066 0.0659,0.059 0.0659,0.058 0.0733,0.059 0.0731,0.051" /><path
       inkscape:connector-curvature="0"
       id="path21416-7-8-4-8"
       style="fill:none;stroke:#000e0e;stroke-width:0.11099268;stroke-linecap:butt;stroke-linejoin:miter;stroke-miterlimit:2;stroke-dasharray:none;stroke-opacity:1"
       d="m 90.67646,171.73872 1.42387,-0.4044" /><path
       inkscape:connector-curvature="0"
       id="path21418-7-5-8-4"
       style="fill:none;stroke:#000e0e;stroke-width:0.11099268;stroke-linecap:butt;stroke-linejoin:miter;stroke-miterlimit:2;stroke-dasharray:none;stroke-opacity:1"
       d="m 88.35433,154.58612 2.2e-4,-0.01 6.5e-4,-0.01 0.001,-0.01 0.002,-0.01 0.002,-0.01 0.004,-0.01 0.004,-0.01 0.004,-0.01 0.004,-0.01 0.006,-0.01 0.006,-0.01 0.006,-0.01 0.008,-0.01 0.008,-0.01 0.008,-0.01 0.008,-0.01 0.008,-0.01 0.014,-0.01 0.014,-0.01 0.014,-0.01 0.014,-0.01 0.004,0 0.014,-0.01 0.014,-0.01 0.014,-0.01 0.014,-0.01 0.0219,-0.01 0.022,-0.01 0.0219,-0.01 0.0219,-0.01 0.022,-0.01 0.0294,-0.014 0.0294,-0.014 0.0294,-0.014 0.0365,-0.014 0.0365,-0.014 0.0365,-0.01 0.0365,-0.01 0.008,0" /><path
       inkscape:connector-curvature="0"
       id="path21422-0-0-0-7"
       style="fill:none;stroke:#000e0e;stroke-width:0.44397089;stroke-linecap:butt;stroke-linejoin:miter;stroke-miterlimit:2;stroke-dasharray:none;stroke-opacity:1"
       d="m 122.65377,178.16992 -0.002,6e-4 -0.002,0 -0.004,7e-4 -0.002,8e-4 -0.004,7e-4 -0.002,7e-4 -0.002,8e-4 -0.004,8e-4 -0.002,8e-4 -0.002,7e-4" /><path
       inkscape:connector-curvature="0"
       id="path21424-6-9-1-0"
       style="fill:none;stroke:#000e0e;stroke-width:0.44397089;stroke-linecap:butt;stroke-linejoin:miter;stroke-miterlimit:2;stroke-dasharray:none;stroke-opacity:1"
       d="m 122.43463,178.22852 c 0.0659,-0.014 0.12743,-0.037 0.19115,-0.051" /><path
       inkscape:connector-curvature="0"
       id="path21426-9-3-2-6"
       style="fill:none;stroke:#000e0e;stroke-width:0.44397089;stroke-linecap:butt;stroke-linejoin:miter;stroke-miterlimit:2;stroke-dasharray:none;stroke-opacity:1"
       d="m 121.23664,178.51842 c 0.40117,-0.089 0.80078,-0.1854 1.19799,-0.2901" /><path
       inkscape:connector-curvature="0"
       id="path21428-6-5-8-2"
       style="fill:none;stroke:#000e0e;stroke-width:0.44397089;stroke-linecap:butt;stroke-linejoin:miter;stroke-miterlimit:2;stroke-dasharray:none;stroke-opacity:1"
       d="m 121.23664,178.51842 -0.002,5e-4 -0.002,6e-4 -0.002,5e-4 -0.002,6e-4 -0.004,8e-4 -0.002,4e-4 -0.002,7e-4 -0.002,6e-4 -0.002,5e-4 -0.002,6e-4" /><path
       inkscape:connector-curvature="0"
       id="path21430-0-9-6-4"
       style="fill:none;stroke:#000e0e;stroke-width:0.44397089;stroke-linecap:butt;stroke-linejoin:miter;stroke-miterlimit:2;stroke-dasharray:none;stroke-opacity:1"
       d="m 121.20964,178.52422 -0.82378,0.1684 -0.83357,0.1459 -0.84207,0.1223 -0.84988,0.1 -0.85611,0.076 -0.86153,0.051 -0.86527,0.029 -0.86827,0 -0.36459,-0.01 -0.86951,-0.029 -0.87603,-0.051 -0.88167,-0.078 -0.88716,-0.1033 -0.8917,-0.1283 -0.89565,-0.1524 -0.89902,-0.178 -0.90173,-0.2029 -0.27747,-0.066 -0.90347,-0.2351 -0.90664,-0.2608 -0.90933,-0.2871 -0.91176,-0.3128 -0.91374,-0.3392 -0.91512,-0.3648 -0.9163,-0.3912 -0.91645,-0.4175 -0.0915,-0.044 -0.91628,-0.4461 -0.916,-0.4725 -0.91535,-0.4996 -0.91445,-0.5267 -0.91309,-0.5531 -0.91132,-0.5802 -0.90891,-0.6072 -0.78465,-0.5472" /><path
       inkscape:connector-curvature="0"
       id="path21432-4-8-6-7"
       style="fill:none;stroke:#000e0e;stroke-width:0.44397089;stroke-linecap:butt;stroke-linejoin:miter;stroke-miterlimit:2;stroke-dasharray:none;stroke-opacity:1"
       d="m 90.57801,168.17952 -0.23429,-14.3689" /><path
       inkscape:connector-curvature="0"
       id="path21434-3-8-4-9"
       style="fill:none;stroke:#000e0e;stroke-width:0.11099268;stroke-linecap:butt;stroke-linejoin:miter;stroke-miterlimit:2;stroke-dasharray:none;stroke-opacity:1"
       d="m 88.58824,168.95502 2.2e-4,-0.01 6.5e-4,-0.01 10e-4,-0.01 0.002,-0.01 0.002,-0.01 0.002,-0.01 0.004,-0.01 0.004,-0.01 0.004,-0.01 0.006,-0.01 0.006,-0.01 0.006,-0.01 0.008,-0.01 0.008,-0.01 0.008,-0.01 0.008,-0.01 0.014,-0.01 0.014,-0.01 0.014,-0.01 0.014,-0.01 0.014,-0.01 0.004,0 0.014,-0.014 0.014,-0.01 0.014,-0.01 0.0219,-0.01 0.0219,-0.01 0.0219,-0.01 0.022,-0.01 0.0219,-0.01 0.0219,-0.01 0.0294,-0.014 0.0294,-0.014 0.0294,-0.014 0.0365,-0.014 0.0365,-0.014 0.0365,-0.01 0.0365,-0.01 0.008,0" /><path
       inkscape:connector-curvature="0"
       id="path21436-5-7-8-2"
       style="fill:none;stroke:#000e0e;stroke-width:0.44397089;stroke-linecap:butt;stroke-linejoin:miter;stroke-miterlimit:2;stroke-dasharray:none;stroke-opacity:1"
       d="m 91.7585,151.32042 -0.0585,0.014 -0.0585,0.022 -0.0585,0.022 -0.0513,0.022 -0.0513,0.029 -0.0513,0.029 -0.0513,0.029 -0.0513,0.029 -0.0513,0.037 -0.0513,0.036 -0.0513,0.037 -0.002,0 -0.044,0.044 -0.0439,0.044 -0.0439,0.044 -0.044,0.044 -0.0439,0.051 -0.0439,0.051 -0.044,0.051 -0.0439,0.059 -0.0365,0.059 -0.0366,0.059 -0.0294,0.044 -0.0366,0.066 -0.0365,0.066 -0.0294,0.066 -0.0294,0.073 -0.0294,0.073 -0.0294,0.075 -0.0294,0.076 -0.0219,0.078 -0.0219,0.081 -0.022,0.082 -0.004,0.014 -0.014,0.084 -0.014,0.086 -0.014,0.087 -0.014,0.089 -0.008,0.09 -0.008,0.091 -0.006,0.092 -0.004,0.093 -0.001,0.094 4.4e-4,0.066" /><path
       inkscape:connector-curvature="0"
       id="path21438-5-5-1-2"
       style="fill:none;stroke:#000e0e;stroke-width:0.11099268;stroke-linecap:butt;stroke-linejoin:miter;stroke-miterlimit:2;stroke-dasharray:none;stroke-opacity:1"
       d="m 90.33465,151.72472 0,0" /><path
       inkscape:connector-curvature="0"
       id="path21440-0-3-8-7"
       style="fill:none;stroke:#000e0e;stroke-width:0.11099268;stroke-linecap:butt;stroke-linejoin:miter;stroke-miterlimit:2;stroke-dasharray:none;stroke-opacity:1"
       d="m 89.96803,171.66492 0.014,0.01 0.014,0.01 0.014,0.01 0.014,0.01 0.014,0.01 0.014,0.01 0.014,0.01 0.014,0.01 0.014,0.01 0.0219,0.01 0.0219,0.01 0.022,0.01 0.0219,0 0.0219,0 0.022,0 0.0219,0 0.022,0 0.008,9e-4 0.022,0 0.0219,0 0.022,9e-4 0.0219,2e-4 0.0219,0 0.022,-9e-4 0.0219,0 0.0219,0 0.0219,0 0.0219,0 0.022,0 0.0219,0 0.0294,-0.01 0.0294,-0.01 0.0294,-0.01 0.0294,-0.01 0.014,0" /><path
       inkscape:connector-curvature="0"
       id="path21442-6-6-0-4"
       style="fill:none;stroke:#000e0e;stroke-width:0.11099268;stroke-linecap:butt;stroke-linejoin:miter;stroke-miterlimit:2;stroke-dasharray:none;stroke-opacity:1"
       d="m 121.24578,178.56942 -0.014,0" /><path
       inkscape:connector-curvature="0"
       id="path21444-7-6-9-6"
       style="fill:none;stroke:#000e0e;stroke-width:0.11099268;stroke-linecap:butt;stroke-linejoin:miter;stroke-miterlimit:2;stroke-dasharray:none;stroke-opacity:1"
       d="m 99.36056,174.23202 -0.19987,0.059" /><path
       inkscape:connector-curvature="0"
       id="path21446-1-2-0-1"
       style="fill:none;stroke:#000e0e;stroke-width:0.11099268;stroke-linecap:butt;stroke-linejoin:miter;stroke-miterlimit:2;stroke-dasharray:none;stroke-opacity:1"
       d="m 121.219,178.57692 0.014,0" /><path
       inkscape:connector-curvature="0"
       id="path21456-5-8-2-3"
       style="fill:none;stroke:#000e0e;stroke-width:0.11099268;stroke-linecap:butt;stroke-linejoin:miter;stroke-miterlimit:2;stroke-dasharray:none;stroke-opacity:1"
       d="m 116.08346,177.84892 -0.44511,0.126" /><path
       inkscape:connector-curvature="0"
       id="path21458-2-7-9-5"
       style="fill:none;stroke:#000e0e;stroke-width:0.11099268;stroke-linecap:butt;stroke-linejoin:miter;stroke-miterlimit:2;stroke-dasharray:none;stroke-opacity:1"
       d="m 121.22998,178.57392 -10e-4,2e-4 -0.001,4e-4 -0.001,3e-4 -10e-4,2e-4 -9.7e-4,4e-4 -10e-4,2e-4 -0.001,2e-4 -0.001,5e-4 -10e-4,2e-4 -0.001,2e-4" /><path
       inkscape:connector-curvature="0"
       id="path21460-5-1-9-9"
       style="fill:none;stroke:#000e0e;stroke-width:0.11099268;stroke-linecap:butt;stroke-linejoin:miter;stroke-miterlimit:2;stroke-dasharray:none;stroke-opacity:1"
       d="m 121.219,178.57672 -0.83085,0.2132 -0.84163,0.189 -0.85129,0.1656 -0.85969,0.1421 -0.86689,0.1173 -0.87288,0.093 -0.87736,0.066 -0.88027,0.044 -0.58859,0.014 -0.88233,0 -0.88965,-0.022 -0.89588,-0.051 -0.90215,-0.075 -0.90738,-0.1003 -0.91197,-0.1267 -0.91579,-0.1524 -0.9185,-0.1788 -0.51905,-0.1121 -0.92113,-0.219 -0.92478,-0.2454 -0.92809,-0.2725 -0.93072,-0.2996 -0.93319,-0.3268 -0.93505,-0.3538 -0.93635,-0.3809 -0.93702,-0.4088 -0.32652,-0.1486 -0.9368,-0.4454 -0.93679,-0.4732 -0.93614,-0.5011 -0.93539,-0.5289 -0.93438,-0.5574 -0.93233,-0.5853 -0.93006,-0.6132 -0.92721,-0.6416 -0.0885,-0.066" /><path
       inkscape:connector-curvature="0"
       id="path21462-3-4-5-7"
       style="fill:none;stroke:#000e0e;stroke-width:0.11099268;stroke-linecap:butt;stroke-linejoin:miter;stroke-miterlimit:2;stroke-dasharray:none;stroke-opacity:1"
       d="m 90.67646,171.73872 -0.0733,-0.051 -0.0659,-0.051 -0.0659,-0.059 -0.0659,-0.059 -0.0659,-0.066 -0.0659,-0.066 -0.0659,-0.073 -0.0659,-0.073 -0.0659,-0.075 -0.004,-0.01 -0.0659,-0.079 -0.0585,-0.081 -0.0585,-0.084 -0.0585,-0.087 -0.0585,-0.089 -0.0513,-0.091 -0.0513,-0.093 -0.0513,-0.095 -0.0513,-0.097 -0.044,-0.099 -0.0439,-0.1002 -0.0439,-0.1025 -0.0365,-0.1033 -0.0365,-0.1047 -0.0365,-0.1063 -0.0294,-0.1069 -0.0294,-0.1076 -0.022,-0.1085 -0.014,-0.083 -0.0219,-0.1091 -0.014,-0.1091 -0.014,-0.109 -0.014,-0.1091 -0.008,-0.1085 -0.006,-0.1077 -0.004,-0.1069" /><path
       inkscape:connector-curvature="0"
       id="path21464-8-5-3-0"
       style="fill:none;stroke:#000e0e;stroke-width:0.11099268;stroke-linecap:butt;stroke-linejoin:miter;stroke-miterlimit:2;stroke-dasharray:none;stroke-opacity:1"
       d="m 89.15393,168.58352 -0.23356,-14.3689" /><path
       inkscape:connector-curvature="0"
       id="path21466-5-6-0-7"
       style="fill:none;stroke:#000e0e;stroke-width:0.11099268;stroke-linecap:butt;stroke-linejoin:miter;stroke-miterlimit:2;stroke-dasharray:none;stroke-opacity:1"
       d="m 88.92002,154.21462 -5.2e-4,-0.066 0.001,-0.095 0.004,-0.094 0.006,-0.092 0.008,-0.091 0.008,-0.09 0.014,-0.089 0.014,-0.087 0.014,-0.086 0.014,-0.084 0.004,-0.014 0.0219,-0.082 0.022,-0.08 0.0219,-0.078 0.0294,-0.076 0.0294,-0.075 0.0294,-0.073 0.0294,-0.073 0.0294,-0.066 0.0365,-0.066 0.0365,-0.066 0.0294,-0.044 0.0365,-0.059 0.0365,-0.058 0.0439,-0.059 0.044,-0.051 0.0439,-0.051 0.0439,-0.051 0.044,-0.044 0.0439,-0.044 0.0439,-0.044 0.044,-0.044 0.002,0 0.0513,-0.037 0.0513,-0.036 0.0513,-0.037 0.0513,-0.029 0.0513,-0.029 0.0513,-0.029 0.0513,-0.029 0.0513,-0.022 0.0585,-0.022 0.0585,-0.022 0.0585,-0.014" /><path
       inkscape:connector-curvature="0"
       id="path42580-6-2-7-3"
       style="fill:none;stroke:#000e0e;stroke-width:0.44397089;stroke-linecap:butt;stroke-linejoin:miter;stroke-miterlimit:2;stroke-dasharray:none;stroke-opacity:1"
       d="m 91.07707,155.18592 -0.0294,-0.073 -0.0366,-0.1 -0.0365,-0.095 -0.0294,-0.091 -0.0294,-0.089 -0.022,-0.088 -0.0219,-0.086 -0.014,-0.086 -0.014,-0.085 -0.014,-0.085 -0.008,-0.086 -0.006,-0.086 -0.004,-0.087 -0.001,-0.089 0.002,-0.091 0.004,-0.092 0.004,-0.059 0.008,-0.093 0.014,-0.093 0.014,-0.093 0.014,-0.092 0.0219,-0.09 0.0219,-0.089 0.022,-0.086 0.0294,-0.084 0.0294,-0.082 0.0294,-0.078 0.0294,-0.076 0.0365,-0.073 0.0365,-0.073 0.0365,-0.066 0.0365,-0.066 0.0366,-0.059 0.0365,-0.059 0.0439,-0.051 0.044,-0.051 0.0439,-0.044 0.0439,-0.044 0.044,-0.044 0.0439,-0.037 0.0439,-0.037 0.044,-0.029 0.0514,-0.029 0.0513,-0.029 0.0513,-0.022 0.0513,-0.022 0.0513,-0.022 0.0513,-0.014" /><path
       inkscape:connector-curvature="0"
       id="path42582-0-3-2-0"
       style="fill:none;stroke:#000e0e;stroke-width:0.44397089;stroke-linecap:butt;stroke-linejoin:miter;stroke-miterlimit:2;stroke-dasharray:none;stroke-opacity:1"
       d="m 91.27146,167.12322 0.12962,-0.2769 0.12303,-0.2842 0.11565,-0.2923 0.10825,-0.3003 0.10108,-0.3084 0.0936,-0.3165 0.0865,-0.3252 0.0783,-0.3333 0.0513,-0.2249 0.0659,-0.3472 0.0585,-0.3524 0.0513,-0.3567 0.0365,-0.3619 0.0294,-0.3663 0.0219,-0.3706 0.014,-0.3751 0.002,-0.3787 -0.008,-0.3817 -0.014,-0.3846 -0.0294,-0.3875 -0.0366,-0.3897 -0.044,-0.3912 -0.0585,-0.3926 -0.0659,-0.3934 -0.0761,-0.3934 -0.0857,-0.3933 -0.0952,-0.3927 -0.10467,-0.3912 -0.11424,-0.3889 -0.12304,-0.3861 -0.13243,-0.3824 -0.14121,-0.3787 -0.0659,-0.1684 -0.153,-0.3714" /><path
       inkscape:connector-curvature="0"
       id="path42584-3-4-3-5"
       style="fill:none;stroke:#000e0e;stroke-width:0.44397089;stroke-linecap:butt;stroke-linejoin:miter;stroke-miterlimit:2;stroke-dasharray:none;stroke-opacity:1"
       d="m 92.43145,170.95052 -0.0659,-0.037 -0.0659,-0.044 -0.0659,-0.044 -0.0659,-0.051 -0.0659,-0.051 -0.0659,-0.058 -0.0659,-0.059 -0.0585,-0.066 -0.0585,-0.066 -0.0585,-0.073 -0.0585,-0.075 -0.0585,-0.078 -0.0585,-0.082 -0.0513,-0.085 -0.0513,-0.089 -0.0513,-0.091 -0.0513,-0.094 -0.0439,-0.097 -0.0439,-0.099 -0.044,-0.1011 -0.0366,-0.1033 -0.0365,-0.1047 -0.0294,-0.1063 -0.0219,-0.082 -0.0294,-0.1069 -0.0219,-0.1077 -0.0219,-0.1077 -0.014,-0.1077 -0.014,-0.1063 -0.008,-0.1055 -0.006,-0.1046 -0.004,-0.1033 2.2e-4,-0.1011 0.004,-0.1 0.006,-0.097 0.008,-0.095 0.014,-0.093 0.014,-0.091 0.0219,-0.088 0.0219,-0.086 0.022,-0.083 0.0294,-0.08 0.0294,-0.078 0.0294,-0.075 0.0365,-0.073" /><path
       inkscape:connector-curvature="0"
       id="path42586-6-1-4-2"
       style="fill:none;stroke:#000e0e;stroke-width:0.44397089;stroke-linecap:butt;stroke-linejoin:miter;stroke-miterlimit:2;stroke-dasharray:none;stroke-opacity:1"
       d="m 121.16892,177.75202 c 0.37996,-0.036 0.75985,-0.073 1.13877,-0.1178" /><path
       inkscape:connector-curvature="0"
       id="path42588-0-2-6-8"
       style="fill:none;stroke:#000e0e;stroke-width:0.44397089;stroke-linecap:butt;stroke-linejoin:miter;stroke-miterlimit:2;stroke-dasharray:none;stroke-opacity:1"
       d="m 121.16892,177.75202 -0.9953,0.078 -0.99959,0.051 -1.00311,0.029 -1.00629,0.01 -1.00854,-0.014 -1.01051,-0.044 -1.01141,-0.066 -0.0818,-0.01 -1.0119,-0.09 -1.01943,-0.1143 -1.02708,-0.1385 -1.03395,-0.1634 -1.04067,-0.1882 -1.04653,-0.2132 -1.05233,-0.2388 -1.05694,-0.2637 -1.06147,-0.2893 -1.06506,-0.3143 -1.06769,-0.3399 -1.06973,-0.3655 -1.07086,-0.3905 -1.07106,-0.4153 -1.06995,-0.441 -1.06821,-0.4652 -1.06477,-0.49 -1.06059,-0.5136 -1.05503,-0.5369 -1.04801,-0.5604 -0.55932,-0.3099" /><path
       inkscape:connector-curvature="0"
       id="path42590-3-7-7-5"
       style="fill:none;stroke:#000e0e;stroke-width:0.44397089;stroke-linecap:butt;stroke-linejoin:miter;stroke-miterlimit:2;stroke-dasharray:none;stroke-opacity:1"
       d="m 122.50164,177.59542 -0.19394,0.036" /><path
       inkscape:connector-curvature="0"
       id="path42598-2-9-6-1"
       style="fill:none;stroke:#000e0e;stroke-width:0.44397089;stroke-linecap:butt;stroke-linejoin:miter;stroke-miterlimit:2;stroke-dasharray:none;stroke-opacity:1"
       d="m 258.42685,139.02742 -133.95644,38.0096" /><path
       inkscape:connector-curvature="0"
       id="path42600-0-1-1-2"
       style="fill:none;stroke:#000e0e;stroke-width:0.44397089;stroke-linecap:butt;stroke-linejoin:miter;stroke-miterlimit:2;stroke-dasharray:none;stroke-opacity:1"
       d="m 124.4704,177.03702 -0.7373,0.2094" /><path
       inkscape:connector-curvature="0"
       id="path42602-4-1-0-0"
       style="fill:none;stroke:#000e0e;stroke-width:0.44397089;stroke-linecap:butt;stroke-linejoin:miter;stroke-miterlimit:2;stroke-dasharray:none;stroke-opacity:1"
       d="m 123.7331,177.24612 -1.23279,0.3502" /><path
       inkscape:connector-curvature="0"
       id="path42626-6-6-8-5"
       style="fill:none;stroke:#000e0e;stroke-width:0.44397089;stroke-linecap:butt;stroke-linejoin:miter;stroke-miterlimit:2;stroke-dasharray:none;stroke-opacity:1"
       d="M 245.41964,108.33732 91.92806,151.88982" /><path
       inkscape:connector-curvature="0"
       id="path42646-3-5-6-8"
       style="fill:none;stroke:#000e0e;stroke-width:0.11099268;stroke-linecap:butt;stroke-linejoin:miter;stroke-miterlimit:2;stroke-dasharray:none;stroke-opacity:1"
       d="M 245.6837,111.31682 92.72928,154.71712" /><path
       inkscape:connector-curvature="0"
       id="path42648-6-9-0-9"
       style="fill:none;stroke:#000e0e;stroke-width:0.11099268;stroke-linecap:butt;stroke-linejoin:miter;stroke-miterlimit:2;stroke-dasharray:none;stroke-opacity:1"
       d="m 92.72928,154.71712 -1.65221,0.4688" /><path
       inkscape:connector-curvature="0"
       id="path42656-1-5-1-0"
       style="fill:none;stroke:#000e0e;stroke-width:0.11099268;stroke-linecap:butt;stroke-linejoin:miter;stroke-miterlimit:2;stroke-dasharray:none;stroke-opacity:1"
       d="m 258.39442,139.02032 -133.9285,38.0016" /><path
       inkscape:connector-curvature="0"
       id="path42658-2-3-6-0"
       style="fill:none;stroke:#000e0e;stroke-width:0.11099268;stroke-linecap:butt;stroke-linejoin:miter;stroke-miterlimit:2;stroke-dasharray:none;stroke-opacity:1"
       d="m 124.46592,177.02192 -0.72478,0.2059" /><path
       inkscape:connector-curvature="0"
       id="path42660-6-8-2-9"
       style="fill:none;stroke:#000e0e;stroke-width:0.11099268;stroke-linecap:butt;stroke-linejoin:miter;stroke-miterlimit:2;stroke-dasharray:none;stroke-opacity:1"
       d="m 123.74114,177.22762 -1.23746,0.3509" /><path
       inkscape:connector-curvature="0"
       id="path42662-8-2-7-5"
       style="fill:none;stroke:#000e0e;stroke-width:0.11099268;stroke-linecap:butt;stroke-linejoin:miter;stroke-miterlimit:2;stroke-dasharray:none;stroke-opacity:1"
       d="m 122.50368,177.57882 -0.19612,0.059" /><path
       inkscape:connector-curvature="0"
       id="path42694-5-8-2-4"
       style="fill:none;stroke:#000e0e;stroke-width:0.11099268;stroke-linecap:butt;stroke-linejoin:miter;stroke-miterlimit:2;stroke-dasharray:none;stroke-opacity:1"
       d="M 245.20287,127.60232 92.43145,170.95052" /><path
       inkscape:connector-curvature="0"
       id="path42704-8-1-4-8"
       style="fill:none;stroke:#000e0e;stroke-width:0.11099268;stroke-linecap:butt;stroke-linejoin:miter;stroke-miterlimit:2;stroke-dasharray:none;stroke-opacity:1"
       d="M 246.80619,122.99082 91.27146,167.12322" /><path
       inkscape:connector-curvature="0"
       id="path8274-6"
       d="m 822.09642,-76.64633 -726.3164,206.03985 -1.67188,1.39063 -0.79687,1.09375 -1.125,2.28125 -1.09375,2.48437 -0.67188,1.9375 -0.54687,1.90625 -0.40625,1.85938 -0.375,1.98437 -0.28125,2.10938 -0.15625,1.89062 -0.0625,0.9375 0.0625,1.10938 0.32812,0.90625 0.49541,0.85724 0.11049,0.0608 0.0608,0 727.25521,-206.293 z"
       style="fill:#b4b4b4;fill-opacity:1;fill-rule:evenodd;stroke:none;stroke-width:1px;stroke-linecap:butt;stroke-linejoin:miter;stroke-opacity:1" /><path
       inkscape:connector-curvature="0"
       id="path15410-2"
       style="fill:none;stroke:#000000;stroke-width:0.44200003;stroke-linecap:butt;stroke-linejoin:miter;stroke-miterlimit:2;stroke-dasharray:none;stroke-opacity:1"
       d="M 89.622387,152.16929 317.63453,87.510694" /><path
       inkscape:connector-curvature="0"
       id="path15438-9"
       style="fill:none;stroke:#000000;stroke-width:0.44200003;stroke-linecap:butt;stroke-linejoin:miter;stroke-miterlimit:2;stroke-dasharray:none;stroke-opacity:1"
       d="m 93.329949,131.89402 -0.319025,0.56465 -0.309937,0.57763 -0.30075,0.59066 -0.291388,0.60371 -0.281887,0.61692 -0.272225,0.63003 -0.09063,0.21813 -0.258975,0.64774 -0.248263,0.6594 -0.23735,0.67101 -0.226262,0.68252 -0.215025,0.69397 -0.20355,0.70526 -0.191913,0.7164 -0.180075,0.72731 -0.168012,0.73815 -0.1558,0.74868 -0.143313,0.75888 -0.130675,0.76874 -0.117875,0.77843 -0.10475,0.78751 -0.0915,0.79627 -0.07813,0.80445 -0.0645,0.81215 -0.05075,0.81917 -0.0087,0.17945" /><path
       inkscape:connector-curvature="0"
       id="path15442-0"
       style="fill:none;stroke:#000000;stroke-width:0.44200003;stroke-linecap:butt;stroke-linejoin:miter;stroke-miterlimit:2;stroke-dasharray:none;stroke-opacity:1"
       d="m 88.588162,149.19124 -3.63e-4,0.007 -0.0025,0.07 -0.0025,0.0696 -10e-4,0.0695 -1.5e-4,0.0691 7.63e-4,0.0689 0.0012,0.0685 0.0025,0.0681 0.0037,0.0677 0.005,0.0673 0.005,0.0669 0.0062,0.0665 0.0075,0.0659 0.0075,0.0655 0.0088,0.0649 0.01,0.0644 0.01,0.0639 0.01125,0.0632" /><path
       inkscape:connector-curvature="0"
       id="path15444-7"
       style="fill:none;stroke:#000000;stroke-width:0.44200003;stroke-linecap:butt;stroke-linejoin:miter;stroke-miterlimit:2;stroke-dasharray:none;stroke-opacity:1"
       d="m 88.660837,150.33846 0.01,0.0554 0.01687,0.0811 0.01812,0.0796 0.01937,0.0782 0.02075,0.0771 0.022,0.0759 0.02338,0.0749 0.02,0.0604 0.02575,0.0731 0.027,0.0719 0.02825,0.0709 0.0295,0.0696 0.03063,0.0683 0.03163,0.0669 0.03275,0.0655 0.03375,0.0641 0.03475,0.0626 0.03563,0.061 0.03663,0.0595 0.03737,0.058 0.03825,0.0564 0.03912,0.0549 0.03988,0.0531 0.04062,0.0516 0.04138,0.05 0.042,0.0485 0.04275,0.0469 0.04337,0.0454" /><path
       inkscape:connector-curvature="0"
       id="path15446-5"
       style="fill:none;stroke:#000000;stroke-width:0.44200003;stroke-linecap:butt;stroke-linejoin:miter;stroke-miterlimit:2;stroke-dasharray:none;stroke-opacity:1"
       d="m 95.756675,129.37906 -0.140163,0.1015 -0.13885,0.10388 -0.137687,0.10662 -0.13665,0.10938 -0.1357,0.11212 -0.04788,0.0404 -0.112125,0.0965 -0.126413,0.11212 -0.1215,0.11138 -0.11675,0.11062 -0.11225,0.11013 -0.107875,0.1095 -0.103625,0.10912 -0.0995,0.10875 -0.0955,0.10838 -0.0915,0.108 -0.08775,0.10775 -0.084,0.1075 -0.08038,0.10725 -0.07688,0.10712 -0.07337,0.10688 -0.07,0.10687 -0.06675,0.10675 -0.06337,0.10675" /><path
       inkscape:connector-curvature="0"
       id="path15448-7"
       style="fill:none;stroke:#000000;stroke-width:0.44200003;stroke-linecap:butt;stroke-linejoin:miter;stroke-miterlimit:2;stroke-dasharray:none;stroke-opacity:1"
       d="M 95.756675,129.37906 822.33458,-76.660531" /><path
       inkscape:connector-curvature="0"
       id="path15452-9"
       style="fill:none;stroke:#000000;stroke-width:0.44200003;stroke-linecap:butt;stroke-linejoin:miter;stroke-miterlimit:2;stroke-dasharray:none;stroke-opacity:1"
       d="m 89.522824,152.11901 c 0.033,0.017 0.06625,0.0337 0.0995,0.0503" /><path
       inkscape:connector-curvature="0"
       id="path8274"
       d="m 822.09642,-80.31423 -726.3164,206.03985 -1.67188,1.39063 -0.79687,1.09375 -1.125,2.28125 -1.09375,2.48437 -0.67188,1.9375 -0.54687,1.90625 -0.40625,1.85938 -0.375,1.98437 -0.28125,2.10938 -0.15625,1.89062 -0.0625,0.9375 0.0625,1.10938 0.32812,0.90625 0.49541,0.85724 0.11049,0.0608 0.0608,0 727.25521,-206.293 z"
       style="fill:#b4b4b4;fill-opacity:1;fill-rule:evenodd;stroke:none;stroke-width:1px;stroke-linecap:butt;stroke-linejoin:miter;stroke-opacity:1" /><path
       inkscape:connector-curvature="0"
       id="path15410"
       style="fill:none;stroke:#000000;stroke-width:0.44200003;stroke-linecap:butt;stroke-linejoin:miter;stroke-miterlimit:2;stroke-dasharray:none;stroke-opacity:1"
       d="M 89.622387,148.50139 317.63453,83.842794" /><path
       inkscape:connector-curvature="0"
       id="path15438"
       style="fill:none;stroke:#000000;stroke-width:0.44200003;stroke-linecap:butt;stroke-linejoin:miter;stroke-miterlimit:2;stroke-dasharray:none;stroke-opacity:1"
       d="m 93.329949,128.22612 -0.319025,0.56465 -0.309937,0.57763 -0.30075,0.59066 -0.291388,0.60371 -0.281887,0.61692 -0.272225,0.63003 -0.09063,0.21813 -0.258975,0.64774 -0.248263,0.6594 -0.23735,0.67101 -0.226262,0.68252 -0.215025,0.69397 -0.20355,0.70526 -0.191913,0.7164 -0.180075,0.72731 -0.168012,0.73815 -0.1558,0.74868 -0.143313,0.75888 -0.130675,0.76874 -0.117875,0.77843 -0.10475,0.78751 -0.0915,0.79627 -0.07813,0.80445 -0.0645,0.81215 -0.05075,0.81917 -0.0087,0.17945" /><path
       inkscape:connector-curvature="0"
       id="path15442"
       style="fill:none;stroke:#000000;stroke-width:0.44200003;stroke-linecap:butt;stroke-linejoin:miter;stroke-miterlimit:2;stroke-dasharray:none;stroke-opacity:1"
       d="m 88.588162,145.52334 -3.63e-4,0.008 -0.0025,0.07 -0.0025,0.0696 -10e-4,0.0695 -1.5e-4,0.0691 7.63e-4,0.0689 0.0012,0.0685 0.0025,0.0681 0.0037,0.0677 0.005,0.0673 0.005,0.0669 0.0062,0.0665 0.0075,0.0659 0.0075,0.0655 0.0088,0.0649 0.01,0.0644 0.01,0.0639 0.01125,0.0633" /><path
       inkscape:connector-curvature="0"
       id="path15444"
       style="fill:none;stroke:#000000;stroke-width:0.44200003;stroke-linecap:butt;stroke-linejoin:miter;stroke-miterlimit:2;stroke-dasharray:none;stroke-opacity:1"
       d="m 88.660837,146.67056 0.01,0.0554 0.01687,0.0811 0.01812,0.0796 0.01937,0.0783 0.02075,0.0771 0.022,0.0759 0.02338,0.0749 0.02,0.0604 0.02575,0.0731 0.027,0.0719 0.02825,0.0709 0.0295,0.0696 0.03063,0.0683 0.03163,0.0669 0.03275,0.0655 0.03375,0.0641 0.03475,0.0626 0.03563,0.061 0.03663,0.0595 0.03737,0.058 0.03825,0.0564 0.03912,0.0549 0.03988,0.0531 0.04062,0.0516 0.04138,0.05 0.042,0.0485 0.04275,0.0469 0.04337,0.0454" /><path
       inkscape:connector-curvature="0"
       id="path15446"
       style="fill:none;stroke:#000000;stroke-width:0.44200003;stroke-linecap:butt;stroke-linejoin:miter;stroke-miterlimit:2;stroke-dasharray:none;stroke-opacity:1"
       d="m 95.756675,125.71116 -0.140163,0.1015 -0.13885,0.10388 -0.137687,0.10662 -0.13665,0.10938 -0.1357,0.11212 -0.04788,0.0404 -0.112125,0.0965 -0.126413,0.11212 -0.1215,0.11138 -0.11675,0.11062 -0.11225,0.11013 -0.107875,0.1095 -0.103625,0.10912 -0.0995,0.10875 -0.0955,0.10838 -0.0915,0.108 -0.08775,0.10775 -0.084,0.1075 -0.08038,0.10725 -0.07688,0.10712 -0.07337,0.10688 -0.07,0.10687 -0.06675,0.10675 -0.06337,0.10675" /><path
       inkscape:connector-curvature="0"
       id="path15448"
       style="fill:none;stroke:#000000;stroke-width:0.44200003;stroke-linecap:butt;stroke-linejoin:miter;stroke-miterlimit:2;stroke-dasharray:none;stroke-opacity:1"
       d="M 95.756675,125.71116 822.33458,-80.328431" /><path
       inkscape:connector-curvature="0"
       id="path15452"
       style="fill:none;stroke:#000000;stroke-width:0.44200003;stroke-linecap:butt;stroke-linejoin:miter;stroke-miterlimit:2;stroke-dasharray:none;stroke-opacity:1"
       d="m 89.522824,148.45111 c 0.033,0.017 0.06625,0.0337 0.0995,0.0503" /><path
       inkscape:connector-curvature="0"
       id="path11447-69-5"
       d="m 346.7123,35.191098 -252.8988,71.781062 -0.875,0.84375 -0.9063,1.20312 -0.6406,1.29688 -0.6094,1.84375 -0.5625,1.89062 -0.4687,2.17188 -0.4219,1.96875 -0.3437,2.39062 -0.2188,2.28125 -0.1406,2.10938 -0.047,2.34375 0.078,2.625 0.1406,2.15625 0.1406,1.07812 0.2813,0.79688 0.4687,0.89062 0.6094,0.73438 0.2031,0.0312 0.9063,-0.28125 261.426,-74.158832 z"
       style="fill:#b4b4b4;fill-opacity:1;fill-rule:evenodd;stroke:none;stroke-width:1px;stroke-linecap:butt;stroke-linejoin:miter;stroke-opacity:1" /><path
       inkscape:connector-curvature="0"
       id="path15668-2-1"
       style="fill:none;stroke:#000000;stroke-width:0.44200003;stroke-linecap:butt;stroke-linejoin:miter;stroke-miterlimit:4;stroke-dasharray:none;stroke-opacity:1"
       d="m 90.4684,135.61426 39.2519,-11.13321" /><path
       inkscape:connector-curvature="0"
       id="path15670-2-1"
       style="fill:none;stroke:#000000;stroke-width:0.44200003;stroke-linecap:butt;stroke-linejoin:miter;stroke-miterlimit:4;stroke-dasharray:none;stroke-opacity:1"
       d="M 129.7203,124.48105 216.1065,99.979018" /><path
       inkscape:connector-curvature="0"
       id="path15674-3-6"
       style="fill:none;stroke:#000000;stroke-width:0.44200003;stroke-linecap:butt;stroke-linejoin:miter;stroke-miterlimit:4;stroke-dasharray:none;stroke-opacity:1"
       d="M 216.0591,99.993068 351.442,61.593908" /><path
       inkscape:connector-curvature="0"
       id="path15704-1-7"
       style="fill:none;stroke:#000000;stroke-width:0.44200003;stroke-linecap:butt;stroke-linejoin:miter;stroke-miterlimit:4;stroke-dasharray:none;stroke-opacity:1"
       d="m 91.3872,110.33893 -0.2821,0.80145 -0.2685,0.81537 -0.2549,0.82942 -0.2408,0.84357 -0.2268,0.85784 -0.2111,0.86643 -0.1982,0.88657 -0.1827,0.89806 -0.1672,0.9093 -0.1514,0.92036 -0.1356,0.93116 -0.1193,0.94162 -0.103,0.95184 -0.086,0.96166 -0.07,0.97107 -0.053,0.98006 -0.036,0.98862 -0.019,0.99661 0,1.00404 0.016,1.01088 0.034,1.01709 0.052,1.02258 0.069,1.02728 0.027,0.34219" /><path
       inkscape:connector-curvature="0"
       id="path15708-5-4"
       style="fill:none;stroke:#000000;stroke-width:0.44200003;stroke-linecap:butt;stroke-linejoin:miter;stroke-miterlimit:4;stroke-dasharray:none;stroke-opacity:1"
       d="m 88.7784,132.114 0.01,0.0918 0.015,0.13961 0.018,0.13786 0.02,0.13612 0.023,0.13452 0.026,0.13306 0.029,0.13176 0.032,0.1306 0.023,0.0853 0.037,0.12886 0.039,0.1274 0.042,0.1258 0.045,0.12406 0.047,0.12203 0.05,0.11985 0.052,0.11752 0.054,0.11505 0.056,0.11259 0.058,0.10982 0.06,0.10707 0.062,0.1043 0.064,0.1014 0.065,0.0983 0.067,0.0954 0.069,0.0924 0.07,0.0893 0.072,0.0863 0.073,0.0832 0.074,0.0802 0.075,0.0771 0.077,0.0741 0.078,0.071" /><path
       inkscape:connector-curvature="0"
       id="path15710-4-6"
       style="fill:none;stroke:#000000;stroke-width:0.44200003;stroke-linecap:butt;stroke-linejoin:miter;stroke-miterlimit:4;stroke-dasharray:none;stroke-opacity:1"
       d="m 93.7858,106.9712 -0.1344,0.12202 -0.1323,0.12465 -0.1304,0.1274 -0.1286,0.1303 -0.1268,0.13307 -0.1166,0.12682 -0.01,0.0102 -0.1212,0.13699 -0.1174,0.13728 -0.1133,0.13743 -0.1092,0.13771 -0.1052,0.13772 -0.101,0.13771 -0.097,0.13757 -0.093,0.13743 -0.089,0.13742 -0.085,0.13714 -0.081,0.1367 -0.077,0.13655 -0.073,0.13612 -0.069,0.13583 -0.065,0.13553 -0.062,0.1351 -0.058,0.13467 -0.054,0.13423 -0.05,0.13379" /><path
       id="path15712-2-6"
       d="M 93.7858,106.97122 346.7508,35.221718"
       style="fill:none;stroke:#000000;stroke-width:0.44200003;stroke-linecap:butt;stroke-linejoin:miter;stroke-miterlimit:4;stroke-dasharray:none;stroke-opacity:1"
       inkscape:connector-curvature="0" /><path
       inkscape:connector-curvature="0"
       id="path15716-0-8"
       style="fill:none;stroke:#000000;stroke-width:0.44200003;stroke-linecap:butt;stroke-linejoin:miter;stroke-miterlimit:4;stroke-dasharray:none;stroke-opacity:1"
       d="m 90.356,135.59791 c 0.037,0.006 0.075,0.0116 0.1123,0.0164" /><path
       inkscape:connector-curvature="0"
       id="path15744-8-3"
       style="fill:none;stroke:#000000;stroke-width:0.44200003;stroke-linecap:butt;stroke-linejoin:miter;stroke-miterlimit:4;stroke-dasharray:none;stroke-opacity:1"
       d="m 90.356,135.59791 39.3517,-11.16146" /><path
       inkscape:connector-curvature="0"
       id="path11447-69-58"
       d="m 346.7123,9.890095 -252.8988,71.78106 -0.875,0.84375 -0.9063,1.20312 -0.6406,1.29688 -0.6094,1.84375 -0.5625,1.89062 -0.4687,2.17188 -0.4219,1.96875 -0.3437,2.39062 -0.2188,2.28125 -0.1406,2.10938 -0.047,2.343755 0.078,2.625 0.1406,2.15625 0.1406,1.07811 0.2813,0.79689 0.4687,0.89061 0.6094,0.73439 0.2031,0.0312 0.9063,-0.28125 261.426,-74.158825 z"
       style="fill:#b4b4b4;fill-opacity:1;fill-rule:evenodd;stroke:none;stroke-width:1px;stroke-linecap:butt;stroke-linejoin:miter;stroke-opacity:1" /><path
       inkscape:connector-curvature="0"
       id="path15668-2-8"
       style="fill:none;stroke:#000000;stroke-width:0.44200003;stroke-linecap:butt;stroke-linejoin:miter;stroke-miterlimit:4;stroke-dasharray:none;stroke-opacity:1"
       d="M 90.4684,110.31325 129.7203,99.180045" /><path
       inkscape:connector-curvature="0"
       id="path15670-2-6"
       style="fill:none;stroke:#000000;stroke-width:0.44200003;stroke-linecap:butt;stroke-linejoin:miter;stroke-miterlimit:4;stroke-dasharray:none;stroke-opacity:1"
       d="m 129.7203,99.180045 86.3862,-24.50203" /><path
       inkscape:connector-curvature="0"
       id="path15674-3-0"
       style="fill:none;stroke:#000000;stroke-width:0.44200003;stroke-linecap:butt;stroke-linejoin:miter;stroke-miterlimit:4;stroke-dasharray:none;stroke-opacity:1"
       d="M 216.0591,74.692065 351.442,36.292905" /><path
       inkscape:connector-curvature="0"
       id="path15704-1-5"
       style="fill:none;stroke:#000000;stroke-width:0.44200003;stroke-linecap:butt;stroke-linejoin:miter;stroke-miterlimit:4;stroke-dasharray:none;stroke-opacity:1"
       d="m 91.3872,85.037925 -0.2821,0.80145 -0.2685,0.81537 -0.2549,0.82942 -0.2408,0.84357 -0.2268,0.85784 -0.2111,0.86643 -0.1982,0.88657 -0.1827,0.89806 -0.1672,0.9093 -0.1514,0.92036 -0.1356,0.93116 -0.1193,0.94162 -0.103,0.95184 -0.086,0.96166 -0.07,0.97107 -0.053,0.98006 -0.036,0.988625 -0.019,0.99661 0,1.00404 0.016,1.01088 0.034,1.01709 0.052,1.02258 0.069,1.02728 0.027,0.34219" /><path
       inkscape:connector-curvature="0"
       id="path15708-5-48"
       style="fill:none;stroke:#000000;stroke-width:0.44200003;stroke-linecap:butt;stroke-linejoin:miter;stroke-miterlimit:4;stroke-dasharray:none;stroke-opacity:1"
       d="m 88.7784,106.813 0.01,0.0918 0.015,0.13961 0.018,0.13786 0.02,0.13612 0.023,0.13452 0.026,0.13306 0.029,0.13176 0.032,0.1306 0.023,0.0853 0.037,0.12886 0.039,0.1274 0.042,0.1258 0.045,0.12406 0.047,0.12203 0.05,0.11985 0.052,0.11752 0.054,0.11505 0.056,0.11259 0.058,0.10982 0.06,0.10706 0.062,0.1043 0.064,0.1014 0.065,0.0983 0.067,0.0954 0.069,0.0924 0.07,0.0893 0.072,0.0863 0.073,0.0832 0.074,0.0802 0.075,0.0771 0.077,0.0741 0.078,0.071" /><path
       inkscape:connector-curvature="0"
       id="path15710-4-3"
       style="fill:none;stroke:#000000;stroke-width:0.44200003;stroke-linecap:butt;stroke-linejoin:miter;stroke-miterlimit:4;stroke-dasharray:none;stroke-opacity:1"
       d="m 93.7858,81.670195 -0.1344,0.12202 -0.1323,0.12465 -0.1304,0.1274 -0.1286,0.1303 -0.1268,0.13307 -0.1166,0.12682 -0.01,0.0102 -0.1212,0.13699 -0.1174,0.13728 -0.1133,0.13743 -0.1092,0.13771 -0.1052,0.13772 -0.101,0.13771 -0.097,0.13757 -0.093,0.13743 -0.089,0.13742 -0.085,0.13714 -0.081,0.1367 -0.077,0.13655 -0.073,0.13612 -0.069,0.13583 -0.065,0.13553 -0.062,0.1351 -0.058,0.13467 -0.054,0.13423 -0.05,0.13379" /><path
       id="path15712-2-8"
       d="m 93.7858,81.670215 252.965,-71.7495"
       style="fill:none;stroke:#000000;stroke-width:0.44200003;stroke-linecap:butt;stroke-linejoin:miter;stroke-miterlimit:4;stroke-dasharray:none;stroke-opacity:1"
       inkscape:connector-curvature="0" /><path
       inkscape:connector-curvature="0"
       id="path15716-0-3"
       style="fill:none;stroke:#000000;stroke-width:0.44200003;stroke-linecap:butt;stroke-linejoin:miter;stroke-miterlimit:4;stroke-dasharray:none;stroke-opacity:1"
       d="m 90.356,110.2969 c 0.037,0.006 0.075,0.0116 0.1123,0.0164" /><path
       inkscape:connector-curvature="0"
       id="path15744-8-5"
       style="fill:none;stroke:#000000;stroke-width:0.44200003;stroke-linecap:butt;stroke-linejoin:miter;stroke-miterlimit:4;stroke-dasharray:none;stroke-opacity:1"
       d="M 90.356,110.2969 129.7077,99.135445" /><path
       inkscape:connector-curvature="0"
       id="path11447-69-6"
       d="m 346.7123,-15.410906 -252.8988,71.78106 -0.875,0.84375 -0.9063,1.20312 -0.6406,1.29688 -0.6094,1.84375 -0.5625,1.89062 -0.4687,2.17188 -0.4219,1.96875 -0.3437,2.39062 -0.2188,2.28125 -0.1406,2.10938 -0.047,2.34375 0.078,2.625 0.1406,2.15625 0.1406,1.07812 0.2813,0.79688 0.4687,0.89062 0.6094,0.73438 0.2031,0.0312 0.9063,-0.28125 261.426,-74.15883 z"
       style="fill:#b4b4b4;fill-opacity:1;fill-rule:evenodd;stroke:none;stroke-width:1px;stroke-linecap:butt;stroke-linejoin:miter;stroke-opacity:1" /><path
       inkscape:connector-curvature="0"
       id="path15668-2-3"
       style="fill:none;stroke:#000000;stroke-width:0.44200003;stroke-linecap:butt;stroke-linejoin:miter;stroke-miterlimit:4;stroke-dasharray:none;stroke-opacity:1"
       d="m 90.4684,85.012254 39.2519,-11.13321" /><path
       inkscape:connector-curvature="0"
       id="path15670-2-8"
       style="fill:none;stroke:#000000;stroke-width:0.44200003;stroke-linecap:butt;stroke-linejoin:miter;stroke-miterlimit:4;stroke-dasharray:none;stroke-opacity:1"
       d="m 129.7203,73.879044 86.3862,-24.50203" /><path
       inkscape:connector-curvature="0"
       id="path15674-3-5"
       style="fill:none;stroke:#000000;stroke-width:0.44200003;stroke-linecap:butt;stroke-linejoin:miter;stroke-miterlimit:4;stroke-dasharray:none;stroke-opacity:1"
       d="M 216.0591,49.391064 351.442,10.991904" /><path
       inkscape:connector-curvature="0"
       id="path15704-1-9"
       style="fill:none;stroke:#000000;stroke-width:0.44200003;stroke-linecap:butt;stroke-linejoin:miter;stroke-miterlimit:4;stroke-dasharray:none;stroke-opacity:1"
       d="m 91.3872,59.736924 -0.2821,0.80145 -0.2685,0.81537 -0.2549,0.82942 -0.2408,0.84357 -0.2268,0.85784 -0.2111,0.86643 -0.1982,0.88657 -0.1827,0.89806 -0.1672,0.9093 -0.1514,0.92036 -0.1356,0.93116 -0.1193,0.94162 -0.103,0.95184 -0.086,0.96166 -0.07,0.97107 -0.053,0.98006 -0.036,0.98862 -0.019,0.99661 0,1.00404 0.016,1.01088 0.034,1.01709 0.052,1.02258 0.069,1.02728 0.027,0.34219" /><path
       inkscape:connector-curvature="0"
       id="path15708-5-0"
       style="fill:none;stroke:#000000;stroke-width:0.44200003;stroke-linecap:butt;stroke-linejoin:miter;stroke-miterlimit:4;stroke-dasharray:none;stroke-opacity:1"
       d="m 88.7784,81.511994 0.01,0.0918 0.015,0.13961 0.018,0.13786 0.02,0.13612 0.023,0.13452 0.026,0.13306 0.029,0.13176 0.032,0.1306 0.023,0.0853 0.037,0.12886 0.039,0.1274 0.042,0.1258 0.045,0.12406 0.047,0.12203 0.05,0.11985 0.052,0.11752 0.054,0.11505 0.056,0.11259 0.058,0.10982 0.06,0.10707 0.062,0.1043 0.064,0.1014 0.065,0.0983 0.067,0.0954 0.069,0.0924 0.07,0.0893 0.072,0.0863 0.073,0.0832 0.074,0.0802 0.075,0.0771 0.077,0.0741 0.078,0.071" /><path
       inkscape:connector-curvature="0"
       id="path15710-4-5"
       style="fill:none;stroke:#000000;stroke-width:0.44200003;stroke-linecap:butt;stroke-linejoin:miter;stroke-miterlimit:4;stroke-dasharray:none;stroke-opacity:1"
       d="m 93.7858,56.369194 -0.1344,0.12202 -0.1323,0.12465 -0.1304,0.1274 -0.1286,0.1303 -0.1268,0.13307 -0.1166,0.12682 -0.01,0.0102 -0.1212,0.13699 -0.1174,0.13728 -0.1133,0.13743 -0.1092,0.13771 -0.1052,0.13772 -0.101,0.13771 -0.097,0.13757 -0.093,0.13743 -0.089,0.13742 -0.085,0.13714 -0.081,0.1367 -0.077,0.13655 -0.073,0.13612 -0.069,0.13583 -0.065,0.13553 -0.062,0.1351 -0.058,0.13467 -0.054,0.13423 -0.05,0.13379" /><path
       id="path15712-2-4"
       d="m 93.7858,56.369214 252.965,-71.7495"
       style="fill:none;stroke:#000000;stroke-width:0.44200003;stroke-linecap:butt;stroke-linejoin:miter;stroke-miterlimit:4;stroke-dasharray:none;stroke-opacity:1"
       inkscape:connector-curvature="0" /><path
       inkscape:connector-curvature="0"
       id="path15716-0-6"
       style="fill:none;stroke:#000000;stroke-width:0.44200003;stroke-linecap:butt;stroke-linejoin:miter;stroke-miterlimit:4;stroke-dasharray:none;stroke-opacity:1"
       d="m 90.356,84.995904 c 0.037,0.006 0.075,0.0116 0.1123,0.0164" /><path
       inkscape:connector-curvature="0"
       id="path15744-8-4"
       style="fill:none;stroke:#000000;stroke-width:0.44200003;stroke-linecap:butt;stroke-linejoin:miter;stroke-miterlimit:4;stroke-dasharray:none;stroke-opacity:1"
       d="m 90.356,84.995904 39.3517,-11.16146" /><path
       inkscape:connector-curvature="0"
       id="path11447-69-7"
       d="m 346.7123,-40.711958 -252.8988,71.78106 -0.875,0.84375 -0.9063,1.20312 -0.6406,1.29688 -0.6094,1.84375 -0.5625,1.89062 -0.4687,2.17188 -0.4219,1.96875 -0.3437,2.39062 -0.2188,2.28125 -0.1406,2.10938 -0.047,2.34375 0.078,2.625 0.1406,2.15625 0.1406,1.07812 0.2813,0.79688 0.4687,0.89062 0.6094,0.73438 0.2031,0.0312 0.9063,-0.28125 261.426,-74.15883 z"
       style="fill:#b4b4b4;fill-opacity:1;fill-rule:evenodd;stroke:none;stroke-width:1px;stroke-linecap:butt;stroke-linejoin:miter;stroke-opacity:1" /><path
       inkscape:connector-curvature="0"
       id="path15668-2-10"
       style="fill:none;stroke:#000000;stroke-width:0.44200003;stroke-linecap:butt;stroke-linejoin:miter;stroke-miterlimit:4;stroke-dasharray:none;stroke-opacity:1"
       d="m 90.4684,59.711202 39.2519,-11.13321" /><path
       inkscape:connector-curvature="0"
       id="path15670-2-7"
       style="fill:none;stroke:#000000;stroke-width:0.44200003;stroke-linecap:butt;stroke-linejoin:miter;stroke-miterlimit:4;stroke-dasharray:none;stroke-opacity:1"
       d="m 129.7203,48.577992 86.3862,-24.50203" /><path
       inkscape:connector-curvature="0"
       id="path15674-3-3"
       style="fill:none;stroke:#000000;stroke-width:0.44200003;stroke-linecap:butt;stroke-linejoin:miter;stroke-miterlimit:4;stroke-dasharray:none;stroke-opacity:1"
       d="M 216.0591,24.090012 351.442,-14.309148" /><path
       inkscape:connector-curvature="0"
       id="path15704-1-8"
       style="fill:none;stroke:#000000;stroke-width:0.44200003;stroke-linecap:butt;stroke-linejoin:miter;stroke-miterlimit:4;stroke-dasharray:none;stroke-opacity:1"
       d="m 91.3872,34.435872 -0.2821,0.80145 -0.2685,0.81537 -0.2549,0.82942 -0.2408,0.84357 -0.2268,0.85784 -0.2111,0.86643 -0.1982,0.88657 -0.1827,0.89806 -0.1672,0.9093 -0.1514,0.92036 -0.1356,0.93116 -0.1193,0.94162 -0.103,0.95184 -0.086,0.96166 -0.07,0.97107 -0.053,0.98006 -0.036,0.98862 -0.019,0.99661 0,1.00404 0.016,1.01088 0.034,1.01709 0.052,1.02258 0.069,1.02728 0.027,0.34219" /><path
       inkscape:connector-curvature="0"
       id="path15708-5-02"
       style="fill:none;stroke:#000000;stroke-width:0.44200003;stroke-linecap:butt;stroke-linejoin:miter;stroke-miterlimit:4;stroke-dasharray:none;stroke-opacity:1"
       d="m 88.7784,56.210942 0.01,0.0918 0.015,0.13961 0.018,0.13786 0.02,0.13612 0.023,0.13452 0.026,0.13306 0.029,0.13176 0.032,0.1306 0.023,0.0853 0.037,0.12886 0.039,0.1274 0.042,0.1258 0.045,0.12406 0.047,0.12203 0.05,0.11985 0.052,0.11752 0.054,0.11505 0.056,0.11259 0.058,0.10982 0.06,0.10707 0.062,0.1043 0.064,0.1014 0.065,0.0983 0.067,0.0954 0.069,0.0924 0.07,0.0893 0.072,0.0863 0.073,0.0832 0.074,0.0802 0.075,0.0771 0.077,0.0741 0.078,0.071" /><path
       inkscape:connector-curvature="0"
       id="path15710-4-4"
       style="fill:none;stroke:#000000;stroke-width:0.44200003;stroke-linecap:butt;stroke-linejoin:miter;stroke-miterlimit:4;stroke-dasharray:none;stroke-opacity:1"
       d="m 93.7858,31.068142 -0.1344,0.12202 -0.1323,0.12465 -0.1304,0.1274 -0.1286,0.1303 -0.1268,0.13307 -0.1166,0.12682 -0.01,0.0102 -0.1212,0.13699 -0.1174,0.13728 -0.1133,0.13743 -0.1092,0.13771 -0.1052,0.13772 -0.101,0.13771 -0.097,0.13757 -0.093,0.13743 -0.089,0.13742 -0.085,0.13714 -0.081,0.1367 -0.077,0.13655 -0.073,0.13612 -0.069,0.13583 -0.065,0.13553 -0.062,0.1351 -0.058,0.13467 -0.054,0.13423 -0.05,0.13379" /><path
       id="path15712-2-5"
       d="m 93.7858,31.068162 252.965,-71.7495"
       style="fill:none;stroke:#000000;stroke-width:0.44200003;stroke-linecap:butt;stroke-linejoin:miter;stroke-miterlimit:4;stroke-dasharray:none;stroke-opacity:1"
       inkscape:connector-curvature="0" /><path
       inkscape:connector-curvature="0"
       id="path15716-0-2"
       style="fill:none;stroke:#000000;stroke-width:0.44200003;stroke-linecap:butt;stroke-linejoin:miter;stroke-miterlimit:4;stroke-dasharray:none;stroke-opacity:1"
       d="m 90.356,59.694852 c 0.037,0.006 0.075,0.0116 0.1123,0.0164" /><path
       inkscape:connector-curvature="0"
       id="path15744-8-6"
       style="fill:none;stroke:#000000;stroke-width:0.44200003;stroke-linecap:butt;stroke-linejoin:miter;stroke-miterlimit:4;stroke-dasharray:none;stroke-opacity:1"
       d="m 90.356,59.694852 39.3517,-11.16146" /><path
       inkscape:connector-curvature="0"
       id="path11447-69"
       d="M 346.7128,-66.012712 93.814,5.768348 l -0.875,0.84375 -0.9063,1.20312 -0.6406,1.29688 -0.6094,1.84375 -0.5625,1.89062 -0.4687,2.17188 -0.4219,1.96875 -0.3437,2.39062 -0.2188,2.28125 -0.1406,2.10938 -0.047,2.34375 0.078,2.625 0.1406,2.15625 0.1406,1.07812 0.2813,0.79688 0.4687,0.89062 0.6094,0.73438 0.2031,0.0312 0.9063,-0.28125 261.426,-74.15883 z"
       style="fill:#b4b4b4;fill-opacity:1;fill-rule:evenodd;stroke:none;stroke-width:1px;stroke-linecap:butt;stroke-linejoin:miter;stroke-opacity:1" /><path
       inkscape:connector-curvature="0"
       id="path15668-2"
       style="fill:none;stroke:#000000;stroke-width:0.44200003;stroke-linecap:butt;stroke-linejoin:miter;stroke-miterlimit:4;stroke-dasharray:none;stroke-opacity:1"
       d="m 90.4689,34.410448 39.2519,-11.13321" /><path
       inkscape:connector-curvature="0"
       id="path15670-2"
       style="fill:none;stroke:#000000;stroke-width:0.44200003;stroke-linecap:butt;stroke-linejoin:miter;stroke-miterlimit:4;stroke-dasharray:none;stroke-opacity:1"
       d="M 129.7208,23.277238 216.107,-1.224792" /><path
       inkscape:connector-curvature="0"
       id="path15674-3"
       style="fill:none;stroke:#000000;stroke-width:0.44200003;stroke-linecap:butt;stroke-linejoin:miter;stroke-miterlimit:4;stroke-dasharray:none;stroke-opacity:1"
       d="m 216.0596,-1.210742 135.3829,-38.39916" /><path
       inkscape:connector-curvature="0"
       id="path15704-1"
       style="fill:none;stroke:#000000;stroke-width:0.44200003;stroke-linecap:butt;stroke-linejoin:miter;stroke-miterlimit:4;stroke-dasharray:none;stroke-opacity:1"
       d="m 91.3877,9.135118 -0.2821,0.80145 -0.2685,0.81537 -0.2549,0.82942 -0.2408,0.84357 -0.2268,0.85784 -0.2111,0.86643 -0.1982,0.88657 -0.1827,0.89806 -0.1672,0.9093 -0.1514,0.92036 -0.1356,0.93116 -0.1193,0.94162 -0.103,0.95184 -0.086,0.96166 -0.07,0.97107 -0.053,0.98006 -0.036,0.98862 -0.019,0.99661 0,1.00404 0.016,1.01088 0.034,1.01709 0.052,1.02258 0.069,1.02728 0.027,0.34219" /><path
       inkscape:connector-curvature="0"
       id="path15708-5"
       style="fill:none;stroke:#000000;stroke-width:0.44200003;stroke-linecap:butt;stroke-linejoin:miter;stroke-miterlimit:4;stroke-dasharray:none;stroke-opacity:1"
       d="m 88.7789,30.910188 0.01,0.0918 0.015,0.13961 0.018,0.13786 0.02,0.13612 0.023,0.13452 0.026,0.13306 0.029,0.13176 0.032,0.1306 0.023,0.0853 0.037,0.12886 0.039,0.1274 0.042,0.1258 0.045,0.12406 0.047,0.12203 0.05,0.11985 0.052,0.11752 0.054,0.11505 0.056,0.11259 0.058,0.10982 0.06,0.10707 0.062,0.1043 0.064,0.1014 0.065,0.0983 0.067,0.0954 0.069,0.0924 0.07,0.0893 0.072,0.0863 0.073,0.0832 0.074,0.0802 0.075,0.0771 0.077,0.0741 0.078,0.071" /><path
       inkscape:connector-curvature="0"
       id="path15710-4"
       style="fill:none;stroke:#000000;stroke-width:0.44200003;stroke-linecap:butt;stroke-linejoin:miter;stroke-miterlimit:4;stroke-dasharray:none;stroke-opacity:1"
       d="m 93.7863,5.767388 -0.1344,0.12202 -0.1323,0.12465 -0.1304,0.1274 -0.1286,0.1303 -0.1268,0.13307 -0.1166,0.12682 -0.01,0.0102 -0.1212,0.13699 -0.1174,0.13728 -0.1133,0.13743 -0.1092,0.13771 -0.1052,0.13772 -0.101,0.13771 -0.097,0.13757 -0.093,0.13743 -0.089,0.13742 -0.085,0.13714 -0.081,0.1367 -0.077,0.13655 -0.073,0.13612 -0.069,0.13583 -0.065,0.13553 -0.062,0.1351 -0.058,0.13467 -0.054,0.13423 -0.05,0.13379" /><path
       id="path15712-2"
       d="m 93.7863,5.767408 252.965,-71.7495"
       style="fill:none;stroke:#000000;stroke-width:0.44200003;stroke-linecap:butt;stroke-linejoin:miter;stroke-miterlimit:4;stroke-dasharray:none;stroke-opacity:1"
       inkscape:connector-curvature="0" /><path
       inkscape:connector-curvature="0"
       id="path15716-0"
       style="fill:none;stroke:#000000;stroke-width:0.44200003;stroke-linecap:butt;stroke-linejoin:miter;stroke-miterlimit:4;stroke-dasharray:none;stroke-opacity:1"
       d="m 90.3565,34.394098 c 0.037,0.006 0.075,0.0116 0.1123,0.0164" /><path
       inkscape:connector-curvature="0"
       id="path15744-8"
       style="fill:none;stroke:#000000;stroke-width:0.44200003;stroke-linecap:butt;stroke-linejoin:miter;stroke-miterlimit:4;stroke-dasharray:none;stroke-opacity:1"
       d="m 90.3565,34.394098 39.3517,-11.16146" /><path
       inkscape:connector-curvature="0"
       id="path11447-69-4"
       d="m 347.0864,-91.313512 -252.8988,71.78106 -0.875,0.84375 -0.9063,1.20312 -0.6406,1.29688 -0.6094,1.84375 -0.5625,1.89062 -0.4687,2.17188 -0.4219,1.96875 -0.3437,2.39062 -0.2188,2.28125 -0.1406,2.10938 -0.047,2.34375 0.078,2.625 0.1406,2.15625 0.1406,1.07812 0.2813,0.79688 0.4687,0.89062 0.6094,0.73438 0.2031,0.0312 0.9063,-0.28125 261.426,-74.15883 z"
       style="fill:#b4b4b4;fill-opacity:1;fill-rule:evenodd;stroke:none;stroke-width:1px;stroke-linecap:butt;stroke-linejoin:miter;stroke-opacity:1" /><path
       inkscape:connector-curvature="0"
       id="path15668-2-5"
       style="fill:none;stroke:#000000;stroke-width:0.44200003;stroke-linecap:butt;stroke-linejoin:miter;stroke-miterlimit:4;stroke-dasharray:none;stroke-opacity:1"
       d="m 90.8425,9.109648 39.2519,-11.13321" /><path
       inkscape:connector-curvature="0"
       id="path15670-2-9"
       style="fill:none;stroke:#000000;stroke-width:0.44200003;stroke-linecap:butt;stroke-linejoin:miter;stroke-miterlimit:4;stroke-dasharray:none;stroke-opacity:1"
       d="m 130.0944,-2.023562 86.3862,-24.50203" /><path
       inkscape:connector-curvature="0"
       id="path15674-3-1"
       style="fill:none;stroke:#000000;stroke-width:0.44200003;stroke-linecap:butt;stroke-linejoin:miter;stroke-miterlimit:4;stroke-dasharray:none;stroke-opacity:1"
       d="m 216.4332,-26.511542 135.3829,-38.39916" /><path
       inkscape:connector-curvature="0"
       id="path15704-1-6"
       style="fill:none;stroke:#000000;stroke-width:0.44200003;stroke-linecap:butt;stroke-linejoin:miter;stroke-miterlimit:4;stroke-dasharray:none;stroke-opacity:1"
       d="m 91.7613,-16.165682 -0.2821,0.80145 -0.2685,0.81537 -0.2549,0.82942 -0.2408,0.84357 -0.2268,0.85784 -0.2111,0.86643 -0.1982,0.88657 -0.1827,0.89806 -0.1672,0.9093 -0.1514,0.92036 -0.1356,0.93116 -0.1193,0.94162 -0.103,0.95184 -0.086,0.96166 -0.07,0.97107 -0.053,0.98006 -0.036,0.98862 -0.019,0.99661 0,1.00404 0.016,1.01088 0.034,1.01709 0.052,1.02258 0.069,1.02728 0.027,0.34219" /><path
       inkscape:connector-curvature="0"
       id="path15708-5-9"
       style="fill:none;stroke:#000000;stroke-width:0.44200003;stroke-linecap:butt;stroke-linejoin:miter;stroke-miterlimit:4;stroke-dasharray:none;stroke-opacity:1"
       d="m 89.1525,5.609388 0.01,0.0918 0.015,0.13961 0.018,0.13786 0.02,0.13612 0.023,0.13452 0.026,0.13306 0.029,0.13176 0.032,0.1306 0.023,0.0853 0.037,0.12886 0.039,0.1274 0.042,0.1258 0.045,0.12406 0.047,0.12203 0.05,0.11985 0.052,0.11752 0.054,0.11505 0.056,0.11259 0.058,0.10982 0.06,0.10707 0.062,0.1043 0.064,0.1014 0.065,0.0983 0.067,0.0954 0.069,0.0924 0.07,0.0893 0.072,0.0863 0.073,0.0832 0.074,0.0802 0.075,0.0771 0.077,0.0741 0.078,0.071" /><path
       inkscape:connector-curvature="0"
       id="path15710-4-45"
       style="fill:none;stroke:#000000;stroke-width:0.44200003;stroke-linecap:butt;stroke-linejoin:miter;stroke-miterlimit:4;stroke-dasharray:none;stroke-opacity:1"
       d="m 94.1599,-19.533412 -0.1344,0.12202 -0.1323,0.12465 -0.1304,0.1274 -0.1286,0.1303 -0.1268,0.13307 -0.1166,0.12682 -0.01,0.0102 -0.1212,0.13699 -0.1174,0.13728 -0.1133,0.13743 -0.1092,0.13771 -0.1052,0.13772 -0.101,0.13771 -0.097,0.13757 -0.093,0.13743 -0.089,0.13742 -0.085,0.13714 -0.081,0.1367 -0.077,0.13655 -0.073,0.13612 -0.069,0.13583 -0.065,0.13553 -0.062,0.1351 -0.058,0.13467 -0.054,0.13423 -0.05,0.13379" /><path
       id="path15712-2-2"
       d="m 94.1599,-19.533392 252.965,-71.7495"
       style="fill:none;stroke:#000000;stroke-width:0.44200003;stroke-linecap:butt;stroke-linejoin:miter;stroke-miterlimit:4;stroke-dasharray:none;stroke-opacity:1"
       inkscape:connector-curvature="0" /><path
       inkscape:connector-curvature="0"
       id="path15716-0-25"
       style="fill:none;stroke:#000000;stroke-width:0.44200003;stroke-linecap:butt;stroke-linejoin:miter;stroke-miterlimit:4;stroke-dasharray:none;stroke-opacity:1"
       d="m 90.7301,9.093298 c 0.037,0.006 0.075,0.0116 0.1123,0.0164" /><path
       inkscape:connector-curvature="0"
       id="path15744-8-0"
       style="fill:none;stroke:#000000;stroke-width:0.44200003;stroke-linecap:butt;stroke-linejoin:miter;stroke-miterlimit:4;stroke-dasharray:none;stroke-opacity:1"
       d="m 90.7301,9.093298 39.3517,-11.16146" /><path
       inkscape:connector-curvature="0"
       id="path11447-69-3"
       d="m 346.7128,-116.61451 -252.8988,71.78106 -0.875,0.84375 -0.9063,1.20312 -0.6406,1.29688 -0.6094,1.84375 -0.5625,1.89062 -0.4687,2.17188 -0.4219,1.96875 -0.3437,2.39062 -0.2188,2.28125 -0.1406,2.10938 -0.047,2.34375 0.078,2.625 0.1406,2.15625 0.1406,1.07812 0.2813,0.79688 0.4687,0.89062 0.6094,0.73438 0.2031,0.0312 0.9063,-0.28125 261.426,-74.15883 z"
       style="fill:#b4b4b4;fill-opacity:1;fill-rule:evenodd;stroke:none;stroke-width:1px;stroke-linecap:butt;stroke-linejoin:miter;stroke-opacity:1" /><path
       inkscape:connector-curvature="0"
       id="path15668-2-58"
       style="fill:none;stroke:#000000;stroke-width:0.44200003;stroke-linecap:butt;stroke-linejoin:miter;stroke-miterlimit:4;stroke-dasharray:none;stroke-opacity:1"
       d="m 90.4689,-16.19135 39.2519,-11.13321" /><path
       inkscape:connector-curvature="0"
       id="path15670-2-80"
       style="fill:none;stroke:#000000;stroke-width:0.44200003;stroke-linecap:butt;stroke-linejoin:miter;stroke-miterlimit:4;stroke-dasharray:none;stroke-opacity:1"
       d="M 129.7208,-27.32456 216.107,-51.82659" /><path
       inkscape:connector-curvature="0"
       id="path15674-3-9"
       style="fill:none;stroke:#000000;stroke-width:0.44200003;stroke-linecap:butt;stroke-linejoin:miter;stroke-miterlimit:4;stroke-dasharray:none;stroke-opacity:1"
       d="M 216.0596,-51.81254 351.4425,-90.2117" /><path
       inkscape:connector-curvature="0"
       id="path15704-1-90"
       style="fill:none;stroke:#000000;stroke-width:0.44200003;stroke-linecap:butt;stroke-linejoin:miter;stroke-miterlimit:4;stroke-dasharray:none;stroke-opacity:1"
       d="m 91.3877,-41.46668 -0.2821,0.80145 -0.2685,0.81537 -0.2549,0.82942 -0.2408,0.84357 -0.2268,0.85784 -0.2111,0.86643 -0.1982,0.88657 -0.1827,0.89806 -0.1672,0.9093 -0.1514,0.92036 -0.1356,0.93116 -0.1193,0.94162 -0.103,0.95184 -0.086,0.96166 -0.07,0.97107 -0.053,0.98006 -0.036,0.98862 -0.019,0.99661 0,1.00404 0.016,1.01088 0.034,1.01709 0.052,1.02258 0.069,1.02728 0.027,0.34219" /><path
       inkscape:connector-curvature="0"
       id="path15708-5-3"
       style="fill:none;stroke:#000000;stroke-width:0.44200003;stroke-linecap:butt;stroke-linejoin:miter;stroke-miterlimit:4;stroke-dasharray:none;stroke-opacity:1"
       d="m 88.7789,-19.69161 0.01,0.0918 0.015,0.13961 0.018,0.13786 0.02,0.13612 0.023,0.13452 0.026,0.13306 0.029,0.13176 0.032,0.1306 0.023,0.0853 0.037,0.12886 0.039,0.1274 0.042,0.1258 0.045,0.12406 0.047,0.12203 0.05,0.11985 0.052,0.11752 0.054,0.11505 0.056,0.11259 0.058,0.10982 0.06,0.10707 0.062,0.1043 0.064,0.1014 0.065,0.0983 0.067,0.0954 0.069,0.0924 0.07,0.0893 0.072,0.0863 0.073,0.0832 0.074,0.0802 0.075,0.0771 0.077,0.0741 0.078,0.071" /><path
       inkscape:connector-curvature="0"
       id="path15710-4-2"
       style="fill:none;stroke:#000000;stroke-width:0.44200003;stroke-linecap:butt;stroke-linejoin:miter;stroke-miterlimit:4;stroke-dasharray:none;stroke-opacity:1"
       d="m 93.7863,-44.83441 -0.1344,0.12202 -0.1323,0.12465 -0.1304,0.1274 -0.1286,0.1303 -0.1268,0.13307 -0.1166,0.12682 -0.01,0.0102 -0.1212,0.13699 -0.1174,0.13728 -0.1133,0.13743 -0.1092,0.13771 -0.1052,0.13772 -0.101,0.13771 -0.097,0.13757 -0.093,0.13743 -0.089,0.13742 -0.085,0.13714 -0.081,0.1367 -0.077,0.13655 -0.073,0.13612 -0.069,0.13583 -0.065,0.13553 -0.062,0.1351 -0.058,0.13467 -0.054,0.13423 -0.05,0.13379" /><path
       id="path15712-2-7"
       d="m 93.7863,-44.83439 252.965,-71.7495"
       style="fill:none;stroke:#000000;stroke-width:0.44200003;stroke-linecap:butt;stroke-linejoin:miter;stroke-miterlimit:4;stroke-dasharray:none;stroke-opacity:1"
       inkscape:connector-curvature="0" /><path
       inkscape:connector-curvature="0"
       id="path15716-0-7"
       style="fill:none;stroke:#000000;stroke-width:0.44200003;stroke-linecap:butt;stroke-linejoin:miter;stroke-miterlimit:4;stroke-dasharray:none;stroke-opacity:1"
       d="m 90.3565,-16.2077 c 0.037,0.006 0.075,0.0116 0.1123,0.0164" /><path
       inkscape:connector-curvature="0"
       id="path15744-8-38"
       style="fill:none;stroke:#000000;stroke-width:0.44200003;stroke-linecap:butt;stroke-linejoin:miter;stroke-miterlimit:4;stroke-dasharray:none;stroke-opacity:1"
       d="m 90.3565,-16.2077 39.3517,-11.16146" /></g></svg>