<?xml version="1.0" encoding="UTF-8" standalone="no"?>
<!-- Created with Inkscape (http://www.inkscape.org/) -->

<svg
   xmlns:dc="http://purl.org/dc/elements/1.1/"
   xmlns:cc="http://creativecommons.org/ns#"
   xmlns:rdf="http://www.w3.org/1999/02/22-rdf-syntax-ns#"
   xmlns:svg="http://www.w3.org/2000/svg"
   xmlns="http://www.w3.org/2000/svg"
   xmlns:sodipodi="http://sodipodi.sourceforge.net/DTD/sodipodi-0.dtd"
   xmlns:inkscape="http://www.inkscape.org/namespaces/inkscape"
   id="svg2"
   version="1.1"
   inkscape:version="0.92.1 r15371"
   xml:space="preserve"
   width="100"
   height="100"
   viewBox="0 0 100 99.999997"
   sodipodi:docname="cable_connector.svg"
   inkscape:export-filename="C:\Users\Bert Bogaert\SharePoint\website - Documents\website\powerview_website\docs\imgs\datasheet\m25s-pv\end_cap_assembly.png"
   inkscape:export-xdpi="150"
   inkscape:export-ydpi="150"><metadata
     id="metadata8"><rdf:RDF><cc:Work
         rdf:about=""><dc:format>image/svg+xml</dc:format><dc:type
           rdf:resource="http://purl.org/dc/dcmitype/StillImage" /><dc:title /></cc:Work></rdf:RDF></metadata><defs
     id="defs6"><clipPath
       clipPathUnits="userSpaceOnUse"
       id="clipPath154"><path
         d="m 704.423,331.202 102.02,0 0,66.697 -102.02,0 0,-66.697 z"
         id="path156"
         inkscape:connector-curvature="0" /></clipPath><clipPath
       clipPathUnits="userSpaceOnUse"
       id="clipPath170"><path
         d="m 704.423,331.202 102.02,0 0,66.697 -102.02,0 0,-66.697 z"
         id="path172"
         inkscape:connector-curvature="0" /></clipPath><clipPath
       clipPathUnits="userSpaceOnUse"
       id="clipPath190"><path
         d="m 704.423,331.202 102.02,0 0,66.697 -102.02,0 0,-66.697 z"
         id="path192"
         inkscape:connector-curvature="0" /></clipPath><clipPath
       clipPathUnits="userSpaceOnUse"
       id="clipPath310"><path
         d="m 707.153,260.415 96.56,0 0,65.118 -96.56,0 0,-65.118 z"
         id="path312"
         inkscape:connector-curvature="0" /></clipPath><clipPath
       clipPathUnits="userSpaceOnUse"
       id="clipPath358"><path
         d="m 704.202,196.918 102.461,0 0,57.828 -102.461,0 0,-57.828 z"
         id="path360"
         inkscape:connector-curvature="0" /></clipPath><clipPath
       clipPathUnits="userSpaceOnUse"
       id="clipPath444"><path
         d="m 25.511,321.385 368.504,0 0,233.056 -368.504,0 0,-233.056 z"
         id="path446"
         inkscape:connector-curvature="0" /></clipPath><clipPath
       clipPathUnits="userSpaceOnUse"
       id="clipPath780"><path
         d="m 25.511,321.695 368.501,0 0,99.22 -368.501,0 0,-99.22 z"
         id="path782"
         inkscape:connector-curvature="0" /></clipPath><clipPath
       clipPathUnits="userSpaceOnUse"
       id="clipPath808"><path
         d="m 25.511,321.695 368.501,0 0,99.22 -368.501,0 0,-99.22 z"
         id="path810"
         inkscape:connector-curvature="0" /></clipPath></defs><sodipodi:namedview
     pagecolor="#ffffff"
     bordercolor="#666666"
     borderopacity="1"
     objecttolerance="10"
     gridtolerance="10"
     guidetolerance="10"
     inkscape:pageopacity="0"
     inkscape:pageshadow="2"
     inkscape:window-width="1920"
     inkscape:window-height="1017"
     id="namedview4"
     showgrid="false"
     units="px"
     inkscape:showpageshadow="false"
     inkscape:zoom="2.9769196"
     inkscape:cx="-21.755689"
     inkscape:cy="68.819687"
     inkscape:window-x="-8"
     inkscape:window-y="-8"
     inkscape:window-maximized="1"
     inkscape:current-layer="g10"
     fit-margin-top="0"
     fit-margin-left="0"
     fit-margin-right="0"
     fit-margin-bottom="0" /><g
     id="g10"
     inkscape:groupmode="layer"
     inkscape:label="Datasheet M25T PV-v1.1"
     transform="matrix(1.25,0,0,-1.25,-7.1993721e-6,100.00002)"><g
       id="g4721"
       transform="matrix(1.7763456,0,0,1.7765486,113.51359,-23.019929)"
       style="stroke-width:0.56292135"><path
         id="path4619"
         d="m -48.60289,36.529806 0.0074,0.0384 h -0.0022 l -0.0384,-0.107733 -0.103467,-0.177067 -0.1888,-0.2144 -0.224,-0.161067"
         style="fill:none;stroke:#000000;stroke-width:0.11888899;stroke-linecap:butt;stroke-linejoin:bevel;stroke-miterlimit:10;stroke-dasharray:none;stroke-opacity:1"
         inkscape:connector-curvature="0" /><path
         id="path4617"
         d="m -21.121291,49.286073 -0.139733,1.106133 -0.445867,1.144533 -0.746667,1.090133 -1.032533,1.005867 -1.290667,0.8992 -1.511466,0.768 -1.697066,0.6144 -1.835734,0.452266 -1.933866,0.277334 -1.981868,0.0992 -1.984,-0.08427 -1.937066,-0.261333 -1.845333,-0.437334 -1.706667,-0.599466 -1.412266,-0.698667"
         style="fill:none;stroke:#000000;stroke-width:0.11888899;stroke-linecap:butt;stroke-linejoin:bevel;stroke-miterlimit:10;stroke-dasharray:none;stroke-opacity:1"
         inkscape:connector-curvature="0" /><path
         id="path4615"
         d="m -42.738357,54.608739 -1.309867,-0.891734 -1.054933,-0.989866 -0.772267,-1.083733 -0.475733,-1.136 -0.168533,-1.221333"
         style="fill:none;stroke:#000000;stroke-width:0.11888899;stroke-linecap:butt;stroke-linejoin:bevel;stroke-miterlimit:10;stroke-dasharray:none;stroke-opacity:1"
         inkscape:connector-curvature="0" /><path
         id="path4613"
         d="m -19.299424,43.080205 -0.202667,1.2288 -0.504533,1.198934 -0.7968,1.152 -0.317867,0.314666"
         style="fill:none;stroke:#000000;stroke-width:0.11888899;stroke-linecap:butt;stroke-linejoin:bevel;stroke-miterlimit:10;stroke-dasharray:none;stroke-opacity:1"
         inkscape:connector-curvature="0" /><path
         id="path4611"
         d="m -50.390623,17.74474 -0.05866,-0.606934 -0.1728,-0.5152 -0.2784,-0.398933 -0.273067,-0.206933"
         style="fill:none;stroke:#000000;stroke-width:0.11888899;stroke-linecap:butt;stroke-linejoin:bevel;stroke-miterlimit:10;stroke-dasharray:none;stroke-opacity:1"
         inkscape:connector-curvature="0" /><path
         id="path4609"
         d="m -57.232224,21.69994 -0.05867,-0.6144 -0.1728,-0.507734 -0.279466,-0.398933 -0.272,-0.215467"
         style="fill:none;stroke:#000000;stroke-width:0.11888899;stroke-linecap:butt;stroke-linejoin:bevel;stroke-miterlimit:10;stroke-dasharray:none;stroke-opacity:1"
         inkscape:connector-curvature="0" /><path
         id="path4607"
         d="m -53.06369,14.718606 0.727467,-0.338133 0.701866,-0.177067 h 0.653867 l 0.5824,0.1696 0.132267,0.06934"
         style="fill:none;stroke:#000000;stroke-width:0.11888899;stroke-linecap:butt;stroke-linejoin:bevel;stroke-miterlimit:10;stroke-dasharray:none;stroke-opacity:1"
         inkscape:connector-curvature="0" /><path
         id="path4605"
         d="m -46.51969,46.989539 -0.6432,-0.744534 -0.622933,-1.021866 -0.394667,-1.067734 -0.1632,-1.0752"
         style="fill:none;stroke:#000000;stroke-width:0.11888899;stroke-linecap:butt;stroke-linejoin:bevel;stroke-miterlimit:10;stroke-dasharray:none;stroke-opacity:1"
         inkscape:connector-curvature="0" /><path
         id="path4603"
         d="m -62.701024,28.081806 -0.360533,-0.2688 -0.384,-0.491733 -0.263467,-0.637867 -0.1344,-0.752 v -0.837333 l 0.1344,-0.906667 0.263467,-0.936533 0.384,-0.945067 0.491733,-0.9056 0.583467,-0.8448 0.6528,-0.753066 0.701867,-0.629334 0.727466,-0.4992"
         style="fill:none;stroke:#000000;stroke-width:0.11888899;stroke-linecap:butt;stroke-linejoin:bevel;stroke-miterlimit:10;stroke-dasharray:none;stroke-opacity:1"
         inkscape:connector-curvature="0" /><path
         id="path4601"
         d="m -61.794357,26.514873 0.101333,0.05334 0.452267,0.1152 0.510933,-0.02986 0.546134,-0.184534 0.558933,-0.3232 0.546133,-0.4448 0.509867,-0.561066 0.452267,-0.6368 0.373333,-0.699734 0.279467,-0.721066 0.1728,-0.7072 0.05867,-0.6752"
         style="fill:none;stroke:#000000;stroke-width:0.11888899;stroke-linecap:butt;stroke-linejoin:bevel;stroke-miterlimit:10;stroke-dasharray:none;stroke-opacity:1"
         inkscape:connector-curvature="0" /><path
         id="path4599"
         d="m -54.952757,22.559673 0.101333,0.05333 0.452267,0.123734 0.509867,-0.0384 0.5472,-0.177067 0.557867,-0.322133 0.5472,-0.453334 0.509866,-0.5536 0.452267,-0.644266 0.3744,-0.6912 0.2784,-0.722134 0.1728,-0.714666 0.05866,-0.6752"
         style="fill:none;stroke:#000000;stroke-width:0.11888899;stroke-linecap:butt;stroke-linejoin:bevel;stroke-miterlimit:10;stroke-dasharray:none;stroke-opacity:1"
         inkscape:connector-curvature="0" /><path
         id="path4597"
         d="m -35.48609,22.89034 0.224,-0.02346 2.162132,-0.0384 2.1472,0.184533 2.1056,0.4064 2.026668,0.6304 1.891199,0.859734 1.681067,1.060266 1.3984,1.197867 1.1104,1.3056 0.843733,1.397333 0.580267,1.451734 0.3232,1.505066 0.06614,1.536"
         style="fill:none;stroke:#000000;stroke-width:0.11888899;stroke-linecap:butt;stroke-linejoin:bevel;stroke-miterlimit:10;stroke-dasharray:none;stroke-opacity:1"
         inkscape:connector-curvature="0" /><path
         id="path4595"
         d="m -62.57729,24.779406 0.05867,0.6144 0.1728,0.506667 0.279466,0.398933 0.272,0.215467"
         style="fill:none;stroke:#000000;stroke-width:0.11888899;stroke-linecap:butt;stroke-linejoin:bevel;stroke-miterlimit:10;stroke-dasharray:none;stroke-opacity:1"
         inkscape:connector-curvature="0" /><path
         id="path4593"
         d="m -59.904224,27.80554 -0.727466,0.3456 -0.701867,0.168533 -0.6528,0.0074 -0.583467,-0.176 -0.1312,-0.06934"
         style="fill:none;stroke:#000000;stroke-width:0.11888899;stroke-linecap:butt;stroke-linejoin:bevel;stroke-miterlimit:10;stroke-dasharray:none;stroke-opacity:1"
         inkscape:connector-curvature="0" /><path
         id="path4591"
         d="m -50.265823,14.44234 0.359466,0.276266 0.384,0.491734 0.263467,0.629333 0.1344,0.753067 v 0.8448 l -0.1344,0.9056 -0.263467,0.9376 -0.384,0.936533 -0.491733,0.906667 -0.5824,0.8448 -0.653867,0.752 -0.701866,0.637866 -0.727467,0.4992"
         style="fill:none;stroke:#000000;stroke-width:0.11888899;stroke-linecap:butt;stroke-linejoin:bevel;stroke-miterlimit:10;stroke-dasharray:none;stroke-opacity:1"
         inkscape:connector-curvature="0" /><path
         id="path4589"
         d="m -35.459424,22.920206 0.548266,0.0928 0.4928,0.237867 0.3968,0.391467 0.302934,0.522666 0.212266,0.6368 0.1248,0.753067"
         style="fill:none;stroke:#000000;stroke-width:0.11888899;stroke-linecap:butt;stroke-linejoin:bevel;stroke-miterlimit:10;stroke-dasharray:none;stroke-opacity:1"
         inkscape:connector-curvature="0" /><path
         id="path4587"
         d="m -46.51969,49.286073 0.08,-0.821334 0.352,-1.0752 0.6272,-1.0368 0.8864,-0.968534 1.127466,-0.8832 1.341867,-0.775466 1.527467,-0.645334 1.678933,-0.514132 1.792,-0.360534 1.864533,-0.208 1.895466,-0.0384 1.885868,0.122667 1.8336,0.2848 1.739732,0.437333 1.607468,0.583466 1.438932,0.714668"
         style="fill:none;stroke:#000000;stroke-width:0.11888899;stroke-linecap:butt;stroke-linejoin:bevel;stroke-miterlimit:10;stroke-dasharray:none;stroke-opacity:1"
         inkscape:connector-curvature="0" /><path
         id="path4585"
         d="m -23.285558,28.065806 -1.406933,-0.7136 -1.551999,-0.606933 -1.672534,-0.491733 -1.765334,-0.368 -1.831466,-0.2304 -1.867734,-0.100267"
         style="fill:none;stroke:#000000;stroke-width:0.11888899;stroke-linecap:butt;stroke-linejoin:bevel;stroke-miterlimit:10;stroke-dasharray:none;stroke-opacity:1"
         inkscape:connector-curvature="0" /><path
         id="path4583"
         d="m -58.015157,19.963406 -0.101333,-0.05334 -0.452267,-0.1152 -0.509867,0.03094 -0.546133,0.184534 -0.558933,0.322133 -0.546134,0.445867 -0.510933,0.56 -0.452267,0.637866 -0.373333,0.698667 -0.279467,0.722133 -0.1728,0.706134 -0.05867,0.676266"
         style="fill:none;stroke:#000000;stroke-width:0.11888899;stroke-linecap:butt;stroke-linejoin:bevel;stroke-miterlimit:10;stroke-dasharray:none;stroke-opacity:1"
         inkscape:connector-curvature="0" /><path
         id="path4581"
         d="m -46.51969,44.670605 -0.07894,-0.1696 -0.2144,-1.1136 0.07254,-1.121066 0.362666,-1.0976 0.642134,-1.060266 0.907733,-0.990934 1.153067,-0.898133 1.3728,-0.798933 1.562666,-0.660267 1.716267,-0.530133 1.832533,-0.369067 1.909334,-0.206933 1.9392,-0.04586 1.927466,0.130132 1.8752,0.2848 1.7824,0.452268 1.650134,0.592 1.479466,0.737066"
         style="fill:none;stroke:#000000;stroke-width:0.11888899;stroke-linecap:butt;stroke-linejoin:bevel;stroke-miterlimit:10;stroke-dasharray:none;stroke-opacity:1"
         inkscape:connector-curvature="0" /><path
         id="path4579"
         d="m -51.173557,16.01674 -0.101333,-0.0544 -0.452267,-0.1152"
         style="fill:none;stroke:#000000;stroke-width:0.11888899;stroke-linecap:butt;stroke-linejoin:bevel;stroke-miterlimit:10;stroke-dasharray:none;stroke-opacity:1"
         inkscape:connector-curvature="0" /><path
         id="path4577"
         d="m -51.727157,15.84714 -0.509866,0.03094 -0.5472,0.184533 -0.557867,0.322133 -0.5472,0.445867 -0.509867,0.56 -0.452267,0.637864 -0.373333,0.698667 -0.279467,0.714666 -0.1728,0.7136 -0.05866,0.676267"
         style="fill:none;stroke:#000000;stroke-width:0.11888899;stroke-linecap:butt;stroke-linejoin:bevel;stroke-miterlimit:10;stroke-dasharray:none;stroke-opacity:1"
         inkscape:connector-curvature="0" /><path
         id="path4575"
         d="m -24.627424,37.804473 1.272533,0.852266 1.035733,0.952534 0.7744,1.029333 0.501334,1.082667 0.215466,1.1136 -0.0736,1.121066 -0.219733,0.6688"
         style="fill:none;stroke:#000000;stroke-width:0.11888899;stroke-linecap:butt;stroke-linejoin:bevel;stroke-miterlimit:10;stroke-dasharray:none;stroke-opacity:1"
         inkscape:connector-curvature="0" /><path
         id="path4573"
         d="m -24.840758,38.173539 1.243734,0.836267 1.010133,0.930133 0.757333,1.005867 0.488534,1.0592 0.210133,1.083733 0.0096,0.2688"
         style="fill:none;stroke:#000000;stroke-width:0.11888899;stroke-linecap:butt;stroke-linejoin:bevel;stroke-miterlimit:10;stroke-dasharray:none;stroke-opacity:1"
         inkscape:connector-curvature="0" /><path
         id="path18"
         d="m -46.51969,46.805005 -0.4192,-0.514132 -0.4512,-0.714668 -0.3712,-0.8288 -0.235733,-0.96 -0.03094,-1.0752 0.2432,-1.159466 0.554666,-1.175466 0.846934,-1.1136 1.114666,-1.021867 1.365334,-0.9216 1.585066,-0.7904 1.765334,-0.6528 1.921066,-0.491733 2.036267,-0.330667 2.016,-0.145067"
         style="fill:none;stroke:#000000;stroke-width:0.11888899;stroke-linecap:butt;stroke-linejoin:bevel;stroke-miterlimit:10;stroke-dasharray:none;stroke-opacity:1"
         inkscape:connector-curvature="0" /><path
         inkscape:connector-curvature="0"
         id="path20-1"
         style="fill:none;stroke:#000000;stroke-width:0.11888899;stroke-linecap:butt;stroke-linejoin:bevel;stroke-miterlimit:10;stroke-dasharray:none;stroke-opacity:1"
         d="m -34.579424,34.909539 1.870934,0.01494 1.6704,0.138666 1.450666,0.206934 1.242666,0.261334 1.061334,0.2912 0.906666,0.292266 0.779734,0.299734 0.680533,0.2912 0.603733,0.299732 0.5504,0.299734 0.519467,0.314666 0.513067,0.353068 0.509866,0.392532 0.513067,0.4448 0.510933,0.522668 0.4928,0.606932 0.452267,0.7136 0.370133,0.829868 0.235734,0.959999 0.03094,1.0752 -0.242133,1.159467 -0.554667,1.175466 -0.7104,0.929067 m -2.427733,-9.837867 0.5312,0.322134 0.522667,0.353066 0.5216,0.4 0.5248,0.4608 0.520533,0.529068 0.504533,0.622932 0.4608,0.7296 0.378667,0.8448 0.241067,0.9824 0.0448,0.8832 m -23.385603,11.450664 -1.111467,-0.744533 -0.9856,-0.898133 -0.741333,-0.983467 -0.478933,-1.0368 -0.208,-1.060266 0.06934,-1.066667 0.344532,-1.0528 0.612268,-1.013334 0.866132,-0.945066 1.099734,-0.859734 1.309866,-0.753066 1.4912,-0.6368 1.639468,-0.4992 1.749332,-0.354134 1.819734,-0.199466 1.851733,-0.0384 1.84,0.1152 1.789867,0.276266 1.6992,0.430934 1.569066,0.567466 1.402667,0.699734 1.208533,0.813866 0.9856,0.9056 0.741333,0.976 0.48,1.0368 0.206934,1.0592 -0.06826,1.067734 -0.3456,1.0528 -0.612267,1.013333 -0.865067,0.945067 -1.1008,0.859733 -1.309866,0.753067 -1.4912,0.6368 -1.6384,0.4992 -1.749334,0.353066 -1.8208,0.200534 -1.850666,0.0384 -1.841067,-0.1152 -1.7888,-0.277334 -1.6992,-0.429866 -1.569066,-0.568534 -1.403734,-0.698666 m 17.746133,-10.490666 1.2384,0.829866 1.009067,0.929066 0.759467,1.005868 0.491733,1.051732 0.2112,1.0912 0.0096,0.276268 m -25.3984,-5.928534 0.08,-0.8224 0.354134,-1.0752 0.6272,-1.0368 0.8864,-0.967466 1.1264,-0.875734 1.3408,-0.775466 1.525333,-0.6528 1.6768,-0.514134 1.790933,-0.3616 1.863467,-0.199466 1.8944,-0.04586 1.882666,0.122666 1.831467,0.283734 1.7408,0.4384 1.610667,0.583466 1.447466,0.714666 m -23.502933,4.906667 0.01386,-0.6144 0.248533,-1.190399 0.5664,-1.197868 0.864,-1.136 1.138134,-1.045332 1.3952,-0.936534 1.618133,-0.813866 1.802667,-0.660268 1.962666,-0.4992 2.078933,-0.338132 2.059734,-0.146134 1.909333,0.01494 1.706667,0.1312 1.482666,0.222933 1.269334,0.260267 1.082666,0.292266 0.925867,0.3072 0.796799,0.299734 0.6944,0.3072 0.6176,0.299733 0.561068,0.3072 m 4.622932,-2.581333 -0.0736,-1.090134 -0.3456,-1.159466 -0.6144,-1.121066 -0.8736,-1.060268 -1.115732,-0.983466 -1.336534,-0.8832 m -23.515733,8.125866 -0.4864,0.506667 -0.421333,0.376533 -0.3488,0.2304 -0.2592,0.0384 -0.1664,-0.161066 -0.0928,-0.353067 -0.02666,-0.277333 m 1.8016,-0.360534 -0.05654,-0.322133 -0.138666,-0.330667 -0.2144,-0.314666 -0.274133,-0.2688 -0.3168,-0.215467 -0.3392,-0.1376 -0.359467,0.475733 -0.187733,0.261334 -0.101333,0.130133 -0.210134,0.2848 -0.122666,0.145067 -0.02986,0.0085 m 8.552532,-3.294933 -1.5072,0.5216 -1.412266,0.637867 -1.274667,0.737066 -1.101867,0.813867 -0.9056,0.868267 m 6.2016,-3.578667 -0.02986,-0.3456 -0.07146,-0.369067 -0.113066,-0.367999 -0.142934,-0.3456 -0.165332,-0.299734 -0.177068,-0.237866 -1.661866,0.576 -1.5584,0.706133 -1.406934,0.8064 -1.214932,0.906666 -0.999467,0.96 m 14.759466,-9.047466 -0.01066,0.722133 -0.162134,0.752 -0.347733,0.8064 -0.567467,0.8448 -0.805333,0.875734 -1.000533,0.837333 -1.1072,0.744533 -1.125333,0.6304 -1.077334,0.4832 -1.0144,0.3616 m 7.218133,-7.058133 -0.375466,-0.0074 -0.3488,-0.06186 -0.3008,-0.1152 -0.0064,0.576 -0.1568,0.583466 -0.3392,0.606934 -0.5536,0.637866 -0.781867,0.6368 -0.967466,0.606934 -1.061334,0.545066 -1.069866,0.453334 -1.0112,0.3616 -0.945067,0.2688 m 5.822933,-7.665068 0.210133,0.1536 0.317867,0.376534 0.247467,0.506666 0.180266,0.621868 0.114134,0.7296 m -21.329067,-4.538667 0.05866,0.606933 0.1728,0.514134 0.279466,0.4 0.272,0.206932 m 5.800525,13.34823 v 0 m 6.413866,18.7008 0.116267,0.05333 m -17.282158,-35.988283 6.840534,-3.9552 m -9.6384,13.3632 13.546667,7.826133 M -35.47969,22.982073 h 0.0032 m -0.001,0 -14.788293,-8.539733 m 3.746133,28.915199 v 5.928534 m 25.398399,0 V 43.357539 M -35.48605,22.89034 l -0.138668,0.0074 m -13.000532,13.5936 0.0022,0.0384 0.279466,6.550399 m 29.044266,0 0.373333,-8.716799 m -34.137679,-10.50556 -6.840533,3.947733 m 38.782906,15.552026 v 0 M -41.299424,30.64714 -53.06369,23.857806 m -6.840534,3.947734 11.763201,6.796799 m 12.554665,-11.682133 h 0.126934 m -7.224533,31.603199 0.09707,0.06933 m -3.9328,-5.306666 v 0 m -2.0832,-12.733867 -0.0022,-0.0224 m 29.306665,6.542933 -0.001,0.0074" /></g></g></svg>