<?xml version="1.0" encoding="UTF-8" standalone="no"?>
<!-- Created with Inkscape (http://www.inkscape.org/) -->

<svg
   xmlns:dc="http://purl.org/dc/elements/1.1/"
   xmlns:cc="http://creativecommons.org/ns#"
   xmlns:rdf="http://www.w3.org/1999/02/22-rdf-syntax-ns#"
   xmlns:svg="http://www.w3.org/2000/svg"
   xmlns="http://www.w3.org/2000/svg"
   xmlns:sodipodi="http://sodipodi.sourceforge.net/DTD/sodipodi-0.dtd"
   xmlns:inkscape="http://www.inkscape.org/namespaces/inkscape"
   width="100mm"
   height="53mm"
   viewBox="0 0 354.33071 187.79527"
   id="svg5709"
   version="1.1"
   inkscape:version="0.92.1 r15371"
   sodipodi:docname="pv_white_scene_controller.svg">
  <defs
     id="defs5711" />
  <sodipodi:namedview
     id="base"
     pagecolor="#ffffff"
     bordercolor="#666666"
     borderopacity="1.0"
     inkscape:pageopacity="0.0"
     inkscape:pageshadow="2"
     inkscape:zoom="3.7253333"
     inkscape:cx="188.97638"
     inkscape:cy="100.15748"
     inkscape:document-units="px"
     inkscape:current-layer="layer1"
     showgrid="false"
     fit-margin-top="0"
     fit-margin-left="0"
     fit-margin-right="0"
     fit-margin-bottom="0"
     inkscape:window-width="1920"
     inkscape:window-height="1017"
     inkscape:window-x="-8"
     inkscape:window-y="-8"
     inkscape:window-maximized="1"
     inkscape:showpageshadow="false"
     inkscape:snap-bbox="false"
     inkscape:bbox-paths="true"
     inkscape:bbox-nodes="true"
     inkscape:snap-bbox-edge-midpoints="true"
     inkscape:snap-bbox-midpoints="true"
     inkscape:object-paths="true"
     inkscape:snap-intersection-paths="true"
     inkscape:snap-smooth-nodes="true"
     inkscape:snap-midpoints="true"
     inkscape:snap-object-midpoints="true"
     inkscape:snap-center="true"
     inkscape:snap-nodes="false"
     inkscape:snap-others="false" />
  <metadata
     id="metadata5714">
    <rdf:RDF>
      <cc:Work
         rdf:about="">
        <dc:format>image/svg+xml</dc:format>
        <dc:type
           rdf:resource="http://purl.org/dc/dcmitype/StillImage" />
        <dc:title />
      </cc:Work>
    </rdf:RDF>
  </metadata>
  <g
     inkscape:label="Laag 1"
     inkscape:groupmode="layer"
     id="layer1"
     transform="translate(-270.72937,-486.28759)">
    <g
       transform="matrix(1.9521362,0,0,-1.9521362,-716.5616,1458.1619)"
       id="g4932">
      <path
         inkscape:connector-curvature="0"
         style="fill:#ffffff;fill-opacity:1;fill-rule:nonzero;stroke:#4d4d4d;stroke-width:0.65305471px;stroke-linecap:round;stroke-linejoin:miter;stroke-miterlimit:14;stroke-dasharray:none;stroke-opacity:1"
         d="m 686.93162,450.35147 c 0,-26.08378 -21.08982,-47.1736 -47.1736,-47.1736 -26.04536,0 -47.1736,21.08982 -47.1736,47.1736 0,26.04536 21.12824,47.17359 47.1736,47.17359 26.08378,0 47.1736,-21.12823 47.1736,-47.17359 z"
         id="path4684" />
      <path
         inkscape:connector-curvature="0"
         style="fill:#ffffff;fill-opacity:1;fill-rule:nonzero;stroke:none;stroke-width:0.48019084"
         d="m 595.46555,450.00573 h 13.40682 c 0.0384,-5.41651 1.49819,-10.48729 3.99516,-14.90501 l -11.60132,-6.68421 c -3.64943,6.37689 -5.76225,13.75256 -5.80066,21.58922 z"
         id="path4686" />
      <path
         inkscape:connector-curvature="0"
         style="fill:#ffffff;fill-opacity:1;fill-rule:nonzero;stroke:none;stroke-width:0.48019084"
         d="m 670.68208,450.00573 h 13.40683 c -0.0384,-7.83666 -2.15124,-15.21233 -5.80066,-21.58922 l -11.60132,6.68421 c 2.49697,4.41772 3.95674,9.4885 3.99515,14.90501 z"
         id="path4688" />
      <path
         inkscape:connector-curvature="0"
         style="fill:#ffffff;fill-opacity:1;fill-rule:nonzero;stroke:none;stroke-width:0.48019084"
         d="m 613.21326,434.56291 c 5.3781,-9.06593 15.25076,-15.17392 26.54476,-15.17392 11.33242,0 21.16665,6.10799 26.58317,15.17392 l 11.60133,-6.68421 c -7.683,-13.06109 -21.89655,-21.85812 -38.1845,-21.85812 -16.24954,0 -30.46308,8.79703 -38.18449,21.85812 z"
         id="path4690" />
      <path
         inkscape:connector-curvature="0"
         style="fill:none;stroke:#4d4d4d;stroke-width:0.65305471px;stroke-linecap:round;stroke-linejoin:miter;stroke-miterlimit:14;stroke-dasharray:none;stroke-opacity:1"
         d="m 684.3194,450.27464 c 0,-24.62401 -19.97579,-44.5998 -44.59979,-44.5998 -24.62401,0 -44.5998,19.97579 -44.5998,44.5998 0,24.624 19.97579,44.59979 44.5998,44.59979 24.624,0 44.59979,-19.97579 44.59979,-44.59979 z"
         id="path4692" />
      <path
         inkscape:connector-curvature="0"
         style="fill:none;stroke:#4d4d4d;stroke-width:0.65305471px;stroke-linecap:round;stroke-linejoin:miter;stroke-miterlimit:14;stroke-dasharray:none;stroke-opacity:1"
         d="m 670.33635,450.35147 c 0,-16.9026 -13.67574,-30.57833 -30.57833,-30.57833 -16.86418,0 -30.57833,13.67573 -30.57833,30.57833 0,16.86417 13.71415,30.57833 30.57833,30.57833 16.90259,0 30.57833,-13.71416 30.57833,-30.57833 z"
         id="path4694" />
      <path
         inkscape:connector-curvature="0"
         style="fill:none;stroke:#4d4d4d;stroke-width:0.65305471px;stroke-linecap:butt;stroke-linejoin:miter;stroke-miterlimit:4;stroke-dasharray:none;stroke-opacity:1"
         d="m 601.11254,427.95553 12.21597,7.06836"
         id="path4696" />
      <path
         inkscape:connector-curvature="0"
         style="fill:none;stroke:#4d4d4d;stroke-width:0.65305471px;stroke-linecap:butt;stroke-linejoin:miter;stroke-miterlimit:4;stroke-dasharray:none;stroke-opacity:1"
         d="m 595.11981,450.35147 h 14.0983"
         id="path4698" />
      <path
         inkscape:connector-curvature="0"
         style="fill:none;stroke:#4d4d4d;stroke-width:0.65305471px;stroke-linecap:butt;stroke-linejoin:miter;stroke-miterlimit:4;stroke-dasharray:none;stroke-opacity:1"
         d="m 670.29793,450.35147 h 14.13671"
         id="path4700" />
      <path
         inkscape:connector-curvature="0"
         style="fill:none;stroke:#4d4d4d;stroke-width:0.65305471px;stroke-linecap:butt;stroke-linejoin:miter;stroke-miterlimit:4;stroke-dasharray:none;stroke-opacity:1"
         d="m 666.22594,434.98548 12.21597,-7.02995"
         id="path4702" />
      <path
         sodipodi:nodetypes="ccccc"
         inkscape:connector-curvature="0"
         style="fill:#ffffff;fill-opacity:1;fill-rule:nonzero;stroke:none;stroke-width:0.48019084"
         d="m 601.55045,427.84201 11.63615,6.77861 c 2.5738,-4.3793 6.27716,-8.16095 10.92538,-10.92683 l -6.71731,-11.65499 c -6.76104,3.95674 -12.15638,9.46473 -15.84422,15.80321 z"
         id="path4704" />
      <path
         sodipodi:nodetypes="ccccc"
         inkscape:connector-curvature="0"
         style="fill:#ffffff;fill-opacity:1;fill-rule:nonzero;stroke:none;stroke-width:0.48019084"
         d="m 662.20929,412.13994 -6.71383,11.60979 c 4.37931,2.5738 8.07985,6.16496 10.84573,10.81318 l 11.60133,-6.68421 c -3.95675,-6.79945 -9.39476,-12.05092 -15.73323,-15.73876 z"
         id="path4706" />
      <path
         inkscape:connector-curvature="0"
         style="fill:#4d4d4d;fill-opacity:1;fill-rule:nonzero;stroke:#4d4d4d;stroke-width:0.03841498px;stroke-linecap:butt;stroke-linejoin:miter;stroke-miterlimit:14;stroke-dasharray:none;stroke-opacity:1"
         d="m 634.76408,412.05173 c 0,-0.26891 -0.11525,-0.46098 -0.30733,-0.61465 -0.19207,-0.15365 -0.4994,-0.23048 -0.84513,-0.23048 -0.23049,0 -0.42256,0 -0.57623,0.0384 -0.15365,0.0768 -0.30731,0.11524 -0.42256,0.19207 v 0.4994 h 0.0384 c 0.11524,-0.11524 0.30732,-0.19207 0.46098,-0.2689 0.19207,-0.0384 0.34573,-0.0768 0.53781,-0.0768 0.19208,0 0.34573,0.0384 0.46098,0.0768 0.11524,0.0768 0.19207,0.19207 0.19207,0.30732 0,0.11524 -0.0384,0.19207 -0.11524,0.26891 -0.0384,0.0384 -0.15366,0.11524 -0.34573,0.15366 -0.0768,0 -0.15367,0.0384 -0.26891,0.0384 -0.11525,0.0384 -0.19208,0.0384 -0.26891,0.0768 -0.26891,0.0384 -0.42256,0.15366 -0.53781,0.2689 -0.0768,0.11525 -0.15366,0.26891 -0.15366,0.46098 0,0.11525 0.0384,0.23049 0.0768,0.30732 0.0384,0.11525 0.11525,0.19208 0.2305,0.26891 0.0768,0.0768 0.19207,0.15365 0.34573,0.19207 0.11524,0.0384 0.30732,0.0768 0.46098,0.0768 0.19207,0 0.34573,-0.0384 0.49939,-0.0768 0.19208,-0.0384 0.30732,-0.0768 0.42257,-0.11525 v -0.49939 0 c -0.11525,0.0768 -0.26891,0.15366 -0.46098,0.19208 -0.15366,0.0768 -0.30733,0.11524 -0.4994,0.11524 -0.15366,0 -0.30732,-0.0384 -0.42256,-0.11524 -0.11525,-0.0384 -0.15366,-0.15366 -0.15366,-0.26891 0,-0.11524 0,-0.23049 0.0768,-0.2689 0.0768,-0.0768 0.19207,-0.11525 0.34573,-0.15366 0.0768,0 0.19208,-0.0384 0.30733,-0.0384 0.0768,-0.0384 0.19207,-0.0384 0.2689,-0.0768 0.19207,-0.0384 0.38415,-0.11524 0.49939,-0.23048 0.11525,-0.15366 0.15367,-0.30732 0.15367,-0.4994 z"
         id="path4708" />
      <path
         inkscape:connector-curvature="0"
         style="fill:#4d4d4d;fill-opacity:1;fill-rule:nonzero;stroke:#4d4d4d;stroke-width:0.03841498px;stroke-linecap:butt;stroke-linejoin:miter;stroke-miterlimit:14;stroke-dasharray:none;stroke-opacity:1"
         d="m 637.68361,412.58954 h -2.036 c 0,-0.15366 0.0384,-0.30732 0.0768,-0.46098 0.0384,-0.11525 0.11525,-0.23049 0.19208,-0.30732 0.11525,-0.0768 0.19208,-0.11525 0.30732,-0.15366 0.11525,-0.0384 0.26891,-0.0768 0.38415,-0.0768 0.19208,0 0.38415,0.0384 0.57623,0.11524 0.19207,0.0768 0.34573,0.15366 0.42256,0.23049 h 0.0384 v -0.4994 c -0.19207,-0.0768 -0.34573,-0.11524 -0.49939,-0.19207 -0.15366,-0.0384 -0.34573,-0.0384 -0.4994,-0.0384 -0.46097,0 -0.84513,0.11524 -1.07561,0.34573 -0.26891,0.26891 -0.38415,0.61464 -0.38415,1.07562 0,0.46098 0.11524,0.80672 0.34573,1.07562 0.2689,0.2689 0.57623,0.38415 0.99879,0.38415 0.34574,0 0.65306,-0.11525 0.84513,-0.30732 0.19207,-0.23049 0.30732,-0.53781 0.30732,-0.92196 z m -0.46098,0.34573 c 0,0.26891 -0.0768,0.46098 -0.19207,0.57623 -0.11525,0.15366 -0.30733,0.19207 -0.53781,0.19207 -0.26891,0 -0.46098,-0.0768 -0.61464,-0.19207 -0.11525,-0.15366 -0.2305,-0.34573 -0.2305,-0.57623 z"
         id="path4710" />
      <path
         inkscape:connector-curvature="0"
         style="fill:#4d4d4d;fill-opacity:1;fill-rule:nonzero;stroke:#4d4d4d;stroke-width:0.03841498px;stroke-linecap:butt;stroke-linejoin:miter;stroke-miterlimit:14;stroke-dasharray:none;stroke-opacity:1"
         d="m 638.79765,411.24501 h -0.46099 v 3.87992 h 0.46099 z"
         id="path4712" />
      <path
         inkscape:connector-curvature="0"
         style="fill:#4d4d4d;fill-opacity:1;fill-rule:nonzero;stroke:#4d4d4d;stroke-width:0.03841498px;stroke-linecap:butt;stroke-linejoin:miter;stroke-miterlimit:14;stroke-dasharray:none;stroke-opacity:1"
         d="m 641.94767,412.58954 h -2.03599 c 0,-0.15366 0,-0.30732 0.0768,-0.46098 0.0384,-0.11525 0.11524,-0.23049 0.19207,-0.30732 0.0768,-0.0768 0.19208,-0.11525 0.30733,-0.15366 0.11523,-0.0384 0.23048,-0.0768 0.38414,-0.0768 0.19208,0 0.38415,0.0384 0.57623,0.11524 0.19208,0.0768 0.30732,0.15366 0.42256,0.23049 v 0 -0.4994 c -0.15365,-0.0768 -0.30731,-0.11524 -0.46097,-0.19207 -0.19208,-0.0384 -0.34574,-0.0384 -0.53782,-0.0384 -0.46098,0 -0.80671,0.11524 -1.07561,0.34573 -0.23049,0.26891 -0.38416,0.61464 -0.38416,1.07562 0,0.46098 0.11525,0.80672 0.38416,1.07562 0.23048,0.2689 0.57622,0.38415 0.96037,0.38415 0.38415,0 0.65306,-0.11525 0.88355,-0.30732 0.19207,-0.23049 0.30731,-0.53781 0.30731,-0.92196 z m -0.46097,0.34573 c 0,0.26891 -0.0768,0.46098 -0.19208,0.57623 -0.11525,0.15366 -0.30732,0.19207 -0.53781,0.19207 -0.2689,0 -0.46098,-0.0768 -0.61464,-0.19207 -0.15366,-0.15366 -0.23049,-0.34573 -0.23049,-0.57623 z"
         id="path4714" />
      <path
         inkscape:connector-curvature="0"
         style="fill:#4d4d4d;fill-opacity:1;fill-rule:nonzero;stroke:#4d4d4d;stroke-width:0.03841498px;stroke-linecap:butt;stroke-linejoin:miter;stroke-miterlimit:14;stroke-dasharray:none;stroke-opacity:1"
         d="m 644.59831,411.43708 c -0.15366,-0.0768 -0.30732,-0.15365 -0.42256,-0.19207 -0.15367,-0.0384 -0.30733,-0.0384 -0.46099,-0.0384 -0.19207,0 -0.38415,0 -0.53781,0.0768 -0.15366,0.0384 -0.30732,0.15365 -0.42256,0.2689 -0.11525,0.11525 -0.23049,0.26891 -0.2689,0.46098 -0.0768,0.15366 -0.11525,0.38416 -0.11525,0.61464 0,0.46098 0.11525,0.80672 0.38415,1.07562 0.23049,0.2689 0.57622,0.38415 0.96037,0.38415 0.15366,0 0.30732,-0.0384 0.46099,-0.0768 0.15366,-0.0384 0.30731,-0.0768 0.42256,-0.15366 v -0.53781 0 c -0.15366,0.11525 -0.30732,0.23049 -0.46098,0.26891 -0.15366,0.0768 -0.26891,0.0768 -0.42257,0.0768 -0.2689,0 -0.4994,-0.0768 -0.65305,-0.26891 -0.11525,-0.15366 -0.19208,-0.42256 -0.19208,-0.7683 0,-0.30731 0.0384,-0.57622 0.19208,-0.7683 0.15365,-0.19207 0.38415,-0.2689 0.65305,-0.2689 0.0768,0 0.19208,0 0.26891,0.0384 0.11524,0.0384 0.19208,0.0768 0.26891,0.11525 0.0768,0.0384 0.15366,0.0768 0.19207,0.0768 0.0768,0.0768 0.11524,0.0768 0.15366,0.11524 v 0 z"
         id="path4716" />
      <path
         inkscape:connector-curvature="0"
         style="fill:#4d4d4d;fill-opacity:1;fill-rule:nonzero;stroke:#4d4d4d;stroke-width:0.03841498px;stroke-linecap:butt;stroke-linejoin:miter;stroke-miterlimit:14;stroke-dasharray:none;stroke-opacity:1"
         d="m 646.55747,411.28343 c -0.0768,-0.0384 -0.15366,-0.0384 -0.2689,-0.0768 -0.11525,0 -0.19208,0 -0.26891,0 -0.30732,0 -0.49939,0.0768 -0.65305,0.23048 -0.15367,0.15367 -0.2305,0.38416 -0.2305,0.72989 v 1.45977 h -0.30731 v 0.38415 h 0.30731 v 0.80672 h 0.46099 v -0.80672 h 0.96037 v -0.38415 h -0.96037 v -1.26769 c 0,-0.11524 0.0384,-0.23049 0.0384,-0.34574 0,-0.0768 0,-0.15366 0.0768,-0.23049 0,-0.0384 0.0768,-0.11524 0.11524,-0.11524 0.0768,-0.0384 0.19208,-0.0768 0.30732,-0.0768 0.0768,0 0.15367,0.0384 0.2305,0.0384 0.0768,0.0384 0.15366,0.0384 0.19207,0.0768 v 0 z"
         id="path4718" />
      <path
         inkscape:connector-curvature="0"
         style="fill:#4d4d4d;fill-opacity:1;fill-rule:nonzero;stroke:none;stroke-width:0.48019084"
         d="m 674.13943,438.17392 c 0,0 0,0 0,0 0,0 0,0 0,0 -0.0384,0 -0.0384,0 -0.0384,0.0384 0,0 0,0 0,0 0,0 0,0 0,0 0,0 0,0 0,0 -0.0384,0 -0.0384,0 -0.0384,0 0,0 0,0 0,0.0384 v 0 l -0.92196,0.99878 -0.96037,0.9988 c 0,0 0,0 0,0 l -0.0768,0.0768 v 0.0384 l -0.0384,0.0768 -0.0384,0.0384 v 0.0384 l -0.0384,0.0768 v 0.0384 l -0.0384,0.0384 v 0 l -0.0384,0.11524 -0.0384,0.0384 v 0.0768 0.19208 c 0,0 0,0 0,0 0,0 0,0 0,0.0384 v 0.19208 0.0384 l 0.0384,0.11525 v 0 l 0.0384,0.11524 0.0384,0.0384 v 0 0 0.0768 l 0.0384,0.0384 v 0 h 0.0384 l 0.0384,0.0768 0.0384,0.0768 0.0768,0.0768 0.0768,0.0384 0.0768,0.0768 0.0384,0.0384 0.0384,0.0384 0.0768,0.0384 h 0.0384 v 0 0 l 0.0384,0.0384 0.11525,0.0384 v 0 l 0.11524,0.0384 v 0 h 0.23049 v 0 0 h 0.26891 0.0384 l 0.0384,-0.0384 h 0.0384 l 0.0768,-0.0384 v 0 0 l 0.0768,-0.0384 v -0.0384 h 0.0768 l 0.0384,-0.0384 v 0 l 0.0768,-0.0384 0.0384,-0.0384 v 0 0 l 0.11524,-0.0384 v -0.0768 l 0.0768,-0.0768 h 0.0384 l 0.0384,-0.0384 v -0.0384 0.0384 0 0 l 0.0384,0.0384 0.0384,0.0384 0.0384,0.0384 0.0384,0.0384 v 0.0384 l 0.11524,0.0384 v 0 0 l 0.0384,0.0384 0.0768,0.0384 h -0.0384 l 0.0768,0.0384 v 0.0384 l 0.0768,0.0384 h 0.0384 0.0384 v 0 l 0.0768,0.0384 h 0.0384 l 0.0384,0.0384 h 0.0384 0.15365 l 0.0768,0.0384 c 0,0 0,0 0,0 0,0 0,0 0,0 0,0 0,0 0,0 0.0384,0 0.0384,0 0.0384,0 0,0 0,0 0,0 0,0 0,0 0.0384,0 v 0 c 0,0 0,0 0,0 v 0 l 0.0768,-0.0384 h 0.11524 l 0.0768,-0.0384 h 0.0384 v 0 l 0.0768,-0.0384 h 0.0384 l 0.0768,-0.0384 h 0.0384 l 0.0768,-0.0768 v 0 l 0.0768,-0.0384 0.0384,-0.0384 0.0384,-0.0384 0.0384,-0.0384 v 0 l 0.0384,-0.0384 v 0 l 0.0384,-0.0768 h 0.0384 l 0.0384,-0.0384 v 0 l 0.0384,-0.0384 v -0.0384 l 0.0384,-0.0768 v 0 l 0.0384,-0.0384 0.0384,-0.0768 v -0.0384 -0.0768 0 l 0.0384,-0.0768 v -0.2305 c 0,0 0,0 0,0 v -0.23048 0 l -0.0384,-0.11525 v -0.0384 l -0.0384,-0.0384 -0.0384,-0.11524 v -0.0384 l -0.0768,-0.0768 -0.0384,-0.0768 v -0.0384 l -0.0768,-0.0768 c 0,0 0,0 0,0 v 0 c 0,0 0,0 0,0 l -0.92196,-1.03721 -0.88354,-0.99878 c 0,0 0,-0.0384 0,-0.0384 0,0 0,0 0,0 0,0 0,0 0,0 -0.0384,0 -0.0384,0 -0.0384,0 0,0 0,-0.0384 -0.0384,-0.0384 0,0 0,0 0,0 0,0 0,0 0,0 0,0 0,0 0,0 0,0 0,0 0,0 z"
         id="path4720" />
      <path
         inkscape:connector-curvature="0"
         style="fill:#4d4d4d;fill-opacity:1;fill-rule:nonzero;stroke:none;stroke-width:0.48019084"
         d="m 678.74923,438.17392 c 0,0 0,0 0,0 0,0 0,0 0,0 0,0 0,0 0,0.0384 0,0 0,0 0,0 0,0 0,0 -0.0384,0 0,0 0,0 0,0 0,0 0,0 0,0 -0.0384,0 -0.0384,0 -0.0384,0.0384 v 0 l -0.88355,0.99878 -0.96037,0.9988 c 0,0 0,0 0,0 l -0.0768,0.0768 -0.0384,0.0384 -0.0384,0.0768 v 0.0384 l -0.0384,0.0384 -0.0384,0.0768 v 0.0384 l -0.0384,0.0384 v 0 l -0.0384,0.11524 v 0.0384 l -0.0384,0.0768 v 0.19208 c 0,0 0,0 0,0 0,0 0,0 0,0.0384 v 0.19208 0.0384 l 0.0384,0.11525 v 0 l 0.0384,0.11524 0.0384,0.0384 v 0 0 l 0.0384,0.0768 0.0384,0.0384 v 0 0 l 0.0384,0.0768 0.0384,0.0768 0.11524,0.0768 0.0768,0.0384 0.0384,0.0768 0.0384,0.0384 0.0384,0.0384 0.0768,0.0384 h 0.0384 v 0 0 l 0.0384,0.0384 0.11525,0.0384 v 0 l 0.11524,0.0384 h 0.0384 0.19207 0.0384 v 0 h 0.2305 0.0768 l 0.0384,-0.0384 v 0 l 0.0768,-0.0384 v 0 0 l 0.0768,-0.0384 0.0384,-0.0384 h 0.0384 l 0.0768,-0.0384 v 0 l 0.0768,-0.0384 0.0384,-0.0384 v 0 0 l 0.0768,-0.0384 0.0384,-0.0768 0.0768,-0.0768 v 0 l 0.0384,-0.0384 v -0.0384 l 0.0384,0.0384 v 0 0 0.0384 l 0.0384,0.0384 0.0384,0.0384 0.0384,0.0384 0.0384,0.0384 0.0768,0.0384 v 0 0 l 0.0384,0.0384 0.0768,0.0384 v 0 l 0.0384,0.0384 0.0384,0.0384 0.0768,0.0384 h 0.0384 0.0384 v 0 l 0.0768,0.0384 v 0 l 0.0384,0.0384 h 0.0768 0.11525 l 0.0768,0.0384 c 0,0 0,0 0,0 0,0 0.0384,0 0.0384,0 0,0 0,0 0,0 0,0 0,0 0,0 0,0 0,0 0,0 0.0384,0 0.0384,0 0.0384,0 v 0 c 0,0 0,0 0.0384,0 v 0 l 0.0768,-0.0384 h 0.11524 l 0.0768,-0.0384 v 0 h 0.0384 l 0.0768,-0.0384 v 0 l 0.0768,-0.0384 h 0.0384 l 0.0768,-0.0768 v 0 l 0.0768,-0.0384 0.0384,-0.0384 0.0384,-0.0384 0.0384,-0.0384 v 0 l 0.0384,-0.0384 h 0.0384 v -0.0768 h 0.0384 l 0.0384,-0.0384 v 0 l 0.0384,-0.0384 0.0384,-0.0384 v -0.0768 h 0.0384 v -0.0384 l 0.0384,-0.0768 0.0384,-0.0384 v -0.0768 0 l 0.0384,-0.0768 v -0.2305 c 0,0 0,0 0,0 v -0.23048 0 l -0.0384,-0.11525 -0.0384,-0.0384 v -0.0384 l -0.0384,-0.11524 -0.0384,-0.0384 -0.0384,-0.0768 -0.0384,-0.0768 -0.0384,-0.0384 -0.0768,-0.0768 c 0,0 0,0 0,0 v 0 c 0,0 0,0 0,0 l -0.92196,-1.03721 -0.84514,-0.99878 c 0,0 0,-0.0384 -0.0384,-0.0384 0,0 0,0 0,0 0,0 0,0 0,0 0,0 0,0 0,0 -0.0384,0 -0.0384,-0.0384 -0.0384,-0.0384 0,0 0,0 0,0 0,0 0,0 0,0 0,0 -0.0384,0 -0.0384,0 0,0 0,0 0,0 z"
         id="path4722" />
      <path
         inkscape:connector-curvature="0"
         style="fill:#4d4d4d;fill-opacity:1;fill-rule:nonzero;stroke:none;stroke-width:0.48019084"
         d="m 603.26379,438.17392 c 0,0 0,0 0,0 0,0 0,0 0,0 0,0 0,0 -0.0384,0.0384 0,0 0,0 0,0 0,0 0,0 0,0 0,0 0,0 0,0 0,0 -0.0384,0 -0.0384,0 0,0 0,0 0,0.0384 v 0 l -0.92196,0.99878 -0.96038,0.9988 c 0,0 0,0 0,0 l -0.0384,0.0768 -0.0384,0.0384 -0.0384,0.0768 v 0.0384 l -0.0384,0.0384 -0.0384,0.0768 v 0.0384 l -0.0384,0.0384 v 0 l -0.0384,0.11524 -0.0384,0.0384 v 0.0768 0.19208 c 0,0 0,0 0,0 0,0 0,0 0,0.0384 v 0.19208 0.0384 l 0.0384,0.11525 v 0 l 0.0384,0.11524 0.0384,0.0384 v 0 0 l 0.0384,0.0768 0.0384,0.0384 v 0 0 l 0.0384,0.0768 0.0384,0.0768 0.11524,0.0768 0.0384,0.0384 0.0768,0.0768 0.0384,0.0384 0.0384,0.0384 0.0768,0.0384 h 0.0384 v 0 0 l 0.0384,0.0384 0.11524,0.0384 v 0 l 0.11524,0.0384 h 0.0384 0.19208 v 0 h 0.0384 0.23049 0.0384 l 0.0768,-0.0384 v 0 l 0.0768,-0.0384 v 0 0 l 0.0768,-0.0384 v -0.0384 h 0.0768 l 0.0384,-0.0384 h 0.0384 l 0.0768,-0.0384 v -0.0384 h 0.0384 v 0 l 0.0768,-0.0384 0.0384,-0.0768 0.0384,-0.0768 h 0.0384 l 0.0384,-0.0384 v -0.0384 0.0384 0 0 l 0.0384,0.0384 0.0384,0.0384 0.0384,0.0384 0.0384,0.0384 0.0384,0.0384 0.0768,0.0384 v 0 0 l 0.0384,0.0384 0.0768,0.0384 v 0 l 0.0384,0.0384 v 0.0384 l 0.0768,0.0384 h 0.0768 v 0 h 0.0384 l 0.0384,0.0384 h 0.0384 l 0.0384,0.0384 h 0.0384 0.15366 l 0.0768,0.0384 c 0,0 0,0 0,0 0,0 0,0 0,0 0.0384,0 0.0384,0 0.0384,0 0,0 0,0 0,0 0,0 0,0 0,0 0,0 0.0384,0 0.0384,0 v 0 c 0,0 0,0 0,0 v 0 l 0.0768,-0.0384 h 0.15365 l 0.0768,-0.0384 v 0 h 0.0384 l 0.0384,-0.0384 h 0.0384 l 0.0768,-0.0384 h 0.0384 l 0.0768,-0.0768 v 0 l 0.0768,-0.0384 0.0384,-0.0384 0.0384,-0.0384 0.0384,-0.0384 v 0 l 0.0384,-0.0384 v 0 l 0.0384,-0.0768 h 0.0384 l 0.0384,-0.0384 v 0 l 0.0384,-0.0384 v -0.0384 l 0.0384,-0.0768 h 0.0384 v -0.0384 l 0.0384,-0.0768 v -0.0384 -0.0768 h 0.0384 v -0.0768 -0.2305 c 0,0 0,0 0,0 v -0.23048 0 l -0.0384,-0.11525 v -0.0384 l -0.0384,-0.0384 -0.0384,-0.11524 v -0.0384 l -0.0768,-0.0768 -0.0384,-0.0768 v -0.0384 l -0.0768,-0.0768 c 0,0 0,0 0,0 v 0 c 0,0 0,0 0,0 l -0.92196,-1.03721 -0.88354,-0.99878 c 0,0 0,-0.0384 0,-0.0384 0,0 0,0 0,0 0,0 0,0 0,0 0,0 -0.0384,0 -0.0384,0 0,0 0,-0.0384 0,-0.0384 0,0 -0.0384,0 -0.0384,0 0,0 0,0 0,0 0,0 0,0 0,0 0,0 0,0 0,0 z"
         id="path4724" />
      <path
         inkscape:connector-curvature="0"
         style="fill:#464d4d;fill-opacity:1;fill-rule:nonzero;stroke:#000000;stroke-width:0.53780973px;stroke-linecap:square;stroke-linejoin:miter;stroke-miterlimit:14;stroke-dasharray:none;stroke-opacity:1"
         d="m 622.70176,463.68146 h 34.03568 c 1.30611,0 2.38173,-1.07561 2.38173,-2.38172 v -22.01179 c 0,-1.34452 -1.07562,-2.42014 -2.38173,-2.42014 h -34.03568 c -1.3061,0 -2.38172,1.07562 -2.38172,2.42014 v 22.01179 c 0,1.30611 1.07562,2.38172 2.38172,2.38172 z"
         id="path4730" />
      <path
         inkscape:connector-curvature="0"
         style="fill:none;stroke:#4d4d4d;stroke-width:0.76829964px;stroke-linecap:butt;stroke-linejoin:miter;stroke-miterlimit:4;stroke-dasharray:none;stroke-opacity:1"
         d="m 615.05718,425.91954 -3.91832,-2.61222 3.91832,-2.61222"
         id="path4732" />
      <path
         inkscape:connector-curvature="0"
         style="fill:none;stroke:#4d4d4d;stroke-width:0.76829964px;stroke-linecap:butt;stroke-linejoin:miter;stroke-miterlimit:4;stroke-dasharray:none;stroke-opacity:1"
         d="m 664.72776,425.91954 3.91832,-2.61222 -3.91832,-2.61222"
         id="path4734" />
      <path
         inkscape:connector-curvature="0"
         id="path4889"
         d="m 617.51526,411.59007 7.04324,12.22514"
         style="fill:none;fill-rule:evenodd;stroke:#4d4d4d;stroke-width:0.65325004;stroke-linecap:butt;stroke-linejoin:miter;stroke-miterlimit:4;stroke-dasharray:none;stroke-opacity:1" />
      <path
         inkscape:connector-curvature="0"
         id="path4889-7"
         d="m 662.14014,411.61183 -7.06562,12.21222"
         style="fill:none;fill-rule:evenodd;stroke:#4d4d4d;stroke-width:0.65325004;stroke-linecap:butt;stroke-linejoin:miter;stroke-miterlimit:4;stroke-dasharray:none;stroke-opacity:1" />
    </g>
    <g
       style="fill:#4d4d4d;fill-opacity:1"
       transform="matrix(1.1601638,0,0,-1.1672316,526.47973,533.5656)"
       id="text_up_" />
  </g>
</svg>
