<?xml version="1.0" encoding="UTF-8" standalone="no"?>
<svg
   xmlns:dc="http://purl.org/dc/elements/1.1/"
   xmlns:cc="http://creativecommons.org/ns#"
   xmlns:rdf="http://www.w3.org/1999/02/22-rdf-syntax-ns#"
   xmlns:svg="http://www.w3.org/2000/svg"
   xmlns="http://www.w3.org/2000/svg"
   xmlns:xlink="http://www.w3.org/1999/xlink"
   xmlns:sodipodi="http://sodipodi.sourceforge.net/DTD/sodipodi-0.dtd"
   xmlns:inkscape="http://www.inkscape.org/namespaces/inkscape"
   version="1.1"
   id="svg9722"
   viewBox="0 0 855.00003 200"
   height="200"
   width="855"
   inkscape:version="0.91 r13725"
   sodipodi:docname="m25t_pv_connection.svg">
  <sodipodi:namedview
     pagecolor="#ffffff"
     bordercolor="#666666"
     borderopacity="1"
     objecttolerance="10"
     gridtolerance="10"
     guidetolerance="10"
     inkscape:pageopacity="0"
     inkscape:pageshadow="2"
     inkscape:window-width="1920"
     inkscape:window-height="1018"
     id="namedview1697"
     showgrid="false"
     inkscape:zoom="1.4142136"
     inkscape:cx="414.06793"
     inkscape:cy="89.144986"
     inkscape:window-x="1272"
     inkscape:window-y="-8"
     inkscape:window-maximized="1"
     inkscape:current-layer="svg9722"
     inkscape:showpageshadow="false"
     units="px" />
  <defs
     id="defs9724">
    <linearGradient
       inkscape:collect="always"
       id="linearGradient8326">
      <stop
         style="stop-color:#000000;stop-opacity:1;"
         offset="0"
         id="stop8328" />
      <stop
         style="stop-color:#000000;stop-opacity:0;"
         offset="1"
         id="stop8330" />
    </linearGradient>
    <linearGradient
       inkscape:collect="always"
       id="linearGradient5759">
      <stop
         style="stop-color:#ff0000;stop-opacity:1;"
         offset="0"
         id="stop5761" />
      <stop
         style="stop-color:#ff0000;stop-opacity:0;"
         offset="1"
         id="stop5763" />
    </linearGradient>
    <linearGradient
       inkscape:collect="always"
       xlink:href="#linearGradient5759"
       id="linearGradient9326"
       x1="20.798395"
       y1="12.532684"
       x2="20.489872"
       y2="-9.4954967"
       gradientUnits="userSpaceOnUse" />
    <linearGradient
       inkscape:collect="always"
       xlink:href="#linearGradient8326"
       id="linearGradient8332"
       x1="425.90485"
       y1="106.22384"
       x2="365.37109"
       y2="89.973839"
       gradientUnits="userSpaceOnUse" />
  </defs>
  <metadata
     id="metadata9727">
    <rdf:RDF>
      <cc:Work
         rdf:about="">
        <dc:format>image/svg+xml</dc:format>
        <dc:type
           rdf:resource="http://purl.org/dc/dcmitype/StillImage" />
        <dc:title></dc:title>
      </cc:Work>
    </rdf:RDF>
  </metadata>
  <path
     style="fill:#ffffff;fill-opacity:1;fill-rule:evenodd;stroke:#000000;stroke-width:0.12063962;stroke-linecap:butt;stroke-linejoin:miter;stroke-miterlimit:4;stroke-dasharray:none;stroke-opacity:1"
     d="m -19.772388,-11.568848 253.273438,63.52329 0.84773,-1.442343 1.40217,-1.858719 1.51899,-1.366293 1.71426,-0.951364 1.37294,-0.478529 1.48541,-0.05574 2.86292,0.440793 27.85362,4.452327 3.4182,0.811181 31.05502,7.793466 1.30721,0.51255 0.88605,0.584596 0.83989,0.63688 0.6517,0.75699 0.70567,1.0728 0.48579,0.961233 0.43034,1.015979 0.47979,1.503073 18.82236,4.69573 0.94662,0.3984 0.7296,0.636205 0.83912,0.897222 0.45165,0.87027 0.48442,1.181689 0.29607,1.151771 0.17083,2.185508 -0.049,1.433682 -0.2104,1.31654 -0.51776,1.778494 -0.31714,0.914762 -0.0169,0.274673 -0.96767,1.96826 -1.42555,1.94003 -1.07787,1.02715 -1.15548,0.697683 -0.55215,0.256915 -1.14774,0.275251 -1.14251,-0.0048 -18.98962,-4.836298 -1.6137,1.519577 -0.77221,0.608699 -0.86817,0.514022 -0.87254,0.444315 -1.19979,0.411164 -1.79586,0.183131 -0.81073,-0.09434 -34.58899,-8.66183 -2.75595,-0.943233 -26.61428,-9.231129 -1.20786,-0.577044 -0.93991,-0.740269 -1.07773,-1.418095 -0.70636,-1.432065 -0.54664,-1.842384 -0.26769,-1.937859 -0.0178,-1.530387 -254.76578,-63.9009643 -2.470408,-0.4815694 z"
     id="path8493"
     inkscape:connector-curvature="0" />
  <path
     id="path5410-9-9"
     style="fill:none;stroke:#000000;stroke-width:0.3619189;stroke-linecap:round;stroke-linejoin:round;stroke-miterlimit:4;stroke-dasharray:none;stroke-opacity:1"
     d="m -23.511488,-6.9785093 0.990381,0.083483 1.527945,0.2429441 -0.112702,-0.00724 260.480124,65.3431882 0.0331,0.596466 -0.0674,0.608386 -0.32842,0.987918 -0.56198,0.777016 -0.40233,0.321143 -0.39274,0.162863 -0.41905,0.0072 -5.91986,-1.473155"
     inkscape:connector-curvature="0" />
  <path
     id="path5414-9-8"
     style="fill:none;stroke:#000000;stroke-width:0.3619189;stroke-linecap:round;stroke-linejoin:round;stroke-miterlimit:4;stroke-dasharray:none;stroke-opacity:1"
     d="m -20.826187,-6.5689377 1.29926,0.244802 260.229957,65.2916017 -0.2055,-0.07817"
     inkscape:connector-curvature="0" />
  <path
     id="path5454-4-1"
     style="fill:none;stroke:#000000;stroke-width:0.3619189;stroke-linecap:round;stroke-linejoin:round;stroke-miterlimit:4;stroke-dasharray:none;stroke-opacity:1"
     d="m 236.24122,70.215473 0.66914,0.154178 0.69046,0.06732 0.69416,-0.02968 0.70307,-0.135116 0.73633,-0.232835 0.7142,-0.315521 0.7079,-0.395095 1.37369,-1.059361 1.27744,-1.365858 0.60339,-0.788018 1.06945,-1.731275 0.47603,-0.960823 0.78313,-2.00199 0.57888,-2.102701 0.34938,-2.15974 0.085,-2.126298 -0.16827,-2.021992 -0.41015,-1.87643 -0.29464,-0.85905 -0.74465,-1.521628 -0.45336,-0.676572 -0.48845,-0.585971 -0.54777,-0.503791 -0.5797,-0.428898 -0.60596,-0.333279 -0.65303,-0.232111 -0.66914,-0.154177"
     inkscape:connector-curvature="0" />
  <path
     id="path5458-3-6"
     style="fill:none;stroke:#000000;stroke-width:0.3619189;stroke-linecap:round;stroke-linejoin:round;stroke-miterlimit:4;stroke-dasharray:none;stroke-opacity:1"
     d="m 240.70458,58.964812 0.53641,-0.03933 0.50868,-0.282924 0.52351,-0.560082 0.36872,-0.725575 0.22355,-0.827057 0.0463,-0.853839 -0.17111,-0.729508 -0.33385,-0.560733 -0.46158,-0.290525 -8.46543,-2.124416"
     inkscape:connector-curvature="0" />
  <path
     id="path5462-7-5"
     style="fill:none;stroke:#000000;stroke-width:0.3619189;stroke-linecap:round;stroke-linejoin:round;stroke-miterlimit:4;stroke-dasharray:none;stroke-opacity:1"
     d="m 237.87694,62.038011 0.69661,0.257493 0.69461,-3.14e-4 0.69035,-0.294384 0.69739,-0.517762 0.60568,-0.751705 0.36722,-0.592244 0.40306,-0.985699 0.24072,-1.067878"
     inkscape:connector-curvature="0" />
  <path
     id="path5466-9-4"
     style="fill:none;stroke:#000000;stroke-width:0.3619189;stroke-linecap:round;stroke-linejoin:round;stroke-miterlimit:4;stroke-dasharray:none;stroke-opacity:1"
     d="m 239.37422,58.684084 0.0722,-0.03426"
     inkscape:connector-curvature="0" />
  <path
     id="path5474-9-7"
     style="fill:none;stroke:#000000;stroke-width:0.3619189;stroke-linecap:round;stroke-linejoin:round;stroke-miterlimit:4;stroke-dasharray:none;stroke-opacity:1"
     d="m 313.27993,71.037101 -0.0456,-1.921813 -0.13174,-1.190183 -0.3251,-1.611263"
     inkscape:connector-curvature="0" />
  <path
     id="path5478-4-2"
     style="fill:none;stroke:#000000;stroke-width:0.3619189;stroke-linecap:round;stroke-linejoin:round;stroke-miterlimit:4;stroke-dasharray:none;stroke-opacity:1"
     d="m 326.51752,90.090952 -0.11291,-0.03595"
     inkscape:connector-curvature="0" />
  <path
     id="path5494-6-5"
     style="fill:none;stroke:#000000;stroke-width:0.3619189;stroke-linecap:round;stroke-linejoin:round;stroke-miterlimit:4;stroke-dasharray:none;stroke-opacity:1"
     d="m 313.27303,71.038935 c -0.0449,5.333817 -2.08572,10.859233 -5.30933,14.411275"
     inkscape:connector-curvature="0" />
  <path
     id="path5502-4-3"
     style="fill:none;stroke:#000000;stroke-width:0.3619189;stroke-linecap:round;stroke-linejoin:round;stroke-miterlimit:4;stroke-dasharray:none;stroke-opacity:1"
     d="m 333.56001,72.229069 -0.88892,-0.730376 -0.99733,-0.443278 -18.90242,-4.742852 -0.50491,-1.703625 -0.43514,-0.969267 -0.48261,-0.897583 -0.55764,-0.818516 -0.5854,-0.700482 -0.66549,-0.61268 -0.69689,-0.5084 -0.75771,-0.403636 -0.77528,-0.302999 -33.93474,-8.522708 -0.82371,-0.179512 -30.41651,-4.852971 -0.69044,-0.06708 -0.69235,0.03643 -0.72727,0.127396 -0.70674,0.232593 -1.42909,0.712498 -0.70655,0.483306 -1.33335,1.211053 -0.62176,0.71894 -1.16084,1.637563 -0.58935,1.035257 -251.82557,-63.173411 -1.743065,-0.384961 -1.803912,-0.28027 -1.763918,-0.158038 -1.718628,-0.01448 -1.684257,0.08638 -1.586798,0.230422 -1.536295,0.364428 -1.465183,0.493175 -1.385262,0.626964 -1.400199,0.7933505 -1.206532,0.8820447 -1.165755,1.0630525 -1.025601,1.1734377 -1.276604,0.9523536 -1.099428,0.9790149 -1.073896,1.1862979 -0.848506,1.2001715 -0.817486,1.42805978 -0.65981,1.54850642 -0.477093,1.4850741 -0.347363,1.4727447 -0.247731,1.652908 -0.129036,1.7099223 -0.0087,1.8845119 0.12754,1.7302135 0.216283,1.758227 0.355158,1.89105 11.732792,47.033877 0.337321,1.268333 0.903861,2.453642 -0.0359,-0.04898"
     inkscape:connector-curvature="0" />
  <path
     id="path5554-1-2"
     style="fill:none;stroke:#000000;stroke-width:0.3619189;stroke-linecap:round;stroke-linejoin:round;stroke-miterlimit:4;stroke-dasharray:none;stroke-opacity:1"
     d="m -27.403584,-3.8089197 1.373492,0.1068867 1.462213,0.245743 1.534247,0.3224939 254.351482,63.8073721 0.0294,1.527516 0.28509,1.961359 0.50733,1.769373 0.36682,0.795547 0.3815,0.739907 0.47223,0.664121 0.48836,0.586067 0.53409,0.507435 0.59348,0.425231 0.611,0.324593 0.65486,0.239107 29.1422,10.093268 33.9361,8.500174 0.80856,0.20557 0.83255,0.07359 0.86164,-0.06683 0.86411,-0.141148 0.87237,-0.276771 0.88309,-0.37519 0.86071,-0.48736 0.83828,-0.599507"
     inkscape:connector-curvature="0" />
  <path
     id="path5582-4-2"
     style="fill:none;stroke:#000000;stroke-width:0.3619189;stroke-linecap:round;stroke-linejoin:round;stroke-miterlimit:4;stroke-dasharray:none;stroke-opacity:1"
     d="m 307.97323,85.438797 18.54598,4.653192 0.51653,0.135599 1.11223,0.01448 1.12385,-0.276144 0.56093,-0.252668 1.09509,-0.689986 1.0562,-0.974889 0.94423,-1.173993 0.45281,-0.659271 0.76507,-1.458413 0.35359,-0.810095"
     inkscape:connector-curvature="0" />
  <path
     id="path5590-0-5"
     style="fill:none;stroke:#000000;stroke-width:0.3619189;stroke-linecap:round;stroke-linejoin:round;stroke-miterlimit:4;stroke-dasharray:none;stroke-opacity:1"
     d="m 306.14419,87.136801 0.82131,-0.690952 0.9969,-1.003408"
     inkscape:connector-curvature="0" />
  <path
     id="path5594-9-6"
     style="fill:none;stroke:#000000;stroke-width:0.3619189;stroke-linecap:round;stroke-linejoin:round;stroke-miterlimit:4;stroke-dasharray:none;stroke-opacity:1"
     d="m 333.09822,71.876609 c 2.69355,2.235742 3.25477,7.430485 1.29883,12.025384"
     inkscape:connector-curvature="0" />
  <path
     style="fill:#ffffff;fill-opacity:1;fill-rule:evenodd;stroke:none;stroke-width:0.04999999;stroke-linecap:butt;stroke-linejoin:miter;stroke-miterlimit:4;stroke-dasharray:none;stroke-opacity:1"
     d="M 854.8319,189.35345 479.8772,88.468952 l -2.4727,-0.642599 -2.39979,-0.631983 -1.76401,-0.310961 -1.20413,-0.0497 -1.48464,0.175169 -1.57382,0.328816 -1.44253,0.483837 -1.30682,0.617844 -1.57358,0.81895 -0.54604,0.35526 -0.41818,0.271367 -1.23796,0.989703 -1.03788,0.876471 -1.48566,1.525875 -1.18644,1.296128 -1.59944,2.076377 -1.14813,1.66613 -0.96936,1.698578 -1.11351,2.09713 -0.82855,1.70114 -1.03108,2.59542 -0.5949,1.63896 -0.4958,1.52257 -0.35428,1.41486 -0.41471,1.45096 -0.27076,1.35261 -0.37956,1.92184 -0.22366,1.53014 -0.159,1.77307 -0.10038,1.76747 -0.0844,2.20348 0.042,1.39947 0.14597,2.09208 0.29161,2.41354 0.40472,1.97323 0.51057,1.84502 0.7348,2.0855 0.63941,1.35053 1.0017,1.73434 0.6571,0.96567 0.90747,1.07913 0.66728,0.70282 1.32547,1.10795 1.10258,0.94717 0.75812,0.81871 0.47158,0.79492 0.71358,1.29079 0.52486,1.22095 0.30314,1.13987 0.37191,1.51176 0.20557,1.3759 0.11581,1.4898 0.089,1.4269 -0.0584,1.58629 -0.0842,1.75316 -0.23887,1.92438 -0.2683,2.30243 -0.11726,2.67248 0.0169,2.40099 0.15249,2.43548 0.23524,2.00302 0.39247,1.84804 0.54471,2.04807 0.74999,2.02175 0.577,1.31789 0.84899,1.54265 0.83075,1.20794 0.81854,1.05557 0.9939,1.02303 1.03719,0.81344 1.22661,0.83377 1.203,0.58537 1.70345,0.55127 5.85756,1.48322 2.83933,0.85237 369.58572,98.80327 z"
     id="path8491"
     inkscape:connector-curvature="0" />
  <path
     inkscape:connector-curvature="0"
     id="path178-2-9"
     style="fill:#ffffff;fill-opacity:1;fill-rule:nonzero;stroke:#000000;stroke-width:0.3619189;stroke-miterlimit:4;stroke-dasharray:none;stroke-opacity:1"
     d="m 504.72803,130.01918 2.15808,4.11287 1.79169,0.51231 1.17414,-2.03227 -1.69847,-6.08051 -2.58629,0.58489 -0.83915,2.90268 z" />
  <path
     inkscape:connector-curvature="0"
     id="path182-9-5"
     style="fill:#ffffff;fill-opacity:1;fill-rule:nonzero;stroke:#000000;stroke-width:0.3619189;stroke-miterlimit:4;stroke-dasharray:none;stroke-opacity:1"
     d="m 513.67378,130.34249 0.91406,5.63228 2.55329,0.23573 0.32254,-2.56598 -0.81048,-2.82543 -0.93329,-1.98081 -1.11264,-0.15417 -0.93358,1.65826 z" />
  <path
     inkscape:connector-curvature="0"
     id="path522-5-0"
     style="fill:#ffffff;fill-opacity:1;fill-rule:nonzero;stroke:#000000;stroke-width:0.3619189;stroke-miterlimit:4;stroke-dasharray:none;stroke-opacity:1"
     d="m 509.85471,132.61428 0.94212,-0.0145 -0.32428,-4.27604 -0.38073,-1.37496 -1.93762,-0.4218 1.70024,6.08738 z" />
  <path
     inkscape:connector-curvature="0"
     id="path526-7-0"
     style="fill:#ffffff;fill-opacity:1;fill-rule:nonzero;stroke:#000000;stroke-width:0.3619189;stroke-miterlimit:4;stroke-dasharray:none;stroke-opacity:1"
     d="m 513.89341,192.51727 2.02166,-0.34602 -0.53058,-1.68936 -3.75375,0.47479 2.26267,1.56062 z" />
  <path
     inkscape:connector-curvature="0"
     id="path538-9-0"
     style="fill:#ffffff;fill-opacity:1;fill-rule:nonzero;stroke:#000000;stroke-width:0.3619189;stroke-miterlimit:4;stroke-dasharray:none;stroke-opacity:1"
     d="m 515.38044,190.48063 0.53755,1.68753 1.26597,-0.0193 3.29821,-3.6604 -1.59708,-1.05866 -3.5046,3.051 z" />
  <path
     inkscape:connector-curvature="0"
     id="path2738-6-0"
     style="fill:#ffffff;fill-opacity:1;fill-rule:nonzero;stroke:#000000;stroke-width:0.3619189;stroke-miterlimit:4;stroke-dasharray:none;stroke-opacity:1"
     d="m 462.5673,125.10191 2.70655,-0.2995 -0.11171,-2.31013 -4.10701,-0.46459 1.51226,3.07419 z" />
  <path
     id="path4242-1-8"
     style="fill:none;stroke:#000000;stroke-width:0.3619189;stroke-linecap:round;stroke-linejoin:round;stroke-miterlimit:4;stroke-dasharray:none;stroke-opacity:1"
     d="m 492.12008,178.54696 0.0603,0.22753 28.74375,7.73384 -2.55727,2.91707 -2.72509,2.34161 -20.69527,-5.56491"
     inkscape:connector-curvature="0" />
  <path
     id="path4246-7-3"
     style="fill:none;stroke:#000000;stroke-width:0.3619189;stroke-linecap:round;stroke-linejoin:round;stroke-miterlimit:4;stroke-dasharray:none;stroke-opacity:1"
     d="m 513.91187,189.27706 1.15114,0.29897 0.5812,2.18529"
     inkscape:connector-curvature="0" />
  <path
     id="path4250-4-6"
     style="fill:none;stroke:#000000;stroke-width:0.3619189;stroke-linecap:round;stroke-linejoin:round;stroke-miterlimit:4;stroke-dasharray:none;stroke-opacity:1"
     d="m 508.79127,125.62816 6.55158,1.79227 0.25409,2.5675 0.48579,2.4099 0.72053,2.12598 0.93021,1.88567 -11.50241,-3.0952 -0.94394,-1.88203 -0.71047,-2.14342 -0.49949,-2.40624 -0.29316,-2.52018 3.38809,0.81827"
     inkscape:connector-curvature="0" />
  <path
     id="path4254-3-4"
     style="fill:none;stroke:#000000;stroke-width:0.3619189;stroke-linecap:round;stroke-linejoin:round;stroke-miterlimit:4;stroke-dasharray:none;stroke-opacity:1"
     d="M 505.40132,126.80408 504.024,126.43244"
     inkscape:connector-curvature="0" />
  <path
     id="path4258-0-2"
     style="fill:none;stroke:#000000;stroke-width:0.3619189;stroke-linecap:round;stroke-linejoin:round;stroke-miterlimit:4;stroke-dasharray:none;stroke-opacity:1"
     d="m 515.34587,127.42333 -1.61675,1.61859 -2.26076,-0.60894"
     inkscape:connector-curvature="0" />
  <path
     id="path4270-3-0"
     style="fill:none;stroke:#000000;stroke-width:0.3619189;stroke-linecap:round;stroke-linejoin:round;stroke-miterlimit:4;stroke-dasharray:none;stroke-opacity:1"
     d="m 515.05956,189.57695 1.38888,-1.08552 2.53756,-2.49106"
     inkscape:connector-curvature="0" />
  <path
     id="path4274-2-1"
     style="fill:none;stroke:#000000;stroke-width:0.3619189;stroke-linecap:round;stroke-linejoin:round;stroke-miterlimit:4;stroke-dasharray:none;stroke-opacity:1"
     d="m 486.41322,184.39099 c -3.56526,2.46186 -7.2232,3.32458 -10.49763,2.46133"
     inkscape:connector-curvature="0" />
  <path
     id="path4278-3-9"
     style="fill:none;stroke:#000000;stroke-width:0.3619189;stroke-linecap:round;stroke-linejoin:round;stroke-miterlimit:4;stroke-dasharray:none;stroke-opacity:1"
     d="m 494.31425,131.98128 c 7.92889,5.58145 9.51272,22.04099 3.54299,36.77568 -1.52997,3.7508 -3.45801,7.17217 -5.67855,10.0217"
     inkscape:connector-curvature="0" />
  <path
     id="path4282-4-3"
     style="fill:none;stroke:#000000;stroke-width:0.3619189;stroke-linecap:round;stroke-linejoin:round;stroke-miterlimit:4;stroke-dasharray:none;stroke-opacity:1"
     d="m 494.29309,132.03786 c -3.83994,-2.6836 -5.60545,-9.32199 -4.5056,-16.90738"
     inkscape:connector-curvature="0" />
  <path
     id="path4286-2-5"
     style="fill:none;stroke:#000000;stroke-width:0.3619189;stroke-linecap:round;stroke-linejoin:round;stroke-miterlimit:4;stroke-dasharray:none;stroke-opacity:1"
     d="m 515.03886,135.68644 c -0.71626,-1.94259 -1.16859,-4.19901 -1.30829,-6.64193"
     inkscape:connector-curvature="0" />
  <path
     id="path4290-9-5"
     style="fill:none;stroke:#000000;stroke-width:0.3619189;stroke-linecap:round;stroke-linejoin:round;stroke-miterlimit:4;stroke-dasharray:none;stroke-opacity:1"
     d="m 479.91501,88.476673 c 7.69537,2.063637 11.81499,13.190837 9.86796,26.655737"
     inkscape:connector-curvature="0" />
  <path
     id="path4294-5-1"
     style="fill:none;stroke:#000000;stroke-width:0.3619189;stroke-linecap:round;stroke-linejoin:round;stroke-miterlimit:4;stroke-dasharray:none;stroke-opacity:1"
     d="m 475.88637,186.846 373.91874,99.97237"
     inkscape:connector-curvature="0" />
  <path
     id="path4298-4-7"
     style="fill:none;stroke:#000000;stroke-width:0.3619189;stroke-linecap:round;stroke-linejoin:round;stroke-miterlimit:4;stroke-dasharray:none;stroke-opacity:1"
     d="M 854.81655,189.35065 479.91212,88.474477"
     inkscape:connector-curvature="0" />
  <path
     id="path4338-3-3"
     style="fill:none;stroke:#000000;stroke-width:0.3619189;stroke-linecap:round;stroke-linejoin:round;stroke-miterlimit:4;stroke-dasharray:none;stroke-opacity:1"
     d="m 456.91516,142.21442 -0.0217,-0.007"
     inkscape:connector-curvature="0" />
  <path
     id="path4342-5-5"
     style="fill:none;stroke:#000000;stroke-width:0.3619189;stroke-linecap:round;stroke-linejoin:round;stroke-miterlimit:4;stroke-dasharray:none;stroke-opacity:1"
     d="m 460.92204,152.804 -0.01,-0.0343"
     inkscape:connector-curvature="0" />
  <path
     id="path4346-2-3"
     style="fill:none;stroke:#000000;stroke-width:0.3619189;stroke-linecap:round;stroke-linejoin:round;stroke-miterlimit:4;stroke-dasharray:none;stroke-opacity:1"
     d="m 460.5688,149.57494 -0.0169,-0.062"
     inkscape:connector-curvature="0" />
  <path
     id="path4350-6-2"
     style="fill:none;stroke:#000000;stroke-width:0.3619189;stroke-linecap:round;stroke-linejoin:round;stroke-miterlimit:4;stroke-dasharray:none;stroke-opacity:1"
     d="m 460.09937,147.64564 -0.0169,-0.062"
     inkscape:connector-curvature="0" />
  <path
     id="path4354-2-7"
     style="fill:none;stroke:#000000;stroke-width:0.3619189;stroke-linecap:round;stroke-linejoin:round;stroke-miterlimit:4;stroke-dasharray:none;stroke-opacity:1"
     d="m 459.49137,145.90455 -0.0403,-0.0705 0.002,0.0145"
     inkscape:connector-curvature="0" />
  <path
     id="path4358-6-8"
     style="fill:none;stroke:#000000;stroke-width:0.3619189;stroke-linecap:round;stroke-linejoin:round;stroke-miterlimit:4;stroke-dasharray:none;stroke-opacity:1"
     d="m 459.14376,145.13933 -0.0497,-0.0755"
     inkscape:connector-curvature="0" />
  <path
     id="path4362-5-4"
     style="fill:none;stroke:#000000;stroke-width:0.3619189;stroke-linecap:round;stroke-linejoin:round;stroke-miterlimit:4;stroke-dasharray:none;stroke-opacity:1"
     d="m 458.71467,144.3958 0.0193,0.0169"
     inkscape:connector-curvature="0" />
  <path
     id="path4366-1-6"
     style="fill:none;stroke:#000000;stroke-width:0.3619189;stroke-linecap:round;stroke-linejoin:round;stroke-miterlimit:4;stroke-dasharray:none;stroke-opacity:1"
     d="m 457.38544,142.65177 -0.002,-0.0145"
     inkscape:connector-curvature="0" />
  <path
     id="path4422-3-0"
     style="fill:none;stroke:#000000;stroke-width:0.3619189;stroke-linecap:round;stroke-linejoin:round;stroke-miterlimit:4;stroke-dasharray:none;stroke-opacity:1"
     d="m 486.76131,184.34121 -0.30478,0.0217 -0.30737,-0.0437 0.0217,-0.005 -0.94726,0.60648 -1.0909,0.62235 -0.46801,0.21329"
     inkscape:connector-curvature="0" />
  <path
     id="path4454-4-0"
     style="fill:none;stroke:#000000;stroke-width:0.3619189;stroke-linecap:round;stroke-linejoin:round;stroke-miterlimit:4;stroke-dasharray:none;stroke-opacity:1"
     d="m 485.81094,184.13274 -0.31736,-0.24779 -0.16407,-0.19978 -0.14018,-0.22101 0.007,0.0275"
     inkscape:connector-curvature="0" />
  <path
     id="path4462-4-5"
     style="fill:none;stroke:#000000;stroke-width:0.3619189;stroke-linecap:round;stroke-linejoin:round;stroke-miterlimit:4;stroke-dasharray:none;stroke-opacity:1"
     d="m 486.08619,184.00096 8.17968,2.22785 0.22174,0.0287 0.16745,0.002"
     inkscape:connector-curvature="0" />
  <path
     id="path4466-5-6"
     style="fill:none;stroke:#000000;stroke-width:0.3619189;stroke-linecap:round;stroke-linejoin:round;stroke-miterlimit:4;stroke-dasharray:none;stroke-opacity:1"
     d="m 496.84828,181.45556 -0.0217,-0.083 0.0217,0.083 -0.10471,-0.39297 -0.0618,-0.0647 -0.0982,-0.0627 -7.55971,-2.02597 -0.18893,-0.0169 -0.20026,0.0533 -0.17299,0.12715 -0.8653,0.99793 -0.8621,0.87151 -0.86283,0.81277 -0.91484,0.81178 -0.0574,0.11871 0.15586,0.50476"
     inkscape:connector-curvature="0" />
  <path
     id="path4486-2-7"
     style="fill:none;stroke:#000000;stroke-width:0.3619189;stroke-linecap:round;stroke-linejoin:round;stroke-miterlimit:4;stroke-dasharray:none;stroke-opacity:1"
     d="m 485.12073,183.35761 -0.12594,-0.30601"
     inkscape:connector-curvature="0" />
  <path
     id="path4530-6-0"
     style="fill:none;stroke:#000000;stroke-width:0.3619189;stroke-linecap:round;stroke-linejoin:round;stroke-miterlimit:4;stroke-dasharray:none;stroke-opacity:1"
     d="m 493.88907,176.00057 -0.60815,0.93689 -0.93363,1.29666 -0.60344,0.78789 -0.14018,0.14067 -0.10303,0.0569"
     inkscape:connector-curvature="0" />
  <path
     id="path4538-9-0"
     style="fill:none;stroke:#000000;stroke-width:0.3619189;stroke-linecap:round;stroke-linejoin:round;stroke-miterlimit:4;stroke-dasharray:none;stroke-opacity:1"
     d="m 496.05679,185.15454 -0.0359,0.0326 0.247,-0.4053 0.21329,-0.44796 0.166,-0.48702 0.12643,-0.46924 0.10037,-0.48425 0.0376,-0.49716 -0.002,-0.47939 -0.0647,-0.46256"
     inkscape:connector-curvature="0" />
  <path
     id="path4542-7-8"
     style="fill:none;stroke:#000000;stroke-width:0.3619189;stroke-linecap:round;stroke-linejoin:round;stroke-miterlimit:4;stroke-dasharray:none;stroke-opacity:1"
     d="m 496.02164,185.1861 -0.28575,0.37121 -0.3605,0.3395 15.11299,4.08312 0.17662,-0.002 0.84612,-0.1812 -0.84612,0.1812"
     inkscape:connector-curvature="0" />
  <path
     id="path4630-0-3"
     style="fill:none;stroke:#000000;stroke-width:0.3619189;stroke-linecap:round;stroke-linejoin:round;stroke-miterlimit:4;stroke-dasharray:none;stroke-opacity:1"
     d="m 496.86761,181.60906 0.0446,0.30563"
     inkscape:connector-curvature="0" />
  <path
     id="path4690-9-8"
     style="fill:none;stroke:#000000;stroke-width:0.3619189;stroke-linecap:round;stroke-linejoin:round;stroke-miterlimit:4;stroke-dasharray:none;stroke-opacity:1"
     d="m 486.18391,93.54098 0.17541,0.270764 0.65543,1.102574 0.56276,1.171484 0.51545,1.243143 0.4785,1.326795 0.39611,1.40774 0.34151,1.45183 0.25247,1.50503 0.21185,1.57488 0.13656,1.62448 0.0794,1.6323 0.002,1.67499 -0.0719,1.70213 -0.12716,1.7168 -0.33839,2.67349 -0.13294,1.44522 -0.0907,1.38226 -0.007,1.38965 0.0574,1.32807 0.11075,1.27707 0.0782,0.62873 0.22053,1.21824 0.26442,1.16229 0.33316,1.08498"
     inkscape:connector-curvature="0" />
  <path
     id="path4722-0-2"
     style="fill:none;stroke:#000000;stroke-width:0.3619189;stroke-linecap:round;stroke-linejoin:round;stroke-miterlimit:4;stroke-dasharray:none;stroke-opacity:1"
     d="m 510.64574,189.91524 2.52967,-0.5478 2.54219,-0.63968 -0.88173,-3.4264"
     inkscape:connector-curvature="0" />
  <path
     id="path4966-9-4"
     style="fill:none;stroke:#000000;stroke-width:0.3619189;stroke-linecap:round;stroke-linejoin:round;stroke-miterlimit:4;stroke-dasharray:none;stroke-opacity:1"
     d="m 507.02554,125.28313 0.0169,-0.0265 -2.76081,2.62425"
     inkscape:connector-curvature="0" />
  <path
     id="path4986-0-6"
     style="fill:none;stroke:#000000;stroke-width:0.3619189;stroke-linecap:round;stroke-linejoin:round;stroke-miterlimit:4;stroke-dasharray:none;stroke-opacity:1"
     d="m 513.55936,130.52941 -0.0343,0.0386 -0.0581,-0.0509 -4.7816,-5.00175 -0.17107,-0.0873 -1.08855,-0.28609 -0.18337,0.005 -0.17855,0.10664"
     inkscape:connector-curvature="0" />
  <path
     id="path5038-4-5"
     style="fill:none;stroke:#000000;stroke-width:0.3619189;stroke-linecap:round;stroke-linejoin:round;stroke-miterlimit:4;stroke-dasharray:none;stroke-opacity:1"
     d="m 497.97351,167.88526 -0.32922,0.81837"
     inkscape:connector-curvature="0" />
  <path
     id="path5074-5-2"
     style="fill:none;stroke:#000000;stroke-width:0.3619189;stroke-linecap:round;stroke-linejoin:round;stroke-miterlimit:4;stroke-dasharray:none;stroke-opacity:1"
     d="m 497.97885,167.87723 c -1.13686,2.92283 -2.52924,5.66275 -4.12511,8.1099"
     inkscape:connector-curvature="0" />
  <path
     id="path5078-7-8"
     style="fill:none;stroke:#000000;stroke-width:0.3619189;stroke-linecap:round;stroke-linejoin:round;stroke-miterlimit:4;stroke-dasharray:none;stroke-opacity:1"
     d="m 501.16537,147.3212 c 0.56313,6.50805 -0.56966,13.83649 -3.18725,20.55622"
     inkscape:connector-curvature="0" />
  <path
     id="path5086-3-5"
     style="fill:none;stroke:#000000;stroke-width:0.3619189;stroke-linecap:round;stroke-linejoin:round;stroke-miterlimit:4;stroke-dasharray:none;stroke-opacity:1"
     d="m 465.07055,181.5353 -0.77005,-1.00563"
     inkscape:connector-curvature="0" />
  <path
     id="path5090-0-0"
     style="fill:none;stroke:#000000;stroke-width:0.3619189;stroke-linecap:round;stroke-linejoin:round;stroke-miterlimit:4;stroke-dasharray:none;stroke-opacity:1"
     d="m 464.61115,180.92235 0.4594,0.61587 0.82582,0.90967 0.88837,0.81171 0.99146,0.75475 1.07674,0.65828 0.93845,0.44412 1.09172,0.38122 5.00688,1.34707 0.46222,0.0984 0.58325,0.0811 0.47515,0.0359 -0.2499,-0.0217"
     inkscape:connector-curvature="0" />
  <path
     id="path5094-2-8"
     style="fill:none;stroke:#000000;stroke-width:0.3619189;stroke-linecap:round;stroke-linejoin:round;stroke-miterlimit:4;stroke-dasharray:none;stroke-opacity:1"
     d="m 459.45528,145.84917 0.3575,0.87184 0.27443,0.89389 0.25313,0.9513 0.22415,0.98111 0.14862,1.03077 0.13054,1.10202 0.0772,1.12359 0.0323,1.12079 -0.0258,1.18055 -0.055,1.21043 -0.1175,1.19752 -0.33606,2.59906 -0.15538,1.69474 -0.0774,1.68141 -0.0258,1.65293 0.0504,1.66217 0.11726,1.6075 0.15273,1.54638 0.25151,1.557 0.31769,1.44336 0.38501,1.44765 0.43715,1.33782 0.51986,1.3157 0.58846,1.26802 0.60848,1.0929 0.70909,1.11039 0.34974,0.45322"
     inkscape:connector-curvature="0" />
  <path
     id="path5098-1-2"
     style="fill:none;stroke:#000000;stroke-width:0.3619189;stroke-linecap:round;stroke-linejoin:round;stroke-miterlimit:4;stroke-dasharray:none;stroke-opacity:1"
     d="m 462.41823,90.667223 -0.0326,0.04536 0.0835,-0.103268 -0.1853,0.248566 -0.20653,0.335451 -0.39864,0.33492 -1.08156,1.01856 -0.99608,1.062232 -1.0325,1.175272 -0.93498,1.208351 -0.94066,1.298468 -0.88735,1.387598 -0.83676,1.411047 -0.77701,1.46896 -0.7504,1.51357 -0.69747,1.57328 -0.63642,1.60871 -0.5964,1.62019 -0.53848,1.67125 -0.46029,1.68729 -0.42531,1.70755 -0.33882,1.69929 -0.29707,1.71769 -0.21908,1.70435 -0.15345,1.70162 -0.0794,1.67453 -0.0193,1.65112 0.0434,1.664 0.11172,1.58678 0.16503,1.56525 0.23814,1.47931 0.33261,1.52799 0.38315,1.44073 0.42641,1.32588 0.53231,1.33461 0.54587,1.19079 0.6442,1.17196 0.71609,1.10856 0.76456,0.98493 0.82938,0.9234 0.89027,0.81863 1.30867,1.00254 0.47062,0.43575 0.47884,0.52213 0.4171,0.56809 0.43404,0.65952 0.39497,0.70685 0.38246,0.79875"
     inkscape:connector-curvature="0" />
  <path
     id="path5102-6-4"
     style="fill:none;stroke:#000000;stroke-width:0.3619189;stroke-linecap:round;stroke-linejoin:round;stroke-miterlimit:4;stroke-dasharray:none;stroke-opacity:1"
     d="m 456.91516,142.21442 -0.0217,-0.007"
     inkscape:connector-curvature="0" />
  <path
     id="path5106-6-2"
     style="fill:none;stroke:#000000;stroke-width:0.3619189;stroke-linecap:round;stroke-linejoin:round;stroke-miterlimit:4;stroke-dasharray:none;stroke-opacity:1"
     d="m 460.91306,152.77025 0.01,0.0343"
     inkscape:connector-curvature="0" />
  <path
     id="path5110-2-0"
     style="fill:none;stroke:#000000;stroke-width:0.3619189;stroke-linecap:round;stroke-linejoin:round;stroke-miterlimit:4;stroke-dasharray:none;stroke-opacity:1"
     d="m 460.55266,149.51428 0.0169,0.062"
     inkscape:connector-curvature="0" />
  <path
     id="path5114-5-2"
     style="fill:none;stroke:#000000;stroke-width:0.3619189;stroke-linecap:round;stroke-linejoin:round;stroke-miterlimit:4;stroke-dasharray:none;stroke-opacity:1"
     d="m 460.08321,147.58499 0.0169,0.062"
     inkscape:connector-curvature="0" />
  <path
     id="path5118-9-6"
     style="fill:none;stroke:#000000;stroke-width:0.3619189;stroke-linecap:round;stroke-linejoin:round;stroke-miterlimit:4;stroke-dasharray:none;stroke-opacity:1"
     d="m 459.09538,145.06584 0.0497,0.0755"
     inkscape:connector-curvature="0" />
  <path
     id="path5122-2-8"
     style="fill:none;stroke:#000000;stroke-width:0.3619189;stroke-linecap:round;stroke-linejoin:round;stroke-miterlimit:4;stroke-dasharray:none;stroke-opacity:1"
     d="m 458.73385,144.41209 -0.0193,-0.0169"
     inkscape:connector-curvature="0" />
  <path
     id="path5126-1-4"
     style="fill:none;stroke:#000000;stroke-width:0.3619189;stroke-linecap:round;stroke-linejoin:round;stroke-miterlimit:4;stroke-dasharray:none;stroke-opacity:1"
     d="m 457.85977,143.15956 0.002,0.0145"
     inkscape:connector-curvature="0" />
  <path
     id="path5130-0-2"
     style="fill:none;stroke:#000000;stroke-width:0.3619189;stroke-linecap:round;stroke-linejoin:round;stroke-miterlimit:4;stroke-dasharray:none;stroke-opacity:1"
     d="m 457.38175,142.63796 0.002,0.0145"
     inkscape:connector-curvature="0" />
  <path
     id="path5146-1-5"
     style="fill:none;stroke:#000000;stroke-width:0.3619189;stroke-linecap:round;stroke-linejoin:round;stroke-miterlimit:4;stroke-dasharray:none;stroke-opacity:1"
     d="m 478.24008,187.09218 0.28572,-0.01 1.08667,-0.0825 1.15245,-0.19592 1.12482,-0.32826 1.12142,-0.42388 0.65399,-0.29211"
     inkscape:connector-curvature="0" />
  <path
     id="path5210-7-1"
     style="fill:none;stroke:#000000;stroke-width:0.3619189;stroke-linecap:round;stroke-linejoin:round;stroke-miterlimit:4;stroke-dasharray:none;stroke-opacity:1"
     d="m 463.63481,89.730843 0,0 0.25537,-0.06804 0.22512,-0.01689 0.89213,-0.591737 1.17037,-0.628798 1.17865,-0.542468 1.08559,-0.392248 1.25615,-0.334269 1.17826,-0.210154 1.17501,-0.08396 1.22174,0.03667 1.21334,0.17155 1.09324,0.247939 4.3915,1.200823 0.4405,0.155866 0.55601,0.228491 0.39082,0.191335 -0.20919,-0.09193"
     inkscape:connector-curvature="0" />
  <path
     id="path5230-9-0"
     style="fill:none;stroke:#000000;stroke-width:0.3619189;stroke-linecap:round;stroke-linejoin:round;stroke-miterlimit:4;stroke-dasharray:none;stroke-opacity:1"
     d="m 466.08003,124.16273 c -1.89684,-4.01998 -0.8548,-10.8002 2.34012,-15.12696 0.74247,-0.98736 1.56209,-1.79596 2.39714,-2.37986"
     inkscape:connector-curvature="0" />
  <path
     id="path5238-3-0"
     style="fill:none;stroke:#000000;stroke-width:0.3619189;stroke-linecap:round;stroke-linejoin:round;stroke-miterlimit:4;stroke-dasharray:none;stroke-opacity:1"
     d="m 463.18893,104.01347 c 4.35695,-4.348121 9.17428,-3.04656 10.75278,2.88869 1.58033,5.94215 -0.67585,14.27075 -5.03463,18.61197 -4.35866,4.34117 -9.18116,3.04837 -10.75966,-2.88688"
     inkscape:connector-curvature="0" />
  <path
     id="path5242-6-4"
     style="fill:none;stroke:#000000;stroke-width:0.3619189;stroke-linecap:round;stroke-linejoin:round;stroke-miterlimit:4;stroke-dasharray:none;stroke-opacity:1"
     d="m 460.43559,113.25159 c 1.44918,-5.36062 5.13887,-9.02186 8.23438,-8.19215 3.1043,0.83473 4.44077,5.86004 2.98282,11.21562 -1.4423,5.35879 -5.13013,9.02694 -8.23436,8.19216 -3.09742,-0.83656 -4.43206,-5.85498 -2.98284,-11.21563 z"
     inkscape:connector-curvature="0" />
  <path
     id="path5246-5-5"
     style="fill:none;stroke:#000000;stroke-width:0.3619189;stroke-linecap:round;stroke-linejoin:round;stroke-miterlimit:4;stroke-dasharray:none;stroke-opacity:1"
     d="m 464.92098,124.52872 c -2.62324,-2.16589 -2.98506,-7.94513 -0.80433,-12.9173 1.43329,-3.25271 3.67664,-5.4883 5.87307,-5.84397"
     inkscape:connector-curvature="0" />
  <path
     id="path5258-3-1"
     style="fill:none;stroke:#000000;stroke-width:0.3619189;stroke-linecap:round;stroke-linejoin:round;stroke-miterlimit:4;stroke-dasharray:none;stroke-opacity:1"
     d="m 458.15051,122.62493 c -1.5785,-5.93525 0.67401,-14.27763 5.04151,-18.61378"
     inkscape:connector-curvature="0" />
  <path
     id="path5282-2-4"
     style="fill:none;stroke:#000000;stroke-width:0.3619189;stroke-linecap:round;stroke-linejoin:round;stroke-miterlimit:4;stroke-dasharray:none;stroke-opacity:1"
     d="m 469.34652,118.04615 0.0936,0.35157 0.10206,0.24593 0.0514,0.11172 0.0895,0.16817 0.0169,0.0553 0.10881,0.18506 0.10761,0.15587 0.0362,0.0791 0.0729,0.10616 0.0362,0.0495 0.0618,0.0647"
     inkscape:connector-curvature="0" />
  <path
     id="path5294-2-7"
     style="fill:none;stroke:#000000;stroke-width:0.3619189;stroke-linecap:round;stroke-linejoin:round;stroke-miterlimit:4;stroke-dasharray:none;stroke-opacity:1"
     d="m 469.34652,118.04615 -0.0881,-0.33091 -0.029,-0.24355 -0.0258,-0.0965 -4.8e-4,-0.25084 -0.0121,-0.26987 0.002,-0.0673 -0.007,-0.24201"
     inkscape:connector-curvature="0" />
  <path
     id="path5298-4-3"
     style="fill:none;stroke:#000000;stroke-width:0.3619189;stroke-linecap:round;stroke-linejoin:round;stroke-miterlimit:4;stroke-dasharray:none;stroke-opacity:1"
     d="m 470.5354,113.56306 -0.23669,0.27706 -0.15104,0.20991 -0.0666,0.084 -0.15273,0.20316 -0.14887,0.24625 -0.0323,0.0521 -0.11943,0.24587 -0.11002,0.28027 -0.0562,0.17734 -0.0451,0.0784 -0.07,0.29181 -0.0774,0.2642 -0.0427,0.28442 -0.036,0.28261"
     inkscape:connector-curvature="0" />
  <path
     id="path5302-4-0"
     style="fill:none;stroke:#000000;stroke-width:0.3619189;stroke-linecap:round;stroke-linejoin:round;stroke-miterlimit:4;stroke-dasharray:none;stroke-opacity:1"
     d="m 470.55613,113.55754 0.16744,-0.14791 0.11148,-0.0816 0.15055,-0.1286 0.15756,-0.13054 0.0509,-0.028 0.18168,-0.12233 0.18048,-0.0999 0.0618,-0.0169 0.12015,-0.076 0.13464,-0.0502 0.12402,-0.0625 0.14139,-0.0521 0.0965,-0.0258"
     inkscape:connector-curvature="0" />
  <path
     style="fill:none;fill-rule:evenodd;stroke:#000000;stroke-width:0.3619189;stroke-linecap:butt;stroke-linejoin:miter;stroke-miterlimit:4;stroke-dasharray:none;stroke-opacity:1"
     d="m 462.05106,91.203973 1.97074,-1.554466"
     id="path14316-6"
     inkscape:connector-curvature="0" />
  <path
     id="path10378"
     style="fill:url(#linearGradient8332);fill-opacity:1;fill-rule:nonzero;stroke:#464646;stroke-width:0.48255864;stroke-miterlimit:4;stroke-dasharray:none;stroke-opacity:1"
     d="m 425.56897,105.46319 -12.27453,18.75884 -3.68443,-13.65522 -41.6885,-10.706459 -5.42596,-20.119171 41.6892,10.715407 -3.68168,-13.654527 25.0659,28.66113 z"
     inkscape:connector-curvature="0" />
</svg>
