<?xml version="1.0" encoding="UTF-8" standalone="no"?>
<!-- Created with Inkscape (http://www.inkscape.org/) -->

<svg
   xmlns:dc="http://purl.org/dc/elements/1.1/"
   xmlns:cc="http://creativecommons.org/ns#"
   xmlns:rdf="http://www.w3.org/1999/02/22-rdf-syntax-ns#"
   xmlns:svg="http://www.w3.org/2000/svg"
   xmlns="http://www.w3.org/2000/svg"
   xmlns:sodipodi="http://sodipodi.sourceforge.net/DTD/sodipodi-0.dtd"
   xmlns:inkscape="http://www.inkscape.org/namespaces/inkscape"
   width="70.555466mm"
   height="46.4561mm"
   viewBox="0 0 249.99969 164.60823"
   id="svg17638"
   version="1.1"
   inkscape:version="0.91 r13725"
   sodipodi:docname="warning_liquid.svg">
  <defs
     id="defs17640">
    <clipPath
       clipPathUnits="userSpaceOnUse"
       id="clipPath434">
      <path
         d="m 25.511,342.995 373.791,0 0,81.845 -373.791,0 0,-81.845 z"
         id="path436"
         inkscape:connector-curvature="0" />
    </clipPath>
    <clipPath
       clipPathUnits="userSpaceOnUse"
       id="clipPath398">
      <path
         d="m 210.688,365.128 90.574,0 0,59.587 -90.574,0 0,-59.587 z"
         id="path400"
         inkscape:connector-curvature="0" />
    </clipPath>
    <clipPath
       clipPathUnits="userSpaceOnUse"
       id="clipPath378">
      <path
         d="m 25.511,342.995 373.791,0 0,81.845 -373.791,0 0,-81.845 z"
         id="path380"
         inkscape:connector-curvature="0" />
    </clipPath>
  </defs>
  <sodipodi:namedview
     id="base"
     pagecolor="#ffffff"
     bordercolor="#666666"
     borderopacity="1.0"
     inkscape:pageopacity="0.0"
     inkscape:pageshadow="2"
     inkscape:zoom="2.8"
     inkscape:cx="64.157381"
     inkscape:cy="84.793646"
     inkscape:document-units="px"
     inkscape:current-layer="layer1"
     showgrid="false"
     inkscape:showpageshadow="false"
     fit-margin-top="0"
     fit-margin-left="0"
     fit-margin-right="0"
     fit-margin-bottom="0"
     inkscape:window-width="1920"
     inkscape:window-height="1018"
     inkscape:window-x="-8"
     inkscape:window-y="-8"
     inkscape:window-maximized="1" />
  <metadata
     id="metadata17643">
    <rdf:RDF>
      <cc:Work
         rdf:about="">
        <dc:format>image/svg+xml</dc:format>
        <dc:type
           rdf:resource="http://purl.org/dc/dcmitype/StillImage" />
        <dc:title></dc:title>
      </cc:Work>
    </rdf:RDF>
  </metadata>
  <g
     inkscape:label="Laag 1"
     inkscape:groupmode="layer"
     id="layer1"
     transform="translate(-383.23503,-347.91367)">
    <g
       id="g8105"
       transform="matrix(2.2053764,0,0,2.2058296,-462.13075,-618.03512)">
      <g
         id="g376"
         clip-path="url(#clipPath378)"
         transform="matrix(1.25,0,0,-1.25,120.03125,968.87185)">
        <g
           id="g382"
           transform="translate(293.1571,385.9499)">
          <path
             d="m 0,0 c 0,0 -5.842,11.913 -23.479,14.776 -15.433,2.506 -26.042,-6.825 -43.874,-7.741 0,0 16.156,-11.959 37.231,-14.02 C -9.05,-9.047 0,0 0,0"
             style="fill:#c9c8c8;fill-opacity:1;fill-rule:nonzero;stroke:none"
             id="path384"
             inkscape:connector-curvature="0" />
        </g>
        <g
           id="g386"
           transform="translate(293.1571,385.9499)">
          <path
             d="m 0,0 c 0,0 -5.842,11.913 -23.479,14.776 -15.433,2.506 -26.042,-6.825 -43.874,-7.741 0,0 16.156,-11.959 37.231,-14.02 C -9.05,-9.047 0,0 0,0 Z"
             style="fill:none;stroke:#231f20;stroke-width:0.11334769;stroke-linecap:butt;stroke-linejoin:miter;stroke-miterlimit:10;stroke-dasharray:none;stroke-opacity:1"
             id="path388"
             inkscape:connector-curvature="0" />
        </g>
        <g
           id="g390"
           transform="translate(286.7431,404.0475)">
          <path
             d="M 0,0 C 0,0 5.841,1.26 9.85,7.903 13.857,14.545 5.955,18.784 1.719,12.37 -2.52,5.955 0,0 0,0"
             style="fill:#c5c4c4;fill-opacity:1;fill-rule:nonzero;stroke:none"
             id="path392"
             inkscape:connector-curvature="0" />
        </g>
      </g>
      <g
         id="g396"
         clip-path="url(#clipPath398)"
         transform="matrix(1.25,0,0,-1.25,120.03125,968.87185)">
        <g
           id="g402"
           transform="translate(286.7431,404.0475)">
          <path
             d="M 0,0 C 0,0 5.841,1.26 9.85,7.903 13.857,14.545 5.955,18.784 1.719,12.37 -2.52,5.955 0,0 0,0 Z"
             style="fill:none;stroke:#231f20;stroke-width:0.11334769;stroke-linecap:butt;stroke-linejoin:miter;stroke-miterlimit:10;stroke-dasharray:none;stroke-opacity:1"
             id="path404"
             inkscape:connector-curvature="0" />
        </g>
        <g
           id="g406"
           transform="translate(210.689,365.0661)">
          <path
             d="m 0,0 90.573,0 0,27.118 0,-10e-4 C 39.453,9.103 6.415,31.787 0,36.786 L 0,0 Z"
             style="fill:#dfdfdf;fill-opacity:1;fill-rule:nonzero;stroke:none"
             id="path408"
             inkscape:connector-curvature="0" />
        </g>
        <g
           id="g410"
           transform="translate(210.689,365.0661)">
          <path
             d="m 0,0 90.573,0 0,27.118 0,-10e-4 C 39.453,9.103 6.415,31.787 0,36.786 L 0,0 Z"
             style="fill:none;stroke:#231f20;stroke-width:0.11334769;stroke-linecap:butt;stroke-linejoin:miter;stroke-miterlimit:10;stroke-dasharray:none;stroke-opacity:1"
             id="path412"
             inkscape:connector-curvature="0" />
        </g>
        <g
           id="g414"
           transform="translate(210.689,394.8542)">
          <path
             d="m 0,0 0,-29.788 47.292,0 C 17.823,-28.356 3.395,-6.069 0,0"
             style="fill:#bdbcbc;fill-opacity:1;fill-rule:nonzero;stroke:none"
             id="path416"
             inkscape:connector-curvature="0" />
        </g>
        <g
           id="g418"
           transform="translate(210.689,394.8542)">
          <path
             d="m 0,0 0,-29.788 47.292,0 C 17.823,-28.356 3.395,-6.069 0,0 Z"
             style="fill:none;stroke:#231f20;stroke-width:0.11334769;stroke-linecap:butt;stroke-linejoin:miter;stroke-miterlimit:10;stroke-dasharray:none;stroke-opacity:1"
             id="path420"
             inkscape:connector-curvature="0" />
        </g>
        <g
           id="g422"
           transform="translate(293.5012,377.132)">
          <path
             d="m 0,0 c -5.04,-1.603 -9.163,2.29 -9.393,5.955 -0.228,3.665 2.406,14.776 -0.572,16.036 -2.078,0.878 -5.04,-2.291 -5.04,-2.291 0,0 -7.444,-7.674 -15.92,-13.745 -8.412,-6.024 -25.089,-12.874 -25.342,-12.979 5.866,-2.72 12.748,-4.653 20.747,-5.042 l 43.281,0 0,17.218 C 6.591,3.885 3.778,1.202 0,0"
             style="fill:#c5c4c4;fill-opacity:1;fill-rule:nonzero;stroke:none"
             id="path424"
             inkscape:connector-curvature="0" />
        </g>
        <g
           id="g426"
           transform="translate(293.5012,377.132)">
          <path
             d="m 0,0 c -5.04,-1.603 -9.163,2.29 -9.393,5.955 -0.228,3.665 2.406,14.776 -0.572,16.036 -2.078,0.878 -5.04,-2.291 -5.04,-2.291 0,0 -7.444,-7.674 -15.92,-13.745 -8.412,-6.024 -25.089,-12.874 -25.342,-12.979 5.866,-2.72 12.748,-4.653 20.747,-5.042 l 43.281,0 0,17.218 C 6.591,3.885 3.778,1.202 0,0 Z"
             style="fill:none;stroke:#231f20;stroke-width:0.11334769;stroke-linecap:butt;stroke-linejoin:miter;stroke-miterlimit:10;stroke-dasharray:none;stroke-opacity:1"
             id="path428"
             inkscape:connector-curvature="0" />
        </g>
      </g>
      <g
         id="g432"
         clip-path="url(#clipPath434)"
         transform="matrix(1.25,0,0,-1.25,120.03125,968.87185)">
        <g
           id="g438"
           transform="translate(247.1141,383.8884)">
          <path
             d="m 0,0 c -4.124,5.27 -7.562,12.027 -12.604,16.149 -5.04,4.124 -8.791,4.905 -10.765,4.583 -4.924,-0.802 -5.971,-3.095 -2.29,-13.86 1.449,-4.236 -0.457,-8.067 -0.442,-9.288 4.14,-4.088 9.503,-8.247 16.221,-11.364 0.182,0.075 8.851,3.636 16.833,7.868 C 6.309,-5.7 3.59,-4.587 0,0"
             style="fill:#d4d3d4;fill-opacity:1;fill-rule:nonzero;stroke:none"
             id="path440"
             inkscape:connector-curvature="0" />
        </g>
        <g
           id="g442"
           transform="translate(247.1141,383.8884)">
          <path
             d="m 0,0 c -4.124,5.27 -7.562,12.027 -12.604,16.149 -5.04,4.124 -8.791,4.905 -10.765,4.583 -4.924,-0.802 -5.971,-3.095 -2.29,-13.86 1.449,-4.236 -0.457,-8.067 -0.442,-9.288 4.14,-4.088 9.503,-8.247 16.221,-11.364 0.182,0.075 8.851,3.636 16.833,7.868 C 6.309,-5.7 3.59,-4.587 0,0 Z"
             style="fill:none;stroke:#231f20;stroke-width:0.11334769;stroke-linecap:butt;stroke-linejoin:miter;stroke-miterlimit:10;stroke-dasharray:none;stroke-opacity:1"
             id="path444"
             inkscape:connector-curvature="0" />
        </g>
        <g
           id="g446"
           transform="translate(271.1691,389.9562)">
          <path
             d="m 0,0 c -2.515,-2.201 -5.484,-4.642 -8.593,-6.869 -2.365,-1.695 -5.386,-3.454 -8.509,-5.111 -0.644,0.212 -3.363,1.326 -6.953,5.912 -1.964,2.509 -3.771,5.355 -5.67,8.092 l 0.056,0.041 c 0,0 5.728,0.802 6.301,5.04 0.573,4.237 -1.346,9.564 -2.865,13.056 -0.213,0.494 -1.028,2.176 0.231,2.863 1.26,0.688 6.414,0.689 10.652,-3.55 C -11.113,15.236 -7.791,7.333 -5.272,4.012 -4.076,2.436 -1.928,1.041 0.002,0.01 L 0,0 Z"
             style="fill:#b3b2b2;fill-opacity:1;fill-rule:nonzero;stroke:none"
             id="path448"
             inkscape:connector-curvature="0" />
        </g>
        <g
           id="g450"
           transform="translate(271.1691,389.9562)">
          <path
             d="m 0,0 c -2.515,-2.201 -5.484,-4.642 -8.593,-6.869 -2.365,-1.695 -5.386,-3.454 -8.509,-5.111 -0.644,0.212 -3.363,1.326 -6.953,5.912 -1.964,2.509 -3.771,5.355 -5.67,8.092 l 0.056,0.041 c 0,0 5.728,0.802 6.301,5.04 0.573,4.237 -1.346,9.564 -2.865,13.056 -0.213,0.494 -1.028,2.176 0.231,2.863 1.26,0.688 6.414,0.689 10.652,-3.55 C -11.113,15.236 -7.791,7.333 -5.272,4.012 -4.076,2.436 -1.928,1.041 0.002,0.01 L 0,0 Z"
             style="fill:none;stroke:#231f20;stroke-width:0.11334769;stroke-linecap:butt;stroke-linejoin:miter;stroke-miterlimit:10;stroke-dasharray:none;stroke-opacity:1"
             id="path452"
             inkscape:connector-curvature="0" />
        </g>
        <path
           d="m 301.262,365.129 -90.574,0 0,59.586 90.574,0 0,-59.586 z"
           style="fill:none;stroke:#231f20;stroke-width:0.11334769;stroke-linecap:butt;stroke-linejoin:miter;stroke-miterlimit:10;stroke-dasharray:none;stroke-opacity:1"
           id="path454"
           inkscape:connector-curvature="0" />
      </g>
      <g
         transform="matrix(1.25,0,0,-1.25,494.87025,439.7486)"
         id="g634">
        <path
           inkscape:connector-curvature="0"
           id="path636"
           style="fill:#231f20;fill-opacity:1;fill-rule:nonzero;stroke:none"
           d="M 0,0 -6.195,0 -43.869,-24.785 -81.543,0 l -6.195,0 0,-3.107 38.411,-25.27 -38.411,-25.269 0,-3.107 6.195,0 37.674,24.786 37.674,-24.786 6.195,0 0,3.107 -38.411,25.269 L 0,-3.107 0,0 Z" />
      </g>
    </g>
  </g>
</svg>
