<?xml version="1.0" encoding="UTF-8" standalone="no"?>
<!-- Created with Inkscape (http://www.inkscape.org/) -->

<svg
   xmlns:dc="http://purl.org/dc/elements/1.1/"
   xmlns:cc="http://creativecommons.org/ns#"
   xmlns:rdf="http://www.w3.org/1999/02/22-rdf-syntax-ns#"
   xmlns:svg="http://www.w3.org/2000/svg"
   xmlns="http://www.w3.org/2000/svg"
   xmlns:sodipodi="http://sodipodi.sourceforge.net/DTD/sodipodi-0.dtd"
   xmlns:inkscape="http://www.inkscape.org/namespaces/inkscape"
   width="70.449539mm"
   height="46.378674mm"
   viewBox="0 0 249.62434 164.33388"
   id="svg13006"
   version="1.1"
   inkscape:version="0.91 r13725"
   sodipodi:docname="warning_drill.svg">
  <defs
     id="defs13008">
    <clipPath
       clipPathUnits="userSpaceOnUse"
       id="clipPath548">
      <path
         d="m 25.511,342.995 373.791,0 0,81.845 -373.791,0 0,-81.845 z"
         id="path550"
         inkscape:connector-curvature="0" />
    </clipPath>
    <clipPath
       clipPathUnits="userSpaceOnUse"
       id="clipPath536">
      <path
         d="m 118.203,365.128 90.572,0 0,59.587 -90.572,0 0,-59.587 z"
         id="path538"
         inkscape:connector-curvature="0" />
    </clipPath>
    <clipPath
       clipPathUnits="userSpaceOnUse"
       id="clipPath464">
      <path
         d="m 25.511,342.995 373.791,0 0,81.845 -373.791,0 0,-81.845 z"
         id="path466"
         inkscape:connector-curvature="0" />
    </clipPath>
  </defs>
  <sodipodi:namedview
     id="base"
     pagecolor="#ffffff"
     bordercolor="#666666"
     borderopacity="1.0"
     inkscape:pageopacity="0.0"
     inkscape:pageshadow="2"
     inkscape:zoom="2.8"
     inkscape:cx="77.164359"
     inkscape:cy="104.94134"
     inkscape:document-units="px"
     inkscape:current-layer="layer1"
     showgrid="false"
     fit-margin-top="0"
     fit-margin-left="0"
     fit-margin-right="0"
     fit-margin-bottom="0"
     inkscape:showpageshadow="false"
     inkscape:window-width="1920"
     inkscape:window-height="1018"
     inkscape:window-x="-8"
     inkscape:window-y="-8"
     inkscape:window-maximized="1" />
  <metadata
     id="metadata13011">
    <rdf:RDF>
      <cc:Work
         rdf:about="">
        <dc:format>image/svg+xml</dc:format>
        <dc:type
           rdf:resource="http://purl.org/dc/dcmitype/StillImage" />
        <dc:title></dc:title>
      </cc:Work>
    </rdf:RDF>
  </metadata>
  <g
     inkscape:label="Laag 1"
     inkscape:groupmode="layer"
     id="layer1"
     transform="translate(-391.99551,-282.38084)">
    <g
       id="g8115"
       transform="matrix(2.2021096,0,0,2.2021096,-470.99578,-537.22587)">
      <g
         id="g462"
         clip-path="url(#clipPath464)"
         transform="matrix(1.25,0,0,-1.25,244.21018,903.15756)">
        <g
           id="g468"
           transform="translate(155.825,395.2624)">
          <path
             d="m 0,0 0.991,-0.189 5.772,-1.089 c 0.029,-0.258 0.375,-0.78 0.929,-1.447 1.97,-2.382 6.596,-6.606 8.923,-7.046 L 9.847,-8.494 C 9.116,-8.355 8.151,-7.838 7.117,-7.122 3.951,-4.937 0.097,-0.885 -0.001,0 L 0,0 Z"
             style="fill:#c8c7c7;fill-opacity:1;fill-rule:evenodd;stroke:none"
             id="path470"
             inkscape:connector-curvature="0" />
        </g>
        <g
           id="g472"
           transform="translate(183.91,389.9543)">
          <path
             d="M 0,0 -3.711,0.702 C -4.494,0.679 -5.578,0.523 -6.326,-0.067 -4.357,-2.446 0.273,-6.677 2.601,-7.121 L 4.85,-7.543 c 0.238,0.257 1.47,0.502 2.328,0.383 -3.179,2.173 -7.076,6.278 -7.177,7.163 L 0,0 Z"
             style="fill:#918f90;fill-opacity:1;fill-rule:evenodd;stroke:none"
             id="path474"
             inkscape:connector-curvature="0" />
        </g>
        <g
           id="g476"
           transform="translate(170.057,392.5724)">
          <path
             d="m 0,0 -3.529,0.666 c -0.738,0.023 -2.09,-0.047 -3.011,-0.701 1.97,-2.381 6.595,-6.603 8.917,-7.044 l 2.1,-0.398 c 0.479,0.191 1.688,0.608 2.626,0.366 -3.159,2.186 -6.998,6.231 -7.106,7.112 L 0,0 Z"
             style="fill:#918f90;fill-opacity:1;fill-rule:evenodd;stroke:none"
             id="path478"
             inkscape:connector-curvature="0" />
        </g>
        <g
           id="g480"
           transform="translate(170.057,392.5724)">
          <path
             d="m 0,0 c 0.105,-0.88 3.944,-4.925 7.103,-7.112 1.043,-0.72 2.01,-1.238 2.75,-1.377 l 6.606,-1.25 C 14.126,-9.3 9.494,-5.067 7.527,-2.685 6.978,-2.02 6.638,-1.502 6.603,-1.249 L 0.001,-0.001 0,0 Z"
             style="fill:#c8c7c7;fill-opacity:1;fill-rule:evenodd;stroke:none"
             id="path482"
             inkscape:connector-curvature="0" />
        </g>
        <g
           id="g484"
           transform="translate(201.895,382.9455)">
          <path
             d="M 0,0 C -0.657,0.067 -1.275,0.15 -1.853,0.243 -1.165,0.131 -1.965,0.252 -2.698,0.394 -1.66,0.193 -2.625,0.362 -3.482,0.555 -2.189,0.278 -3.272,0.488 -4.22,0.735 -2.759,0.377 -3.911,0.63 -4.901,0.926 -3.35,0.493 -4.538,0.792 -5.534,1.131 -3.961,0.624 -5.144,0.966 -6.12,1.344 -4.58,0.789 -5.729,1.16 -6.661,1.566 -5.199,0.971 -6.284,1.372 -7.16,1.795 c 1.343,-0.613 0.342,-0.2 -0.457,0.234 1.197,-0.611 0.298,-0.19 -0.417,0.242 1.033,-0.595 0.247,-0.18 -0.373,0.242 0.851,-0.553 0.184,-0.157 -0.349,0.244 0.677,-0.49 0.131,-0.12 -0.303,0.244 0.5,-0.408 0.071,-0.083 -0.275,0.24 0.332,-0.307 0.015,-0.028 -0.245,0.238 0.182,-0.19 -0.033,0.024 -0.214,0.234 0.046,-0.06 -0.078,0.086 -0.189,0.228 -0.058,0.072 -0.111,0.144 -0.16,0.216 -0.525,0.676 -0.627,1.36 -0.642,1.495 l -7.2,1.36 c 0.006,-0.088 0.056,-0.212 0.137,-0.357 0.113,-0.204 0.292,-0.466 0.146,-0.241 0.203,-0.31 0.505,-0.691 0.198,-0.282 0.303,-0.413 0.737,-0.932 0.233,-0.308 0.422,-0.529 0.996,-1.171 0.282,-0.342 0.532,-0.634 1.243,-1.391 0.307,-0.367 0.652,-0.734 1.493,-1.592 0.352,-0.383 0.753,-0.827 1.711,-1.767 0.378,-0.402 0.859,-0.899 1.906,-1.9 0.403,-0.416 0.945,-0.966 2.064,-2.003 0.423,-0.431 1.021,-1.003 2.198,-2.047 0.444,-0.432 1.082,-1.022 2.292,-2.063 0.466,-0.43 1.112,-1.03 2.332,-2.038 0.476,-0.434 1.129,-1.011 2.333,-1.967 0.48,-0.425 1.125,-0.975 2.3,-1.872 0.496,-0.419 1.097,-0.916 2.214,-1.732 0.491,-0.402 1.053,-0.845 2.103,-1.573 0.495,-0.388 0.992,-0.755 1.949,-1.386 0.488,-0.365 0.907,-0.654 1.769,-1.184 0.482,-0.339 1.01,-0.695 1.948,-1.193 2.672,-1.329 L -0.73,-2.879 1.92,-0.147 0.541,3.515 -3.566,4.286 -3.568,4.169 c 0,0 -0.002,-0.074 0.009,-0.206 C -3.568,4.126 -3.567,4.001 -3.541,3.815 -3.569,4.081 -3.553,3.898 -3.515,3.636 -3.56,4.01 -3.548,3.756 -3.476,3.427 -3.553,3.908 -3.525,3.593 -3.42,3.192 -3.543,3.775 -3.494,3.391 -3.348,2.942 -3.521,3.607 -3.447,3.163 -3.254,2.671 -3.485,3.394 -3.377,2.912 -3.13,2.397 -3.425,3.148 -3.279,2.638 -2.983,2.112 -3.341,2.867 -3.15,2.339 -2.805,1.825 -3.226,2.548 -2.992,2.031 -2.598,1.542 -3.063,2.2 -2.779,1.71 -2.352,1.268 -2.841,1.828 -2.524,1.389 -2.07,1.002 -2.551,1.447 -2.211,1.07 -1.749,0.757 -1.287,0.434 -0.716,0.163 0.006,0 L 0,0 Z"
             style="fill:#c8c7c7;fill-opacity:1;fill-rule:evenodd;stroke:none"
             id="path486"
             inkscape:connector-curvature="0" />
        </g>
        <g
           id="g488"
           transform="translate(155.824,395.2624)">
          <path
             d="M 0,0 -2.219,0.418 -5.766,1.09 c -0.647,-0.722 -1.17,-1.808 -1.412,-3.083 -0.216,-1.149 -0.176,-2.351 0.169,-3.319 l 3.608,-0.682 3.253,-0.613 4.878,-0.925 c 0.451,0.178 1.498,0.533 2.385,0.405 -3.166,2.187 -7.013,6.235 -7.114,7.122 L 0,0 Z"
             style="fill:#918f90;fill-opacity:1;fill-rule:evenodd;stroke:none"
             id="path490"
             inkscape:connector-curvature="0" />
        </g>
        <g
           id="g492"
           transform="translate(201.895,382.9455)">
          <path
             d="m 0,0 c -6.571,0.681 -9.138,2.723 -10.142,4.157 0.756,0.659 1.907,0.831 2.735,0.859 l 3.841,-0.73 -0.002,-0.117 c 0,0 -0.028,-3.338 3.574,-4.169 L 0,0 Z"
             style="fill:#918f90;fill-opacity:1;fill-rule:evenodd;stroke:none"
             id="path494"
             inkscape:connector-curvature="0" />
        </g>
        <g
           id="g496"
           transform="translate(201.165,380.0661)">
          <path
             d="m 0,0 2.65,2.732 m 0,0 -1.379,3.662 m 0,0 -7.948,1.501 m -3.373,0.636 -10.916,2.059 m -3.536,0.667 -10.131,1.915 m -3.944,0.746 -12.532,2.374 M 0,0 -7.405,1.399 m -4.998,0.947 -8.852,1.672 m -5.376,1.011 -8.862,1.674 m -5.118,0.967 -11.738,2.217 m 3.767,12.902 c 2.526,-0.473 4.155,-3.663 4.233,-7.782 M -45.495,8.59 c -1.589,-4.15 -4.393,-6.479 -6.908,-6.033 m 0,0 c -3.223,0.608 -4.984,5.633 -3.928,11.218 1.054,5.59 4.522,9.626 7.749,9.014"
             style="fill:none;stroke:#231f20;stroke-width:0.1135275;stroke-linecap:round;stroke-linejoin:miter;stroke-miterlimit:4;stroke-dasharray:none;stroke-opacity:1"
             id="path498"
             inkscape:connector-curvature="0" />
        </g>
        <g
           id="g500"
           transform="translate(148.797,382.7951)">
          <path
             d="M 0,0 C -1.586,0.299 -2.865,1.62 -3.562,3.618 L -3.647,3.524 c 0.728,-2.061 1.942,-3.555 3.58,-3.867 L 0,0"
             style="fill:#231f20;fill-opacity:1;fill-rule:evenodd;stroke:none"
             id="path502"
             inkscape:connector-curvature="0" />
        </g>
        <g
           id="g504"
           transform="translate(147.911,400.6149)">
          <path
             d="M 0,0 C 1.503,1.748 3.154,2.349 4.639,2.071 L 4.704,2.413 C 3.198,2.698 1.484,1.89 -0.038,0.116 L 0,0"
             style="fill:#231f20;fill-opacity:1;fill-rule:evenodd;stroke:none"
             id="path506"
             inkscape:connector-curvature="0" />
        </g>
        <g
           id="g508"
           transform="translate(152.063,397.2516)">
          <path
             d="m 0,0 c 0.695,-0.132 1.229,-0.719 1.543,-1.573 m -1.18,-6.408 c -0.662,-0.761 -1.395,-1.06 -2.047,-0.939 m 0,0 c -1.423,0.27 -2.197,2.484 -1.732,4.948 C -2.954,-1.511 -1.42,0.267 0,0"
             style="fill:none;stroke:#231f20;stroke-width:0.1135275;stroke-linecap:round;stroke-linejoin:miter;stroke-miterlimit:4;stroke-dasharray:none;stroke-opacity:1"
             id="path510"
             inkscape:connector-curvature="0" />
        </g>
        <g
           id="g512"
           transform="translate(150.414,388.5021)">
          <path
             d="M 0,0 C -0.687,0.131 -1.271,0.665 -1.569,1.525 L -1.651,1.432 c 0.326,-0.924 0.842,-1.636 1.584,-1.771 L 0,0"
             style="fill:#231f20;fill-opacity:1;fill-rule:evenodd;stroke:none"
             id="path514"
             inkscape:connector-curvature="0" />
        </g>
        <g
           id="g516"
           transform="translate(150.0179,396.2287)">
          <path
             d="M 0,0 C 0.654,0.765 1.367,0.974 2.015,0.85 L 2.077,1.196 C 1.407,1.322 0.634,0.906 -0.042,0.115 L 0,0"
             style="fill:#231f20;fill-opacity:1;fill-rule:evenodd;stroke:none"
             id="path518"
             inkscape:connector-curvature="0" />
        </g>
        <g
           id="g520"
           transform="translate(150.235,406.2883)">
          <path
             d="m 0,0 c 2.08,-0.396 3.685,-2.202 4.608,-4.809 m -3.32,-18.31 c -1.987,-2.403 -4.227,-3.385 -6.216,-3.01 m 0,0 c -4.166,0.784 -6.441,7.273 -5.079,14.489 C -8.64,-4.424 -4.16,0.786 0,0"
             style="fill:none;stroke:#231f20;stroke-width:0.1135275;stroke-linecap:round;stroke-linejoin:miter;stroke-miterlimit:4;stroke-dasharray:none;stroke-opacity:1"
             id="path522"
             inkscape:connector-curvature="0" />
        </g>
        <g
           id="g524"
           transform="translate(145.338,380.3307)">
          <path
             d="M 0,0 C -2.055,0.389 -3.696,2.123 -4.6,4.708 L -4.684,4.614 c 0.932,-2.656 2.51,-4.559 4.621,-4.957 L 0,0"
             style="fill:#231f20;fill-opacity:1;fill-rule:evenodd;stroke:none"
             id="path526"
             inkscape:connector-curvature="0" />
        </g>
        <g
           id="g528"
           transform="translate(144.205,403.4103)">
          <path
             d="M 0,0 C 1.945,2.261 4.081,3.069 6.002,2.705 L 6.066,3.05 C 4.123,3.414 1.924,2.402 -0.041,0.114 L 0,0"
             style="fill:#231f20;fill-opacity:1;fill-rule:evenodd;stroke:none"
             id="path530"
             inkscape:connector-curvature="0" />
        </g>
      </g>
      <g
         id="g534"
         clip-path="url(#clipPath536)"
         transform="matrix(1.25,0,0,-1.25,244.21018,903.15756)">
        <g
           id="g540"
           transform="translate(201.895,382.9455)">
          <path
             d="M 0,0 C -10.533,1.096 -10.783,5.673 -10.783,5.673 M 0.227,-0.049 C -3.596,0.692 -3.568,4.169 -3.568,4.169 M -8.135,-1.48 c -2.976,0.562 -9.715,7.321 -9.85,8.489 m 2.606,-7.121 c -2.979,0.562 -9.719,7.319 -9.856,8.489 m 3.25,-7.239 c -2.977,0.557 -9.71,7.318 -9.853,8.489 m 2.383,-7.081 c -2.978,0.563 -9.718,7.32 -9.852,8.493 m 3.084,-7.216 c -2.974,0.566 -9.714,7.318 -9.848,8.494 m -0.154,-6.606 c -0.243,0.688 -2.735,2.632 -2.735,2.632 m 10.007,-3.148 c -0.894,0.126 -1.943,-0.228 -2.391,-0.405 m 16.609,-2.275 c -0.942,0.239 -2.153,-0.175 -2.63,-0.367 m 16.558,-2.299 c -0.857,0.117 -1.903,-0.103 -2.331,-0.386 m 2.965,4.67 c 0.756,0.685 1.927,0.854 2.766,0.883 m -16.908,1.927 c 0.758,0.585 1.836,0.743 2.626,0.769 m -16.689,1.88 c 0.922,0.656 2.275,0.722 3.015,0.701 m -26.621,14.999 10.33,-1.95 m -15.322,-24.167 10.386,-1.96 m -15.529,-1.257 c -5.46,1.033 -8.43,9.527 -6.649,18.974 1.785,9.444 7.653,16.269 13.105,15.242 m 3.479,-0.66 c 2.44,-0.458 4.38,-2.408 5.615,-5.242 m -4.937,-26.13 c -2.373,-2.374 -4.894,-3.269 -7.135,-2.835 m 0,0 -3.478,0.651 m -2.317,0.436 c -5.452,1.033 -8.427,9.524 -6.646,18.969 1.784,9.447 7.651,16.271 13.101,15.242 m -4.138,-34.647 -17.776,3.359 m 0.052,-0.009 c -5.452,1.028 -8.428,9.521 -6.648,18.969 1.785,9.447 7.653,16.274 13.109,15.24 m 4.278,-36.239 c -5.452,1.03 -8.429,9.525 -6.646,18.971 1.783,9.451 7.652,16.272 13.109,15.242 m 10.463,-1.976 -21.204,4.002 m -1.412,-35.166 c -5.452,1.031 -8.424,9.526 -6.647,18.975 1.788,9.444 7.655,16.268 13.11,15.237 m 13.412,-36.805 0.142,3.002 m -2.95,-3.556 0.751,3.978 m -1.618,0.753 -1.546,-3.647 m -2.048,2.637 2.016,2.716 m -3.491,0.633 2.28,1.798 m 5.225,26.197 c 0.058,-0.014 0.113,-0.029 0.169,-0.046 M -76.211,0.582 c -0.086,0.183 -0.171,0.369 -0.238,0.532 m -0.866,2.66 c -0.052,0.22 -0.103,0.438 -0.14,0.628 m -0.402,2.907 c -0.033,0.465 -0.054,0.941 -0.067,1.357 m 0.123,3.259 c 0.045,0.514 0.109,1.026 0.175,1.474 m 0.56,2.875 c 0.127,0.522 0.267,1.034 0.4,1.469 m 1.037,2.871 c 0.139,0.333 0.29,0.656 0.414,0.929 m 1.625,2.892 c 0.124,0.185 0.247,0.363 0.351,0.514 m 2.102,2.432 c 0.068,0.06 0.134,0.12 0.192,0.171 m -3.467,-21.836 2.375,1.172 m -2.505,3.134 2.351,0.294 m -1.839,3.904 2.255,-0.404 m -1.017,4.846 2.018,-1.324 m -0.235,5.188 1.61,-2.267 m 1.491,2.119 -1.001,3.137 m 3.348,-1.072 -0.908,3.313 m 2.75,-2.544 -0.358,3.743 m 2.091,-3.668 0.737,3.902 m 0.967,-4.222 1.533,2.637 m 0.876,-3.085 0.818,0.748 M -74.115,5.859 c 0.648,0.187 2.078,1.029 2.078,1.029 m -2.668,2.44 c 0.813,-0.007 2.514,0.988 2.514,0.988 m -2.292,2.868 c 0.966,-0.155 2.742,0.644 2.742,0.644 m -2.299,1.607 c 0.952,-0.183 2.299,-1.607 2.299,-1.607 m -1.108,5.119 c 0.843,-0.266 2.075,-1.609 2.075,-1.609 m -3.866,-5.536 c 1.033,-0.209 2.449,-1.486 2.449,-1.486 M -74.627,8.15 c 1.037,-0.11 2.59,-1.262 2.59,-1.262 m -2.136,-1.356 c 1.028,-0.187 2.79,-1.46 2.79,-1.46 m -1.439,-1.133 c 1.039,-0.042 2.65,-1.298 2.65,-1.298 M -70.55,1.136 c 0.884,-0.413 1.956,-1.201 1.956,-1.201 m -5.127,16.664 c 0.98,-0.133 2.947,0.739 2.947,0.739 m -1.853,2.093 c 1.014,-0.093 3.219,0.826 3.219,0.826 m -1.155,1.647 c 1.068,0.028 2.655,0.474 2.655,0.474 m -0.573,1.782 c 1.034,-0.095 2.92,0.283 2.92,0.283 m -0.204,0.746 c 0.951,-0.051 2.046,0.023 2.046,0.023 m -7.868,-29.067 c 1.26,-0.259 3.34,-0.775 3.86,-0.941 m -0.961,4.503 c 0.798,-0.21 1.537,-0.447 1.712,-0.532 m -10.945,9.489 c 1.016,-0.066 3.379,1.358 3.379,1.358 m -3.087,3.378 c 1.255,-0.19 3.601,0.823 3.601,0.823 m -3.039,2.051 c 1.235,-0.285 3.037,-2.054 3.037,-2.054 m -1.604,6.395 c 1.237,-0.249 2.842,-1.953 2.842,-1.953 m -0.798,5.774 c 1.207,-0.318 2.581,-1.91 2.581,-1.91 m -0.128,4.855 c 0.85,-0.373 2.224,-1.865 2.224,-1.865 m 0.164,3.751 c 0.804,-0.15 1.736,-0.988 2.283,-1.527 m 1.166,2.234 c 0.523,-0.27 0.84,-0.649 1.223,-1.019 M -74.792,-1.717 c 1.17,0.115 2.57,0.594 2.57,0.594 m -5.585,13.045 c 1.245,-0.279 3.265,-1.9 3.265,-1.9 m -3.315,-2.713 c 1.338,-0.1 3.445,-1.593 3.445,-1.593 m -2.903,-1.942 c 1.381,-0.089 3.652,-1.5 3.652,-1.5 m -2.553,-1.691 c 1.367,-0.091 3.959,-1.711 3.959,-1.711 m -2.549,-0.583 c 1.11,-0.063 4.653,-2.026 4.653,-2.026 m -2.52,0.158 c 0.68,-0.096 2.521,-0.16 2.521,-0.16 m -6.304,4.85 c 0.707,0.034 2.793,1.163 2.793,1.163 m -3.006,15.47 c 1.272,-0.168 3.877,0.918 3.877,0.918 m -2.419,2.881 c 1.231,-0.234 4.202,0.983 4.202,0.983 m -2.235,2.425 c 1.311,-0.176 4.335,0.564 4.335,0.564 m -2.048,2.04 c 1.307,-0.196 4.488,0.201 4.488,0.201 m -1.784,1.354 c 1.235,-0.234 4.176,-0.155 4.176,-0.155 m -1.223,1.019 c 1.259,-0.456 4.051,-0.785 4.051,-0.785 m -2.5,-3.643 c 0.924,-0.155 1.763,-0.259 1.763,-0.259 M -77.463,4.402 c 0.665,-0.011 3.051,1.314 3.051,1.314 m 1.739,-9.295 c 0.255,-0.077 1.099,-0.282 1.099,-0.282 m -2.594,9.39 c -0.024,0.095 -0.047,0.186 -0.069,0.269 m -0.389,2.35 c -0.039,0.407 -0.065,0.819 -0.076,1.178 m 0.065,2.474 c 0.037,0.483 0.094,0.968 0.154,1.384 m 0.443,2.251 c 0.103,0.411 0.213,0.818 0.319,1.164 m 0.875,2.349 c 0.076,0.171 0.154,0.343 0.218,0.487"
             style="fill:none;stroke:#231f20;stroke-width:0.1135275;stroke-linecap:round;stroke-linejoin:miter;stroke-miterlimit:4;stroke-dasharray:none;stroke-opacity:1"
             id="path542"
             inkscape:connector-curvature="0" />
        </g>
      </g>
      <g
         id="g546"
         clip-path="url(#clipPath548)"
         transform="matrix(1.25,0,0,-1.25,244.21018,903.15756)">
        <g
           id="g552"
           transform="translate(148.8159,389.9533)">
          <path
             d="m 0,0 c 0.313,-0.88 0.863,-1.49 1.563,-1.622 0.652,-0.121 1.384,0.181 2.046,0.942 L 0,0 Z"
             style="fill:#5a5758;fill-opacity:1;fill-rule:evenodd;stroke:none"
             id="path554"
             inkscape:connector-curvature="0" />
        </g>
        <g
           id="g556"
           transform="translate(150.0559,396.3581)">
          <path
             d="M 0,0 3.55,-0.673 C 3.236,0.176 2.699,0.76 2.007,0.893 1.369,1.012 0.653,0.724 0,0"
             style="fill:#5a5758;fill-opacity:1;fill-rule:evenodd;stroke:none"
             id="path558"
             inkscape:connector-curvature="0" />
        </g>
        <path
           d="m 208.775,365.129 -90.572,0 0,59.587 90.572,0 0,-59.587 z"
           style="fill:none;stroke:#231f20;stroke-width:0.1135275;stroke-linecap:butt;stroke-linejoin:miter;stroke-miterlimit:10;stroke-dasharray:none;stroke-opacity:1"
           id="path560"
           inkscape:connector-curvature="0" />
      </g>
      <g
         transform="matrix(1.25,0,0,-1.25,503.37406,374.03431)"
         id="g630">
        <path
           inkscape:connector-curvature="0"
           id="path632"
           style="fill:#231f20;fill-opacity:1;fill-rule:nonzero;stroke:none"
           d="M 0,0 -6.195,0 -43.868,-24.785 -81.542,0 l -6.196,0 0,-3.107 38.411,-25.27 -38.411,-25.269 0,-3.107 6.196,0 37.674,24.786 37.673,-24.786 6.195,0 0,3.107 -38.41,25.269 L 0,-3.107 0,0 Z" />
      </g>
    </g>
  </g>
</svg>
