<?xml version="1.0" encoding="UTF-8" standalone="no"?>
<!-- Created with Inkscape (http://www.inkscape.org/) -->

<svg
   xmlns:dc="http://purl.org/dc/elements/1.1/"
   xmlns:cc="http://creativecommons.org/ns#"
   xmlns:rdf="http://www.w3.org/1999/02/22-rdf-syntax-ns#"
   xmlns:svg="http://www.w3.org/2000/svg"
   xmlns="http://www.w3.org/2000/svg"
   xmlns:sodipodi="http://sodipodi.sourceforge.net/DTD/sodipodi-0.dtd"
   xmlns:inkscape="http://www.inkscape.org/namespaces/inkscape"
   width="70.555603mm"
   height="46.484081mm"
   viewBox="0 0 250.00016 164.70737"
   id="svg8408"
   version="1.1"
   inkscape:version="0.91 r13725"
   sodipodi:docname="warning_drop.svg">
  <defs
     id="defs8410" />
  <sodipodi:namedview
     id="base"
     pagecolor="#ffffff"
     bordercolor="#666666"
     borderopacity="1.0"
     inkscape:pageopacity="0.0"
     inkscape:pageshadow="2"
     inkscape:zoom="1.979899"
     inkscape:cx="125.33037"
     inkscape:cy="136.21429"
     inkscape:document-units="px"
     inkscape:current-layer="layer1"
     showgrid="false"
     fit-margin-top="0"
     fit-margin-left="0"
     fit-margin-right="0"
     fit-margin-bottom="0"
     inkscape:showpageshadow="false"
     inkscape:window-width="1920"
     inkscape:window-height="1018"
     inkscape:window-x="-8"
     inkscape:window-y="-8"
     inkscape:window-maximized="1" />
  <metadata
     id="metadata8413">
    <rdf:RDF>
      <cc:Work
         rdf:about="">
        <dc:format>image/svg+xml</dc:format>
        <dc:type
           rdf:resource="http://purl.org/dc/dcmitype/StillImage" />
        <dc:title></dc:title>
      </cc:Work>
    </rdf:RDF>
  </metadata>
  <g
     inkscape:label="Laag 1"
     inkscape:groupmode="layer"
     id="layer1"
     transform="translate(-403.23677,-242.19525)">
    <g
       id="g8093"
       transform="matrix(2.2054304,0,0,2.2071595,-486.26112,-491.00767)">
      <path
         inkscape:connector-curvature="0"
         id="path574"
         style="fill:#918f90;fill-opacity:1;fill-rule:nonzero;stroke:none"
         d="m 516.6075,395.63131 -113.215,0 0,11.115 113.215,0 0,-11.115 z" />
      <g
         transform="matrix(1.25,0,0,-1.25,516.60713,395.63106)"
         id="g576">
        <path
           inkscape:connector-curvature="0"
           id="path578"
           style="fill:none;stroke:#231f20;stroke-width:0.11331214;stroke-linecap:butt;stroke-linejoin:miter;stroke-miterlimit:10;stroke-dasharray:none;stroke-opacity:1"
           d="M 0,0 -90.572,0" />
      </g>
      <g
         transform="matrix(1.25,0,0,-1.25,450.4015,342.34006)"
         id="g580">
        <path
           inkscape:connector-curvature="0"
           id="path582"
           style="fill:#969494;fill-opacity:1;fill-rule:nonzero;stroke:none"
           d="M 0,0 -11.723,-10.362 16.061,-41.793 27.782,-31.429 0,0 Z" />
      </g>
      <g
         transform="matrix(1.25,0,0,-1.25,450.4015,342.34006)"
         id="g584">
        <path
           inkscape:connector-curvature="0"
           id="path586"
           style="fill:none;stroke:#231f20;stroke-width:0.11331214;stroke-linecap:round;stroke-linejoin:round;stroke-miterlimit:10;stroke-dasharray:none;stroke-opacity:1"
           d="M 0,0 -11.723,-10.362 16.061,-41.793 27.782,-31.429 0,0 Z" />
      </g>
      <g
         transform="matrix(1.25,0,0,-1.25,450.4015,336.82556)"
         id="g588">
        <path
           inkscape:connector-curvature="0"
           id="path590"
           style="fill:#b2b1b1;fill-opacity:1;fill-rule:nonzero;stroke:none"
           d="m 0,0 0,-4.412 27.782,-31.428 0,4.411 L 0,0 Z" />
      </g>
      <g
         transform="matrix(1.25,0,0,-1.25,450.4015,336.82556)"
         id="g592">
        <path
           inkscape:connector-curvature="0"
           id="path594"
           style="fill:none;stroke:#231f20;stroke-width:0.11331214;stroke-linecap:round;stroke-linejoin:round;stroke-miterlimit:10;stroke-dasharray:none;stroke-opacity:1"
           d="m 0,0 0,-4.412 27.782,-31.428 0,4.411 L 0,0 Z" />
      </g>
      <g
         transform="matrix(1.25,0,0,-1.25,435.74763,349.77906)"
         id="g596">
        <path
           inkscape:connector-curvature="0"
           id="path598"
           style="fill:#e2e2e2;fill-opacity:1;fill-rule:nonzero;stroke:none"
           d="m 0,0 0,-4.411 11.723,10.362 0,4.412 L 0,0 Z" />
      </g>
      <g
         transform="matrix(1.25,0,0,-1.25,435.74763,349.77906)"
         id="g600">
        <path
           inkscape:connector-curvature="0"
           id="path602"
           style="fill:none;stroke:#231f20;stroke-width:0.11331214;stroke-linecap:round;stroke-linejoin:round;stroke-miterlimit:10;stroke-dasharray:none;stroke-opacity:1"
           d="m 0,0 0,-4.411 11.723,10.362 0,4.412 L 0,0 Z" />
      </g>
      <g
         transform="matrix(1.25,0,0,-1.25,461.5815,389.84806)"
         id="g604">
        <path
           inkscape:connector-curvature="0"
           id="path606"
           style="fill:#231f20;fill-opacity:1;fill-rule:nonzero;stroke:none"
           d="m 0,0 -22.107,15.511 c -0.452,0.317 -0.561,0.941 -0.244,1.394 0.318,0.452 0.942,0.562 1.394,0.244 0.02,-0.014 0.041,-0.03 0.059,-0.044 L 0,0 Z" />
      </g>
      <g
         transform="matrix(1.25,0,0,-1.25,465.16363,394.58069)"
         id="g608">
        <path
           inkscape:connector-curvature="0"
           id="path610"
           style="fill:#231f20;fill-opacity:1;fill-rule:nonzero;stroke:none"
           d="m 0,0 -34.649,16.137 c -0.501,0.233 -0.718,0.828 -0.485,1.329 0.234,0.5 0.828,0.718 1.329,0.484 0.015,-0.007 0.032,-0.015 0.047,-0.023 L 0,0 Z" />
      </g>
      <g
         transform="matrix(1.25,0,0,-1.25,455.98513,391.43681)"
         id="g612">
        <path
           inkscape:connector-curvature="0"
           id="path614"
           style="fill:#231f20;fill-opacity:1;fill-rule:nonzero;stroke:none"
           d="m 0,0 -23.231,6.903 c -0.53,0.157 -0.832,0.714 -0.674,1.244 0.157,0.53 0.715,0.832 1.244,0.674 0.026,-0.007 0.054,-0.017 0.078,-0.027 L 0,0 Z" />
      </g>
      <g
         transform="matrix(1.25,0,0,-1.25,460.43825,394.58069)"
         id="g616">
        <path
           inkscape:connector-curvature="0"
           id="path618"
           style="fill:#231f20;fill-opacity:1;fill-rule:nonzero;stroke:none"
           d="m 0,0 -24.697,4.141 c -0.545,0.092 -0.913,0.608 -0.822,1.153 0.092,0.545 0.608,0.913 1.153,0.821 0.026,-0.004 0.053,-0.01 0.078,-0.016 L 0,0 Z" />
      </g>
      <g
         transform="matrix(1.25,0,0,-1.25,449.9535,383.93556)"
         id="g620">
        <path
           inkscape:connector-curvature="0"
           id="path622"
           style="fill:#231f20;fill-opacity:1;fill-rule:nonzero;stroke:none"
           d="m 0,0 -18.621,10.735 c -0.479,0.277 -0.643,0.889 -0.367,1.368 0.276,0.479 0.888,0.643 1.367,0.367 0.027,-0.015 0.054,-0.033 0.078,-0.05 L 0,0 Z" />
      </g>
      <path
         inkscape:connector-curvature="0"
         id="path624"
         style="fill:none;stroke:#231f20;stroke-width:0.1416402;stroke-linecap:butt;stroke-linejoin:miter;stroke-miterlimit:10;stroke-dasharray:none;stroke-opacity:1"
         d="m 516.6075,406.74631 -113.215,0 0,-74.4825 113.215,0 0,74.4825 z" />
      <g
         transform="matrix(1.25,0,0,-1.25,514.83588,334.03431)"
         id="g626">
        <path
           inkscape:connector-curvature="0"
           id="path628"
           style="fill:#231f20;fill-opacity:1;fill-rule:nonzero;stroke:none"
           d="M 0,0 -6.195,0 -43.869,-24.785 -81.543,0 l -6.195,0 0,-3.107 38.411,-25.27 -38.411,-25.269 0,-3.107 6.195,0 37.674,24.786 37.674,-24.786 6.195,0 0,3.107 -38.411,25.269 L 0,-3.107 0,0 Z" />
      </g>
    </g>
  </g>
</svg>
