<svg xmlns="http://www.w3.org/2000/svg" width="324.904" height="46.863" viewBox="0 0 324.90424 46.862625"><defs><clipPath id="a"><path d="M114.782 1014.04h684.866V32.4H114.782v981.64z"/></clipPath></defs><path d="M324.904 23.431c0-12.94-10.49-23.431-23.432-23.431v23.431h-23.43c0 12.94 10.49 23.432 23.43 23.432V23.43h23.432z" fill="#f57c14"/><path d="M302.82 46.821c11.868-.674 21.37-10.175 22.043-22.043-11.99 2.224-19.82 10.053-22.043 22.043M300.125.042c-11.867.673-21.368 10.175-22.042 22.042 11.99-2.224 19.819-10.054 22.042-22.042" fill="#f57c14"/><path d="M301.473 0c-.453 0-.901.017-1.348.042-2.223 11.988-10.052 19.818-22.042 22.042-.025.446-.041.895-.041 1.346h23.431V0zM301.473 23.431v23.432c.452 0 .901-.017 1.347-.042 2.224-11.99 10.053-19.818 22.043-22.043.025-.445.041-.894.041-1.347h-23.431z" fill="#fff"/><path d="M14.921 17.723H7.115V4.418H0v33.4h7.115V22.993h7.806v14.825h7.116v-33.4h-7.116v13.305zm30.055 15.41V14.406h-6.655v16.195c0 2.107-.401 3.51-2.36 3.51-1.417 0-2.36-.597-2.36-3.51V14.406h-6.655v18.727c0 1.547.614 2.863 1.774 3.803 1.067.865 2.526 1.342 4.109 1.342 1.301 0 2.322-.208 3.211-.653.864-.387 1.611-1.077 2.281-2.105v2.298h6.894l-.009-.088a51.047 51.047 0 0 1-.23-4.597m16.601-19.187c-1.282 0-2.333.214-3.21.653-.906.427-1.672 1.135-2.28 2.101v-2.294H49.43v23.412h6.655V21.716c0-2.162.401-3.603 2.359-3.603 1.96 0 2.361 1.44 2.361 3.603v16.102h6.655V19.09c0-1.547-.614-2.862-1.774-3.802-1.067-.866-2.527-1.343-4.11-1.343M79.312 7.78l-6.607 2.951-.048.022v3.653h-2.626v4.168h2.626V32.81c0 .874.31 5.238 6.437 5.238 1.316 0 2.178-.099 2.938-.184l.432-.049.071-.006v-4.186l-.103.03c-.31.09-.726.09-1.128.09-.942 0-1.479-.223-1.744-.721-.249-.47-.249-1.174-.248-1.99v-12.46h3.362v-4.167h-3.362V7.78zm14.93 6.166c-8.83 0-9.567 5.863-9.567 11.867 0 3.272.195 6.622 1.611 8.962 1.448 2.39 3.975 3.503 7.955 3.503 2.939 0 5.331-.788 6.918-2.277 1.551-1.413 2.42-3.518 2.513-6.087l.003-.084h-6.75v.08c0 2.696-.903 4.064-2.684 4.064-2.835 0-2.866-4.341-2.866-6.745h12.432l.003-.078c.13-4.186-.078-8.396-2.451-10.845-1.54-1.587-3.868-2.36-7.118-2.36m2.914 9.485h-5.78v-.007c0-.984-.001-2.331.362-3.418.428-1.273 1.247-1.893 2.504-1.893.821 0 1.445.226 1.908.688 1.01 1.013 1.007 2.957 1.006 4.52v.11zm16.719-6.118v-2.907h-6.332v23.412h6.654V25.076c0-.993 0-2.353.64-3.416.723-1.197 2.11-1.78 4.241-1.78.267 0 .548.009.837.028l.086.006v-5.968h-.08c-3.038 0-4.963 1.07-6.046 3.367m31.978 3.62c0-10.46-1.783-16.515-10.903-16.515h-11.687v33.4h11.41c3.338 0 5.958-.935 7.787-2.778 3.475-3.504 3.427-9.579 3.398-13.209-.002-.317-.005-.617-.005-.898M133.66 32.546h-3.282V9.688h3.512c4.756 0 4.756 5.296 4.756 11.43 0 8.058-.693 11.428-4.986 11.428m24.68-18.6c-8.829 0-9.568 5.862-9.568 11.865 0 3.273.195 6.623 1.613 8.963 1.446 2.39 3.973 3.502 7.955 3.502 3.98 0 6.508-1.112 7.956-3.502 1.416-2.34 1.611-5.69 1.611-8.963 0-6.003-.739-11.866-9.567-11.866m0 20.028c-2.368 0-2.913-1.594-2.913-8.53 0-5 .276-7.193 2.913-7.193 2.637 0 2.913 2.193 2.913 7.194 0 6.935-.545 8.529-2.913 8.529m31.403-.842V14.405h-6.655V30.6c0 2.106-.4 3.51-2.36 3.51-1.417 0-2.36-.597-2.36-3.51V14.405h-6.655v18.726c0 1.548.614 2.864 1.774 3.804 1.068.865 2.526 1.341 4.11 1.341 1.3 0 2.321-.207 3.21-.65.864-.39 1.611-1.08 2.281-2.107v2.297h6.894l-.009-.087a50.59 50.59 0 0 1-.23-4.598m16.06-16.1c-.9-1.963-2.792-3.086-5.216-3.086-6.942 0-6.942 6.753-6.942 11.683l-.002.655c-.008 3.465-.018 7.392 2.138 9.553 1.112 1.117 2.67 1.658 4.76 1.658 2.185 0 3.977-.964 4.939-2.65v4.434c0 2.44-.822 3.786-2.313 3.786-.972 0-1.697-.306-2.101-.889-.361-.481-.536-1.234-.536-2.299v-.08h-6.52l.002.082c.065 2.665.994 4.51 2.836 5.643 1.47.903 3.552 1.342 6.363 1.342 3.786 0 6.414-1.132 7.809-3.364 1.116-1.788 1.115-3.781 1.115-4.633v-24.46h-6.332v2.624zm-2.913 16.297c-.673 0-1.224-.214-1.64-.635-1.139-1.152-1.112-3.65-1.093-5.304.003-.201.004-.39.004-.564 0-7.247.467-8.714 2.775-8.714 2.372 0 2.544 2.997 2.544 7.932 0 5.037-.374 7.285-2.59 7.285m42.313 3.608c-.118-1.163-.242-2.367-.242-3.527V21.806c0-3.803-.725-7.86-9.384-7.86-2.746 0-4.75.502-6.125 1.533-1.635 1.139-2.43 3.012-2.43 5.73v.08h6.516v-.08c0-1.826.182-3.465 2.362-3.465 2.352 0 2.543 1.506 2.543 3.326v1.714c-.395-.006-.79-.01-1.183-.01-5.22 0-10.79.619-10.79 8.01 0 6.52 3.917 7.492 6.251 7.492 2.752 0 4.694-1.113 6.102-3.503l.272 3.043h6.196l-.008-.088c-.026-.263-.052-.527-.08-.792m-7.898-3.59c-.495.508-1.169.764-2.004.764-.994 0-2.315-.374-2.315-3.602 0-3.737 1.906-3.8 4.79-3.897.219-.008.441-.015.667-.025.002.26.01.545.017.848.045 1.95.107 4.62-1.155 5.912m21.782-9.877c-2.244-.994-4.182-1.853-4.182-3.319 0-1.552.756-2.406 2.13-2.406.58 0 1.176.059 1.603.486.428.384.62 1.288.62 2.933v.08h6.512l.005-.074c.143-1.974-.367-3.603-1.519-4.844-1.426-1.534-3.779-2.38-6.623-2.38-2.412 0-4.612.496-6.193 1.398-2.025 1.153-3.052 2.91-3.052 5.22 0 4.137 3.522 5.66 6.628 7.002 2.572 1.111 4.794 2.073 4.794 4.231 0 1.6-1.163 2.314-2.315 2.314-1.207 0-1.909-.327-2.275-1.057-.27-.618-.37-1.5-.315-2.772l.003-.085h-6.516l-.004.077c-.15 2.636.37 4.543 1.587 5.832 1.418 1.501 3.752 2.171 7.566 2.171 5.255 0 8.786-2.88 8.786-7.17 0-4.432-4.015-6.208-7.24-7.637M216.57 37.816h6.655v-33.4h-6.655v33.4z" fill="#697279"/></svg>
