<svg width="157" height="65" viewBox="0 0 157 65" xmlns="http://www.w3.org/2000/svg" xmlns:xlink="http://www.w3.org/1999/xlink"><title>Logo Luxaflex_CMYK</title><defs><path id="a" d="M.015.057h156.207V65H.015"/></defs><g fill="none" fill-rule="evenodd"><g><mask id="b" fill="#fff"><use xlink:href="#a"/></mask><path d="M26.535.057L0 65h129.687L156.222.057H26.535" fill="#1A1918" mask="url(#b)"/></g><path d="M57.15 40.414c-.345.85.566 1.026.566 1.026.91.208.325 1.146.312 1.193h-5.93l.342-.739.383-1.02s-1.708 2.46-5.507 1.902c-3.831-.562-2.097-3.659-1.96-4.067l2.26-5.214c.344-.85-.567-1.026-.567-1.026-.91-.208-.324-1.146-.264-1.233h6.216l-3.216 8.016s-.674 1.42.223 1.74c.897.318 2.891-.658 3.303-1.524l2.576-5.973c.345-.85-.566-1.026-.566-1.026-.91-.208-.324-1.146-.264-1.233h5.863l-3.77 9.178M120.938 31.236h6.859c-.258 1.211-.35 1-1.464 1.233 0 0-.682.213-.389 1.115l.819 1.975 2.704-2.082c1.06-.833.317-1.005.317-1.005-.717-.204-.244-1.136-.11-1.236h4.71c-.257 1.226-.348 1-1.463 1.233 0 0-.4-.016-2.606 1.87l-2.9 2.366 1.46 3.698c.363.944 1.03.98 1.03.98.875.208.313 1.146.255 1.233h-7.602c.257-1.211.348-1 1.463-1.233 0 0 .682-.213.39-1.114l-.82-1.976-2.503 2.11c-1.06.833-.316 1.006-.316 1.006.716.203.243 1.136.11 1.222h-4.71c.257-1.212.275-.931 1.215-1.166 0 0 .59.014 2.773-1.868l2.775-2.433-1.466-3.715c-.363-.944-1.03-.98-1.03-.98-.875-.208-.313-1.146-.255-1.233h5.768M63.615 31.236h6.858c-.257 1.211-.348 1-1.463 1.233 0 0-.682.213-.389 1.115l.819 1.975 2.704-2.082c1.06-.833.316-1.005.316-1.005-.716-.204-.243-1.136-.11-1.236h4.711c-.258 1.226-.348 1-1.463 1.233 0 0-.4-.016-2.607 1.87l-2.899 2.366 1.46 3.698c.363.944 1.03.98 1.03.98.875.208.313 1.146.255 1.233h-7.602c.257-1.211.348-1 1.463-1.233 0 0 .682-.213.39-1.114l-.82-1.976-2.503 2.11c-1.06.833-.316 1.006-.316 1.006.716.203.243 1.136.11 1.222h-4.71c.257-1.212.274-.931 1.215-1.166 0 0 .59.014 2.773-1.868l2.775-2.433-1.466-3.715c-.363-.944-1.031-.98-1.031-.98-.874-.208-.312-1.146-.254-1.233h5.767" fill="#FFF"/><path d="M112.155 33.058c.513-.557 1.3-.936 2.036-.936.716 0 1.088.242 1.117.726.028.484-.212 1.333-.722 2.548l-4.025-.001a8.919 8.919 0 0 1 1.594-2.337zm4.124 6.609c-.675.409-1.227.706-1.658.892-.814.356-2.336.89-3.086.89 0 0-3.606.233-1.643-4.891l8.471.002a6.88 6.88 0 0 0 .29-.965c.225-.897.267-1.627.126-2.192-.19-.746-.661-1.33-1.413-1.75-.752-.422-1.653-.633-2.702-.633-1.84 0-3.627.517-5.359 1.55-1.732 1.034-2.985 2.486-3.758 4.356-.855 2.068-.79 3.573.195 4.516.985.944 2.264 1.415 3.836 1.416 1.094 0 2.125-.154 3.097-.462 1.291-.415 2.582-1.11 3.873-2.08l-.27-.65zM102.23 40.357c-.345.85.566 1.026.566 1.026.91.208.325 1.146.264 1.233h-7.784a1.628 1.628 0 0 1 1.323-1.233s1.061-.175 1.447-1.026l7.096-17.39c.344-.85-.566-1.026-.566-1.026-.91-.208-.325-1.146-.265-1.233h5.96l-8.041 19.649M83.223 38.29c-1.493 3.49-3.98 3.174-3.98 3.174s-1.64-.031-.74-2.204c1.018-2.457 5.306-2.33 5.306-2.33l-.586 1.36zm-5.724-4.105c.554.387 1.27.387 1.27.387s.89.107 1.996-.44c1.107-.548.583-1.498.583-1.498l-.086-.126c.53-.271.923-.366 1.473-.366 1.411 0 2.123 1.046 1.59 2.337l-.56 1.386s-8.074-.992-9.79 3.299c-1.715 4.29 5.321 4.704 8.045 2.041 0 0 .293 2.107 2.856 1.537.861-.192 1.597-.403 2.545-1.281l-.209-.513c-.278.16-.473.257-.586.293a1.147 1.147 0 0 1-.348.053c-.14 0-.236-.062-.29-.185-.053-.123-.036-.272.051-.447 0 0 1.944-4.36 2.077-4.681 1.164-2.841-.3-4.955-4.225-4.955-2.452 0-4.007.425-4.978.9-2.672 1.315-1.414 2.26-1.414 2.26z" fill="#FFF"/><path d="M25.66 48.752c-2.412.96-4.838.81-4.838.81s-7.309-.162-7.304-2.796c.005-2.633 5.68-2.472 7.89-2.319 3.884.269 9.277 1.193 9.277 1.193s-2.004 1.908-5.026 3.112zm62.872 1.104l-50.397-6.714c4.984-4.598 10.537-18.515 10.537-18.515C49.86 22.16 55.24 6.797 66.21 6.797c.062-.001 4.32-.02 5.62 2.866.591 1.316.55 3.13-.25 5.09-3.046 7.454-10.481 9.157-13.86 9.477-.514.049-1.357.382-1.59.914l-.09.213c6.978 0 16.294-2.76 19.305-10.169.981-2.414 1.318-4.792-.46-6.944-2.425-2.938-8.468-2.864-8.691-2.859-8.437 0-12.857 3.318-12.857 3.318-5.88 3.547-10.252 13.937-10.252 13.937-3.32 7.881-6.093 14.966-9.666 19.753 0 0-2.653-.485-9.214-.955-7.957-.57-11.005 1.828-12.024 4.211-.887 2.074.506 5.362 8.078 5.362 8.628 0 14.471-4.84 14.471-4.84l51.65 7.739 2.152-4.054z" fill="#FFF"/><path d="M90.049 50.433c.02-.043.041-.083.06-.126l4.579-11.41 2.116-5.214c.369-.85 1.358-1.026 1.358-1.026l1.277-.188c1.015-.208 1.23-1.146 1.244-1.233h-2.837l4.6-11.239s2.542-6.511 8.288-6.511l.606-.007.007.064-.307.003c-1.437.146-2.682.997-3.117 2.06-.478 1.166.225 2.113 1.83 2.113a3.522 3.522 0 0 0 3.277-2.11c1.453-3.294-3.083-3.198-3.47-3.198-2.176 0-7.6-.205-11.13 7.433-.89 1.924-5.036 11.392-5.036 11.392h-3.108c-.06.087-.649 1.025.266 1.233l1.212.188s.91.176.566 1.026l-6.64 16.173-2.153 4.054c-1.835 2.578-3.82 3.598-5.34 3.97-1.013.247-2.027.29-2.507.945l-.199.257s6.901.806 11.881-4.622l2.677-4.027" fill="#FFF"/><path d="M87.221 54.311c1.77.227 4.641.582 9.284 1.138 10.95 1.311 24.554.453 35.283-9.763l.32-.29s-1.458-.123-2.609.691c-8.952 6.659-19.432 5.97-23.392 5.793-4.828-.214-11.927-1.051-16.203-1.596M138.645 9.783h.566c.643 0 1.189-.233 1.189-.837 0-.429-.312-.857-1.19-.857-.253 0-.428.02-.565.038v1.656zm0 2.708h-.78v-4.89c.41-.058.8-.116 1.384-.116.741 0 1.229.156 1.521.37.293.214.448.545.448 1.013 0 .643-.429 1.032-.955 1.188v.04c.429.077.721.467.819 1.188.117.76.234 1.052.312 1.207h-.819c-.117-.155-.234-.603-.331-1.246-.117-.624-.43-.858-1.053-.858h-.546v2.104zm.819-6.253c-1.93 0-3.509 1.656-3.509 3.701 0 2.085 1.58 3.721 3.529 3.721 1.949.02 3.508-1.636 3.508-3.701 0-2.065-1.56-3.721-3.508-3.721h-.02zm.02-.682c2.397 0 4.308 1.948 4.308 4.383 0 2.474-1.911 4.403-4.328 4.403-2.398 0-4.347-1.929-4.347-4.403 0-2.435 1.95-4.383 4.347-4.383h.02z" fill="#FFF"/></g></svg>
